<svg width="141" height="140" viewBox="0 0 141 140" fill="none" xmlns="http://www.w3.org/2000/svg">
<path fill-rule="evenodd" clip-rule="evenodd" d="M19.4926 43.3315C15.4615 43.5899 12.9395 44.6842 11.8344 46.4076C10.7293 48.1311 10.9377 50.6448 12.7048 53.9172C14.4524 57.1536 17.6232 60.9315 22.0027 65.0097C30.7533 73.1582 44.1969 82.3839 60.2622 90.7353C76.3276 99.0866 91.923 104.956 104.136 107.706C110.248 109.081 115.467 109.665 119.454 109.409C123.485 109.151 126.007 108.057 127.112 106.333C128.217 104.61 128.009 102.096 126.242 98.8237C124.494 95.5873 121.324 91.8094 116.944 87.7312C108.193 79.5827 94.7498 70.357 78.6845 62.0056C62.6191 53.6543 47.0237 47.7844 34.8108 45.0354C28.6985 43.6595 23.4793 43.076 19.4926 43.3315ZM35.2632 43.5716C47.6504 46.3599 63.3791 52.2888 79.5311 60.6853C95.6832 69.0817 109.25 78.3817 118.126 86.6465C122.559 90.775 125.855 94.6756 127.706 98.1033C129.538 101.495 130.059 104.631 128.504 107.057C126.949 109.482 123.671 110.644 119.493 110.911C115.271 111.182 109.871 110.562 103.683 109.169C91.2964 106.381 75.5677 100.452 59.4156 92.0556C43.2635 83.6592 29.6965 74.3591 20.821 66.0944C16.3875 61.9659 13.0914 58.0653 11.2405 54.6376C9.40905 51.2458 8.88736 48.1098 10.4427 45.6842C11.9981 43.2586 15.2753 42.0974 19.4534 41.8296C23.6757 41.559 29.0755 42.1788 35.2632 43.5716Z" fill="white" fill-opacity="0.5"/>
<path fill-rule="evenodd" clip-rule="evenodd" d="M127.062 48.4106C128.464 44.8731 128.361 42.3415 127.031 40.8024C125.701 39.2634 123 38.5515 118.847 38.9069C114.746 39.2578 109.493 40.6325 103.428 42.9314C91.3109 47.5248 76.1305 55.7404 60.7781 66.4984C45.4256 77.2563 32.8526 88.4884 24.9315 97.9366C20.9672 102.665 18.1971 106.913 16.8122 110.406C15.4097 113.944 15.513 116.475 16.8433 118.014C18.1736 119.553 20.8739 120.265 25.0269 119.91C29.1279 119.559 34.3814 118.184 40.4459 115.885C52.5633 111.292 67.7436 103.076 83.0961 92.3184C98.4485 81.5605 111.022 70.3284 118.943 60.8802C122.907 56.1516 125.677 51.9039 127.062 48.4106ZM120.261 61.7997C112.234 71.3742 99.5514 82.693 84.1218 93.5051C68.6921 104.317 53.3916 112.607 41.1121 117.262C34.9782 119.587 29.5543 121.022 25.2217 121.393C20.9411 121.759 17.4516 121.104 15.5588 118.914C13.666 116.725 13.818 113.518 15.2636 109.872C16.7267 106.182 19.6038 101.8 23.6135 97.0171C31.6405 87.4426 44.3227 76.1238 59.7524 65.3117C75.182 54.4997 90.4825 46.2101 102.762 41.5553C108.896 39.23 114.32 37.7948 118.652 37.4241C122.933 37.0578 126.422 37.7125 128.315 39.9024C130.208 42.0922 130.056 45.2986 128.611 48.9448C127.147 52.6353 124.27 57.0169 120.261 61.7997Z" fill="white" fill-opacity="0.5"/>
<path fill-rule="evenodd" clip-rule="evenodd" d="M85.5276 14.9596C83.7085 11.8021 81.6048 10.1783 79.3568 10.0036C77.4887 9.85833 75.4487 10.7039 73.2846 12.6211C71.1234 14.5357 68.9284 17.4444 66.7979 21.2113C62.5406 28.7389 58.6321 39.5299 55.7658 52.154C55.6694 52.5787 55.2326 52.8656 54.7902 52.7949C54.3479 52.7241 54.0674 52.3225 54.1639 51.8979C57.0504 39.1848 61.0028 28.235 65.3624 20.5266C67.5405 16.6755 69.8429 13.5926 72.1992 11.5051C74.5526 9.42035 77.0501 8.25376 79.5704 8.44969C82.6014 8.68532 85.0613 10.8383 86.9746 14.1595C88.8997 17.501 90.3695 22.1832 91.3539 27.8336C93.3243 39.1445 93.3796 54.5157 91.0751 71.2767C88.7707 88.0378 84.5347 103.075 79.5286 113.844C77.0278 119.223 74.3152 123.58 71.5217 126.555C68.7453 129.512 65.7517 131.241 62.7207 131.005C60.4847 130.831 58.5556 129.608 56.9393 127.66C55.3251 125.713 53.9728 122.987 52.8818 119.657C50.6984 112.993 49.5087 103.747 49.4733 93.0132C49.4719 92.5833 49.8378 92.2164 50.2905 92.1937C50.7432 92.1711 51.1114 92.5012 51.1128 92.9311C51.1479 103.581 52.3305 112.66 54.4493 119.127C55.5094 122.362 56.7907 124.903 58.2459 126.657C59.6992 128.41 61.2755 129.322 62.9344 129.451C65.1823 129.626 67.6833 128.36 70.323 125.549C72.9455 122.757 75.5704 118.574 78.0343 113.274C82.9576 102.683 87.1601 87.803 89.4496 71.1503C91.7391 54.4977 91.6739 39.2859 89.736 28.1619C88.7662 22.5949 87.3348 18.0967 85.5276 14.9596Z" fill="white" fill-opacity="0.5"/>
<path fill-rule="evenodd" clip-rule="evenodd" d="M137.053 82.4824C137.809 81.6603 138.098 80.9015 138.057 80.2058C137.989 79.062 136.989 77.7453 134.64 76.3539C132.341 74.9917 128.978 73.6997 124.713 72.5356C116.193 70.2107 105.652 68.4439 91.863 67.5746C91.863 67.5746 92.0531 66.515 92.06 66.012C105.909 66.8851 116.379 68.6624 125.043 71.027C129.37 72.2077 132.896 73.5468 135.383 75.0201C137.821 76.4642 139.506 78.1874 139.625 80.2058C139.699 81.4446 139.161 82.5745 138.239 83.5767C137.32 84.5761 135.972 85.5025 134.285 86.3612C130.909 88.0801 126.017 89.6061 120 90.8795C107.953 93.4291 91.2311 95 72.6834 95C54.1357 95 37.2283 93.4291 24.8801 90.8795C18.7125 89.6061 13.64 88.0801 10.0602 86.3612C8.27182 85.5025 6.8143 84.5761 5.7768 83.5767C4.73646 82.5745 4.06554 81.4446 3.9923 80.2058C3.87958 78.2989 5.19798 76.6574 7.23646 75.2733C9.31008 73.8654 12.3321 72.58 16.0969 71.4347C23.6376 69.1405 34.3381 67.3553 46.8773 66.3428C47.3069 66.3081 47.704 66.6294 47.7642 67.0603C47.8245 67.4913 47.525 67.8688 47.0953 67.9035C34.6133 68.9114 24.0325 70.6842 16.6354 72.9346C12.9313 74.0615 10.0704 75.295 8.17234 76.5838C6.23913 77.8964 5.49715 79.1293 5.56078 80.2058C5.60191 80.9015 5.98051 81.6603 6.83385 82.4824C7.69006 83.3071 8.97041 84.1404 10.6731 84.958C14.0755 86.5917 18.9982 88.0849 25.1109 89.347C37.3234 91.8686 54.1176 93.4342 72.5908 93.4343C91.0641 93.4343 107.673 91.8686 119.588 89.347C125.551 88.0849 130.297 86.5917 133.506 84.958C135.113 84.1404 136.294 83.3072 137.053 82.4824Z" fill="white" fill-opacity="0.5"/>
<g opacity="0.9" filter="url(#filter0_d_160_24647)">
<path d="M68.2575 116.514C93.5287 116.514 114.015 96.0278 114.015 70.7566C114.015 45.4854 93.5287 24.9991 68.2575 24.9991C42.9863 24.9991 22.5 45.4854 22.5 70.7566C22.5 96.0278 42.9863 116.514 68.2575 116.514Z" fill="url(#paint0_linear_160_24647)"/>
</g>
<path d="M92.3177 77.3114C90.4678 91.0649 77.8328 100.717 64.0966 98.869C50.3603 97.0214 40.7245 84.3743 42.5744 70.6208C44.4243 56.8674 58.6355 35.4968 72.3718 37.3443C86.108 39.1919 94.1676 63.558 92.3177 77.3114Z" fill="url(#paint1_linear_160_24647)"/>
<path d="M52.9215 67.1295C52.9215 84.3827 60.618 89.0882 60.618 89.0882L64.0965 91.0276C64.0965 91.0276 54.49 90.2637 50.5696 92.5726C44.6775 87.2059 41.4305 79.1253 42.5743 70.6218C44.4242 56.8684 58.6354 35.4977 72.3717 37.3453C68.9984 38.5048 52.9215 49.8763 52.9215 67.1295Z" fill="url(#paint2_linear_160_24647)"/>
<path fill-rule="evenodd" clip-rule="evenodd" d="M65.6015 85.9757C73.6361 87.0564 81.0256 81.419 82.1063 73.3844C83.1869 65.3497 77.5496 57.9603 69.515 56.8796C61.4803 55.7989 54.0909 61.4363 53.0102 69.4709C51.9295 77.5056 57.5668 84.895 65.6015 85.9757ZM65.3735 87.6706C74.3443 88.8772 82.5946 82.5831 83.8012 73.6124C85.0078 64.6416 78.7137 56.3913 69.7429 55.1847C60.7722 53.9781 52.5219 60.2722 51.3153 69.2429C50.1087 78.2137 56.4028 86.464 65.3735 87.6706Z" fill="#FAAD14"/>
<path d="M74.2661 68.1415C74.3496 65.9531 72.5824 64.9771 70.255 64.4531L70.4412 63.0692L68.6175 62.8239L68.442 64.1289C67.9629 64.0645 67.4716 64.0077 66.9831 63.9514L67.1613 62.627L65.3387 62.3818L65.1527 63.7652C64.7569 63.7197 62.3316 63.3913 62.3316 63.3913L62.1099 64.9984L63.6306 65.2117L62.2133 75.7495L60.692 75.5449L60.4652 77.1282C60.9071 77.1876 62.8723 77.4607 63.2981 77.5208L63.1144 78.8869L64.9369 79.132L65.1163 77.7983C65.6145 77.8764 66.0985 77.9459 66.5713 78.0089L66.3938 79.3285L68.218 79.5739L68.4009 78.2137C71.4914 78.4515 73.7427 77.9686 74.3966 75.1252C74.9249 72.8353 73.9737 71.6546 72.2894 70.9997C73.4199 70.6012 74.2087 69.7432 74.2673 68.1411L74.2661 68.1415ZM70.8391 74.2784C70.5344 76.5438 66.6911 75.7632 65.4536 75.5973L65.9938 71.5812C67.2306 71.7476 71.1547 71.9158 70.8375 74.2782L70.8391 74.2784ZM70.7549 68.4979C70.4777 70.5589 67.274 69.8819 66.2438 69.7433L66.7337 66.1004C67.7655 66.2398 71.0452 66.3483 70.7549 68.4979Z" fill="#FAAD14"/>
<defs>
<filter id="filter0_d_160_24647" x="19.1" y="24.5991" width="98.315" height="98.315" filterUnits="userSpaceOnUse" color-interpolation-filters="sRGB">
<feFlood flood-opacity="0" result="BackgroundImageFix"/>
<feColorMatrix in="SourceAlpha" type="matrix" values="0 0 0 0 0 0 0 0 0 0 0 0 0 0 0 0 0 0 127 0" result="hardAlpha"/>
<feOffset dy="3"/>
<feGaussianBlur stdDeviation="1.7"/>
<feComposite in2="hardAlpha" operator="out"/>
<feColorMatrix type="matrix" values="0 0 0 0 0.290196 0 0 0 0 0.333333 0 0 0 0 0.407843 0 0 0 1 0"/>
<feBlend mode="normal" in2="BackgroundImageFix" result="effect1_dropShadow_160_24647"/>
<feBlend mode="normal" in="SourceGraphic" in2="effect1_dropShadow_160_24647" result="shape"/>
</filter>
<linearGradient id="paint0_linear_160_24647" x1="25.2047" y1="28.6056" x2="124.384" y2="86.3096" gradientUnits="userSpaceOnUse">
<stop offset="0.234375" stop-color="#BC2DFF"/>
<stop offset="1" stop-color="#5700B1"/>
</linearGradient>
<linearGradient id="paint1_linear_160_24647" x1="72.3718" y1="37.3443" x2="64.0966" y2="98.8689" gradientUnits="userSpaceOnUse">
<stop offset="0.416667" stop-color="white"/>
<stop offset="1" stop-color="#E2E8F0"/>
</linearGradient>
<linearGradient id="paint2_linear_160_24647" x1="72.3717" y1="37.3453" x2="55.6663" y2="89.0882" gradientUnits="userSpaceOnUse">
<stop stop-color="#F6F7FA"/>
<stop offset="0.796875" stop-color="#E2E8F0"/>
<stop offset="0.984375" stop-color="#E2E8F0" stop-opacity="0"/>
</linearGradient>
</defs>
</svg>
