<svg width="433" height="226" viewBox="0 0 433 226" fill="none" xmlns="http://www.w3.org/2000/svg">
<g opacity="0.4">
<mask id="mask0_160_23633" style="mask-type:alpha" maskUnits="userSpaceOnUse" x="42" y="0" width="360" height="226">
<rect x="42.5564" y="1.23157" width="358.111" height="223.899" fill="#E2E8F0" stroke="url(#paint0_linear_160_23633)"/>
</mask>
<g mask="url(#mask0_160_23633)">
<path d="M504.767 423.542C485.679 377.243 446.79 304.485 320.737 338.754C160.325 382.365 200.776 497.074 78.044 444.156M475.915 410.179C456.828 363.88 417.939 291.122 291.885 325.392C131.473 369.002 171.924 483.712 49.1925 430.793M449.366 396.251C430.279 349.952 391.39 277.194 265.336 311.463C104.924 355.074 145.375 469.784 22.6434 416.865M425.783 381.698C406.695 335.399 367.806 262.641 241.753 296.91C81.3408 340.521 121.792 455.23 -0.939879 402.312M405.911 366.519C386.824 320.22 347.934 247.462 221.881 281.732C61.469 325.342 101.92 440.052 -20.8117 387.133M390.555 350.749C371.468 304.45 332.579 231.692 206.526 265.961C46.1136 309.572 86.5644 424.281 -36.1671 371.363M380.245 334.563C361.157 288.264 322.268 215.506 196.215 249.776C35.8029 293.386 76.2537 408.096 -46.4778 355.177M375.037 318.152C355.949 271.853 317.06 199.095 191.007 233.365C30.5947 276.975 71.0456 391.685 -51.686 338.766M374.387 301.731C355.3 255.432 316.411 182.674 190.357 216.944C29.945 260.554 70.3959 375.264 -52.3357 322.345M377.341 285.388C358.254 239.088 319.365 166.331 193.312 200.6C32.8996 244.21 73.3505 358.92 -49.3811 306.001M382.842 269.181C363.755 222.882 324.866 150.124 198.812 184.394C38.4002 228.004 78.851 342.714 -43.8805 289.795M389.9 253.063C370.813 206.763 331.924 134.006 205.871 168.275C45.4585 211.885 85.9094 326.595 -36.8222 273.677M397.722 237.018C378.635 190.719 339.746 117.961 213.692 152.23C53.2803 195.841 93.7311 310.55 -29.0004 257.632M405.666 220.976C386.578 174.677 347.689 101.919 221.636 136.189C61.2238 179.799 101.675 294.509 -21.0569 241.59M413.264 204.909C394.177 158.61 355.288 85.8524 229.235 120.122C68.8226 163.732 109.273 278.442 -13.4581 225.523M420.178 188.791C401.091 142.492 362.202 69.7344 236.149 104.004C75.7366 147.614 116.187 262.324 -6.5441 209.405M426.147 172.618C407.059 126.319 368.17 53.5611 242.117 87.8305C81.7047 131.441 122.156 246.15 -0.576034 193.232M430.999 156.366C411.911 110.066 373.022 37.3086 246.969 71.578C86.5568 115.188 127.008 229.898 4.27607 176.979M434.692 139.964C415.605 93.6642 376.716 20.9065 250.662 55.1759C90.25 98.7861 130.701 213.496 7.96933 160.577M437.572 123.62C418.485 77.3202 379.596 4.56257 253.542 38.8319C93.1304 82.4421 133.581 197.152 10.8497 144.233M439.795 107.257C420.708 60.9579 381.819 -11.7997 255.766 22.4696C95.3536 66.0798 135.804 180.79 13.0729 127.871M441.253 90.8736C422.165 44.5742 383.276 -28.1835 257.223 6.08589C96.8108 49.6961 137.262 164.406 14.5301 111.487M441.827 74.4564C422.739 28.157 383.85 -44.6007 257.797 -10.3313C97.3848 33.2789 137.836 147.989 15.1041 95.0701M441.379 58.0332C422.292 11.7338 383.403 -61.0238 257.349 -26.7545C96.9373 16.8557 137.388 131.566 14.6566 78.6469M439.715 41.6037C420.628 -4.69572 381.739 -77.4534 255.685 -43.184C95.2731 0.426192 135.724 115.136 12.9924 62.2174M436.569 25.1625C417.482 -21.1369 378.593 -93.8945 252.539 -59.6251C92.1272 -16.0149 132.578 98.6949 9.84648 45.7763M431.571 8.75415C412.484 -37.5452 373.595 -110.303 247.541 -76.0335C87.1295 -32.4233 127.58 82.2865 4.84877 29.3679M424.209 -7.58702C405.122 -53.8864 366.233 -126.644 240.179 -92.3747C79.7671 -48.7645 120.218 65.9454 -2.51362 13.0267M413.697 -23.7688C394.609 -70.0681 355.72 -142.826 229.667 -108.556C69.2547 -64.9462 109.706 49.7636 -13.026 -3.155M399.603 -39.5271C380.516 -85.8265 341.627 -158.584 215.573 -124.315C55.1615 -80.7045 95.6123 34.0053 -27.1192 -18.9133" stroke="url(#paint1_linear_160_23633)"/>
</g>
</g>
<g style="mix-blend-mode:multiply">
<path d="M102.655 66.5266C102.655 92.3555 81.716 113.294 55.8871 113.294C30.0581 113.294 9.11963 92.3555 9.11963 66.5266C9.11963 40.6977 30.0581 19.7592 55.8871 19.7592C81.716 19.7592 102.655 40.6977 102.655 66.5266Z" fill="#E2E8F010"/>
</g>
<path d="M92.4329 60.2423C92.4329 85.6914 71.8024 106.322 46.3532 106.322C20.9041 106.322 0.27356 85.6914 0.27356 60.2423C0.27356 34.7932 20.9041 14.1626 46.3532 14.1626C71.8024 14.1626 92.4329 34.7932 92.4329 60.2423Z" fill="#161A1F"/>
<path fill-rule="evenodd" clip-rule="evenodd" d="M46.513 101.817C69.3856 101.817 87.9275 83.2747 87.9275 60.4021C87.9275 37.5295 69.3856 18.9876 46.513 18.9876C23.6404 18.9876 5.09855 37.5295 5.09855 60.4021C5.09855 83.2747 23.6404 101.817 46.513 101.817ZM46.513 106.642C72.0504 106.642 92.7525 85.9394 92.7525 60.4021C92.7525 34.8647 72.0504 14.1626 46.513 14.1626C20.9757 14.1626 0.27356 34.8647 0.27356 60.4021C0.27356 85.9394 20.9757 106.642 46.513 106.642Z" fill="#FAAD14"/>
<path d="M63.8558 49.8773C63.2662 43.7268 57.9578 41.6622 51.253 41.0726V37.1328H46.0616V40.8478C44.6976 40.8478 43.3027 40.874 41.9156 40.9001V37.1298H36.7273V41.0679C35.6034 41.0895 28.6985 41.0833 28.6985 41.0833L28.6831 45.6604L33.0154 45.6851V75.6833H28.6846L28.6461 80.1958C29.9039 80.1958 35.5018 80.2204 36.7149 80.2281V84.117H41.9033V80.3205C43.3258 80.3512 44.7053 80.3636 46.0508 80.362V84.1185H51.2438V80.2466C59.9746 79.7493 66.0882 77.5523 66.8472 69.3557C67.463 62.7541 64.3593 59.8105 59.4034 58.6127C62.4148 57.0732 64.2977 54.3774 63.8589 49.8757L63.8558 49.8773ZM56.5814 68.3258C56.5814 74.775 45.5412 74.0375 42.0187 74.0391V62.6063C45.5397 62.6063 56.5753 61.601 56.5768 68.3258H56.5814ZM54.172 52.1943C54.172 58.0616 44.9593 57.3734 42.0264 57.3734V47.0029C44.9639 47.0045 54.1751 46.0746 54.172 52.1943Z" fill="#FAAD14"/>
<path fill-rule="evenodd" clip-rule="evenodd" d="M432.336 120.196V120.994L432.32 132.967V136.809H407.237C406.413 135.487 405.53 134.205 404.593 132.967H407.535V119.068C404.324 118.376 401.129 117.567 397.918 116.631V125.704C397.192 125.051 396.447 124.419 395.685 123.807V116.003C392.676 115.031 389.667 113.966 386.658 112.81V117.998C385.933 117.632 385.199 117.283 384.455 116.951V111.937C384.455 111.937 378.623 109.489 375.661 108.063V113.946C374.912 113.765 374.157 113.599 373.397 113.451V106.978C370.398 105.495 367.394 103.902 364.385 102.199V112.5C364.073 112.494 363.76 112.492 363.447 112.492C363.024 112.492 362.603 112.497 362.182 112.507V100.922L362.151 100.911C362.151 100.911 356.242 97.3567 353.031 95.2282V113.544C352.281 113.698 351.537 113.868 350.798 114.054L350.782 93.7382C347.515 91.5245 344.237 89.176 340.949 86.6927V117.645C340.21 118.004 339.481 118.38 338.762 118.772V85.0006C335.763 82.6734 332.764 80.2433 329.766 77.7103C329.582 77.8611 329.374 77.9968 329.145 78.1148V125.552C327.161 127.321 325.315 129.24 323.624 131.293V78.3489C323.358 78.239 323.113 78.1067 322.895 77.9551C319.793 80.6371 316.691 83.2126 313.589 85.6498V132.967H322.301C321.364 134.205 320.481 135.487 319.657 136.809H118.98V159.957H127.124C128.228 159.957 129.124 160.852 129.124 161.957V165.023C129.124 166.128 128.228 167.023 127.124 167.023H105.19C104.086 167.023 103.19 166.128 103.19 165.023V161.957C103.19 160.852 104.086 159.957 105.19 159.957H113.35V136.809L10.8881 136.979V121.643V120.196C36.8834 120.196 63.4527 111.064 90.2081 93.0251L90.4563 92.8655C94.3959 90.2261 98.3355 87.3881 102.275 84.3514L103.035 83.766C105.961 81.4956 108.888 79.1187 111.814 76.6354C111.623 76.2954 111.518 75.9355 111.504 75.5712C111.504 74.699 112.009 73.8625 112.908 73.2458C113.806 72.6291 115.025 72.2826 116.297 72.2826C117.568 72.2826 118.787 72.6291 119.686 73.2458C120.584 73.8625 121.089 74.699 121.089 75.5712C121.084 75.9333 120.995 76.2926 120.826 76.6354C124.052 79.3812 127.273 81.9922 130.489 84.4684L131.047 84.8835C161.726 108.351 192.359 120.196 222.046 120.196H222.729C248.197 120.068 273.804 111.245 299.241 93.9085L299.583 93.685C303.553 91.0137 307.415 88.1295 311.308 85.0538L311.929 84.5642C315.124 82.0313 318.335 79.3387 321.53 76.529C321.38 76.22 321.301 75.8968 321.297 75.5712C321.26 75.1243 321.356 74.6769 321.58 74.2564C321.804 73.836 322.15 73.4513 322.598 73.1259C323.046 72.8005 323.586 72.5413 324.185 72.3641C324.784 72.187 325.43 72.0956 326.082 72.0956C326.734 72.0956 327.38 72.187 327.979 72.3641C328.578 72.5413 329.118 72.8005 329.566 73.1259C330.014 73.4513 330.361 73.836 330.584 74.2564C330.808 74.6769 330.904 75.1243 330.867 75.5712C330.864 75.7639 330.838 75.9561 330.789 76.1459C333.943 78.8136 337.071 81.3679 340.173 83.8086L340.933 84.3939C344.883 87.4164 348.828 90.2545 352.768 92.9081L353 93.0677C371.737 105.679 390.489 113.927 408.962 117.737L409.753 117.908C413.116 118.575 416.535 119.105 419.99 119.493L420.812 119.568C424.625 119.972 428.477 120.182 432.336 120.196ZM13.106 133.105H22.4123V121.154C19.3283 121.463 16.2212 121.651 13.106 121.718V133.105ZM24.6458 133.105H33.4712V119.525C30.5663 120.091 27.6206 120.553 24.6458 120.909V133.105ZM35.7047 133.105H45.3211V116.631C42.1053 117.546 38.8998 118.358 35.7047 119.068V133.105ZM47.5546 133.105H56.5816V112.746C53.5519 113.938 50.5429 115.002 47.5546 115.939V133.105ZM58.7996 133.105H67.6095V108.063C64.616 109.489 61.6225 110.788 58.6445 111.99H58.7996V133.105ZM69.8275 133.105H78.839V102.199C75.83 103.902 72.8365 105.498 69.8275 106.978V133.105ZM81.0725 133.105H90.2081L90.1461 95.3239C86.9354 97.4525 81.0725 100.986 81.0725 100.986V133.105ZM92.4416 133.105H102.275V86.6927C99.0077 89.176 95.7298 91.5245 92.4416 93.7382V133.105ZM104.509 85.0006V133.105L113.365 132.967V78.168L113.117 78.0296C110.253 80.4561 107.383 82.7798 104.509 85.0006ZM118.98 132.967H128.767L128.844 85.4476C125.742 83.092 122.64 80.6087 119.538 77.9977C119.366 78.1154 119.18 78.2223 118.98 78.317V132.967ZM131.047 132.967H140.834L140.88 94.1958C137.592 91.9963 134.314 89.6656 131.047 87.2036V132.967ZM152.203 132.967V101.284L152.25 101.273C152.25 101.273 146.495 97.8462 143.052 95.6326V132.967H152.203ZM154.483 132.967H163.479V107.286C160.486 105.818 157.477 104.242 154.483 102.55V132.967ZM174.507 132.967V112.193V112.182C174.507 112.182 169.094 109.915 165.713 108.361V132.967H174.507ZM176.74 132.967H185.768V116.152C182.758 115.236 179.749 114.193 176.74 113.044V132.967ZM188.001 132.967H197.617V119.195C194.355 118.513 191.146 117.717 188.001 116.811V132.967ZM199.851 132.967H208.676V120.994C205.703 120.645 202.758 120.194 199.851 119.642V132.967ZM210.972 132.967H219.937L219.999 121.771C216.978 121.717 213.965 121.546 210.972 121.26V132.967ZM222.155 132.967H231.461L231.446 121.367C228.557 121.604 225.653 121.735 222.744 121.76H222.155V132.967ZM233.695 132.967H242.52V119.951C239.61 120.457 236.664 120.861 233.695 121.164V132.967ZM244.784 132.967H254.401V117.237C251.257 118.116 248.047 118.88 244.784 119.525V132.967ZM256.634 132.967H265.661V113.565C262.652 114.694 259.643 115.705 256.634 116.599V132.967ZM267.879 132.967H276.689V108.893C273.711 110.291 270.733 111.575 267.755 112.746H267.879V132.967ZM278.907 132.967H287.919V103.082C284.92 104.785 281.916 106.371 278.907 107.84V132.967ZM290.075 132.967H299.288L299.179 96.0796C296.031 98.1762 290.075 101.784 290.075 101.784V132.967ZM301.521 132.967H311.355V87.3952C308.087 89.921 304.81 92.3121 301.521 94.5683V132.967ZM409.768 132.967H418.594V120.909C415.619 120.554 412.673 120.092 409.768 119.525V132.967ZM420.812 132.967H430.118V121.718C427.003 121.652 423.896 121.463 420.812 121.154V132.967Z" fill="#718096"/>
<g style="mix-blend-mode:multiply">
<path d="M415.753 173.817C415.753 198.97 395.362 219.361 370.209 219.361C345.055 219.361 324.665 198.97 324.665 173.817C324.665 148.663 345.055 128.273 370.209 128.273C395.362 128.273 415.753 148.663 415.753 173.817Z" fill="#E2E8F010"/>
</g>
<path d="M406.982 165.588C406.982 189.262 387.79 208.453 364.117 208.453C340.443 208.453 321.252 189.262 321.252 165.588C321.252 141.915 340.443 122.724 364.117 122.724C387.79 122.724 406.982 141.915 406.982 165.588Z" fill="#161A1F"/>
<path fill-rule="evenodd" clip-rule="evenodd" d="M363.08 206.954C385.758 206.954 404.143 188.57 404.143 165.891C404.143 143.213 385.758 124.828 363.08 124.828C340.402 124.828 322.017 143.213 322.017 165.891C322.017 188.57 340.402 206.954 363.08 206.954ZM363.08 211.738C388.401 211.738 408.927 191.212 408.927 165.891C408.927 140.571 388.401 120.044 363.08 120.044C337.759 120.044 317.233 140.571 317.233 165.891C317.233 191.212 337.759 211.738 363.08 211.738Z" fill="url(#paint2_linear_160_23633)"/>
<path d="M353.683 162.076H346.849V168.91H353.683V162.076Z" fill="url(#paint3_linear_160_23633)"/>
<path d="M346.849 155.242H340.015V162.077L346.849 162.076L346.849 155.242Z" fill="url(#paint4_linear_160_23633)"/>
<path d="M340.015 162.077L333.18 162.076V168.91H340.015L340.015 162.077Z" fill="url(#paint5_linear_160_23633)"/>
<path d="M346.849 168.91H340.015L340.015 175.744H346.849L346.849 168.91Z" fill="url(#paint6_linear_160_23633)"/>
<path d="M385.389 156.739C384.915 151.73 380.65 150.048 375.263 149.568V146.359H371.092V149.385C369.996 149.385 368.876 149.406 367.761 149.427V146.356H363.593V149.564C362.69 149.582 357.142 149.577 357.142 149.577L357.13 153.305L360.611 153.325V177.758H357.131L357.1 181.433C358.111 181.433 362.608 181.454 363.583 181.46V184.627H367.751V181.535C368.894 181.56 370.003 181.57 371.084 181.569V184.629H375.256V181.475C382.271 181.07 387.183 179.28 387.792 172.604C388.287 167.227 385.793 164.83 381.812 163.854C384.231 162.6 385.744 160.404 385.391 156.738L385.389 156.739ZM379.544 171.765C379.544 177.018 370.674 176.418 367.844 176.419V167.107C370.673 167.107 379.539 166.288 379.541 171.765H379.544ZM377.609 158.626C377.609 163.405 370.207 162.845 367.85 162.845V154.398C370.21 154.399 377.611 153.642 377.609 158.626Z" fill="url(#paint7_linear_160_23633)"/>
<defs>
<linearGradient id="paint0_linear_160_23633" x1="52.67" y1="9.59466" x2="332.274" y2="269.354" gradientUnits="userSpaceOnUse">
<stop stop-color="#BD30FF"/>
<stop offset="1" stop-color="#7D00FF"/>
</linearGradient>
<linearGradient id="paint1_linear_160_23633" x1="-35.8704" y1="-109.904" x2="585.405" y2="230.818" gradientUnits="userSpaceOnUse">
<stop stop-color="#BD30FF"/>
<stop offset="1" stop-color="#7D00FF"/>
</linearGradient>
<linearGradient id="paint2_linear_160_23633" x1="319.943" y1="123.658" x2="419.316" y2="181.475" gradientUnits="userSpaceOnUse">
<stop stop-color="#BD30FF"/>
<stop offset="1" stop-color="#7D00FF"/>
</linearGradient>
<linearGradient id="paint3_linear_160_23633" x1="334.796" y1="147.865" x2="381.702" y2="186.852" gradientUnits="userSpaceOnUse">
<stop stop-color="#BD30FF"/>
<stop offset="1" stop-color="#7D00FF"/>
</linearGradient>
<linearGradient id="paint4_linear_160_23633" x1="334.796" y1="147.865" x2="381.702" y2="186.852" gradientUnits="userSpaceOnUse">
<stop stop-color="#BD30FF"/>
<stop offset="1" stop-color="#7D00FF"/>
</linearGradient>
<linearGradient id="paint5_linear_160_23633" x1="334.796" y1="147.865" x2="381.702" y2="186.852" gradientUnits="userSpaceOnUse">
<stop stop-color="#BD30FF"/>
<stop offset="1" stop-color="#7D00FF"/>
</linearGradient>
<linearGradient id="paint6_linear_160_23633" x1="334.796" y1="147.865" x2="381.702" y2="186.852" gradientUnits="userSpaceOnUse">
<stop stop-color="#BD30FF"/>
<stop offset="1" stop-color="#7D00FF"/>
</linearGradient>
<linearGradient id="paint7_linear_160_23633" x1="334.796" y1="147.865" x2="381.702" y2="186.852" gradientUnits="userSpaceOnUse">
<stop stop-color="#BD30FF"/>
<stop offset="1" stop-color="#7D00FF"/>
</linearGradient>
</defs>
</svg>
