<svg width="268" height="315" viewBox="0 0 268 315" fill="none" xmlns="http://www.w3.org/2000/svg">
<path d="M42.5334 25.6584C32.8685 25.6584 25.0334 33.4935 25.0334 43.1585V284.552C25.0334 294.217 32.8685 302.052 42.5335 302.052H230.145C239.81 302.052 247.645 294.217 247.645 284.552V103.33C247.645 98.6401 245.762 94.1465 242.42 90.8569L181.278 30.6855C178.004 27.464 173.596 25.6584 169.003 25.6584H42.5334Z" fill="#1D2229" stroke="#1D2229" stroke-width="3"/>
<path d="M26.8469 7.7312C17.1819 7.7312 9.34692 15.5662 9.34692 25.2312V266.625C9.34692 276.29 17.182 284.125 26.8469 284.125H214.458C224.123 284.125 231.958 276.29 231.958 266.625V85.4026C231.958 80.7128 230.076 76.2192 226.733 72.9297L165.591 12.7582C162.318 9.53672 157.909 7.7312 153.316 7.7312H26.8469Z" fill="#1D2229" stroke="#1D2229" stroke-width="3"/>
<rect x="38.2382" y="123.243" width="159.618" height="10.2047" rx="3.5" fill="url(#paint0_linear_160_23751)" stroke="#1D2229"/>
<rect x="38.2382" y="152.375" width="159.618" height="10.2047" rx="3.5" fill="url(#paint1_linear_160_23751)" stroke="#1D2229"/>
<rect x="38.2382" y="94.1113" width="95.0628" height="10.2047" rx="3.5" fill="url(#paint2_linear_160_23751)" stroke="#1D2229"/>
<mask id="path-6-outside-1_160_23751" maskUnits="userSpaceOnUse" x="36.7382" y="196.104" width="145" height="38" fill="black">
<rect fill="white" x="36.7382" y="196.104" width="145" height="38"/>
<path d="M42.5009 232.959C41.1855 232.959 40.0573 232.499 39.1161 231.581C38.1863 230.651 37.727 229.523 37.7384 228.196C37.727 226.903 38.1863 225.798 39.1161 224.879C40.0573 223.961 41.1855 223.502 42.5009 223.502C43.7482 223.502 44.8481 223.961 45.8006 224.879C46.7645 225.798 47.2521 226.903 47.2634 228.196C47.2521 229.081 47.0196 229.886 46.566 230.611C46.1238 231.326 45.5455 231.898 44.8311 232.329C44.1167 232.749 43.34 232.959 42.5009 232.959Z"/>
<path d="M66.5856 197.58H75.9065V221.461C75.8952 223.728 75.3225 225.724 74.1886 227.448C73.066 229.16 71.5125 230.498 69.5282 231.462C67.5551 232.414 65.2816 232.891 62.7075 232.891C60.4737 232.891 58.4326 232.505 56.5843 231.734C54.736 230.952 53.2619 229.727 52.162 228.06C51.0621 226.382 50.5178 224.205 50.5291 221.529H59.9861C60.0201 222.402 60.1675 223.139 60.4283 223.74C60.7005 224.341 61.0747 224.794 61.5509 225.101C62.0385 225.395 62.6282 225.543 63.3199 225.543C64.0229 225.543 64.6126 225.39 65.0888 225.084C65.5764 224.777 65.9449 224.324 66.1944 223.723C66.4439 223.11 66.5743 222.356 66.5856 221.461V197.58Z"/>
<path d="M99.1663 208.466C99.0756 207.332 98.6504 206.447 97.8906 205.812C97.1422 205.177 96.0026 204.86 94.4718 204.86C93.4966 204.86 92.6972 204.979 92.0736 205.217C91.4612 205.444 91.0077 205.756 90.7128 206.153C90.418 206.549 90.2649 207.003 90.2536 207.513C90.2309 207.933 90.3046 208.313 90.4747 208.653C90.6561 208.982 90.9396 209.282 91.3252 209.554C91.7107 209.815 92.204 210.053 92.8049 210.269C93.4059 210.484 94.1203 210.677 94.9481 210.847L97.8056 211.459C99.7333 211.868 101.383 212.406 102.755 213.075C104.127 213.744 105.25 214.532 106.123 215.439C106.996 216.335 107.637 217.344 108.045 218.467C108.465 219.59 108.68 220.814 108.691 222.141C108.68 224.432 108.107 226.371 106.973 227.958C105.839 229.546 104.218 230.753 102.109 231.581C100.011 232.409 97.4881 232.823 94.5399 232.823C91.5123 232.823 88.8702 232.375 86.6137 231.479C84.3685 230.583 82.6222 229.205 81.3749 227.346C80.1389 225.475 79.5153 223.082 79.5039 220.168H88.4847C88.5414 221.234 88.8078 222.13 89.2841 222.855C89.7603 223.581 90.4294 224.131 91.2911 224.505C92.1643 224.879 93.2018 225.067 94.4038 225.067C95.413 225.067 96.2578 224.942 96.9381 224.692C97.6185 224.443 98.1344 224.097 98.4859 223.655C98.8375 223.213 99.0189 222.708 99.0302 222.141C99.0189 221.608 98.8431 221.143 98.5029 220.746C98.1741 220.338 97.6298 219.975 96.8701 219.658C96.1103 219.329 95.0841 219.023 93.7915 218.739L90.3216 217.991C87.2373 217.322 84.805 216.205 83.0248 214.64C81.2558 213.064 80.377 210.915 80.3884 208.194C80.377 205.982 80.9667 204.049 82.1573 202.394C83.3593 200.727 85.0205 199.428 87.1409 198.498C89.2727 197.569 91.7164 197.104 94.4718 197.104C97.284 197.104 99.7163 197.574 101.769 198.516C103.821 199.457 105.403 200.783 106.514 202.496C107.637 204.197 108.204 206.187 108.215 208.466H99.1663Z"/>
<path d="M146.035 214.997C146.035 218.875 145.28 222.147 143.772 224.811C142.264 227.465 140.229 229.478 137.666 230.85C135.103 232.21 132.246 232.891 129.094 232.891C125.919 232.891 123.05 232.205 120.487 230.833C117.936 229.449 115.906 227.431 114.398 224.777C112.901 222.113 112.153 218.853 112.153 214.997C112.153 211.119 112.901 207.853 114.398 205.2C115.906 202.535 117.936 200.523 120.487 199.162C123.05 197.79 125.919 197.104 129.094 197.104C132.246 197.104 135.103 197.79 137.666 199.162C140.229 200.523 142.264 202.535 143.772 205.2C145.28 207.853 146.035 211.119 146.035 214.997ZM136.305 214.997C136.305 212.911 136.028 211.153 135.472 209.724C134.928 208.284 134.117 207.196 133.04 206.459C131.974 205.71 130.658 205.336 129.094 205.336C127.529 205.336 126.208 205.71 125.131 206.459C124.065 207.196 123.254 208.284 122.698 209.724C122.154 211.153 121.882 212.911 121.882 214.997C121.882 217.084 122.154 218.847 122.698 220.287C123.254 221.716 124.065 222.804 125.131 223.553C126.208 224.29 127.529 224.658 129.094 224.658C130.658 224.658 131.974 224.29 133.04 223.553C134.117 222.804 134.928 221.716 135.472 220.287C136.028 218.847 136.305 217.084 136.305 214.997Z"/>
<path d="M180.55 197.58V232.414H172.658L160.071 214.113H159.867V232.414H150.41V197.58H158.438L170.821 215.814H171.093V197.58H180.55Z"/>
</mask>
<path d="M42.5009 232.959C41.1855 232.959 40.0573 232.499 39.1161 231.581C38.1863 230.651 37.727 229.523 37.7384 228.196C37.727 226.903 38.1863 225.798 39.1161 224.879C40.0573 223.961 41.1855 223.502 42.5009 223.502C43.7482 223.502 44.8481 223.961 45.8006 224.879C46.7645 225.798 47.2521 226.903 47.2634 228.196C47.2521 229.081 47.0196 229.886 46.566 230.611C46.1238 231.326 45.5455 231.898 44.8311 232.329C44.1167 232.749 43.34 232.959 42.5009 232.959Z" fill="url(#paint3_linear_160_23751)"/>
<path d="M66.5856 197.58H75.9065V221.461C75.8952 223.728 75.3225 225.724 74.1886 227.448C73.066 229.16 71.5125 230.498 69.5282 231.462C67.5551 232.414 65.2816 232.891 62.7075 232.891C60.4737 232.891 58.4326 232.505 56.5843 231.734C54.736 230.952 53.2619 229.727 52.162 228.06C51.0621 226.382 50.5178 224.205 50.5291 221.529H59.9861C60.0201 222.402 60.1675 223.139 60.4283 223.74C60.7005 224.341 61.0747 224.794 61.5509 225.101C62.0385 225.395 62.6282 225.543 63.3199 225.543C64.0229 225.543 64.6126 225.39 65.0888 225.084C65.5764 224.777 65.9449 224.324 66.1944 223.723C66.4439 223.11 66.5743 222.356 66.5856 221.461V197.58Z" fill="url(#paint4_linear_160_23751)"/>
<path d="M99.1663 208.466C99.0756 207.332 98.6504 206.447 97.8906 205.812C97.1422 205.177 96.0026 204.86 94.4718 204.86C93.4966 204.86 92.6972 204.979 92.0736 205.217C91.4612 205.444 91.0077 205.756 90.7128 206.153C90.418 206.549 90.2649 207.003 90.2536 207.513C90.2309 207.933 90.3046 208.313 90.4747 208.653C90.6561 208.982 90.9396 209.282 91.3252 209.554C91.7107 209.815 92.204 210.053 92.8049 210.269C93.4059 210.484 94.1203 210.677 94.9481 210.847L97.8056 211.459C99.7333 211.868 101.383 212.406 102.755 213.075C104.127 213.744 105.25 214.532 106.123 215.439C106.996 216.335 107.637 217.344 108.045 218.467C108.465 219.59 108.68 220.814 108.691 222.141C108.68 224.432 108.107 226.371 106.973 227.958C105.839 229.546 104.218 230.753 102.109 231.581C100.011 232.409 97.4881 232.823 94.5399 232.823C91.5123 232.823 88.8702 232.375 86.6137 231.479C84.3685 230.583 82.6222 229.205 81.3749 227.346C80.1389 225.475 79.5153 223.082 79.5039 220.168H88.4847C88.5414 221.234 88.8078 222.13 89.2841 222.855C89.7603 223.581 90.4294 224.131 91.2911 224.505C92.1643 224.879 93.2018 225.067 94.4038 225.067C95.413 225.067 96.2578 224.942 96.9381 224.692C97.6185 224.443 98.1344 224.097 98.4859 223.655C98.8375 223.213 99.0189 222.708 99.0302 222.141C99.0189 221.608 98.8431 221.143 98.5029 220.746C98.1741 220.338 97.6298 219.975 96.8701 219.658C96.1103 219.329 95.0841 219.023 93.7915 218.739L90.3216 217.991C87.2373 217.322 84.805 216.205 83.0248 214.64C81.2558 213.064 80.377 210.915 80.3884 208.194C80.377 205.982 80.9667 204.049 82.1573 202.394C83.3593 200.727 85.0205 199.428 87.1409 198.498C89.2727 197.569 91.7164 197.104 94.4718 197.104C97.284 197.104 99.7163 197.574 101.769 198.516C103.821 199.457 105.403 200.783 106.514 202.496C107.637 204.197 108.204 206.187 108.215 208.466H99.1663Z" fill="url(#paint5_linear_160_23751)"/>
<path d="M146.035 214.997C146.035 218.875 145.28 222.147 143.772 224.811C142.264 227.465 140.229 229.478 137.666 230.85C135.103 232.21 132.246 232.891 129.094 232.891C125.919 232.891 123.05 232.205 120.487 230.833C117.936 229.449 115.906 227.431 114.398 224.777C112.901 222.113 112.153 218.853 112.153 214.997C112.153 211.119 112.901 207.853 114.398 205.2C115.906 202.535 117.936 200.523 120.487 199.162C123.05 197.79 125.919 197.104 129.094 197.104C132.246 197.104 135.103 197.79 137.666 199.162C140.229 200.523 142.264 202.535 143.772 205.2C145.28 207.853 146.035 211.119 146.035 214.997ZM136.305 214.997C136.305 212.911 136.028 211.153 135.472 209.724C134.928 208.284 134.117 207.196 133.04 206.459C131.974 205.71 130.658 205.336 129.094 205.336C127.529 205.336 126.208 205.71 125.131 206.459C124.065 207.196 123.254 208.284 122.698 209.724C122.154 211.153 121.882 212.911 121.882 214.997C121.882 217.084 122.154 218.847 122.698 220.287C123.254 221.716 124.065 222.804 125.131 223.553C126.208 224.29 127.529 224.658 129.094 224.658C130.658 224.658 131.974 224.29 133.04 223.553C134.117 222.804 134.928 221.716 135.472 220.287C136.028 218.847 136.305 217.084 136.305 214.997Z" fill="url(#paint6_linear_160_23751)"/>
<path d="M180.55 197.58V232.414H172.658L160.071 214.113H159.867V232.414H150.41V197.58H158.438L170.821 215.814H171.093V197.58H180.55Z" fill="url(#paint7_linear_160_23751)"/>
<path d="M42.5009 232.959C41.1855 232.959 40.0573 232.499 39.1161 231.581C38.1863 230.651 37.727 229.523 37.7384 228.196C37.727 226.903 38.1863 225.798 39.1161 224.879C40.0573 223.961 41.1855 223.502 42.5009 223.502C43.7482 223.502 44.8481 223.961 45.8006 224.879C46.7645 225.798 47.2521 226.903 47.2634 228.196C47.2521 229.081 47.0196 229.886 46.566 230.611C46.1238 231.326 45.5455 231.898 44.8311 232.329C44.1167 232.749 43.34 232.959 42.5009 232.959Z" stroke="#1D2229" stroke-width="2" mask="url(#path-6-outside-1_160_23751)"/>
<path d="M66.5856 197.58H75.9065V221.461C75.8952 223.728 75.3225 225.724 74.1886 227.448C73.066 229.16 71.5125 230.498 69.5282 231.462C67.5551 232.414 65.2816 232.891 62.7075 232.891C60.4737 232.891 58.4326 232.505 56.5843 231.734C54.736 230.952 53.2619 229.727 52.162 228.06C51.0621 226.382 50.5178 224.205 50.5291 221.529H59.9861C60.0201 222.402 60.1675 223.139 60.4283 223.74C60.7005 224.341 61.0747 224.794 61.5509 225.101C62.0385 225.395 62.6282 225.543 63.3199 225.543C64.0229 225.543 64.6126 225.39 65.0888 225.084C65.5764 224.777 65.9449 224.324 66.1944 223.723C66.4439 223.11 66.5743 222.356 66.5856 221.461V197.58Z" stroke="#1D2229" stroke-width="2" mask="url(#path-6-outside-1_160_23751)"/>
<path d="M99.1663 208.466C99.0756 207.332 98.6504 206.447 97.8906 205.812C97.1422 205.177 96.0026 204.86 94.4718 204.86C93.4966 204.86 92.6972 204.979 92.0736 205.217C91.4612 205.444 91.0077 205.756 90.7128 206.153C90.418 206.549 90.2649 207.003 90.2536 207.513C90.2309 207.933 90.3046 208.313 90.4747 208.653C90.6561 208.982 90.9396 209.282 91.3252 209.554C91.7107 209.815 92.204 210.053 92.8049 210.269C93.4059 210.484 94.1203 210.677 94.9481 210.847L97.8056 211.459C99.7333 211.868 101.383 212.406 102.755 213.075C104.127 213.744 105.25 214.532 106.123 215.439C106.996 216.335 107.637 217.344 108.045 218.467C108.465 219.59 108.68 220.814 108.691 222.141C108.68 224.432 108.107 226.371 106.973 227.958C105.839 229.546 104.218 230.753 102.109 231.581C100.011 232.409 97.4881 232.823 94.5399 232.823C91.5123 232.823 88.8702 232.375 86.6137 231.479C84.3685 230.583 82.6222 229.205 81.3749 227.346C80.1389 225.475 79.5153 223.082 79.5039 220.168H88.4847C88.5414 221.234 88.8078 222.13 89.2841 222.855C89.7603 223.581 90.4294 224.131 91.2911 224.505C92.1643 224.879 93.2018 225.067 94.4038 225.067C95.413 225.067 96.2578 224.942 96.9381 224.692C97.6185 224.443 98.1344 224.097 98.4859 223.655C98.8375 223.213 99.0189 222.708 99.0302 222.141C99.0189 221.608 98.8431 221.143 98.5029 220.746C98.1741 220.338 97.6298 219.975 96.8701 219.658C96.1103 219.329 95.0841 219.023 93.7915 218.739L90.3216 217.991C87.2373 217.322 84.805 216.205 83.0248 214.64C81.2558 213.064 80.377 210.915 80.3884 208.194C80.377 205.982 80.9667 204.049 82.1573 202.394C83.3593 200.727 85.0205 199.428 87.1409 198.498C89.2727 197.569 91.7164 197.104 94.4718 197.104C97.284 197.104 99.7163 197.574 101.769 198.516C103.821 199.457 105.403 200.783 106.514 202.496C107.637 204.197 108.204 206.187 108.215 208.466H99.1663Z" stroke="#1D2229" stroke-width="2" mask="url(#path-6-outside-1_160_23751)"/>
<path d="M146.035 214.997C146.035 218.875 145.28 222.147 143.772 224.811C142.264 227.465 140.229 229.478 137.666 230.85C135.103 232.21 132.246 232.891 129.094 232.891C125.919 232.891 123.05 232.205 120.487 230.833C117.936 229.449 115.906 227.431 114.398 224.777C112.901 222.113 112.153 218.853 112.153 214.997C112.153 211.119 112.901 207.853 114.398 205.2C115.906 202.535 117.936 200.523 120.487 199.162C123.05 197.79 125.919 197.104 129.094 197.104C132.246 197.104 135.103 197.79 137.666 199.162C140.229 200.523 142.264 202.535 143.772 205.2C145.28 207.853 146.035 211.119 146.035 214.997ZM136.305 214.997C136.305 212.911 136.028 211.153 135.472 209.724C134.928 208.284 134.117 207.196 133.04 206.459C131.974 205.71 130.658 205.336 129.094 205.336C127.529 205.336 126.208 205.71 125.131 206.459C124.065 207.196 123.254 208.284 122.698 209.724C122.154 211.153 121.882 212.911 121.882 214.997C121.882 217.084 122.154 218.847 122.698 220.287C123.254 221.716 124.065 222.804 125.131 223.553C126.208 224.29 127.529 224.658 129.094 224.658C130.658 224.658 131.974 224.29 133.04 223.553C134.117 222.804 134.928 221.716 135.472 220.287C136.028 218.847 136.305 217.084 136.305 214.997Z" stroke="#1D2229" stroke-width="2" mask="url(#path-6-outside-1_160_23751)"/>
<path d="M180.55 197.58V232.414H172.658L160.071 214.113H159.867V232.414H150.41V197.58H158.438L170.821 215.814H171.093V197.58H180.55Z" stroke="#1D2229" stroke-width="2" mask="url(#path-6-outside-1_160_23751)"/>
<mask id="path-7-outside-2_160_23751" maskUnits="userSpaceOnUse" x="0.684692" y="0.448975" width="233" height="288" fill="black">
<rect fill="white" x="0.684692" y="0.448975" width="233" height="288"/>
<path fill-rule="evenodd" clip-rule="evenodd" d="M229.631 226.709V76.0007C229.644 73.651 228.732 71.3379 227.005 69.611L164.469 7.07466C164.329 6.93446 164.185 6.79963 164.037 6.67024C162.354 5.195 160.207 4.42586 158.031 4.4495H49.5033C24.7507 4.4495 4.68469 24.5155 4.68469 49.2681V239.207C4.68469 263.959 24.7507 284.025 49.5033 284.025H179.957C179.34 281.126 178.988 278.13 178.927 275.062H49.5033C29.7012 275.062 13.6484 259.009 13.6484 239.207V49.2681C13.6484 29.466 29.7012 13.4132 49.5033 13.4132H149.167V40.0943C149.167 64.847 169.233 84.913 193.986 84.913H220.667L220.667 226.945C222.549 226.718 224.465 226.602 226.409 226.602C227.492 226.602 228.566 226.638 229.631 226.709ZM158.131 40.0943C158.131 59.8965 174.183 75.9493 193.986 75.9493H220.667L158.131 13.4132V40.0943Z"/>
</mask>
<path fill-rule="evenodd" clip-rule="evenodd" d="M229.631 226.709V76.0007C229.644 73.651 228.732 71.3379 227.005 69.611L164.469 7.07466C164.329 6.93446 164.185 6.79963 164.037 6.67024C162.354 5.195 160.207 4.42586 158.031 4.4495H49.5033C24.7507 4.4495 4.68469 24.5155 4.68469 49.2681V239.207C4.68469 263.959 24.7507 284.025 49.5033 284.025H179.957C179.34 281.126 178.988 278.13 178.927 275.062H49.5033C29.7012 275.062 13.6484 259.009 13.6484 239.207V49.2681C13.6484 29.466 29.7012 13.4132 49.5033 13.4132H149.167V40.0943C149.167 64.847 169.233 84.913 193.986 84.913H220.667L220.667 226.945C222.549 226.718 224.465 226.602 226.409 226.602C227.492 226.602 228.566 226.638 229.631 226.709ZM158.131 40.0943C158.131 59.8965 174.183 75.9493 193.986 75.9493H220.667L158.131 13.4132V40.0943Z" fill="url(#paint8_linear_160_23751)"/>
<path d="M229.631 76.0007L225.631 75.9787C225.631 75.986 225.631 75.9934 225.631 76.0007H229.631ZM229.631 226.709L229.363 230.7C230.468 230.774 231.554 230.387 232.363 229.631C233.172 228.874 233.631 227.817 233.631 226.709H229.631ZM227.005 69.611L224.177 72.4394H224.177L227.005 69.611ZM164.469 7.07466L167.297 4.24623V4.24623L164.469 7.07466ZM164.037 6.67024L166.674 3.66213L166.674 3.66212L164.037 6.67024ZM158.031 4.4495V8.4495C158.046 8.4495 158.06 8.44942 158.075 8.44927L158.031 4.4495ZM179.957 284.025V288.025C181.164 288.025 182.306 287.48 183.066 286.542C183.825 285.604 184.121 284.373 183.869 283.193L179.957 284.025ZM178.927 275.062L182.926 274.982C182.882 272.804 181.105 271.062 178.927 271.062V275.062ZM149.167 13.4132H153.167C153.167 11.2041 151.376 9.41324 149.167 9.41324V13.4132ZM220.667 84.913H224.667C224.667 82.7039 222.876 80.913 220.667 80.913V84.913ZM220.667 226.945H216.667C216.667 228.089 217.157 229.179 218.013 229.938C218.869 230.697 220.01 231.053 221.146 230.917L220.667 226.945ZM220.667 75.9493V79.9493C222.285 79.9493 223.743 78.9747 224.362 77.48C224.982 75.9853 224.639 74.2648 223.495 73.1208L220.667 75.9493ZM158.131 13.4132L160.959 10.5848C159.815 9.44081 158.095 9.09859 156.6 9.71772C155.105 10.3368 154.131 11.7954 154.131 13.4132H158.131ZM225.631 76.0007V226.709H233.631V76.0007H225.631ZM224.177 72.4394C225.132 73.3949 225.638 74.6748 225.631 75.9787L233.631 76.0228C233.649 72.6272 232.332 69.2808 229.834 66.7825L224.177 72.4394ZM161.641 9.90308L224.177 72.4394L229.834 66.7825L167.297 4.24623L161.641 9.90308ZM161.401 9.67836C161.482 9.75009 161.562 9.825 161.641 9.90309L167.297 4.24623C167.095 4.04392 166.887 3.84918 166.674 3.66213L161.401 9.67836ZM158.075 8.44927C159.282 8.43615 160.471 8.86325 161.401 9.67837L166.674 3.66212C164.237 1.52675 161.132 0.415569 157.988 0.44974L158.075 8.44927ZM49.5033 8.4495H158.031V0.449503H49.5033V8.4495ZM8.68469 49.2681C8.68469 26.7246 26.9598 8.4495 49.5033 8.4495V0.449503C22.5416 0.449503 0.684692 22.3063 0.684692 49.2681H8.68469ZM8.68469 239.207V49.2681H0.684692V239.207H8.68469ZM49.5033 280.025C26.9598 280.025 8.68469 261.75 8.68469 239.207H0.684692C0.684692 266.168 22.5415 288.025 49.5033 288.025V280.025ZM179.957 280.025H49.5033V288.025H179.957V280.025ZM183.869 283.193C183.305 280.54 182.982 277.795 182.926 274.982L174.927 275.142C174.994 278.464 175.375 281.713 176.045 284.858L183.869 283.193ZM49.5033 279.062H178.927V271.062H49.5033V279.062ZM9.64842 239.207C9.64842 261.218 27.4921 279.062 49.5033 279.062V271.062C31.9103 271.062 17.6484 256.8 17.6484 239.207H9.64842ZM9.64842 49.2681V239.207H17.6484V49.2681H9.64842ZM49.5033 9.41324C27.4921 9.41324 9.64842 27.2569 9.64842 49.2681H17.6484C17.6484 31.6751 31.9104 17.4132 49.5033 17.4132V9.41324ZM149.167 9.41324H49.5033V17.4132H149.167V9.41324ZM153.167 40.0943V13.4132H145.167V40.0943H153.167ZM193.986 80.913C171.442 80.913 153.167 62.6379 153.167 40.0943H145.167C145.167 67.0561 167.024 88.913 193.986 88.913V80.913ZM220.667 80.913H193.986V88.913H220.667V80.913ZM224.667 226.945L224.667 84.913H216.667L216.667 226.945H224.667ZM221.146 230.917C222.869 230.709 224.626 230.602 226.409 230.602V222.602C224.305 222.602 222.229 222.728 220.188 222.974L221.146 230.917ZM226.409 230.602C227.402 230.602 228.388 230.635 229.363 230.7L229.898 222.718C228.744 222.641 227.581 222.602 226.409 222.602V230.602ZM193.986 71.9493C176.393 71.9493 162.131 57.6873 162.131 40.0943H154.131C154.131 62.1056 171.974 79.9493 193.986 79.9493V71.9493ZM220.667 71.9493H193.986V79.9493H220.667V71.9493ZM155.302 16.2417L217.839 78.7777L223.495 73.1208L160.959 10.5848L155.302 16.2417ZM162.131 40.0943V13.4132H154.131V40.0943H162.131Z" fill="#1D2229" mask="url(#path-7-outside-2_160_23751)"/>
<circle cx="225.718" cy="273.403" r="38.5968" fill="#7D00FF" stroke="#1D2229" stroke-width="6"/>
<path fill-rule="evenodd" clip-rule="evenodd" d="M228.429 282.24V252.023H223.007V282.239L209.452 269.199L205.618 272.888L225.718 292.224L245.819 272.888L241.985 269.199L228.429 282.24Z" fill="#1D2229"/>
<defs>
<linearGradient id="paint0_linear_160_23751" x1="42.4853" y1="123.185" x2="45.7873" y2="150.725" gradientUnits="userSpaceOnUse">
<stop stop-color="#BD30FF"/>
<stop offset="1" stop-color="#7D00FF"/>
</linearGradient>
<linearGradient id="paint1_linear_160_23751" x1="42.4853" y1="152.317" x2="45.7873" y2="179.857" gradientUnits="userSpaceOnUse">
<stop stop-color="#BD30FF"/>
<stop offset="1" stop-color="#7D00FF"/>
</linearGradient>
<linearGradient id="paint2_linear_160_23751" x1="40.5773" y1="94.0529" x2="45.9613" y2="120.909" gradientUnits="userSpaceOnUse">
<stop stop-color="#BD30FF"/>
<stop offset="1" stop-color="#7D00FF"/>
</linearGradient>
<linearGradient id="paint3_linear_160_23751" x1="41.959" y1="198.517" x2="74.4788" y2="273.878" gradientUnits="userSpaceOnUse">
<stop stop-color="#BD30FF"/>
<stop offset="1" stop-color="#7D00FF"/>
</linearGradient>
<linearGradient id="paint4_linear_160_23751" x1="41.959" y1="198.517" x2="74.4788" y2="273.878" gradientUnits="userSpaceOnUse">
<stop stop-color="#BD30FF"/>
<stop offset="1" stop-color="#7D00FF"/>
</linearGradient>
<linearGradient id="paint5_linear_160_23751" x1="41.959" y1="198.517" x2="74.4788" y2="273.878" gradientUnits="userSpaceOnUse">
<stop stop-color="#BD30FF"/>
<stop offset="1" stop-color="#7D00FF"/>
</linearGradient>
<linearGradient id="paint6_linear_160_23751" x1="41.959" y1="198.517" x2="74.4788" y2="273.878" gradientUnits="userSpaceOnUse">
<stop stop-color="#BD30FF"/>
<stop offset="1" stop-color="#7D00FF"/>
</linearGradient>
<linearGradient id="paint7_linear_160_23751" x1="41.959" y1="198.517" x2="74.4788" y2="273.878" gradientUnits="userSpaceOnUse">
<stop stop-color="#BD30FF"/>
<stop offset="1" stop-color="#7D00FF"/>
</linearGradient>
<linearGradient id="paint8_linear_160_23751" x1="11.333" y1="15.4668" x2="278.986" y2="140.763" gradientUnits="userSpaceOnUse">
<stop stop-color="#BD30FF"/>
<stop offset="1" stop-color="#7D00FF"/>
</linearGradient>
</defs>
</svg>
