<svg width="371" height="357" viewBox="0 0 371 357" fill="none" xmlns="http://www.w3.org/2000/svg">
<g style="mix-blend-mode:multiply">
<path d="M236.235 121.484C236.235 180.968 188.014 229.189 128.53 229.189C69.0468 229.189 20.8257 180.968 20.8257 121.484C20.8257 62.0004 69.0468 13.7794 128.53 13.7794C188.014 13.7794 236.235 62.0004 236.235 121.484Z" fill="#1D2229"/>
</g>
<path d="M212.696 107.011C212.696 165.62 165.184 213.132 106.575 213.132C47.966 213.132 0.454102 165.62 0.454102 107.011C0.454102 48.4024 47.966 0.890503 106.575 0.890503C165.184 0.890503 212.696 48.4024 212.696 107.011Z" fill="#1D2229"/>
<path fill-rule="evenodd" clip-rule="evenodd" d="M106.943 202.756C159.618 202.756 202.32 160.055 202.32 107.379C202.32 54.7041 159.618 12.0024 106.943 12.0024C54.2677 12.0024 11.566 54.7041 11.566 107.379C11.566 160.055 54.2677 202.756 106.943 202.756ZM106.943 213.868C165.755 213.868 213.432 166.191 213.432 107.379C213.432 48.5672 165.755 0.890503 106.943 0.890503C48.1308 0.890503 0.454102 48.5672 0.454102 107.379C0.454102 166.191 48.1308 213.868 106.943 213.868Z" fill="#FAAD14"/>
<path d="M146.883 83.1409C145.525 68.9763 133.3 64.2217 117.859 62.8637V53.7906H105.903V62.3461C102.762 62.3461 99.5492 62.4063 96.3547 62.4666V53.7835H84.406V62.8531C81.8178 62.9027 65.9158 62.8885 65.9158 62.8885L65.8804 73.4295L75.8577 73.4863V142.572H65.8839L65.7953 152.964C68.692 152.964 81.5838 153.021 84.3777 153.038V161.994H96.3263V153.251C99.6024 153.322 102.779 153.35 105.878 153.347V161.998H117.837V153.081C137.944 151.936 152.024 146.876 153.772 127.999C155.19 112.796 148.042 106.017 136.629 103.258C143.564 99.7129 147.9 93.5046 146.89 83.1373L146.883 83.1409ZM130.13 125.627C130.13 140.48 104.705 138.782 96.5922 138.785V112.456C104.701 112.456 130.116 110.14 130.119 125.627H130.13ZM124.581 88.4769C124.581 101.989 103.364 100.404 96.6099 100.404V76.5213C103.375 76.5248 124.588 74.3833 124.581 88.4769Z" fill="#FAAD14"/>
<path d="M370.288 247.987C370.288 307.65 321.922 356.017 262.258 356.017C202.595 356.017 154.229 307.65 154.229 247.987C154.229 188.324 202.595 139.957 262.258 139.957C321.922 139.957 370.288 188.324 370.288 247.987Z" fill="#1D2229"/>
<path d="M349.484 228.47C349.484 284.624 303.962 330.145 247.809 330.145C191.655 330.145 146.133 284.624 146.133 228.47C146.133 172.317 191.655 126.795 247.809 126.795C303.962 126.795 349.484 172.317 349.484 228.47Z" fill="#1D2229"/>
<path fill-rule="evenodd" clip-rule="evenodd" d="M245.35 326.59C299.143 326.59 342.75 282.982 342.75 229.189C342.75 175.396 299.143 131.788 245.35 131.788C191.557 131.788 147.949 175.396 147.949 229.189C147.949 282.982 191.557 326.59 245.35 326.59ZM245.35 337.937C305.41 337.937 354.098 289.249 354.098 229.189C354.098 169.129 305.41 120.44 245.35 120.44C185.29 120.44 136.601 169.129 136.601 229.189C136.601 289.249 185.29 337.937 245.35 337.937Z" fill="url(#paint0_linear_160_23541)"/>
<path d="M223.06 220.138H206.849V236.349H223.06V220.138Z" fill="url(#paint1_linear_160_23541)"/>
<path d="M206.849 203.929H190.638V220.14L206.849 220.138L206.849 203.929Z" fill="url(#paint2_linear_160_23541)"/>
<path d="M190.638 220.14L174.427 220.138V236.349H190.638L190.638 220.14Z" fill="url(#paint3_linear_160_23541)"/>
<path d="M206.849 236.349H190.638L190.638 252.56H206.849L206.849 236.349Z" fill="url(#paint4_linear_160_23541)"/>
<path d="M298.265 207.48C297.142 195.597 287.025 191.608 274.248 190.469V182.858H264.354V190.035C261.755 190.035 259.096 190.085 256.453 190.136V182.852H246.565V190.46C244.423 190.502 231.264 190.49 231.264 190.49L231.235 199.333L239.491 199.38V257.336H231.238L231.165 266.054C233.562 266.054 244.23 266.102 246.542 266.117V273.63H256.429V266.295C259.14 266.355 261.769 266.378 264.334 266.375V273.633H274.23V266.152C290.869 265.192 302.52 260.947 303.966 245.111C305.14 232.357 299.225 226.67 289.78 224.356C295.519 221.382 299.107 216.174 298.271 207.477L298.265 207.48ZM284.402 243.122C284.402 255.581 263.362 254.157 256.649 254.16V232.072C263.359 232.072 284.39 230.129 284.393 243.122H284.402ZM279.81 211.956C279.81 223.291 262.253 221.962 256.664 221.962V201.926C262.262 201.929 279.816 200.133 279.81 211.956Z" fill="url(#paint5_linear_160_23541)"/>
<defs>
<linearGradient id="paint0_linear_160_23541" x1="143.029" y1="129.012" x2="378.74" y2="266.153" gradientUnits="userSpaceOnUse">
<stop stop-color="#BD30FF"/>
<stop offset="1" stop-color="#7D00FF"/>
</linearGradient>
<linearGradient id="paint1_linear_160_23541" x1="178.26" y1="186.429" x2="289.521" y2="278.906" gradientUnits="userSpaceOnUse">
<stop stop-color="#BD30FF"/>
<stop offset="1" stop-color="#7D00FF"/>
</linearGradient>
<linearGradient id="paint2_linear_160_23541" x1="178.26" y1="186.429" x2="289.521" y2="278.906" gradientUnits="userSpaceOnUse">
<stop stop-color="#BD30FF"/>
<stop offset="1" stop-color="#7D00FF"/>
</linearGradient>
<linearGradient id="paint3_linear_160_23541" x1="178.26" y1="186.429" x2="289.521" y2="278.906" gradientUnits="userSpaceOnUse">
<stop stop-color="#BD30FF"/>
<stop offset="1" stop-color="#7D00FF"/>
</linearGradient>
<linearGradient id="paint4_linear_160_23541" x1="178.26" y1="186.429" x2="289.521" y2="278.906" gradientUnits="userSpaceOnUse">
<stop stop-color="#BD30FF"/>
<stop offset="1" stop-color="#7D00FF"/>
</linearGradient>
<linearGradient id="paint5_linear_160_23541" x1="178.26" y1="186.429" x2="289.521" y2="278.906" gradientUnits="userSpaceOnUse">
<stop stop-color="#BD30FF"/>
<stop offset="1" stop-color="#7D00FF"/>
</linearGradient>
</defs>
</svg>
