<svg width="65" height="63" viewBox="0 0 65 63" fill="none" xmlns="http://www.w3.org/2000/svg">
<path d="M64.5376 32.9429C64.5376 49.1735 51.4459 62.331 35.2964 62.331C19.1469 62.331 6.05518 49.1735 6.05518 32.9429C6.05518 16.7122 19.1469 3.55469 35.2964 3.55469C51.4459 3.55469 64.5376 16.7122 64.5376 32.9429Z" fill="#323A47"/>
<path d="M58.5709 29.7478C58.5709 45.5708 45.8079 58.3979 30.064 58.3979C14.3201 58.3979 1.55713 45.5708 1.55713 29.7478C1.55713 13.9248 14.3201 1.09766 30.064 1.09766C45.8079 1.09766 58.5709 13.9248 58.5709 29.7478Z" fill="#1D2229"/>
<path fill-rule="evenodd" clip-rule="evenodd" d="M29.7026 55.7058C44.167 55.7058 55.8926 43.9213 55.8926 29.3843C55.8926 14.8473 44.167 3.06268 29.7026 3.06268C15.2383 3.06268 3.51268 14.8473 3.51268 29.3843C3.51268 43.9213 15.2383 55.7058 29.7026 55.7058ZM29.7026 58.7724C45.8521 58.7724 58.9439 45.6149 58.9439 29.3843C58.9439 13.1536 45.8521 -0.00390625 29.7026 -0.00390625C13.5532 -0.00390625 0.461426 13.1536 0.461426 29.3843C0.461426 45.6149 13.5532 58.7724 29.7026 58.7724Z" fill="#FAAD14"/>
<path d="M40.669 22.6956C40.2961 18.7866 36.9391 17.4744 32.6991 17.0997V14.5957H29.4162V16.9568C28.5536 16.9568 27.6715 16.9734 26.7943 16.9901V14.5938H23.5132V17.0967C22.8025 17.1104 18.4359 17.1065 18.4359 17.1065L18.4262 20.0155L21.1659 20.0312V39.097H18.4272L18.4028 41.965C19.1983 41.965 22.7383 41.9806 23.5055 41.9855V44.4572H26.7865V42.0442C27.6861 42.0638 28.5584 42.0716 29.4093 42.0706V44.4582H32.6933V41.9973C38.2146 41.6812 42.0807 40.2849 42.5607 35.0754C42.9501 30.8797 40.9874 29.0088 37.8533 28.2476C39.7577 27.2691 40.9484 25.5557 40.6709 22.6946L40.669 22.6956ZM36.0687 34.4208C36.0687 38.5197 29.0871 38.051 26.8595 38.052V30.7858C29.0861 30.7858 36.0648 30.1468 36.0658 34.4208H36.0687ZM34.5451 24.1682C34.5451 27.8973 28.7191 27.4599 26.8644 27.4599V20.8688C28.722 20.8698 34.547 20.2788 34.5451 24.1682Z" fill="#FAAD14"/>
</svg>
