<svg width="1120" height="445" viewBox="0 0 1120 445" fill="none" xmlns="http://www.w3.org/2000/svg">
<g clip-path="url(#clip0_183_18057)">
<g clip-path="url(#clip1_183_18057)">
<rect width="1549" height="712" transform="translate(-214.5 -39)" fill="#1D2229"/>
<path d="M-205.5 395.023L320.252 491.338" stroke="#B1BCCC" stroke-opacity="0.1" stroke-linecap="round" stroke-linejoin="round"/>
<path d="M320.254 446.235L-205.498 253.034" stroke="#B1BCCC" stroke-opacity="0.1" stroke-linecap="round" stroke-linejoin="round"/>
<path d="M380.784 446.235L-205.498 159.497" stroke="#B1BCCC" stroke-opacity="0.1" stroke-linecap="round" stroke-linejoin="round"/>
<path d="M625.592 446.235L949.391 -30" stroke="#B1BCCC" stroke-opacity="0.1" stroke-linecap="round" stroke-linejoin="round"/>
<path d="M441.99 446.235L-205.498 -28.6328" stroke="#B1BCCC" stroke-opacity="0.1" stroke-linecap="round" stroke-linejoin="round"/>
<path d="M503.193 446.235L178.223 -30" stroke="#B1BCCC" stroke-opacity="0.1" stroke-linecap="round" stroke-linejoin="round"/>
<path d="M564.497 -29.9995V446.236" stroke="#B1BCCC" stroke-opacity="0.1" stroke-linecap="round" stroke-linejoin="round"/>
<path d="M747.994 446.235L1334.5 159.047" stroke="#B1BCCC" stroke-opacity="0.1" stroke-linecap="round" stroke-linejoin="round"/>
<path d="M686.795 446.235L1334.5 -29.6475" stroke="#B1BCCC" stroke-opacity="0.1" stroke-linecap="round" stroke-linejoin="round"/>
<path d="M808.402 446.362L1334.5 253.033" stroke="#B1BCCC" stroke-opacity="0.1" stroke-linecap="round" stroke-linejoin="round"/>
<path d="M1334.5 394.891L808.402 491.361" stroke="#B1BCCC" stroke-opacity="0.1" stroke-linecap="round" stroke-linejoin="round"/>
<path fill-rule="evenodd" clip-rule="evenodd" d="M-125.713 789.621H1254.71V282.357H-125.713V789.621Z" stroke="#B1BCCC" stroke-opacity="0.1" stroke-linecap="round" stroke-linejoin="round"/>
<path fill-rule="evenodd" clip-rule="evenodd" d="M-59.7832 765.395H1188.73V306.58H-59.7832V765.395Z" stroke="#B1BCCC" stroke-opacity="0.1" stroke-linecap="round" stroke-linejoin="round"/>
<path fill-rule="evenodd" clip-rule="evenodd" d="M-4.45312 745.063H1133.36V326.915H-4.45312V745.063Z" stroke="#B1BCCC" stroke-opacity="0.1" stroke-linecap="round" stroke-linejoin="round"/>
<path fill-rule="evenodd" clip-rule="evenodd" d="M41.8652 728.044H1087V343.937H41.8652V728.044Z" stroke="#B1BCCC" stroke-opacity="0.1" stroke-linecap="round" stroke-linejoin="round"/>
<path fill-rule="evenodd" clip-rule="evenodd" d="M81.2168 713.583H1047.62V358.399H81.2168V713.583Z" stroke="#B1BCCC" stroke-opacity="0.1" stroke-linecap="round" stroke-linejoin="round"/>
<path fill-rule="evenodd" clip-rule="evenodd" d="M115.051 701.146H1013.76V370.826H115.051V701.146Z" stroke="#B1BCCC" stroke-opacity="0.1" stroke-linecap="round" stroke-linejoin="round"/>
<path fill-rule="evenodd" clip-rule="evenodd" d="M144.459 690.342H984.334V381.636H144.459V690.342Z" stroke="#B1BCCC" stroke-opacity="0.1" stroke-linecap="round" stroke-linejoin="round"/>
<path fill-rule="evenodd" clip-rule="evenodd" d="M170.258 680.86H958.516V391.114H170.258V680.86Z" stroke="#B1BCCC" stroke-opacity="0.1" stroke-linecap="round" stroke-linejoin="round"/>
<path fill-rule="evenodd" clip-rule="evenodd" d="M193.074 672.483H935.692V399.498H193.074V672.483Z" stroke="#B1BCCC" stroke-opacity="0.1" stroke-linecap="round" stroke-linejoin="round"/>
<path fill-rule="evenodd" clip-rule="evenodd" d="M213.381 665.016H915.355V406.964H213.381V665.016Z" stroke="#B1BCCC" stroke-opacity="0.1" stroke-linecap="round" stroke-linejoin="round"/>
<path fill-rule="evenodd" clip-rule="evenodd" d="M231.594 658.323H897.131V413.656H231.594V658.323Z" stroke="#B1BCCC" stroke-opacity="0.1" stroke-linecap="round" stroke-linejoin="round"/>
<path fill-rule="evenodd" clip-rule="evenodd" d="M248.004 652.29H880.703V419.684H248.004V652.29Z" stroke="#B1BCCC" stroke-opacity="0.1" stroke-linecap="round" stroke-linejoin="round"/>
<path fill-rule="evenodd" clip-rule="evenodd" d="M262.877 646.826H865.822V425.153H262.877V646.826Z" stroke="#B1BCCC" stroke-opacity="0.1" stroke-linecap="round" stroke-linejoin="round"/>
<path d="M1334.5 90.3035H-205.5" stroke="#B1BCCC" stroke-opacity="0.1" stroke-linecap="round" stroke-linejoin="round"/>
<path d="M1334.5 161.237H-205.5" stroke="#B1BCCC" stroke-opacity="0.1" stroke-linecap="round" stroke-linejoin="round"/>
<path d="M1334.5 212.697H-205.5" stroke="#B1BCCC" stroke-opacity="0.1" stroke-linecap="round" stroke-linejoin="round"/>
<path d="M1334.5 251.727H-205.5" stroke="#B1BCCC" stroke-opacity="0.1" stroke-linecap="round" stroke-linejoin="round"/>
<path fill-rule="evenodd" clip-rule="evenodd" d="M310.594 629.29H818.068V442.687H310.594V629.29Z" stroke="#B1BCCC" stroke-opacity="0.1" stroke-linecap="round" stroke-linejoin="round"/>
<path fill-rule="evenodd" clip-rule="evenodd" d="M300.137 633.133H828.534V438.845H300.137V633.133Z" stroke="#B1BCCC" stroke-opacity="0.1" stroke-linecap="round" stroke-linejoin="round"/>
<path fill-rule="evenodd" clip-rule="evenodd" d="M288.785 637.306H839.896V434.672H288.785V637.306Z" stroke="#B1BCCC" stroke-opacity="0.1" stroke-linecap="round" stroke-linejoin="round"/>
<path fill-rule="evenodd" clip-rule="evenodd" d="M276.412 641.853H852.281V430.128H276.412V641.853Z" stroke="#B1BCCC" stroke-opacity="0.1" stroke-linecap="round" stroke-linejoin="round"/>
</g>
</g>
<defs>
<clipPath id="clip0_183_18057">
<path d="M0 8C0 3.58173 3.58172 0 8 0H1112C1116.42 0 1120 3.58172 1120 8V437C1120 441.418 1116.42 445 1112 445H7.99998C3.5817 445 0 441.418 0 437V8Z" fill="white"/>
</clipPath>
<clipPath id="clip1_183_18057">
<rect width="1549" height="712" fill="white" transform="translate(-214.5 -39)"/>
</clipPath>
</defs>
</svg>
