<svg width="91" height="92" viewBox="0 0 91 92" fill="none" xmlns="http://www.w3.org/2000/svg">
<path d="M8.02442 14.4644C8.02442 11.1507 10.7107 8.46438 14.0244 8.46438H84.9956C88.3093 8.46438 90.9957 11.1507 90.9957 14.4644V85.4356C90.9957 88.7493 88.3094 91.4356 84.9957 91.4356H14.0244C10.7107 91.4356 8.02442 88.7493 8.02442 85.4356V14.4644Z" fill="white"/>
<path fill-rule="evenodd" clip-rule="evenodd" d="M0.465576 9.80625C0.465576 4.57324 4.76794 0.331055 10.0752 0.331055H76.7017C82.0089 0.331055 86.3113 4.57324 86.3113 9.80625V75.5009C86.3113 80.7339 82.0089 84.9761 76.7017 84.9761H10.0752C4.76794 84.9761 0.465576 80.7339 0.465576 75.5009V9.80625ZM10.0752 4.12113C6.89083 4.12113 4.30941 6.66644 4.30941 9.80625V75.5009C4.30941 78.6407 6.89083 81.186 10.0752 81.186H76.7017C79.886 81.186 82.4674 78.6407 82.4674 75.5009V9.80625C82.4674 6.66644 79.886 4.12113 76.7017 4.12113H10.0752Z" fill="url(#paint0_linear_337_17179)"/>
<path d="M35.5643 59.5573C35.0096 59.5579 34.4737 59.3562 34.057 58.9901L20.0958 46.7741C19.8502 46.5591 19.6535 46.2942 19.5187 45.997C19.3838 45.6997 19.3141 45.3771 19.3141 45.0508C19.3141 44.7244 19.3838 44.4018 19.5187 44.1046C19.6535 43.8074 19.8502 43.5424 20.0958 43.3275L34.057 31.1114C34.5142 30.7114 35.1116 30.5093 35.7177 30.5497C36.3239 30.5901 36.8892 30.8696 37.2893 31.3268C37.6894 31.784 37.8914 32.3814 37.851 32.9876C37.8106 33.5938 37.5311 34.1591 37.0739 34.5592L25.0814 45.0508L37.0728 55.5424C37.4237 55.8492 37.6727 56.2558 37.7865 56.7079C37.9002 57.16 37.8733 57.636 37.7094 58.0724C37.5454 58.5088 37.2522 58.8848 36.8689 59.1501C36.4856 59.4154 36.0305 59.5575 35.5643 59.5573ZM56.5061 59.5573C56.0398 59.5577 55.5845 59.4158 55.2011 59.1506C54.8176 58.8853 54.5242 58.5093 54.3601 58.0729C54.196 57.6365 54.169 57.1604 54.2828 56.7082C54.3965 56.256 54.6455 55.8493 54.9965 55.5424L66.989 45.0508L54.9976 34.5592C54.5404 34.1591 54.2609 33.5938 54.2205 32.9876C54.1801 32.3814 54.3821 31.784 54.7822 31.3268C55.1823 30.8696 55.7476 30.5901 56.3538 30.5497C56.9599 30.5093 57.5573 30.7114 58.0145 31.1114L71.9757 43.3275C72.2213 43.5424 72.418 43.8074 72.5528 44.1046C72.6877 44.4018 72.7574 44.7244 72.7574 45.0508C72.7574 45.3771 72.6877 45.6997 72.5528 45.997C72.418 46.2942 72.2213 46.5591 71.9757 46.7741L58.0145 58.9901C57.5976 59.3566 57.0612 59.5583 56.5061 59.5573ZM40.7998 64.7928C40.4431 64.7927 40.0913 64.7093 39.7725 64.5492C39.4538 64.3892 39.1768 64.1569 38.9636 63.8709C38.7505 63.5849 38.6071 63.253 38.5449 62.9018C38.4827 62.5506 38.5033 62.1897 38.6052 61.8478L49.0761 26.9449C49.155 26.6487 49.2925 26.3714 49.4805 26.1293C49.6685 25.8872 49.9032 25.6854 50.1707 25.5357C50.4381 25.3859 50.7329 25.2914 51.0375 25.2577C51.3422 25.224 51.6505 25.2518 51.9442 25.3394C52.2379 25.427 52.5111 25.5727 52.7475 25.7678C52.9838 25.9629 53.1787 26.2034 53.3204 26.4752C53.4621 26.7469 53.5479 27.0444 53.5726 27.3499C53.5972 27.6554 53.5603 27.9628 53.4641 28.2537L42.9932 63.1567C42.8523 63.6291 42.5628 64.0435 42.1676 64.3383C41.7725 64.633 41.2928 64.7924 40.7998 64.7928Z" fill="white"/>
<path d="M32.2357 57.1581C31.681 57.1587 31.1451 56.957 30.7283 56.591L16.7671 44.3749C16.5216 44.1599 16.3248 43.895 16.19 43.5978C16.0552 43.3005 15.9855 42.978 15.9855 42.6516C15.9855 42.3252 16.0552 42.0026 16.19 41.7054C16.3248 41.4082 16.5216 41.1432 16.7671 40.9283L30.7283 28.7122C31.1855 28.3122 31.7829 28.1101 32.3891 28.1505C32.9953 28.1909 33.5606 28.4705 33.9606 28.9277C34.3607 29.3849 34.5628 29.9823 34.5224 30.5884C34.482 31.1946 34.2024 31.7599 33.7452 32.16L21.7528 42.6516L33.7441 53.1432C34.0951 53.45 34.3441 53.8566 34.4578 54.3087C34.5716 54.7608 34.5447 55.2368 34.3807 55.6732C34.2168 56.1096 33.9236 56.4856 33.5403 56.7509C33.157 57.0162 32.7019 57.1583 32.2357 57.1581ZM53.1774 57.1581C52.7112 57.1585 52.2559 57.0166 51.8724 56.7514C51.489 56.4861 51.1956 56.1102 51.0315 55.6737C50.8674 55.2373 50.8404 54.7612 50.9541 54.309C51.0678 53.8568 51.3169 53.4501 51.6679 53.1432L63.6603 42.6516L51.669 32.16C51.2118 31.7599 50.9322 31.1946 50.8918 30.5884C50.8514 29.9823 51.0535 29.3849 51.4536 28.9277C51.8536 28.4705 52.4189 28.1909 53.0251 28.1505C53.6313 28.1101 54.2287 28.3122 54.6859 28.7122L68.6471 40.9283C68.8926 41.1432 69.0894 41.4082 69.2242 41.7054C69.359 42.0026 69.4288 42.3252 69.4288 42.6516C69.4288 42.978 69.359 43.3005 69.2242 43.5978C69.0894 43.895 68.8926 44.1599 68.6471 44.3749L54.6859 56.591C54.269 56.9575 53.7326 57.1591 53.1774 57.1581ZM37.4711 62.3936C37.1144 62.3935 36.7627 62.3101 36.4439 62.1501C36.1251 61.99 35.8481 61.7577 35.635 61.4717C35.4218 61.1857 35.2785 60.8538 35.2162 60.5026C35.154 60.1514 35.1747 59.7905 35.2766 59.4486L45.7475 24.5457C45.8263 24.2495 45.9639 23.9722 46.1519 23.7301C46.3399 23.488 46.5746 23.2862 46.842 23.1365C47.1095 22.9867 47.4042 22.8922 47.7089 22.8585C48.0135 22.8248 48.3218 22.8526 48.6156 22.9402C48.9093 23.0278 49.1824 23.1735 49.4188 23.3686C49.6552 23.5637 49.85 23.8042 49.9918 24.076C50.1335 24.3478 50.2192 24.6452 50.2439 24.9507C50.2686 25.2562 50.2317 25.5636 50.1354 25.8546L39.6646 60.7575C39.5237 61.2299 39.2342 61.6443 38.839 61.9391C38.4438 62.2338 37.9641 62.3932 37.4711 62.3936Z" fill="url(#paint1_linear_337_17179)"/>
<defs>
<linearGradient id="paint0_linear_337_17179" x1="0.465576" y1="0.331055" x2="109.908" y2="48.1727" gradientUnits="userSpaceOnUse">
<stop stop-color="#EDC6FF"/>
<stop offset="1" stop-color="#AB5AFA"/>
</linearGradient>
<linearGradient id="paint1_linear_337_17179" x1="0.465576" y1="0.331055" x2="109.908" y2="48.1727" gradientUnits="userSpaceOnUse">
<stop stop-color="#EDC6FF"/>
<stop offset="1" stop-color="#AB5AFA"/>
</linearGradient>
</defs>
</svg>
