<svg width="197" height="172" viewBox="0 0 197 172" fill="none" xmlns="http://www.w3.org/2000/svg">
<path fill-rule="evenodd" clip-rule="evenodd" d="M114.991 135.689C114.991 134.281 116.138 133.139 117.552 133.139H132.7V144.624H117.552C116.138 144.624 114.991 143.482 114.991 142.075V135.689Z" fill="#161A1F"/>
<path d="M116.954 131.088H132.102V119.308C132.102 118.952 132.06 118.607 131.985 118.272H74.503C72.9659 118.272 71.7199 117.773 71.7199 117.159C71.7199 116.545 72.9659 116.046 74.503 116.046H75.7355L75.3812 114.559H74.0197C71.3852 114.559 69.249 116.685 69.249 119.308V154.193C69.249 156.815 71.3852 158.941 74.0197 158.941H127.331C129.966 158.941 132.102 156.817 132.102 154.193V146.677H116.954C114.405 146.677 112.332 144.613 112.332 142.076V135.69C112.332 133.153 114.405 131.089 116.954 131.089V131.088Z" fill="#161A1F"/>
<rect x="70.7588" y="18.5846" width="62.0429" height="21.9342" rx="10.9671" fill="#161A1F"/>
<line x1="195.917" y1="170.625" x2="195.917" y2="0.487549" stroke="white" stroke-opacity="0.05"/>
<line x1="171.542" y1="170.625" x2="171.542" y2="0.487549" stroke="white" stroke-opacity="0.05"/>
<line x1="183.729" y1="170.625" x2="183.729" y2="0.487549" stroke="white" stroke-opacity="0.05"/>
<line x1="147.167" y1="170.625" x2="147.167" y2="0.487549" stroke="white" stroke-opacity="0.05"/>
<line x1="159.354" y1="170.625" x2="159.354" y2="0.487549" stroke="white" stroke-opacity="0.05"/>
<line x1="122.792" y1="170.625" x2="122.792" y2="0.487549" stroke="white" stroke-opacity="0.05"/>
<line x1="134.979" y1="170.625" x2="134.979" y2="0.487549" stroke="white" stroke-opacity="0.05"/>
<line x1="98.4165" y1="170.625" x2="98.4166" y2="0.487549" stroke="white" stroke-opacity="0.05"/>
<line x1="110.604" y1="170.625" x2="110.604" y2="0.487549" stroke="white" stroke-opacity="0.05"/>
<line x1="74.0415" y1="170.625" x2="74.0416" y2="0.487549" stroke="white" stroke-opacity="0.05"/>
<line x1="86.229" y1="170.625" x2="86.2291" y2="0.487549" stroke="white" stroke-opacity="0.05"/>
<line x1="196.417" y1="0.5" x2="1.41655" y2="0.499982" stroke="white" stroke-opacity="0.05"/>
<line x1="196.417" y1="24.875" x2="1.41655" y2="24.875" stroke="white" stroke-opacity="0.05"/>
<line x1="196.417" y1="49.25" x2="1.41655" y2="49.25" stroke="white" stroke-opacity="0.05"/>
<line x1="196.417" y1="73.625" x2="1.41655" y2="73.625" stroke="white" stroke-opacity="0.05"/>
<line x1="196.417" y1="98" x2="1.41655" y2="98" stroke="white" stroke-opacity="0.05"/>
<line x1="196.417" y1="122.375" x2="1.41655" y2="122.375" stroke="white" stroke-opacity="0.05"/>
<line x1="196.417" y1="110.188" x2="1.41655" y2="110.187" stroke="white" stroke-opacity="0.05"/>
<line x1="196.417" y1="85.8125" x2="1.41655" y2="85.8125" stroke="white" stroke-opacity="0.05"/>
<line x1="196.417" y1="61.4375" x2="1.41655" y2="61.4375" stroke="white" stroke-opacity="0.05"/>
<line x1="196.417" y1="37.0625" x2="1.41655" y2="37.0625" stroke="white" stroke-opacity="0.05"/>
<line x1="196.417" y1="12.6875" x2="1.41655" y2="12.6875" stroke="white" stroke-opacity="0.05"/>
<line x1="196.417" y1="134.562" x2="1.41655" y2="134.562" stroke="white" stroke-opacity="0.05"/>
<line x1="196.417" y1="158.938" x2="1.41655" y2="158.937" stroke="white" stroke-opacity="0.05"/>
<line x1="196.417" y1="146.75" x2="1.41655" y2="146.75" stroke="white" stroke-opacity="0.05"/>
<line x1="196.417" y1="171.125" x2="1.41655" y2="171.125" stroke="white" stroke-opacity="0.05"/>
<line x1="49.6665" y1="170.625" x2="49.6666" y2="0.487549" stroke="white" stroke-opacity="0.05"/>
<line x1="61.854" y1="170.625" x2="61.8541" y2="0.487549" stroke="white" stroke-opacity="0.05"/>
<line x1="25.2915" y1="170.625" x2="25.2916" y2="0.487549" stroke="white" stroke-opacity="0.05"/>
<line x1="37.479" y1="170.625" x2="37.4791" y2="0.487549" stroke="white" stroke-opacity="0.05"/>
<line x1="13.104" y1="170.625" x2="13.1041" y2="0.487549" stroke="white" stroke-opacity="0.05"/>
<line x1="0.916504" y1="171.641" x2="0.916511" y2="0.487534" stroke="white" stroke-opacity="0.05"/>
<path d="M99.1382 66.0022L99.1382 54.0568L99.1382 45.1055L99.1382 33.9924" stroke="#323A47" stroke-linecap="round"/>
<path d="M100.047 66.3007C99.6565 66.6912 99.0233 66.6912 98.6328 66.3007L94.0366 61.7045C93.8413 61.5093 93.8413 61.1927 94.0366 60.9974C94.2318 60.8022 94.5484 60.8022 94.7437 60.9974L98.6327 64.8864C99.0232 65.2769 99.6563 65.2769 100.047 64.8864L104.078 60.8558C104.273 60.6605 104.589 60.6605 104.785 60.8558C104.98 61.051 104.98 61.3676 104.785 61.5629L100.047 66.3007Z" fill="#323A47"/>
<rect x="65.9858" y="13.0846" width="63.0429" height="22.9342" rx="11.4671" fill="#161A1F" stroke="url(#paint0_linear_434_101088)"/>
<path d="M75.9048 27.2246V22.0412H76.983V23.99H77.0159C77.0631 23.8854 77.1314 23.7791 77.2209 23.6711C77.312 23.5615 77.4301 23.4703 77.5752 23.3978C77.722 23.3235 77.9042 23.2864 78.1219 23.2864C78.4053 23.2864 78.6669 23.3607 78.9065 23.5091C79.1461 23.6559 79.3376 23.8778 79.481 24.1748C79.6244 24.4701 79.6961 24.8404 79.6961 25.2859C79.6961 25.7195 79.6261 26.0856 79.4861 26.3843C79.3477 26.6813 79.1587 26.9065 78.9191 27.06C78.6812 27.2119 78.4146 27.2878 78.1194 27.2878C77.9101 27.2878 77.7321 27.2532 77.5853 27.1841C77.4402 27.1149 77.3213 27.028 77.2285 26.9234C77.1357 26.8171 77.0648 26.7099 77.0159 26.6019H76.9678V27.2246H75.9048ZM76.9602 25.2808C76.9602 25.512 76.9922 25.7136 77.0564 25.8857C77.1205 26.0578 77.2133 26.1919 77.3348 26.2881C77.4562 26.3826 77.6039 26.4298 77.7777 26.4298C77.9532 26.4298 78.1016 26.3818 78.2231 26.2856C78.3446 26.1877 78.4366 26.0527 78.499 25.8806C78.5631 25.7068 78.5952 25.5069 78.5952 25.2808C78.5952 25.0564 78.564 24.859 78.5015 24.6886C78.4391 24.5181 78.3471 24.3848 78.2257 24.2887C78.1042 24.1925 77.9548 24.1444 77.7777 24.1444C77.6022 24.1444 77.4537 24.1908 77.3322 24.2836C77.2124 24.3764 77.1205 24.508 77.0564 24.6784C76.9922 24.8489 76.9602 25.0496 76.9602 25.2808Z" fill="white"/>
<path d="M82.172 27.3005C81.7738 27.3005 81.4313 27.2161 81.1445 27.0474C80.8593 26.877 80.64 26.6408 80.4864 26.3387C80.3346 26.0367 80.2586 25.6891 80.2586 25.296C80.2586 24.8978 80.3354 24.5485 80.4889 24.2482C80.6442 23.9462 80.8644 23.7108 81.1495 23.542C81.4347 23.3716 81.7738 23.2864 82.167 23.2864C82.5061 23.2864 82.8031 23.348 83.0578 23.4712C83.3126 23.5944 83.5143 23.7673 83.6627 23.99C83.8112 24.2127 83.8931 24.4743 83.9082 24.7746H82.8908C82.8621 24.5806 82.7862 24.4245 82.663 24.3064C82.5415 24.1866 82.3821 24.1267 82.1847 24.1267C82.0176 24.1267 81.8717 24.1723 81.7468 24.2634C81.6236 24.3528 81.5275 24.4836 81.4583 24.6557C81.3891 24.8278 81.3545 25.0361 81.3545 25.2808C81.3545 25.5288 81.3883 25.7397 81.4558 25.9135C81.5249 26.0873 81.622 26.2198 81.7468 26.3109C81.8717 26.402 82.0176 26.4476 82.1847 26.4476C82.3078 26.4476 82.4184 26.4223 82.5162 26.3716C82.6158 26.321 82.6976 26.2476 82.7617 26.1514C82.8275 26.0536 82.8706 25.9363 82.8908 25.7996H83.9082C83.8914 26.0966 83.8104 26.3581 83.6653 26.5842C83.5218 26.8086 83.3236 26.9841 83.0705 27.1107C82.8174 27.2372 82.5179 27.3005 82.172 27.3005Z" fill="white"/>
<path d="M86.8435 22.0412V27.2246H85.7476V23.0814H85.7172L84.5302 23.8255V22.8536L85.8134 22.0412H86.8435Z" fill="white"/>
<path d="M90.6544 28.6824V26.6019H90.6215C90.5709 26.7099 90.4992 26.8171 90.4064 26.9234C90.3153 27.028 90.1963 27.1149 90.0496 27.1841C89.9044 27.2532 89.7273 27.2878 89.5181 27.2878C89.2228 27.2878 88.9553 27.2119 88.7157 27.06C88.4778 26.9065 88.2889 26.6813 88.1488 26.3843C88.0105 26.0856 87.9413 25.7195 87.9413 25.2859C87.9413 24.8404 88.013 24.4701 88.1564 24.1748C88.2998 23.8778 88.4905 23.6559 88.7284 23.5091C88.968 23.3607 89.2304 23.2864 89.5155 23.2864C89.7332 23.2864 89.9146 23.3235 90.0597 23.3978C90.2065 23.4703 90.3246 23.5615 90.414 23.6711C90.5051 23.7791 90.5743 23.8854 90.6215 23.99H90.6671V23.337H91.7301V28.6824H90.6544ZM89.8597 26.4298C90.0335 26.4298 90.1803 26.3826 90.3001 26.2881C90.4216 26.1919 90.5144 26.0578 90.5785 25.8857C90.6443 25.7136 90.6772 25.512 90.6772 25.2808C90.6772 25.0496 90.6452 24.8489 90.581 24.6784C90.5169 24.508 90.4241 24.3764 90.3026 24.2836C90.1812 24.1908 90.0335 24.1444 89.8597 24.1444C89.6826 24.1444 89.5332 24.1925 89.4118 24.2887C89.2903 24.3848 89.1983 24.5181 89.1359 24.6886C89.0735 24.859 89.0422 25.0564 89.0422 25.2808C89.0422 25.5069 89.0735 25.7068 89.1359 25.8806C89.2 26.0527 89.292 26.1877 89.4118 26.2856C89.5332 26.3818 89.6826 26.4298 89.8597 26.4298Z" fill="white"/>
<path d="M93.4967 23.337L94.2104 24.6962L94.9419 23.337H96.0479L94.9216 25.2808L96.0782 27.2246H94.9773L94.2104 25.8806L93.4562 27.2246H92.3426L93.4967 25.2808L92.3831 23.337H93.4967Z" fill="white"/>
<path d="M97.3184 27.2904C97.1514 27.2904 97.0079 27.2313 96.8881 27.1132C96.77 26.9934 96.711 26.85 96.711 26.6829C96.711 26.5176 96.77 26.3759 96.8881 26.2577C97.0079 26.1396 97.1514 26.0806 97.3184 26.0806C97.4804 26.0806 97.6221 26.1396 97.7436 26.2577C97.8651 26.3759 97.9258 26.5176 97.9258 26.6829C97.9258 26.7943 97.8971 26.8964 97.8398 26.9892C97.7841 27.0803 97.7107 27.1537 97.6196 27.2094C97.5285 27.2634 97.4281 27.2904 97.3184 27.2904Z" fill="white"/>
<path d="M99.4412 27.2904C99.2742 27.2904 99.1308 27.2313 99.011 27.1132C98.8929 26.9934 98.8338 26.85 98.8338 26.6829C98.8338 26.5176 98.8929 26.3759 99.011 26.2577C99.1308 26.1396 99.2742 26.0806 99.4412 26.0806C99.6032 26.0806 99.7449 26.1396 99.8664 26.2577C99.9879 26.3759 100.049 26.5176 100.049 26.6829C100.049 26.7943 100.02 26.8964 99.9626 26.9892C99.9069 27.0803 99.8335 27.1537 99.7424 27.2094C99.6513 27.2634 99.5509 27.2904 99.4412 27.2904Z" fill="white"/>
<path d="M101.564 27.2904C101.397 27.2904 101.254 27.2313 101.134 27.1132C101.016 26.9934 100.957 26.85 100.957 26.6829C100.957 26.5176 101.016 26.3759 101.134 26.2577C101.254 26.1396 101.397 26.0806 101.564 26.0806C101.726 26.0806 101.868 26.1396 101.989 26.2577C102.111 26.3759 102.171 26.5176 102.171 26.6829C102.171 26.7943 102.143 26.8964 102.085 26.9892C102.03 27.0803 101.956 27.1537 101.865 27.2094C101.774 27.2634 101.674 27.2904 101.564 27.2904Z" fill="white"/>
<path d="M104.87 27.3385C104.435 27.3368 104.06 27.2296 103.746 27.017C103.434 26.8044 103.194 26.4965 103.025 26.0932C102.858 25.69 102.775 25.2049 102.777 24.6379C102.777 24.0727 102.861 23.591 103.028 23.1928C103.196 22.7946 103.437 22.4917 103.749 22.2842C104.063 22.0749 104.436 21.9703 104.87 21.9703C105.304 21.9703 105.677 22.0749 105.989 22.2842C106.303 22.4934 106.544 22.7971 106.713 23.1953C106.881 23.5918 106.965 24.0727 106.963 24.6379C106.963 25.2066 106.879 25.6925 106.71 26.0958C106.543 26.499 106.303 26.807 105.991 27.0196C105.679 27.2322 105.305 27.3385 104.87 27.3385ZM104.87 26.4298C105.167 26.4298 105.404 26.2805 105.581 25.9819C105.758 25.6832 105.846 25.2352 105.844 24.6379C105.844 24.2448 105.804 23.9175 105.723 23.6559C105.644 23.3944 105.531 23.1978 105.384 23.0662C105.239 22.9346 105.067 22.8688 104.87 22.8688C104.575 22.8688 104.339 23.0165 104.161 23.3117C103.984 23.607 103.895 24.0491 103.893 24.6379C103.893 25.0361 103.933 25.3685 104.012 25.6351C104.093 25.9 104.207 26.0991 104.354 26.2324C104.501 26.364 104.673 26.4298 104.87 26.4298Z" fill="white"/>
<path d="M108.522 27.2246L107.464 23.337H108.554L109.157 25.949H109.192L109.82 23.337H110.891L111.528 25.9338H111.561L112.153 23.337H113.242L112.186 27.2246H111.045L110.377 24.7797H110.329L109.661 27.2246H108.522Z" fill="white"/>
<path d="M114.895 22.0412V27.2246H113.817V22.0412H114.895Z" fill="white"/>
<path d="M116.837 24.9771V27.2246H115.759V22.0412H116.807V24.0229H116.852C116.94 23.7935 117.082 23.6138 117.277 23.4838C117.473 23.3522 117.719 23.2864 118.014 23.2864C118.284 23.2864 118.519 23.3455 118.72 23.4636C118.922 23.58 119.079 23.7479 119.191 23.9672C119.304 24.1849 119.359 24.4456 119.358 24.7493V27.2246H118.28V24.9417C118.281 24.7021 118.221 24.5156 118.097 24.3823C117.976 24.249 117.805 24.1824 117.586 24.1824C117.439 24.1824 117.309 24.2136 117.196 24.276C117.085 24.3384 116.997 24.4296 116.933 24.5494C116.871 24.6675 116.839 24.81 116.837 24.9771Z" fill="white"/>
<path d="M137.288 39.7911C137.288 45.4279 132.81 49.9974 127.288 49.9974C121.765 49.9974 117.288 45.4279 117.288 39.7911C117.288 34.1542 121.765 29.5847 127.288 29.5847C132.81 29.5847 137.288 34.1542 137.288 39.7911Z" fill="url(#paint1_linear_434_101088)" stroke="#161A1F" stroke-width="2"/>
<path d="M130.565 37.6265C130.452 36.4485 129.435 36.0531 128.151 35.9401V35.1855H127.156V35.8971C126.895 35.8971 126.628 35.9021 126.362 35.9071V35.1849H125.369V35.9392C125.153 35.9434 123.831 35.9422 123.831 35.9422L123.828 36.8189L124.658 36.8236V42.5693H123.828L123.821 43.4336C124.062 43.4336 125.134 43.4383 125.366 43.4398V44.1846H126.36V43.4575C126.632 43.4634 126.897 43.4657 127.154 43.4654V44.1849H128.149V43.4433C129.821 43.3481 130.992 42.9273 131.138 41.3573C131.256 40.0929 130.661 39.5291 129.712 39.2997C130.289 39.0048 130.649 38.4885 130.565 37.6262L130.565 37.6265ZM129.171 41.1601C129.171 42.3953 127.057 42.2541 126.382 42.2544V40.0646C127.057 40.0646 129.17 39.872 129.171 41.1601H129.171ZM128.71 38.0703C128.71 39.1941 126.945 39.0623 126.384 39.0623V37.076C126.946 37.0763 128.71 36.8982 128.71 38.0703Z" fill="#161A1F"/>
<path d="M111.06 131.994C111.06 130.864 111.981 129.944 113.121 129.944H127.769V140.429H113.121C111.981 140.429 111.06 139.509 111.06 138.38V131.994ZM111.894 134.867C111.894 137.003 113.634 138.729 115.772 138.729C117.91 138.729 119.65 137.003 119.65 134.867C119.65 132.731 117.91 131.005 115.772 131.005C113.634 131.005 111.894 132.731 111.894 134.867Z" fill="url(#paint2_linear_434_101088)" stroke="url(#paint3_linear_434_101088)"/>
<path d="M113.121 126.892H112.621V126.918C110.032 127.169 107.999 129.347 107.999 131.994V138.381C107.999 141.196 110.298 143.481 113.121 143.481H127.769V150.497C127.769 152.843 125.859 154.746 123.499 154.746H70.1871C67.8266 154.746 65.9165 152.841 65.9165 150.497V115.612C65.9165 113.268 67.8266 111.363 70.1871 111.363V111.364L70.1944 111.363L127.652 110.534V110.918L70.6663 111.85C69.8519 111.851 69.0919 111.982 68.5168 112.212C68.2301 112.327 67.9646 112.476 67.7626 112.667C67.5596 112.859 67.3874 113.128 67.3874 113.463C67.3874 113.799 67.5596 114.068 67.7626 114.26C67.9646 114.451 68.2301 114.6 68.5168 114.714C69.0929 114.945 69.8545 115.077 70.6705 115.077H127.734C127.757 115.253 127.769 115.431 127.769 115.612V126.892H113.121Z" fill="url(#paint4_linear_434_101088)" stroke="url(#paint5_linear_434_101088)"/>
<circle cx="115.9" cy="134.853" r="3.51516" fill="#161A1F"/>
<path d="M102.149 128.48C101.898 125.862 99.6379 124.983 96.7838 124.732V123.055H94.5738V124.636C93.9932 124.636 93.3994 124.647 92.8089 124.658V123.053H90.6002V124.73C90.1218 124.739 87.1824 124.736 87.1824 124.736L87.1759 126.685L89.0201 126.695V139.465H87.1765L87.1602 141.386C87.6956 141.386 90.0786 141.397 90.595 141.4V143.056H92.8036V141.439C93.4092 141.453 93.9964 141.458 94.5692 141.457V143.056H96.7798V141.408C100.496 141.196 103.099 140.261 103.422 136.772C103.684 133.962 102.363 132.709 100.253 132.199C101.535 131.543 102.337 130.396 102.15 128.479L102.149 128.48ZM99.052 136.333C99.052 139.079 94.3523 138.765 92.8528 138.766V133.899C94.3516 133.899 99.0494 133.471 99.0501 136.333H99.052ZM98.0264 129.466C98.0264 131.964 94.1046 131.671 92.8561 131.671V127.256C94.1065 127.257 98.0277 126.861 98.0264 129.466Z" fill="#161A1F"/>
<rect x="157.429" y="101" width="14.6231" height="1.82789" rx="0.913945" fill="#718096"/>
<rect x="154.688" y="105.57" width="17.365" height="1.82789" rx="0.913945" fill="#718096"/>
<rect x="156.516" y="110.14" width="15.5371" height="1.82789" rx="0.913945" fill="#718096"/>
<rect x="156.516" y="114.709" width="15.5371" height="1.82789" rx="0.913945" fill="#718096"/>
<path fill-rule="evenodd" clip-rule="evenodd" d="M170.224 119.279C170.477 119.279 170.681 119.484 170.681 119.736V133.445C170.681 134.203 170.067 134.816 169.31 134.816H144.618L146.746 136.944C146.925 137.123 146.925 137.412 146.746 137.591C146.568 137.769 146.278 137.769 146.1 137.591L143.192 134.683C143.013 134.504 143.013 134.215 143.192 134.036L146.1 131.128C146.278 130.95 146.568 130.95 146.746 131.128C146.925 131.307 146.925 131.596 146.746 131.774L144.618 133.902H169.31C169.563 133.902 169.767 133.698 169.767 133.445V119.736C169.767 119.484 169.972 119.279 170.224 119.279Z" fill="#718096"/>
<mask id="path-51-outside-1_434_101088" maskUnits="userSpaceOnUse" x="81.4165" y="69.1152" width="36" height="38" fill="black">
<rect fill="white" x="81.4165" y="69.1152" width="36" height="38"/>
<path fill-rule="evenodd" clip-rule="evenodd" d="M84.2649 70.1152C83.244 70.1152 82.4165 70.9428 82.4165 71.9636C82.4165 72.9844 83.244 73.812 84.2649 73.812C86.0845 73.812 87.288 76.5434 86.9129 78.324C86.6466 79.5882 86.6843 80.9444 87.0967 82.2969L87.4052 83.3085C87.4053 83.3086 87.4053 83.3086 87.4054 83.3086C87.4055 83.3086 87.4055 83.3086 87.4056 83.3087L95.954 93.711C96.8362 94.7845 97.3185 96.1309 97.3185 97.5204V104.051C97.3185 105.03 98.1123 105.824 99.0914 105.824C100.071 105.824 100.864 105.03 100.864 104.051V97.6777C100.864 96.1832 101.422 94.7425 102.429 93.6376L111.836 83.3088C111.836 83.3087 111.836 83.3086 111.836 83.3086C111.836 83.3086 111.836 83.3085 111.836 83.3083L112.194 81.6197C112.455 80.3852 112.418 79.1688 112.136 78.0375C111.721 76.3694 112.837 73.812 114.556 73.812C115.577 73.812 116.405 72.9844 116.405 71.9636C116.405 70.9428 115.577 70.1152 114.556 70.1152H84.2649Z"/>
</mask>
<path fill-rule="evenodd" clip-rule="evenodd" d="M84.2649 70.1152C83.244 70.1152 82.4165 70.9428 82.4165 71.9636C82.4165 72.9844 83.244 73.812 84.2649 73.812C86.0845 73.812 87.288 76.5434 86.9129 78.324C86.6466 79.5882 86.6843 80.9444 87.0967 82.2969L87.4052 83.3085C87.4053 83.3086 87.4053 83.3086 87.4054 83.3086C87.4055 83.3086 87.4055 83.3086 87.4056 83.3087L95.954 93.711C96.8362 94.7845 97.3185 96.1309 97.3185 97.5204V104.051C97.3185 105.03 98.1123 105.824 99.0914 105.824C100.071 105.824 100.864 105.03 100.864 104.051V97.6777C100.864 96.1832 101.422 94.7425 102.429 93.6376L111.836 83.3088C111.836 83.3087 111.836 83.3086 111.836 83.3086C111.836 83.3086 111.836 83.3085 111.836 83.3083L112.194 81.6197C112.455 80.3852 112.418 79.1688 112.136 78.0375C111.721 76.3694 112.837 73.812 114.556 73.812C115.577 73.812 116.405 72.9844 116.405 71.9636C116.405 70.9428 115.577 70.1152 114.556 70.1152H84.2649Z" fill="#161A1F"/>
<path d="M87.0967 82.2969L86.1402 82.5885L87.0967 82.2969ZM112.194 81.6197L111.215 81.4126V81.4126L112.194 81.6197ZM111.836 83.3083L110.858 83.1013L111.836 83.3083ZM111.836 83.3088L111.096 82.6354L111.836 83.3088ZM95.954 93.711L95.1814 94.3459L95.954 93.711ZM87.4056 83.3087L88.1781 82.6738L87.4056 83.3087ZM87.4052 83.3085L88.3617 83.0168L87.4052 83.3085ZM83.4165 71.9636C83.4165 71.4951 83.7963 71.1152 84.2649 71.1152V69.1152C82.6918 69.1152 81.4165 70.3905 81.4165 71.9636H83.4165ZM84.2649 72.812C83.7963 72.812 83.4165 72.4322 83.4165 71.9636H81.4165C81.4165 73.5367 82.6918 74.812 84.2649 74.812V72.812ZM88.0533 82.0052C87.6911 80.8176 87.6592 79.6328 87.8915 78.5301L85.9344 78.1179C85.6341 79.5437 85.6775 81.0712 86.1402 82.5885L88.0533 82.0052ZM88.3617 83.0168L88.0533 82.0052L86.1402 82.5885L86.4487 83.6002L88.3617 83.0168ZM96.7266 93.0761L88.1781 82.6738L86.633 83.9436L95.1814 94.3459L96.7266 93.0761ZM98.3185 104.051V97.5204H96.3185V104.051H98.3185ZM99.8644 97.6777V104.051H101.864V97.6777H99.8644ZM111.096 82.6354L101.689 92.9642L103.168 94.3109L112.575 83.9821L111.096 82.6354ZM111.215 81.4126L110.858 83.1013L112.815 83.5153L113.172 81.8267L111.215 81.4126ZM111.166 78.2789C111.411 79.266 111.445 80.3291 111.215 81.4126L113.172 81.8267C113.465 80.4413 113.424 79.0715 113.107 77.7961L111.166 78.2789ZM115.405 71.9636C115.405 72.4322 115.025 72.812 114.556 72.812V74.812C116.13 74.812 117.405 73.5367 117.405 71.9636H115.405ZM114.556 71.1152C115.025 71.1152 115.405 71.4951 115.405 71.9636H117.405C117.405 70.3905 116.13 69.1152 114.556 69.1152V71.1152ZM84.2649 71.1152H114.556V69.1152H84.2649V71.1152ZM111.836 84.3086C112.309 84.3086 112.717 83.9778 112.815 83.5153L110.858 83.1013C110.956 82.6392 111.364 82.3086 111.836 82.3086V84.3086ZM112.575 83.9821C112.386 84.1901 112.117 84.3086 111.836 84.3086V82.3086C111.555 82.3086 111.286 82.4273 111.096 82.6354L112.575 83.9821ZM101.864 97.6777C101.864 96.4323 102.329 95.2317 103.168 94.3109L101.689 92.9642C100.515 94.2533 99.8644 95.9341 99.8644 97.6777H101.864ZM99.0914 106.824C100.623 106.824 101.864 105.583 101.864 104.051H99.8644C99.8644 104.478 99.5184 104.824 99.0914 104.824V106.824ZM95.1814 94.3459C95.9166 95.2405 96.3185 96.3625 96.3185 97.5204H98.3185C98.3185 95.8993 97.7558 94.3285 96.7266 93.0761L95.1814 94.3459ZM87.4054 84.3086C87.1106 84.3086 86.8256 84.178 86.633 83.9436L88.1781 82.6738C87.9855 82.4393 87.7004 82.3086 87.4054 82.3086V84.3086ZM86.4487 83.6002C86.5771 84.0211 86.9654 84.3086 87.4054 84.3086V82.3086C87.8453 82.3086 88.2334 82.5961 88.3617 83.0168L86.4487 83.6002ZM96.3185 104.051C96.3185 105.583 97.56 106.824 99.0914 106.824V104.824C98.6645 104.824 98.3185 104.478 98.3185 104.051H96.3185ZM113.107 77.7961C112.97 77.2446 113.08 76.4386 113.433 75.7615C113.796 75.0644 114.236 74.812 114.556 74.812V72.812C113.158 72.812 112.18 73.8383 111.659 74.8369C111.128 75.8555 110.888 77.1622 111.166 78.2789L113.107 77.7961ZM84.2649 74.812C84.6338 74.812 85.1225 75.1052 85.529 75.8698C85.9229 76.6106 86.0645 77.5001 85.9344 78.1179L87.8915 78.5301C88.1364 77.3673 87.8638 76.0008 87.2949 74.9308C86.7385 73.8844 85.7156 72.812 84.2649 72.812V74.812Z" fill="#323A47" mask="url(#path-51-outside-1_434_101088)"/>
<path d="M101.288 89.7643C100.269 89.7643 99.4939 88.8511 99.6588 87.8461L101.928 74.0171C102.059 73.2192 102.748 72.6335 103.557 72.6335C104.575 72.6335 105.351 73.5467 105.186 74.5517L102.917 88.3807C102.786 89.1786 102.096 89.7643 101.288 89.7643ZM93.7303 85.8496C92.6944 85.8496 91.9075 84.9176 92.0811 83.8963C92.2178 83.0921 92.9146 82.5038 93.7303 82.5038H104.121C105.157 82.5038 105.944 83.4358 105.771 84.4571C105.634 85.2613 104.937 85.8496 104.121 85.8496H93.7303ZM95.2653 89.7643C94.2469 89.7643 93.4714 88.8511 93.6363 87.8461L95.9051 74.0171C96.036 73.2192 96.7256 72.6335 97.5342 72.6335C98.5526 72.6335 99.3281 73.5467 99.1632 74.5517L96.8944 88.3807C96.7635 89.1786 96.0739 89.7643 95.2653 89.7643ZM94.7006 79.894C93.6647 79.894 92.8778 78.962 93.0514 77.9407C93.1881 77.1365 93.8849 76.5482 94.7006 76.5482H105.092C106.128 76.5482 106.915 77.4802 106.741 78.5015C106.604 79.3057 105.907 79.894 105.092 79.894H94.7006Z" fill="url(#paint6_linear_434_101088)"/>
<defs>
<linearGradient id="paint0_linear_434_101088" x1="66.4858" y1="13.5846" x2="90.5519" y2="56.7112" gradientUnits="userSpaceOnUse">
<stop stop-color="#B62CFF"/>
<stop offset="1" stop-color="#7D00FF"/>
</linearGradient>
<linearGradient id="paint1_linear_434_101088" x1="117.288" y1="29.5847" x2="140.871" y2="44.2238" gradientUnits="userSpaceOnUse">
<stop stop-color="#B62CFF"/>
<stop offset="1" stop-color="#7D00FF"/>
</linearGradient>
<linearGradient id="paint2_linear_434_101088" x1="110.56" y1="129.444" x2="125.362" y2="143.905" gradientUnits="userSpaceOnUse">
<stop stop-color="#B62CFF"/>
<stop offset="1" stop-color="#7D00FF"/>
</linearGradient>
<linearGradient id="paint3_linear_434_101088" x1="110.56" y1="129.444" x2="125.362" y2="143.905" gradientUnits="userSpaceOnUse">
<stop stop-color="#B62CFF"/>
<stop offset="1" stop-color="#7D00FF"/>
</linearGradient>
<linearGradient id="paint4_linear_434_101088" x1="65.4165" y1="110.026" x2="123.246" y2="160.95" gradientUnits="userSpaceOnUse">
<stop stop-color="#B62CFF"/>
<stop offset="1" stop-color="#7D00FF"/>
</linearGradient>
<linearGradient id="paint5_linear_434_101088" x1="65.4165" y1="110.026" x2="123.246" y2="160.95" gradientUnits="userSpaceOnUse">
<stop stop-color="#B62CFF"/>
<stop offset="1" stop-color="#7D00FF"/>
</linearGradient>
<linearGradient id="paint6_linear_434_101088" x1="91.749" y1="72.6335" x2="110.696" y2="83.3712" gradientUnits="userSpaceOnUse">
<stop stop-color="#B62CFF"/>
<stop offset="1" stop-color="#7D00FF"/>
</linearGradient>
</defs>
</svg>
