<svg width="65" height="63" viewBox="0 0 65 63" fill="none" xmlns="http://www.w3.org/2000/svg">
<path d="M64.6138 33.1147C64.6138 49.3454 51.522 62.5029 35.3726 62.5029C19.2231 62.5029 6.13135 49.3454 6.13135 33.1147C6.13135 16.8841 19.2231 3.72656 35.3726 3.72656C51.522 3.72656 64.6138 16.8841 64.6138 33.1147Z" fill="#323A47"/>
<path d="M57.5507 29.3707C57.5507 44.8894 45.0331 57.4698 29.592 57.4698C14.1508 57.4698 1.6333 44.8894 1.6333 29.3707C1.6333 13.8519 14.1508 1.27148 29.592 1.27148C45.0331 1.27148 57.5507 13.8519 57.5507 29.3707Z" fill="#1D2229"/>
<path fill-rule="evenodd" clip-rule="evenodd" d="M29.7788 55.8797C44.2431 55.8797 55.9688 44.0951 55.9688 29.5581C55.9688 15.0211 44.2431 3.23651 29.7788 3.23651C15.3145 3.23651 3.58886 15.0211 3.58886 29.5581C3.58886 44.0951 15.3145 55.8797 29.7788 55.8797ZM29.7788 58.9463C45.9283 58.9463 59.02 45.7887 59.02 29.5581C59.02 13.3275 45.9283 0.169922 29.7788 0.169922C13.6293 0.169922 0.537598 13.3275 0.537598 29.5581C0.537598 45.7887 13.6293 58.9463 29.7788 58.9463Z" fill="url(#paint0_linear_337_11546)"/>
<path d="M23.7844 27.1115H19.4254V31.4924H23.7844V27.1115Z" fill="url(#paint1_linear_337_11546)"/>
<path d="M19.4254 22.7312H15.0665V27.1121L19.4254 27.1115L19.4254 22.7312Z" fill="url(#paint2_linear_337_11546)"/>
<path d="M15.0665 27.1121L10.7075 27.1115V31.4924H15.0665L15.0665 27.1121Z" fill="url(#paint3_linear_337_11546)"/>
<path d="M19.4254 31.4924H15.0665L15.0665 35.8731H19.4255L19.4254 31.4924Z" fill="url(#paint4_linear_337_11546)"/>
<path d="M44.0063 23.6906C43.7041 20.4794 40.9839 19.4015 37.5482 19.0937V17.0368H34.8879V18.9763C34.189 18.9763 33.4742 18.99 32.7634 19.0037V17.0352H30.1047V19.0913C29.5288 19.1025 25.9905 19.0993 25.9905 19.0993L25.9826 21.489L28.2026 21.5019V37.1639H25.9834L25.9637 39.5198C26.6082 39.5198 29.4767 39.5327 30.0984 39.5367V41.5671H32.7571V39.5849C33.486 39.601 34.1929 39.6074 34.8824 39.6066V41.5679H37.5434V39.5463C42.0174 39.2867 45.1502 38.1397 45.5392 33.8603C45.8547 30.4136 44.2643 28.8767 41.7247 28.2514C43.2678 27.4476 44.2327 26.0401 44.0079 23.6898L44.0063 23.6906ZM40.2786 33.3225C40.2786 36.6896 34.6213 36.3046 32.8162 36.3054V30.3364C34.6205 30.3364 40.2755 29.8115 40.2763 33.3225H40.2786ZM39.044 24.9003C39.044 27.9636 34.3231 27.6043 32.8202 27.6043V22.1899C34.3254 22.1907 39.0455 21.7052 39.044 24.9003Z" fill="url(#paint5_linear_337_11546)"/>
<defs>
<linearGradient id="paint0_linear_337_11546" x1="2.26606" y1="2.48625" x2="65.8063" y2="39.2703" gradientUnits="userSpaceOnUse">
<stop stop-color="#BD30FF"/>
<stop offset="1" stop-color="#7D00FF"/>
</linearGradient>
<linearGradient id="paint1_linear_337_11546" x1="11.7382" y1="18.002" x2="41.7775" y2="42.8448" gradientUnits="userSpaceOnUse">
<stop stop-color="#BD30FF"/>
<stop offset="1" stop-color="#7D00FF"/>
</linearGradient>
<linearGradient id="paint2_linear_337_11546" x1="11.7382" y1="18.002" x2="41.7775" y2="42.8448" gradientUnits="userSpaceOnUse">
<stop stop-color="#BD30FF"/>
<stop offset="1" stop-color="#7D00FF"/>
</linearGradient>
<linearGradient id="paint3_linear_337_11546" x1="11.7382" y1="18.002" x2="41.7775" y2="42.8448" gradientUnits="userSpaceOnUse">
<stop stop-color="#BD30FF"/>
<stop offset="1" stop-color="#7D00FF"/>
</linearGradient>
<linearGradient id="paint4_linear_337_11546" x1="11.7382" y1="18.002" x2="41.7775" y2="42.8448" gradientUnits="userSpaceOnUse">
<stop stop-color="#BD30FF"/>
<stop offset="1" stop-color="#7D00FF"/>
</linearGradient>
<linearGradient id="paint5_linear_337_11546" x1="11.7382" y1="18.002" x2="41.7775" y2="42.8448" gradientUnits="userSpaceOnUse">
<stop stop-color="#BD30FF"/>
<stop offset="1" stop-color="#7D00FF"/>
</linearGradient>
</defs>
</svg>
