<svg width="171" height="149" viewBox="0 0 171 149" fill="none" xmlns="http://www.w3.org/2000/svg">
<path d="M60 26.1338C60 17.2972 67.1634 10.1338 76 10.1338H119.947C124.147 10.1338 128.177 11.7846 131.17 14.7299L153.223 36.4325C156.279 39.4401 158 43.5485 158 47.8363V116.134C158 124.97 150.837 132.134 142 132.134H76C67.1634 132.134 60 124.97 60 116.134V26.1338Z" fill="#161A1F"/>
<mask id="mask0_249_12613" style="mask-type:alpha" maskUnits="userSpaceOnUse" x="0" y="17" width="99" height="132">
<rect x="98.5" y="147.634" width="98" height="130" transform="rotate(-180 98.5 147.634)" fill="#C4C4C4" stroke="#FAAD14"/>
</mask>
<g mask="url(#mask0_249_12613)">
<path d="M145.931 182.554C139.751 163.988 127.406 134.945 90.4357 150.763C43.3889 170.893 56.6711 216.992 19.7019 197.266" stroke="#FAAD14"/>
<path d="M137.229 177.54C131.05 158.974 118.704 129.93 81.7345 145.748C34.6878 165.878 47.9699 211.977 11.0007 192.252" stroke="#FAAD14"/>
<path d="M129.205 172.26C123.026 153.695 110.68 124.651 73.7101 140.469C26.6633 160.599 39.9455 206.698 2.97631 186.973" stroke="#FAAD14"/>
<path d="M122.051 166.686C115.872 148.12 103.526 119.077 66.5558 134.895C19.509 155.025 32.7912 201.124 -4.17799 181.398" stroke="#FAAD14"/>
<path d="M115.993 160.798C109.814 142.233 97.468 113.189 60.4982 129.007C13.4514 149.137 26.7336 195.236 -10.2356 175.511" stroke="#FAAD14"/>
<path d="M111.263 154.609C105.083 136.043 92.7376 107 55.7677 122.818C8.72096 142.947 22.0031 189.046 -14.9661 169.321" stroke="#FAAD14"/>
<path d="M108.025 148.171C101.846 129.606 89.5003 100.562 52.5304 116.38C5.48365 136.51 18.7658 182.609 -18.2034 162.884" stroke="#FAAD14"/>
<path d="M106.297 141.569C100.118 123.003 87.7718 93.9595 50.8019 109.778C3.75514 129.907 17.0373 176.006 -19.9319 156.281" stroke="#FAAD14"/>
<path d="M105.918 134.89C99.7388 116.324 87.3928 87.281 50.423 103.099C3.37623 123.229 16.6584 169.328 -20.3108 149.602" stroke="#FAAD14"/>
<path d="M106.609 128.196C100.43 109.63 88.0843 80.5866 51.1144 96.4047C4.06764 116.534 17.3498 162.633 -19.6194 142.908" stroke="#FAAD14"/>
<path d="M108.056 121.516C101.877 102.95 89.5315 73.907 52.5617 89.725C5.5149 109.855 18.7971 155.954 -18.1721 136.228" stroke="#FAAD14"/>
<path d="M109.968 114.854C103.789 96.2884 91.4427 67.2449 54.4728 83.063C7.42604 103.193 20.7082 149.292 -16.261 129.566" stroke="#FAAD14"/>
<path d="M112.103 108.205C105.924 89.6389 93.5784 60.5954 56.6085 76.4135C9.56178 96.5431 22.8439 142.642 -14.1253 122.917" stroke="#FAAD14"/>
<path d="M114.277 101.556C108.098 82.9905 95.7522 53.947 58.7824 69.7651C11.7356 89.8946 25.0178 135.994 -11.9514 116.268" stroke="#FAAD14"/>
<path d="M116.348 94.903C110.169 76.3373 97.8235 47.2938 60.8537 63.1119C13.8069 83.2415 27.089 129.34 -9.88013 109.615" stroke="#FAAD14"/>
<path d="M118.214 88.2389C112.035 69.6732 99.6887 40.6297 62.7189 56.4478C15.6721 76.5773 28.9543 122.676 -8.0149 102.951" stroke="#FAAD14"/>
<path d="M119.8 81.563C113.621 62.9973 101.275 33.9539 64.3048 49.7719C17.2581 69.9015 30.5402 116.001 -6.42896 96.2753" stroke="#FAAD14"/>
<path d="M121.056 74.8774C114.877 56.3118 102.532 27.2683 65.5617 43.0863C18.5149 63.2159 31.7971 109.315 -5.17213 89.5897" stroke="#FAAD14"/>
<path d="M121.965 68.1433C115.786 49.5776 103.44 20.5341 66.4699 36.3521C19.4231 56.4817 32.7053 102.581 -4.26392 82.8555" stroke="#FAAD14"/>
<path d="M122.636 61.4495C116.457 42.8838 104.111 13.8403 67.1408 29.6584C20.094 49.788 33.3762 95.887 -3.59302 76.1618" stroke="#FAAD14"/>
<path d="M123.107 54.7554C116.928 36.1897 104.582 7.14625 67.6124 22.9643C20.5657 43.0939 33.8478 89.1929 -3.12134 69.4677" stroke="#FAAD14"/>
<path d="M123.353 48.0631C117.174 29.4974 104.828 0.453955 67.8585 16.272C20.8118 36.4016 34.0939 82.5006 -2.87525 62.7754" stroke="#FAAD14"/>
<path d="M123.34 41.3743C117.161 22.8086 104.815 -6.23487 67.8449 9.58318C20.7981 29.7128 34.0803 75.8118 -2.88892 56.0866" stroke="#FAAD14"/>
<path d="M123.021 34.6937C116.842 16.128 104.496 -12.9155 67.5265 2.90254C20.4797 23.0321 33.7619 69.1311 -3.20728 49.4059" stroke="#FAAD14"/>
<path d="M122.343 28.0258C116.164 9.46017 103.818 -19.5833 66.8478 -3.76527C19.801 16.3643 33.0832 62.4633 -3.88599 42.7381" stroke="#FAAD14"/>
<path d="M121.225 21.3814C115.046 2.81568 102.7 -26.2278 65.7306 -10.4098C18.6838 9.71982 31.966 55.8188 -5.00318 36.0936" stroke="#FAAD14"/>
<path d="M119.561 14.7749C113.382 -3.79076 101.036 -32.8342 64.0665 -17.0162C17.0198 3.11338 30.3019 49.2124 -6.66724 29.4872" stroke="#FAAD14"/>
<path d="M117.192 8.23194C111.013 -10.3337 98.6673 -39.3772 61.6974 -23.5592C14.6506 -3.42959 27.9328 42.6694 -9.03638 22.9442" stroke="#FAAD14"/>
<path d="M113.895 1.80323C107.716 -16.7624 95.3704 -45.8059 58.4005 -29.9879C11.3538 -9.8583 24.6359 36.2407 -12.3333 16.5155" stroke="#FAAD14"/>
</g>
<path d="M53 18.1338C53 9.29724 60.1634 2.13379 69 2.13379H112.947C117.147 2.13379 121.177 3.78455 124.17 6.72994L146.223 28.4325C149.279 31.4401 151 35.5485 151 39.8363V108.134C151 116.97 143.837 124.134 135 124.134H69C60.1634 124.134 53 116.97 53 108.134V18.1338Z" fill="#1D2229"/>
<rect x="65" y="52.7881" width="71.6746" height="5" rx="2.5" fill="url(#paint0_linear_249_12613)"/>
<rect x="65" y="65.7881" width="71.6746" height="5" rx="2.5" fill="url(#paint1_linear_249_12613)"/>
<rect x="65" y="39.7881" width="42.8673" height="5" rx="2.5" fill="url(#paint2_linear_249_12613)"/>
<path fill-rule="evenodd" clip-rule="evenodd" d="M150.631 99.1818V31.9295C150.636 30.8809 150.23 29.8487 149.459 29.0781L121.553 1.17169C121.49 1.10913 121.426 1.04897 121.36 0.991225C120.609 0.332908 119.651 -0.0103155 118.68 0.000236164H70.25C59.2043 0.000236164 50.25 8.95452 50.25 20.0002V104.759C50.25 115.805 59.2043 124.759 70.25 124.759H128.464C128.189 123.465 128.031 122.128 128.004 120.759H70.25C61.4134 120.759 54.25 113.595 54.25 104.759V20.0002C54.25 11.1637 61.4134 4.00024 70.25 4.00024H114.724V15.9065C114.724 26.9522 123.678 35.9065 134.724 35.9065H146.631L146.631 99.2871C147.47 99.1859 148.325 99.1338 149.193 99.1338C149.676 99.1338 150.155 99.15 150.631 99.1818ZM118.724 15.9065C118.724 24.743 125.888 31.9065 134.724 31.9065H146.631L118.724 4.00024V15.9065Z" fill="url(#paint3_linear_249_12613)"/>
<circle cx="148.885" cy="120.019" r="18.8848" fill="#7D00FF" stroke="#161A1F" stroke-width="6"/>
<path fill-rule="evenodd" clip-rule="evenodd" d="M150.095 123.962V110.478H147.675V123.962L141.626 118.143L139.915 119.789L148.885 128.418L157.855 119.789L156.144 118.143L150.095 123.962Z" fill="white"/>
<defs>
<linearGradient id="paint0_linear_249_12613" x1="67.1184" y1="52.9851" x2="68.5919" y2="65.2746" gradientUnits="userSpaceOnUse">
<stop stop-color="#BD30FF"/>
<stop offset="1" stop-color="#7D00FF"/>
</linearGradient>
<linearGradient id="paint1_linear_249_12613" x1="67.1184" y1="65.9851" x2="68.5919" y2="78.2746" gradientUnits="userSpaceOnUse">
<stop stop-color="#BD30FF"/>
<stop offset="1" stop-color="#7D00FF"/>
</linearGradient>
<linearGradient id="paint2_linear_249_12613" x1="66.267" y1="39.9851" x2="68.6695" y2="51.9696" gradientUnits="userSpaceOnUse">
<stop stop-color="#BD30FF"/>
<stop offset="1" stop-color="#7D00FF"/>
</linearGradient>
<linearGradient id="paint3_linear_249_12613" x1="53.2168" y1="4.91665" x2="172.655" y2="60.8292" gradientUnits="userSpaceOnUse">
<stop stop-color="#BD30FF"/>
<stop offset="1" stop-color="#7D00FF"/>
</linearGradient>
</defs>
</svg>
