<svg width="1940" height="961" viewBox="0 0 1440 711" fill="none" xmlns="http://www.w3.org/2000/svg">
<g clip-path="url(#clip0_310_152)">
<rect width="1440" height="711" fill="white"/>
<path d="M719.355 -268.262L720.368 243.049L720.44 465.895L719.799 976.929" stroke="#7D00FF" stroke-opacity="0.07" stroke-linecap="round" stroke-linejoin="round"/>
<path d="M145.112 977.11L617.466 465.928L617.393 243.082L143.213 -268.076" stroke="#7D00FF" stroke-opacity="0.07" stroke-linecap="round" stroke-linejoin="round"/>
<path d="M1295.49 -268.447L823.349 243.015L823.421 465.862L1294.48 976.745" stroke="#7D00FF" stroke-opacity="0.07" stroke-linecap="round" stroke-linejoin="round"/>
<path d="M-430.335 666.316L308.536 466.028L308.465 243.18L-430.322 43.9398" stroke="#7D00FF" stroke-opacity="0.07" stroke-linecap="round" stroke-linejoin="round"/>
<path d="M-430.38 532.801L-0.392463 466.127L-0.463973 243.28L-430.494 177.052" stroke="#7D00FF" stroke-opacity="0.07" stroke-linecap="round" stroke-linejoin="round"/>
<path d="M-430.37 562.472L102.581 466.093L102.509 243.247L-430.504 147.454" stroke="#7D00FF" stroke-opacity="0.07" stroke-linecap="round" stroke-linejoin="round"/>
<path d="M-430.357 604.017L205.566 466.061L205.493 243.213L-430.518 106.022" stroke="#7D00FF" stroke-opacity="0.07" stroke-linecap="round" stroke-linejoin="round"/>
<path d="M-430.303 770.13L411.51 465.995L411.439 243.147L-430.57 -59.6658" stroke="#7D00FF" stroke-opacity="0.07" stroke-linecap="round" stroke-linejoin="round"/>
<path d="M-429.565 977.296L514.494 465.962L514.422 243.116L-430.637 -266.659" stroke="#7D00FF" stroke-opacity="0.07" stroke-linecap="round" stroke-linejoin="round"/>
<path d="M1871.31 532.09L1441.28 465.662L1441.21 242.816L1871.2 176.283" stroke="#7D00FF" stroke-opacity="0.07" stroke-linecap="round" stroke-linejoin="round"/>
<path d="M1871.19 146.664L1338.25 242.848L1338.31 465.697L1871.33 561.788" stroke="#7D00FF" stroke-opacity="0.07" stroke-linecap="round" stroke-linejoin="round"/>
<path d="M1871.18 105.186L1235.26 242.882L1235.33 465.73L1871.52 603.407" stroke="#7D00FF" stroke-opacity="0.07" stroke-linecap="round" stroke-linejoin="round"/>
<path d="M1871.33 42.9201L1132.29 242.915L1132.35 465.761L1871.36 665.749" stroke="#7D00FF" stroke-opacity="0.07" stroke-linecap="round" stroke-linejoin="round"/>
<path d="M1871.3 -60.8229L1029.31 242.949L1029.38 465.797L1871.39 769.735" stroke="#7D00FF" stroke-opacity="0.07" stroke-linecap="round" stroke-linejoin="round"/>
<path d="M1871.05 -268.314L926.324 242.982L926.396 465.829L1869.17 976.561" stroke="#7D00FF" stroke-opacity="0.07" stroke-linecap="round" stroke-linejoin="round"/>
<path d="M1871.12 -58.3595L-430.57 -57.6185" stroke="#7D00FF" stroke-opacity="0.07" stroke-linecap="round" stroke-linejoin="round"/>
<path d="M1871.19 143.042L-430.505 143.781" stroke="#7D00FF" stroke-opacity="0.07" stroke-linecap="round" stroke-linejoin="round"/>
<path d="M1871.16 74.8787L-430.527 75.621" stroke="#7D00FF" stroke-opacity="0.07" stroke-linecap="round" stroke-linejoin="round"/>
<path d="M1871.14 -1.75212L-430.552 -1.01172" stroke="#7D00FF" stroke-opacity="0.07" stroke-linecap="round" stroke-linejoin="round"/>
<path d="M1871.22 242.689L-430.474 243.431" stroke="#7D00FF" stroke-opacity="0.07" stroke-linecap="round" stroke-linejoin="round"/>
<path d="M1871.09 -136.402L-430.595 -135.659" stroke="#7D00FF" stroke-opacity="0.07" stroke-linecap="round" stroke-linejoin="round"/>
<path d="M1871.15 41.1923L-430.538 41.9337" stroke="#7D00FF" stroke-opacity="0.07" stroke-linecap="round" stroke-linejoin="round"/>
<path d="M1871.18 102.022L-430.518 102.763" stroke="#7D00FF" stroke-opacity="0.07" stroke-linecap="round" stroke-linejoin="round"/>
<path d="M1871.21 212.256L-430.483 212.999" stroke="#7D00FF" stroke-opacity="0.07" stroke-linecap="round" stroke-linejoin="round"/>
<path d="M1871.2 194.852L-430.489 195.593" stroke="#7D00FF" stroke-opacity="0.07" stroke-linecap="round" stroke-linejoin="round"/>
<path d="M1871.2 184.446L-430.493 185.187" stroke="#7D00FF" stroke-opacity="0.07" stroke-linecap="round" stroke-linejoin="round"/>
<path d="M1871.21 204.063L-430.486 204.803" stroke="#7D00FF" stroke-opacity="0.07" stroke-linecap="round" stroke-linejoin="round"/>
<path d="M1871.22 226.234L-430.479 226.973" stroke="#7D00FF" stroke-opacity="0.07" stroke-linecap="round" stroke-linejoin="round"/>
<path d="M1871.21 219.609L-430.481 220.349" stroke="#7D00FF" stroke-opacity="0.07" stroke-linecap="round" stroke-linejoin="round"/>
<path d="M1871.22 232.231L-430.477 232.971" stroke="#7D00FF" stroke-opacity="0.07" stroke-linecap="round" stroke-linejoin="round"/>
<path d="M1871.22 237.696L-430.475 238.437" stroke="#7D00FF" stroke-opacity="0.07" stroke-linecap="round" stroke-linejoin="round"/>
<path d="M1871.06 -250.87L-430.633 -250.129" stroke="#7D00FF" stroke-opacity="0.07" stroke-linecap="round" stroke-linejoin="round"/>
<path d="M1871.19 158.919L-430.5 159.659" stroke="#7D00FF" stroke-opacity="0.07" stroke-linecap="round" stroke-linejoin="round"/>
<path d="M1871.18 124.348L-430.512 125.09" stroke="#7D00FF" stroke-opacity="0.07" stroke-linecap="round" stroke-linejoin="round"/>
<path d="M1871.19 172.572L-430.497 173.315" stroke="#7D00FF" stroke-opacity="0.07" stroke-linecap="round" stroke-linejoin="round"/>
<path d="M-430.401 466.266L1871.3 465.526" stroke="#7D00FF" stroke-opacity="0.07" stroke-linecap="round" stroke-linejoin="round"/>
<path d="M-430.419 410.559L1871.28 409.819" stroke="#7D00FF" stroke-opacity="0.07" stroke-linecap="round" stroke-linejoin="round"/>
<path d="M-430.437 354.852L1871.26 354.112" stroke="#7D00FF" stroke-opacity="0.07" stroke-linecap="round" stroke-linejoin="round"/>
<path d="M-430.455 299.138L1871.23 298.396" stroke="#7D00FF" stroke-opacity="0.07" stroke-linecap="round" stroke-linejoin="round"/>
<path d="M-430.473 243.431L1871.22 242.689" stroke="#7D00FF" stroke-opacity="0.07" stroke-linecap="round" stroke-linejoin="round"/>
<path d="M1870.79 465.524L-430.401 466.266" stroke="#7D00FF" stroke-opacity="0.07" stroke-linecap="round" stroke-linejoin="round"/>
<path d="M1871.29 470.531L-430.4 471.273" stroke="#7D00FF" stroke-opacity="0.07" stroke-linecap="round" stroke-linejoin="round"/>
<path d="M1871.3 476.01L-430.399 476.751" stroke="#7D00FF" stroke-opacity="0.07" stroke-linecap="round" stroke-linejoin="round"/>
<path d="M1871.3 482.031L-430.397 482.772" stroke="#7D00FF" stroke-opacity="0.07" stroke-linecap="round" stroke-linejoin="round"/>
<path d="M1871.3 488.667L-430.394 489.409" stroke="#7D00FF" stroke-opacity="0.07" stroke-linecap="round" stroke-linejoin="round"/>
<path d="M1871.3 496.036L-430.392 496.777" stroke="#7D00FF" stroke-opacity="0.07" stroke-linecap="round" stroke-linejoin="round"/>
<path d="M1871.31 504.256L-430.389 504.996" stroke="#7D00FF" stroke-opacity="0.07" stroke-linecap="round" stroke-linejoin="round"/>
<path d="M1871.31 513.49L-430.386 514.23" stroke="#7D00FF" stroke-opacity="0.07" stroke-linecap="round" stroke-linejoin="round"/>
<path d="M1871.31 523.926L-430.383 524.666" stroke="#7D00FF" stroke-opacity="0.07" stroke-linecap="round" stroke-linejoin="round"/>
<path d="M1871.32 535.824L-430.379 536.564" stroke="#7D00FF" stroke-opacity="0.07" stroke-linecap="round" stroke-linejoin="round"/>
<path d="M1871.31 549.513L-430.375 550.255" stroke="#7D00FF" stroke-opacity="0.07" stroke-linecap="round" stroke-linejoin="round"/>
<path d="M1871.32 565.44L-430.37 566.181" stroke="#7D00FF" stroke-opacity="0.07" stroke-linecap="round" stroke-linejoin="round"/>
<path d="M1871.33 584.179L-430.363 584.921" stroke="#7D00FF" stroke-opacity="0.07" stroke-linecap="round" stroke-linejoin="round"/>
<path d="M1871.33 606.566L-430.357 607.309" stroke="#7D00FF" stroke-opacity="0.07" stroke-linecap="round" stroke-linejoin="round"/>
<path d="M1871.34 633.779L-430.837 634.523" stroke="#7D00FF" stroke-opacity="0.07" stroke-linecap="round" stroke-linejoin="round"/>
<path d="M1871.36 667.561L-430.337 668.3" stroke="#7D00FF" stroke-opacity="0.07" stroke-linecap="round" stroke-linejoin="round"/>
<path d="M1871.37 710.62L-430.323 711.361" stroke="#7D00FF" stroke-opacity="0.07" stroke-linecap="round" stroke-linejoin="round"/>
<path d="M1871.39 767.388L-430.305 768.134" stroke="#7D00FF" stroke-opacity="0.07" stroke-linecap="round" stroke-linejoin="round"/>
<path d="M1871.41 845.647L-430.28 846.39" stroke="#7D00FF" stroke-opacity="0.07" stroke-linecap="round" stroke-linejoin="round"/>
<path d="M1871.45 960.451L-430.242 961.19" stroke="#7D00FF" stroke-opacity="0.07" stroke-linecap="round" stroke-linejoin="round"/>
</g>
<defs>
<clipPath id="clip0_310_152">
<rect width="1440" height="711" fill="white"/>
</clipPath>
</defs>
</svg>
