<svg width="264" height="311" viewBox="0 0 264 311" fill="none" xmlns="http://www.w3.org/2000/svg">
<path d="M22.5335 39.1585C22.5335 30.3219 29.697 23.1584 38.5335 23.1584H165.003C169.202 23.1584 173.233 24.8092 176.226 27.7546L237.368 87.926C240.424 90.9336 242.145 95.042 242.145 99.3299V280.552C242.145 289.389 234.981 296.552 226.145 296.552H38.5335C29.697 296.552 22.5335 289.389 22.5335 280.552V39.1585Z" fill="#E2E8F0"/>
<path d="M6.84698 21.2312C6.84698 12.3947 14.0104 5.2312 22.847 5.2312H149.316C153.516 5.2312 157.546 6.88196 160.539 9.82735L221.681 69.9988C224.737 73.0064 226.458 77.1148 226.458 81.4026V262.625C226.458 271.462 219.295 278.625 210.458 278.625H22.847C14.0104 278.625 6.84698 271.462 6.84698 262.625V21.2312Z" fill="white"/>
<rect x="33.7382" y="118.743" width="160.618" height="11.2047" rx="4" fill="url(#paint0_linear_125_475)"/>
<rect x="33.7382" y="147.875" width="160.618" height="11.2047" rx="4" fill="url(#paint1_linear_125_475)"/>
<rect x="33.7382" y="89.6113" width="96.0628" height="11.2047" rx="4" fill="url(#paint2_linear_125_475)"/>
<path d="M38.5009 228.959C37.1856 228.959 36.0573 228.499 35.1162 227.581C34.1863 226.651 33.7271 225.523 33.7384 224.196C33.7271 222.903 34.1863 221.798 35.1162 220.879C36.0573 219.961 37.1856 219.502 38.5009 219.502C39.7483 219.502 40.8482 219.961 41.8007 220.879C42.7645 221.798 43.2521 222.903 43.2635 224.196C43.2521 225.081 43.0197 225.886 42.5661 226.611C42.1239 227.326 41.5455 227.898 40.8312 228.329C40.1168 228.749 39.34 228.959 38.5009 228.959Z" fill="url(#paint3_linear_125_475)"/>
<path d="M62.5857 193.58H71.9066V217.461C71.8952 219.728 71.3226 221.724 70.1887 223.448C69.0661 225.16 67.5126 226.498 65.5282 227.462C63.5552 228.414 61.2816 228.891 58.7076 228.891C56.4738 228.891 54.4327 228.505 52.5844 227.734C50.7361 226.952 49.262 225.727 48.162 224.06C47.0621 222.382 46.5178 220.205 46.5292 217.529H55.9862C56.0202 218.402 56.1676 219.139 56.4284 219.74C56.7006 220.341 57.0747 220.794 57.551 221.101C58.0386 221.395 58.6282 221.543 59.3199 221.543C60.023 221.543 60.6126 221.39 61.0889 221.084C61.5765 220.777 61.945 220.324 62.1945 219.723C62.4439 219.11 62.5743 218.356 62.5857 217.461V193.58Z" fill="url(#paint4_linear_125_475)"/>
<path d="M95.1664 204.466C95.0756 203.332 94.6504 202.447 93.8907 201.812C93.1423 201.177 92.0027 200.86 90.4719 200.86C89.4967 200.86 88.6973 200.979 88.0736 201.217C87.4613 201.444 87.0077 201.756 86.7129 202.153C86.4181 202.549 86.265 203.003 86.2537 203.513C86.231 203.933 86.3047 204.313 86.4748 204.653C86.6562 204.982 86.9397 205.282 87.3252 205.554C87.7108 205.815 88.204 206.053 88.805 206.269C89.406 206.484 90.1204 206.677 90.9481 206.847L93.8056 207.459C95.7333 207.868 97.3832 208.406 98.7553 209.075C100.127 209.744 101.25 210.532 102.123 211.439C102.996 212.335 103.637 213.344 104.045 214.467C104.465 215.59 104.68 216.814 104.691 218.141C104.68 220.432 104.107 222.371 102.973 223.958C101.84 225.546 100.218 226.753 98.1089 227.581C96.0111 228.409 93.4881 228.823 90.5399 228.823C87.5123 228.823 84.8703 228.375 82.6137 227.479C80.3685 226.583 78.6223 225.205 77.375 223.346C76.139 221.475 75.5153 219.082 75.504 216.168H84.4847C84.5414 217.234 84.8079 218.13 85.2841 218.855C85.7604 219.581 86.4294 220.131 87.2912 220.505C88.1643 220.879 89.2019 221.067 90.4038 221.067C91.413 221.067 92.2578 220.942 92.9382 220.692C93.6185 220.443 94.1345 220.097 94.486 219.655C94.8375 219.213 95.0189 218.708 95.0303 218.141C95.0189 217.608 94.8432 217.143 94.503 216.746C94.1742 216.338 93.6299 215.975 92.8701 215.658C92.1104 215.329 91.0842 215.023 89.7915 214.739L86.3217 213.991C83.2374 213.322 80.8051 212.205 79.0248 210.64C77.2559 209.064 76.3771 206.915 76.3884 204.194C76.3771 201.982 76.9667 200.049 78.1574 198.394C79.3593 196.727 81.0206 195.428 83.141 194.498C85.2728 193.569 87.7164 193.104 90.4719 193.104C93.284 193.104 95.7163 193.574 97.7687 194.516C99.8212 195.457 101.403 196.783 102.514 198.496C103.637 200.197 104.204 202.187 104.215 204.466H95.1664Z" fill="url(#paint5_linear_125_475)"/>
<path d="M142.035 210.997C142.035 214.875 141.281 218.147 139.772 220.811C138.264 223.465 136.229 225.478 133.666 226.85C131.104 228.21 128.246 228.891 125.094 228.891C121.919 228.891 119.05 228.205 116.487 226.833C113.936 225.449 111.906 223.431 110.398 220.777C108.901 218.113 108.153 214.853 108.153 210.997C108.153 207.119 108.901 203.853 110.398 201.2C111.906 198.535 113.936 196.523 116.487 195.162C119.05 193.79 121.919 193.104 125.094 193.104C128.246 193.104 131.104 193.79 133.666 195.162C136.229 196.523 138.264 198.535 139.772 201.2C141.281 203.853 142.035 207.119 142.035 210.997ZM132.305 210.997C132.305 208.911 132.028 207.153 131.472 205.724C130.928 204.284 130.117 203.196 129.04 202.459C127.974 201.71 126.658 201.336 125.094 201.336C123.529 201.336 122.208 201.71 121.131 202.459C120.065 203.196 119.254 204.284 118.698 205.724C118.154 207.153 117.882 208.911 117.882 210.997C117.882 213.084 118.154 214.847 118.698 216.287C119.254 217.716 120.065 218.804 121.131 219.553C122.208 220.29 123.529 220.658 125.094 220.658C126.658 220.658 127.974 220.29 129.04 219.553C130.117 218.804 130.928 217.716 131.472 216.287C132.028 214.847 132.305 213.084 132.305 210.997Z" fill="url(#paint6_linear_125_475)"/>
<path d="M176.55 193.58V228.414H168.658L156.071 210.113H155.867V228.414H146.41V193.58H154.438L166.821 211.814H167.093V193.58H176.55Z" fill="url(#paint7_linear_125_475)"/>
<path fill-rule="evenodd" clip-rule="evenodd" d="M225.631 222.709V72.0007C225.644 69.651 224.732 67.3379 223.005 65.611L160.469 3.07466C160.329 2.93446 160.185 2.79963 160.037 2.67024C158.354 1.195 156.207 0.425858 154.031 0.449504H45.5033C20.7507 0.449504 0.684692 20.5155 0.684692 45.2681V235.207C0.684692 259.959 20.7507 280.025 45.5033 280.025H175.957C175.34 277.126 174.988 274.13 174.927 271.062H45.5033C25.7012 271.062 9.64842 255.009 9.64842 235.207V45.2681C9.64842 25.466 25.7012 9.41323 45.5033 9.41323H145.167V36.0943C145.167 60.847 165.233 80.913 189.986 80.913H216.667L216.667 222.945C218.549 222.718 220.465 222.602 222.409 222.602C223.492 222.602 224.566 222.638 225.631 222.709ZM154.131 36.0943C154.131 55.8965 170.183 71.9493 189.986 71.9493H216.667L154.131 9.41323V36.0943Z" fill="url(#paint8_linear_125_475)"/>
<circle cx="221.718" cy="269.403" r="38.5968" fill="#7D00FF" stroke="white" stroke-width="6"/>
<path fill-rule="evenodd" clip-rule="evenodd" d="M224.429 278.24V248.023H219.007V278.239L205.452 265.199L201.618 268.888L221.718 288.224L241.819 268.888L237.985 265.199L224.429 278.24Z" fill="white"/>
<defs>
<linearGradient id="paint0_linear_125_475" x1="38.4853" y1="119.185" x2="41.7873" y2="146.725" gradientUnits="userSpaceOnUse">
<stop stop-color="#BD30FF"/>
<stop offset="1" stop-color="#7D00FF"/>
</linearGradient>
<linearGradient id="paint1_linear_125_475" x1="38.4853" y1="148.317" x2="41.7873" y2="175.857" gradientUnits="userSpaceOnUse">
<stop stop-color="#BD30FF"/>
<stop offset="1" stop-color="#7D00FF"/>
</linearGradient>
<linearGradient id="paint2_linear_125_475" x1="36.5774" y1="90.0529" x2="41.9614" y2="116.909" gradientUnits="userSpaceOnUse">
<stop stop-color="#BD30FF"/>
<stop offset="1" stop-color="#7D00FF"/>
</linearGradient>
<linearGradient id="paint3_linear_125_475" x1="37.9591" y1="194.517" x2="70.4788" y2="269.878" gradientUnits="userSpaceOnUse">
<stop stop-color="#BD30FF"/>
<stop offset="1" stop-color="#7D00FF"/>
</linearGradient>
<linearGradient id="paint4_linear_125_475" x1="37.9591" y1="194.517" x2="70.4788" y2="269.878" gradientUnits="userSpaceOnUse">
<stop stop-color="#BD30FF"/>
<stop offset="1" stop-color="#7D00FF"/>
</linearGradient>
<linearGradient id="paint5_linear_125_475" x1="37.9591" y1="194.517" x2="70.4788" y2="269.878" gradientUnits="userSpaceOnUse">
<stop stop-color="#BD30FF"/>
<stop offset="1" stop-color="#7D00FF"/>
</linearGradient>
<linearGradient id="paint6_linear_125_475" x1="37.9591" y1="194.517" x2="70.4788" y2="269.878" gradientUnits="userSpaceOnUse">
<stop stop-color="#BD30FF"/>
<stop offset="1" stop-color="#7D00FF"/>
</linearGradient>
<linearGradient id="paint7_linear_125_475" x1="37.9591" y1="194.517" x2="70.4788" y2="269.878" gradientUnits="userSpaceOnUse">
<stop stop-color="#BD30FF"/>
<stop offset="1" stop-color="#7D00FF"/>
</linearGradient>
<linearGradient id="paint8_linear_125_475" x1="7.33303" y1="11.4668" x2="274.986" y2="136.763" gradientUnits="userSpaceOnUse">
<stop stop-color="#BD30FF"/>
<stop offset="1" stop-color="#7D00FF"/>
</linearGradient>
</defs>
</svg>
