<svg width="339" height="201" viewBox="0 0 339 201" fill="none" xmlns="http://www.w3.org/2000/svg">
<g clip-path="url(#clip0_207_6366)">
<path d="M101.072 0.500008L1 0.5" stroke="black" stroke-opacity="0.1"/>
<path d="M101.072 12.9814H1" stroke="black" stroke-opacity="0.1"/>
<path d="M101.072 25.4629H1" stroke="black" stroke-opacity="0.1"/>
<path d="M100.572 99.8682V0.00473022" stroke="black" stroke-opacity="0.1"/>
<path d="M101.072 37.9463H1" stroke="black" stroke-opacity="0.1"/>
<path d="M88.0635 99.8682V0.00473022" stroke="black" stroke-opacity="0.1"/>
<path d="M101.072 50.4287H1" stroke="black" stroke-opacity="0.1"/>
<path d="M75.5542 99.8682V0.00473022" stroke="black" stroke-opacity="0.1"/>
<path d="M101.072 62.9092H1" stroke="black" stroke-opacity="0.1"/>
<path d="M63.0454 99.8682V0.00473022" stroke="black" stroke-opacity="0.1"/>
<path d="M101.072 75.3994H1" stroke="black" stroke-opacity="0.1"/>
<path d="M50.5361 99.8682L50.5362 0.00473022" stroke="black" stroke-opacity="0.1"/>
<path d="M101.072 87.8857H1" stroke="black" stroke-opacity="0.1"/>
<path d="M38.0273 99.8682L38.0274 0.00473022" stroke="black" stroke-opacity="0.1"/>
<path d="M101.072 100.368H1" stroke="black" stroke-opacity="0.1"/>
<path d="M25.5181 99.8682V0.00473022" stroke="black" stroke-opacity="0.1"/>
<path d="M13.0093 99.8682V0.00473022" stroke="black" stroke-opacity="0.1"/>
<path d="M0.5 99.8682L0.500024 0.00473022" stroke="black" stroke-opacity="0.1"/>
<path d="M201.145 0.500008L101.073 0.5" stroke="black" stroke-opacity="0.1"/>
<path d="M201.145 12.9814H101.073" stroke="black" stroke-opacity="0.1"/>
<path d="M201.145 25.4629H101.073" stroke="black" stroke-opacity="0.1"/>
<path d="M200.645 99.8682V0.00473022" stroke="black" stroke-opacity="0.1"/>
<path d="M201.145 37.9463H101.073" stroke="black" stroke-opacity="0.1"/>
<path d="M188.136 99.8682V0.00473022" stroke="black" stroke-opacity="0.1"/>
<path d="M201.145 50.4287H101.073" stroke="black" stroke-opacity="0.1"/>
<path d="M175.627 99.8682V0.00473022" stroke="black" stroke-opacity="0.1"/>
<path d="M201.145 62.9102L101.073 62.9101" stroke="black" stroke-opacity="0.1"/>
<path d="M163.118 99.8682V0.00473022" stroke="black" stroke-opacity="0.1"/>
<path d="M201.145 75.3994H101.073" stroke="black" stroke-opacity="0.1"/>
<path d="M150.609 99.8682V0.00473022" stroke="black" stroke-opacity="0.1"/>
<path d="M201.145 87.8857H101.073" stroke="black" stroke-opacity="0.1"/>
<path d="M138.1 99.8682V0.00473022" stroke="black" stroke-opacity="0.1"/>
<path d="M201.145 100.368H101.073" stroke="black" stroke-opacity="0.1"/>
<path d="M125.591 99.8682V0.00473022" stroke="black" stroke-opacity="0.1"/>
<path d="M113.082 99.8682V0.00473022" stroke="black" stroke-opacity="0.1"/>
<path d="M101.072 113.112H1" stroke="black" stroke-opacity="0.1"/>
<path d="M101.072 125.597H1" stroke="black" stroke-opacity="0.1"/>
<path d="M100.572 199.999V100.136" stroke="black" stroke-opacity="0.1"/>
<path d="M101.072 138.079H1" stroke="black" stroke-opacity="0.1"/>
<path d="M88.0635 199.999V100.136" stroke="black" stroke-opacity="0.1"/>
<path d="M101.072 150.56H1" stroke="black" stroke-opacity="0.1"/>
<path d="M75.5542 199.999V100.136" stroke="black" stroke-opacity="0.1"/>
<path d="M101.072 163.041H1" stroke="black" stroke-opacity="0.1"/>
<path d="M63.0454 199.999V100.136" stroke="black" stroke-opacity="0.1"/>
<path d="M101.072 175.533H1" stroke="black" stroke-opacity="0.1"/>
<path d="M50.5361 199.999L50.5362 100.136" stroke="black" stroke-opacity="0.1"/>
<path d="M101.072 188.016H1" stroke="black" stroke-opacity="0.1"/>
<path d="M38.0273 199.999L38.0274 100.136" stroke="black" stroke-opacity="0.1"/>
<path d="M101.072 200.499H1" stroke="black" stroke-opacity="0.1"/>
<path d="M25.5181 199.999V100.136" stroke="black" stroke-opacity="0.1"/>
<path d="M13.0093 199.999V100.136" stroke="black" stroke-opacity="0.1"/>
<path d="M0.5 199.999L0.500024 100.136" stroke="black" stroke-opacity="0.1"/>
<path d="M201.145 113.112H101.073" stroke="black" stroke-opacity="0.1"/>
<path d="M201.145 125.596H101.073" stroke="black" stroke-opacity="0.1"/>
<path d="M200.645 199.993V100.13" stroke="black" stroke-opacity="0.1"/>
<path d="M201.145 138.081H101.073" stroke="black" stroke-opacity="0.1"/>
<path d="M188.136 199.993V100.13" stroke="black" stroke-opacity="0.1"/>
<path d="M201.145 150.565H101.073" stroke="black" stroke-opacity="0.1"/>
<path d="M175.627 199.993V100.13" stroke="black" stroke-opacity="0.1"/>
<path d="M201.145 163.047H101.073" stroke="black" stroke-opacity="0.1"/>
<path d="M163.118 199.993V100.13" stroke="black" stroke-opacity="0.1"/>
<path d="M201.145 175.527H101.073" stroke="black" stroke-opacity="0.1"/>
<path d="M150.609 199.993V100.13" stroke="black" stroke-opacity="0.1"/>
<path d="M201.145 188.014H101.073" stroke="black" stroke-opacity="0.1"/>
<path d="M138.1 199.993V100.13" stroke="black" stroke-opacity="0.1"/>
<path d="M201.145 200.493H101.073" stroke="black" stroke-opacity="0.1"/>
<path d="M125.591 199.993V100.13" stroke="black" stroke-opacity="0.1"/>
<path d="M113.082 199.993V100.13" stroke="black" stroke-opacity="0.1"/>
<path d="M238.928 0.500003L201.145 0.5" stroke="black" stroke-opacity="0.1"/>
<path d="M238.928 12.9805H201.145" stroke="black" stroke-opacity="0.1"/>
<path d="M238.928 25.3975H201.145" stroke="black" stroke-opacity="0.1"/>
<path d="M238.428 99.8682V0.00473022" stroke="black" stroke-opacity="0.1"/>
<path d="M238.928 38.2549H201.145" stroke="black" stroke-opacity="0.1"/>
<path d="M225.918 99.8682V0.00473022" stroke="black" stroke-opacity="0.1"/>
<path d="M238.928 50.499H201.145" stroke="black" stroke-opacity="0.1"/>
<path d="M213.409 99.8682V0.00473022" stroke="black" stroke-opacity="0.1"/>
<path d="M238.928 62.9072H201.145" stroke="black" stroke-opacity="0.1"/>
<path d="M238.928 75.3984H201.145" stroke="black" stroke-opacity="0.1"/>
<path d="M238.928 87.8867H201.145" stroke="black" stroke-opacity="0.1"/>
<path d="M238.928 100.368H138.855" stroke="black" stroke-opacity="0.1"/>
<path d="M339 0.500008L238.928 0.5" stroke="black" stroke-opacity="0.1"/>
<path d="M339 12.9814H238.928" stroke="black" stroke-opacity="0.1"/>
<path d="M339 25.4629H238.928" stroke="black" stroke-opacity="0.1"/>
<path d="M338.5 99.8682V0.00473022" stroke="black" stroke-opacity="0.1"/>
<path d="M339 37.9463H238.928" stroke="black" stroke-opacity="0.1"/>
<path d="M325.991 99.8682V0.00473022" stroke="black" stroke-opacity="0.1"/>
<path d="M339 50.4287H238.928" stroke="black" stroke-opacity="0.1"/>
<path d="M313.482 99.8682V0.00473022" stroke="black" stroke-opacity="0.1"/>
<path d="M339 62.9092H238.928" stroke="black" stroke-opacity="0.1"/>
<path d="M300.973 99.8682V0.00473022" stroke="black" stroke-opacity="0.1"/>
<path d="M339 75.3994H238.928" stroke="black" stroke-opacity="0.1"/>
<path d="M288.464 99.8682V0.00473022" stroke="black" stroke-opacity="0.1"/>
<path d="M339 87.8857H238.928" stroke="black" stroke-opacity="0.1"/>
<path d="M275.955 99.8682V0.00473022" stroke="black" stroke-opacity="0.1"/>
<path d="M339 100.368H238.928" stroke="black" stroke-opacity="0.1"/>
<path d="M263.446 99.8682V0.00473022" stroke="black" stroke-opacity="0.1"/>
<path d="M250.937 99.8682V0.00473022" stroke="black" stroke-opacity="0.1"/>
<path d="M238.928 100.499H224.632" stroke="black" stroke-opacity="0.1"/>
<path d="M238.928 112.744H201.145" stroke="black" stroke-opacity="0.1"/>
<path d="M238.928 126.01H201.145" stroke="black" stroke-opacity="0.1"/>
<path d="M238.428 199.999V100.136" stroke="black" stroke-opacity="0.1"/>
<path d="M238.928 138.254H201.145" stroke="black" stroke-opacity="0.1"/>
<path d="M225.918 199.999V100.136" stroke="black" stroke-opacity="0.1"/>
<path d="M238.928 150.498H201.145" stroke="black" stroke-opacity="0.1"/>
<path d="M213.409 199.999V100.136" stroke="black" stroke-opacity="0.1"/>
<path d="M238.928 163.05H201.145" stroke="black" stroke-opacity="0.1"/>
<path d="M238.928 175.527H201.145" stroke="black" stroke-opacity="0.1"/>
<path d="M238.928 188.017H201.145" stroke="black" stroke-opacity="0.1"/>
<path d="M238.928 200.497H201.145" stroke="black" stroke-opacity="0.1"/>
<path d="M339 113.112H238.928" stroke="black" stroke-opacity="0.1"/>
<path d="M339 125.596H238.928" stroke="black" stroke-opacity="0.1"/>
<path d="M338.5 199.993V100.13" stroke="black" stroke-opacity="0.1"/>
<path d="M339 138.081H238.928" stroke="black" stroke-opacity="0.1"/>
<path d="M325.991 199.993V100.13" stroke="black" stroke-opacity="0.1"/>
<path d="M339 150.565H238.928" stroke="black" stroke-opacity="0.1"/>
<path d="M313.482 199.993V100.13" stroke="black" stroke-opacity="0.1"/>
<path d="M339 163.047H238.928" stroke="black" stroke-opacity="0.1"/>
<path d="M300.973 199.993V100.13" stroke="black" stroke-opacity="0.1"/>
<path d="M339 175.528H238.928" stroke="black" stroke-opacity="0.1"/>
<path d="M288.464 199.993V100.13" stroke="black" stroke-opacity="0.1"/>
<path d="M339 188.015H238.928" stroke="black" stroke-opacity="0.1"/>
<path d="M275.955 199.993V100.13" stroke="black" stroke-opacity="0.1"/>
<path d="M339 200.493H238.928" stroke="black" stroke-opacity="0.1"/>
<path d="M263.446 199.993V100.13" stroke="black" stroke-opacity="0.1"/>
<path d="M250.937 199.993V100.13" stroke="black" stroke-opacity="0.1"/>
<mask id="mask0_207_6366" style="mask-type:alpha" maskUnits="userSpaceOnUse" x="43" y="-43" width="391" height="261">
<path d="M433.473 75.2466H420.063H406.654H393.244H379.834H366.425H353.015V75.2466C344.949 75.2466 337.727 80.2481 334.891 87.7997L329.7 101.616C327.592 107.228 322.226 110.945 316.231 110.945H315.174C313.605 110.945 312.057 110.575 310.658 109.864V109.864C304.907 106.943 297.938 110.168 296.441 116.442L289.079 147.301C287.255 154.949 280.42 160.345 272.558 160.345V160.345H259.149H258.578C250.602 160.345 243.2 156.198 239.034 149.396V149.396C234.869 142.594 227.467 138.447 219.491 138.447H218.92H216.659C209.639 138.447 203.027 135.148 198.806 129.54L196.133 125.989C193.594 122.616 189.618 120.633 185.396 120.633V120.633C181.174 120.633 177.198 122.616 174.659 125.989L171.975 129.555C167.759 135.156 161.163 138.458 154.152 138.477L151.872 138.483H138.463V138.483C130.399 138.483 123.183 143.491 120.363 151.045L116.334 161.835C113.514 169.389 106.298 174.397 98.2341 174.397V174.397H94.0849C88.1404 174.397 82.4238 172.11 78.1198 168.01V168.01C73.8158 163.909 68.0992 161.622 62.1547 161.622H58.0055H44.5959" stroke="url(#paint0_linear_207_6366)"/>
<path d="M432.185 7H418.775H405.365H391.956H378.546H365.137H351.727V7C343.661 7 336.439 12.0015 333.602 19.5531L328.412 33.3699C326.304 38.9818 320.938 42.6986 314.943 42.6986H313.886C312.317 42.6986 310.769 42.3282 309.37 41.6175V41.6175C303.619 38.6967 296.65 41.9211 295.153 48.1952L287.791 79.0547C285.967 86.7023 279.132 92.0982 271.27 92.0982V92.0982H257.861H257.29C249.314 92.0982 241.911 87.9511 237.746 81.1491V81.1491C233.581 74.347 226.179 70.2 218.203 70.2H217.632H215.371C208.351 70.2 201.739 66.9014 197.518 61.293L194.845 57.7427C192.306 54.3698 188.33 52.386 184.108 52.386V52.386C179.886 52.386 175.91 54.3698 173.371 57.7427L170.687 61.3081C166.471 66.9089 159.875 70.2111 152.864 70.2301L150.584 70.2363H137.175V70.2363C129.111 70.2363 121.895 75.2444 119.075 82.7987L115.046 93.5882C112.225 101.143 105.01 106.151 96.946 106.151V106.151H92.7968C86.8523 106.151 81.1357 103.864 76.8317 99.7632V99.7632C72.5277 95.6628 66.8111 93.3757 60.8666 93.3757H56.7174H43.3079" stroke="url(#paint1_linear_207_6366)"/>
<path d="M433.473 82.9726H420.063H406.654H393.244H379.834H366.425H353.015V82.9726C344.942 82.9726 337.708 87.9598 334.836 95.5052L329.747 108.877C327.609 114.495 322.224 118.208 316.213 118.208H315.161C313.6 118.208 312.06 117.843 310.664 117.143V117.143C304.891 114.25 297.928 117.481 296.411 123.758L289.118 153.931C287.27 161.579 280.426 166.966 272.558 166.966V166.966H259.149H258.457C250.549 166.966 243.203 162.878 239.034 156.159V156.159C234.865 149.439 227.519 145.352 219.612 145.352H218.92H216.567C209.599 145.352 203.031 142.101 198.806 136.56L196.167 133.1C193.605 129.741 189.621 127.769 185.396 127.769V127.769C181.171 127.769 177.188 129.741 174.625 133.1L171.975 136.575C167.756 142.108 161.202 145.363 154.244 145.381L151.872 145.388H138.463V145.388C130.392 145.388 123.164 150.381 120.309 157.93L116.388 168.293C113.533 175.842 106.304 180.836 98.2341 180.836V180.836H94.0279C88.116 180.836 82.4267 178.581 78.1198 174.531V174.531C73.8129 170.481 68.1236 168.227 62.2117 168.227H58.0055H44.5959" stroke="url(#paint2_linear_207_6366)"/>
<path d="M432.185 14.726H418.775H405.365H391.956H378.546H365.137H351.727V14.726C343.654 14.726 336.42 19.7132 333.548 27.2586L328.459 40.6307C326.321 46.2482 320.936 49.961 314.925 49.961H313.873C312.312 49.961 310.772 49.5966 309.376 48.8969V48.8969C303.603 46.0032 296.64 49.2346 295.123 55.511L287.83 85.6848C285.982 93.332 279.137 98.719 271.27 98.719V98.719H257.861H257.169C249.261 98.719 241.915 94.6317 237.746 87.9121V87.9121C233.577 81.1926 226.231 77.1052 218.324 77.1052H217.632H215.279C208.311 77.1052 201.743 73.854 197.518 68.3139L194.879 64.8539C192.316 61.4942 188.333 59.5226 184.108 59.5226V59.5226C179.883 59.5226 175.9 61.4942 173.337 64.8539L170.687 68.3287C166.468 73.8614 159.914 77.1161 152.956 77.1347L150.584 77.141H137.175V77.141C129.104 77.141 121.876 82.1349 119.021 89.6832L115.1 100.047C112.245 107.595 105.016 112.589 96.946 112.589V112.589H92.7398C86.8279 112.589 81.1386 110.334 76.8317 106.284V106.284C72.5248 102.235 66.8355 99.9799 60.9236 99.9799H56.7174H43.3079" stroke="url(#paint3_linear_207_6366)"/>
<path d="M433.473 89.4109H420.063H406.654H393.244H379.834H366.425H353.015V89.4109C344.949 89.4109 337.727 94.4125 334.891 101.964L329.7 115.781C327.592 121.393 322.226 125.11 316.231 125.11H315.174C313.605 125.11 312.057 124.739 310.658 124.028V124.028C304.907 121.108 297.938 124.332 296.441 130.606L289.079 161.466C287.255 169.113 280.42 174.509 272.558 174.509V174.509H259.149H258.578C250.602 174.509 243.2 170.362 239.034 163.56V163.56C234.869 156.758 227.467 152.611 219.491 152.611H218.92H216.659C209.639 152.611 203.027 149.312 198.806 143.704L196.133 140.154C193.594 136.781 189.618 134.797 185.396 134.797V134.797C181.174 134.797 177.198 136.781 174.659 140.154L171.975 143.719C167.759 149.32 161.163 152.622 154.152 152.641L151.872 152.647H138.463V152.647C130.399 152.647 123.183 157.655 120.363 165.21L116.334 175.999C113.514 183.554 106.298 188.562 98.2341 188.562V188.562H94.0849C88.1404 188.562 82.4238 186.274 78.1198 182.174V182.174C73.8158 178.074 68.0992 175.787 62.1547 175.787H58.0055H44.5959" stroke="url(#paint4_linear_207_6366)"/>
<path d="M432.185 21.1644H418.775H405.365H391.956H378.546H365.137H351.727V21.1644C343.661 21.1644 336.439 26.1659 333.602 33.7175L328.412 47.5343C326.304 53.1462 320.938 56.863 314.943 56.863H313.886C312.317 56.863 310.769 56.4926 309.37 55.7819V55.7819C303.619 52.8611 296.65 56.0854 295.153 62.3596L287.791 93.219C285.967 100.867 279.132 106.263 271.27 106.263V106.263H257.861H257.29C249.314 106.263 241.911 102.115 237.746 95.3134V95.3134C233.581 88.5114 226.179 84.3643 218.203 84.3643H217.632H215.371C208.351 84.3643 201.739 81.0657 197.518 75.4573L194.845 71.9071C192.306 68.5342 188.33 66.5504 184.108 66.5504V66.5504C179.886 66.5504 175.91 68.5342 173.371 71.9071L170.687 75.4725C166.471 81.0733 159.875 84.3755 152.864 84.3945L150.584 84.4006H137.175V84.4006C129.111 84.4006 121.895 89.4087 119.075 96.9631L115.046 107.753C112.225 115.307 105.01 120.315 96.946 120.315V120.315H92.7968C86.8523 120.315 81.1357 118.028 76.8317 113.928V113.928C72.5277 109.827 66.8111 107.54 60.8666 107.54H56.7174H43.3079" stroke="url(#paint5_linear_207_6366)"/>
<path d="M432.185 -41.9315H418.775H405.365H391.956H378.546H365.137H351.727V-41.9315C343.654 -41.9315 336.42 -36.9443 333.548 -29.3989L328.459 -16.0268C326.321 -10.4094 320.936 -6.6965 314.925 -6.6965H313.873C312.312 -6.6965 310.772 -7.06088 309.376 -7.76067V-7.76067C303.603 -10.6543 296.64 -7.42291 295.123 -1.14653L287.83 29.0273C285.982 36.6744 279.137 42.0615 271.27 42.0615V42.0615H257.861H257.169C249.261 42.0615 241.915 37.9741 237.746 31.2546V31.2546C233.577 24.535 226.231 20.4477 218.324 20.4477H217.632H215.279C208.311 20.4477 201.743 17.1965 197.518 11.6564L194.879 8.19632C192.316 4.83667 188.333 2.86506 184.108 2.86506V2.86506C179.883 2.86506 175.9 4.83667 173.337 8.19632L170.687 11.6712C166.468 17.2039 159.914 20.4586 152.956 20.4772L150.584 20.4835H137.175V20.4835C129.104 20.4835 121.876 25.4773 119.021 33.0256L115.1 43.3894C112.245 50.9377 105.016 55.9315 96.946 55.9315V55.9315H92.7398C86.8279 55.9315 81.1386 53.6768 76.8317 49.627V49.627C72.5248 45.5771 66.8355 43.3224 60.9236 43.3224H56.7174H43.3079" stroke="url(#paint6_linear_207_6366)"/>
<path d="M433.473 97.137H420.063H406.654H393.244H379.834H366.425H353.015V97.137C344.942 97.137 337.708 102.124 334.836 109.67L329.747 123.042C327.609 128.659 322.224 132.372 316.213 132.372H315.161C313.6 132.372 312.06 132.008 310.664 131.308V131.308C304.891 128.414 297.928 131.646 296.411 137.922L289.118 168.096C287.27 175.743 280.426 181.13 272.558 181.13V181.13H259.149H258.457C250.549 181.13 243.203 177.043 239.034 170.323V170.323C234.865 163.604 227.519 159.516 219.612 159.516H218.92H216.567C209.599 159.516 203.031 156.265 198.806 150.725L196.167 147.265C193.605 143.905 189.621 141.934 185.396 141.934V141.934C181.171 141.934 177.188 143.905 174.625 147.265L171.975 150.74C167.756 156.272 161.202 159.527 154.244 159.546L151.872 159.552H138.463V159.552C130.392 159.552 123.164 164.546 120.309 172.094L116.388 182.458C113.533 190.006 106.304 195 98.2341 195V195H94.0279C88.116 195 82.4267 192.745 78.1198 188.695V188.695C73.8129 184.646 68.1236 182.391 62.2117 182.391H58.0055H44.5959" stroke="url(#paint7_linear_207_6366)"/>
<path d="M432.185 28.8904H418.775H405.365H391.956H378.546H365.137H351.727V28.8904C343.654 28.8904 336.42 33.8776 333.548 41.423L328.459 54.7951C326.321 60.4126 320.936 64.1254 314.925 64.1254H313.873C312.312 64.1254 310.772 63.761 309.376 63.0613V63.0613C303.603 60.1676 296.64 63.399 295.123 69.6754L287.83 99.8492C285.982 107.496 279.137 112.883 271.27 112.883V112.883H257.861H257.169C249.261 112.883 241.915 108.796 237.746 102.077V102.077C233.577 95.357 226.231 91.2696 218.324 91.2696H217.632H215.279C208.311 91.2696 201.743 88.0184 197.518 82.4783L194.879 79.0183C192.316 75.6586 188.333 73.687 184.108 73.687V73.687C179.883 73.687 175.9 75.6586 173.337 79.0183L170.687 82.4931C166.468 88.0258 159.914 91.2805 152.956 91.2991L150.584 91.3054H137.175V91.3054C129.104 91.3054 121.876 96.2993 119.021 103.848L115.1 114.211C112.245 121.76 105.016 126.753 96.946 126.753V126.753H92.7398C86.8279 126.753 81.1386 124.499 76.8317 120.449V120.449C72.5248 116.399 66.8355 114.144 60.9236 114.144H56.7174H43.3079" stroke="url(#paint8_linear_207_6366)"/>
<path d="M432.185 -35.4932H418.775H405.365H391.956H378.546H365.137H351.727V-35.4932C343.661 -35.4932 336.439 -30.4916 333.602 -22.94L328.412 -9.12326C326.304 -3.51138 320.938 0.205473 314.943 0.205473H313.886C312.317 0.205473 310.769 -0.164934 309.37 -0.875628V-0.875628C303.619 -3.79648 296.65 -0.572098 295.153 5.70207L287.791 36.5615C285.967 44.2091 279.132 49.605 271.27 49.605V49.605H257.861H257.29C249.314 49.605 241.911 45.4579 237.746 38.6559V38.6559C233.581 31.8539 226.179 27.7068 218.203 27.7068H217.632H215.371C208.351 27.7068 201.739 24.4082 197.518 18.7998L194.845 15.2496C192.306 11.8767 188.33 9.89284 184.108 9.89284V9.89284C179.886 9.89284 175.91 11.8767 173.371 15.2496L170.687 18.8149C166.471 24.4158 159.875 27.7179 152.864 27.7369L150.584 27.7431H137.175V27.7431C129.111 27.7431 121.895 32.7512 119.075 40.3055L115.046 51.0951C112.225 58.6494 105.01 63.6575 96.946 63.6575V63.6575H92.7968C86.8523 63.6575 81.1357 61.3704 76.8317 57.27V57.27C72.5277 53.1697 66.8111 50.8825 60.8666 50.8825H56.7174H43.3079" stroke="url(#paint9_linear_207_6366)"/>
<path d="M433.473 103.575H420.063H406.654H393.244H379.834H366.425H353.015V103.575C344.949 103.575 337.727 108.577 334.891 116.128L329.7 129.945C327.592 135.557 322.226 139.274 316.231 139.274H315.174C313.605 139.274 312.057 138.904 310.658 138.193V138.193C304.907 135.272 297.938 138.496 296.441 144.771L289.079 175.63C287.255 183.278 280.42 188.673 272.558 188.673V188.673H259.149H258.578C250.602 188.673 243.2 184.526 239.034 177.724V177.724C234.869 170.922 227.467 166.775 219.491 166.775H218.92H216.659C209.639 166.775 203.027 163.477 198.806 157.868L196.133 154.318C193.594 150.945 189.618 148.961 185.396 148.961V148.961C181.174 148.961 177.198 150.945 174.659 154.318L171.975 157.883C167.759 163.484 161.163 166.786 154.152 166.805L151.872 166.812H138.463V166.812C130.399 166.812 123.183 171.82 120.363 179.374L116.334 190.164C113.514 197.718 106.298 202.726 98.2341 202.726V202.726H94.0849C88.1404 202.726 82.4238 200.439 78.1198 196.338V196.338C73.8158 192.238 68.0992 189.951 62.1547 189.951H58.0055H44.5959" stroke="url(#paint10_linear_207_6366)"/>
<path d="M432.185 35.3288H418.775H405.365H391.956H378.546H365.137H351.727V35.3288C343.661 35.3288 336.439 40.3303 333.602 47.8819L328.412 61.6987C326.304 67.3106 320.938 71.0274 314.943 71.0274H313.886C312.317 71.0274 310.769 70.657 309.37 69.9463V69.9463C303.619 67.0255 296.65 70.2498 295.153 76.524L287.791 107.383C285.967 115.031 279.132 120.427 271.27 120.427V120.427H257.861H257.29C249.314 120.427 241.911 116.28 237.746 109.478V109.478C233.581 102.676 226.179 98.5287 218.203 98.5287H217.632H215.371C208.351 98.5287 201.739 95.2301 197.518 89.6217L194.845 86.0715C192.306 82.6986 188.33 80.7148 184.108 80.7148V80.7148C179.886 80.7148 175.91 82.6986 173.371 86.0715L170.687 89.6369C166.471 95.2377 159.875 98.5399 152.864 98.5589L150.584 98.565H137.175V98.565C129.111 98.565 121.895 103.573 119.075 111.127L115.046 121.917C112.225 129.471 105.01 134.479 96.946 134.479V134.479H92.7968C86.8523 134.479 81.1357 132.192 76.8317 128.092V128.092C72.5277 123.992 66.8111 121.704 60.8666 121.704H56.7174H43.3079" stroke="url(#paint11_linear_207_6366)"/>
<path d="M432.185 -27.7671H418.775H405.365H391.956H378.546H365.137H351.727V-27.7671C343.654 -27.7671 336.42 -22.7799 333.548 -15.2345L328.459 -1.86242C326.321 3.75503 320.936 7.4679 314.925 7.4679H313.873C312.312 7.4679 310.772 7.10351 309.376 6.40373V6.40373C303.603 3.51007 296.64 6.74149 295.123 13.0179L287.83 43.1917C285.982 50.8388 279.137 56.2259 271.27 56.2259V56.2259H257.861H257.169C249.261 56.2259 241.915 52.1385 237.746 45.419V45.419C233.577 38.6994 226.231 34.6121 218.324 34.6121H217.632H215.279C208.311 34.6121 201.743 31.3609 197.518 25.8208L194.879 22.3607C192.316 19.0011 188.333 17.0295 184.108 17.0295V17.0295C179.883 17.0295 175.9 19.0011 173.337 22.3607L170.687 25.8356C166.468 31.3683 159.914 34.623 152.956 34.6416L150.584 34.6479H137.175V34.6479C129.104 34.6479 121.876 39.6417 119.021 47.19L115.1 57.5538C112.245 65.1021 105.016 70.0959 96.946 70.0959V70.0959H92.7398C86.8279 70.0959 81.1386 67.8412 76.8317 63.7913V63.7913C72.5248 59.7415 66.8355 57.4868 60.9236 57.4868H56.7174H43.3079" stroke="url(#paint12_linear_207_6366)"/>
<path d="M433.473 111.301H420.063H406.654H393.244H379.834H366.425H353.015V111.301C344.942 111.301 337.708 116.289 334.836 123.834L329.747 137.206C327.609 142.824 322.224 146.536 316.213 146.536H315.161C313.6 146.536 312.06 146.172 310.664 145.472V145.472C304.891 142.579 297.928 145.81 296.411 152.086L289.118 182.26C287.27 189.907 280.426 195.294 272.558 195.294V195.294H259.149H258.457C250.549 195.294 243.203 191.207 239.034 184.487V184.487C234.865 177.768 227.519 173.681 219.612 173.681H218.92H216.567C209.599 173.681 203.031 170.429 198.806 164.889L196.167 161.429C193.605 158.07 189.621 156.098 185.396 156.098V156.098C181.171 156.098 177.188 158.07 174.625 161.429L171.975 164.904C167.756 170.437 161.202 173.691 154.244 173.71L151.872 173.716H138.463V173.716C130.392 173.716 123.164 178.71 120.309 186.258L116.388 196.622C113.533 204.171 106.304 209.164 98.2341 209.164V209.164H94.0279C88.116 209.164 82.4267 206.91 78.1198 202.86V202.86C73.8129 198.81 68.1236 196.555 62.2117 196.555H58.0055H44.5959" stroke="url(#paint13_linear_207_6366)"/>
<path d="M432.185 43.0548H418.775H405.365H391.956H378.546H365.137H351.727V43.0548C343.654 43.0548 336.42 48.042 333.548 55.5874L328.459 68.9595C326.321 74.5769 320.936 78.2898 314.925 78.2898H313.873C312.312 78.2898 310.772 77.9254 309.376 77.2256V77.2256C303.603 74.332 296.64 77.5634 295.123 83.8398L287.83 114.014C285.982 121.661 279.137 127.048 271.27 127.048V127.048H257.861H257.169C249.261 127.048 241.915 122.96 237.746 116.241V116.241C233.577 109.521 226.231 105.434 218.324 105.434H217.632H215.279C208.311 105.434 201.743 102.183 197.518 96.6427L194.879 93.1826C192.316 89.823 188.333 87.8514 184.108 87.8514V87.8514C179.883 87.8514 175.9 89.823 173.337 93.1826L170.687 96.6575C166.468 102.19 159.914 105.445 152.956 105.463L150.584 105.47H137.175V105.47C129.104 105.47 121.876 110.464 119.021 118.012L115.1 128.376C112.245 135.924 105.016 140.918 96.946 140.918V140.918H92.7398C86.8279 140.918 81.1386 138.663 76.8317 134.613V134.613C72.5248 130.563 66.8355 128.309 60.9236 128.309H56.7174H43.3079" stroke="url(#paint14_linear_207_6366)"/>
<path d="M432.185 -21.3288H418.775H405.365H391.956H378.546H365.137H351.727V-21.3288C343.661 -21.3288 336.439 -16.3272 333.602 -8.77563L328.412 5.04114C326.304 10.653 320.938 14.3699 314.943 14.3699H313.886C312.317 14.3699 310.769 13.9995 309.37 13.2888V13.2888C303.619 10.3679 296.65 13.5923 295.153 19.8665L287.791 50.7259C285.967 58.3735 279.132 63.7694 271.27 63.7694V63.7694H257.861H257.29C249.314 63.7694 241.911 59.6223 237.746 52.8203V52.8203C233.581 46.0183 226.179 41.8712 218.203 41.8712H217.632H215.371C208.351 41.8712 201.739 38.5726 197.518 32.9642L194.845 29.414C192.306 26.0411 188.33 24.0572 184.108 24.0572V24.0572C179.886 24.0572 175.91 26.0411 173.371 29.414L170.687 32.9793C166.471 38.5802 159.875 41.8823 152.864 41.9013L150.584 41.9075H137.175V41.9075C129.111 41.9075 121.895 46.9156 119.075 54.4699L115.046 65.2595C112.225 72.8138 105.01 77.8219 96.946 77.8219V77.8219H92.7968C86.8523 77.8219 81.1357 75.5348 76.8317 71.4344V71.4344C72.5277 67.3341 66.8111 65.0469 60.8666 65.0469H56.7174H43.3079" stroke="url(#paint15_linear_207_6366)"/>
<path d="M433.473 117.74H420.063H406.654H393.244H379.834H366.425H353.015V117.74C344.949 117.74 337.727 122.741 334.891 130.293L329.7 144.11C327.592 149.722 322.226 153.438 316.231 153.438H315.174C313.605 153.438 312.057 153.068 310.658 152.357V152.357C304.907 149.436 297.938 152.661 296.441 158.935L289.079 189.794C287.255 197.442 280.42 202.838 272.558 202.838V202.838H259.149H258.578C250.602 202.838 243.2 198.691 239.034 191.889V191.889C234.869 185.087 227.467 180.94 219.491 180.94H218.92H216.659C209.639 180.94 203.027 177.641 198.806 172.033L196.133 168.482C193.594 165.11 189.618 163.126 185.396 163.126V163.126C181.174 163.126 177.198 165.11 174.659 168.482L171.975 172.048C167.759 177.649 161.163 180.951 154.152 180.97L151.872 180.976H138.463V180.976C130.399 180.976 123.183 185.984 120.363 193.538L116.334 204.328C113.514 211.882 106.298 216.89 98.2341 216.89V216.89H94.0849C88.1404 216.89 82.4238 214.603 78.1198 210.503V210.503C73.8158 206.403 68.0992 204.115 62.1547 204.115H58.0055H44.5959" stroke="url(#paint16_linear_207_6366)"/>
<path d="M432.185 49.4931H418.775H405.365H391.956H378.546H365.137H351.727V49.4931C343.661 49.4931 336.439 54.4947 333.602 62.0463L328.412 75.863C326.304 81.4749 320.938 85.1918 314.943 85.1918H313.886C312.317 85.1918 310.769 84.8214 309.37 84.1107V84.1107C303.619 81.1898 296.65 84.4142 295.153 90.6884L287.791 121.548C285.967 129.195 279.132 134.591 271.27 134.591V134.591H257.861H257.29C249.314 134.591 241.911 130.444 237.746 123.642V123.642C233.581 116.84 226.179 112.693 218.203 112.693H217.632H215.371C208.351 112.693 201.739 109.394 197.518 103.786L194.845 100.236C192.306 96.863 188.33 94.8791 184.108 94.8791V94.8791C179.886 94.8791 175.91 96.8629 173.371 100.236L170.687 103.801C166.471 109.402 159.875 112.704 152.864 112.723L150.584 112.729H137.175V112.729C129.111 112.729 121.895 117.737 119.075 125.292L115.046 136.081C112.225 143.636 105.01 148.644 96.946 148.644V148.644H92.7968C86.8523 148.644 81.1357 146.357 76.8317 142.256V142.256C72.5277 138.156 66.8111 135.869 60.8666 135.869H56.7174H43.3079" stroke="url(#paint17_linear_207_6366)"/>
<path d="M432.185 -13.6028H418.775H405.365H391.956H378.546H365.137H351.727V-13.6028C343.654 -13.6028 336.42 -8.61556 333.548 -1.07012L328.459 12.3019C326.321 17.9194 320.936 21.6323 314.925 21.6323H313.873C312.312 21.6323 310.772 21.2679 309.376 20.5681V20.5681C303.603 17.6744 296.64 20.9059 295.123 27.1822L287.83 57.3561C285.982 65.0032 279.137 70.3903 271.27 70.3903V70.3903H257.861H257.169C249.261 70.3903 241.915 66.3029 237.746 59.5833V59.5833C233.577 52.8638 226.231 48.7764 218.324 48.7764H217.632H215.279C208.311 48.7764 201.743 45.5252 197.518 39.9851L194.879 36.5251C192.316 33.1654 188.333 31.1938 184.108 31.1938V31.1938C179.883 31.1938 175.9 33.1654 173.337 36.5251L170.687 39.9999C166.468 45.5326 159.914 48.7873 152.956 48.8059L150.584 48.8123H137.175V48.8123C129.104 48.8123 121.876 53.8061 119.021 61.3544L115.1 71.7181C112.245 79.2664 105.016 84.2603 96.946 84.2603V84.2603H92.7398C86.8279 84.2603 81.1386 82.0055 76.8317 77.9557V77.9557C72.5248 73.9059 66.8355 71.6512 60.9236 71.6512H56.7174H43.3079" stroke="url(#paint18_linear_207_6366)"/>
<path d="M432.185 57.2192H418.775H405.365H391.956H378.546H365.137H351.727V57.2192C343.654 57.2192 336.42 62.2064 333.548 69.7518L328.459 83.1239C326.321 88.7413 320.936 92.4542 314.925 92.4542H313.873C312.312 92.4542 310.772 92.0898 309.376 91.39V91.39C303.603 88.4964 296.64 91.7278 295.123 98.0042L287.83 128.178C285.982 135.825 279.137 141.212 271.27 141.212V141.212H257.861H257.169C249.261 141.212 241.915 137.125 237.746 130.405V130.405C233.577 123.686 226.231 119.598 218.324 119.598H217.632H215.279C208.311 119.598 201.743 116.347 197.518 110.807L194.879 107.347C192.316 103.987 188.333 102.016 184.108 102.016V102.016C179.883 102.016 175.9 103.987 173.337 107.347L170.687 110.822C166.468 116.355 159.914 119.609 152.956 119.628L150.584 119.634H137.175V119.634C129.104 119.634 121.876 124.628 119.021 132.176L115.1 142.54C112.245 150.088 105.016 155.082 96.946 155.082V155.082H92.7398C86.8279 155.082 81.1386 152.827 76.8317 148.778V148.778C72.5248 144.728 66.8355 142.473 60.9236 142.473H56.7174H43.3079" stroke="url(#paint19_linear_207_6366)"/>
<path d="M432.185 -7.1644H418.775H405.365H391.956H378.546H365.137H351.727V-7.1644C343.661 -7.1644 336.439 -2.16286 333.602 5.38874L328.412 19.2055C326.304 24.8174 320.938 28.5342 314.943 28.5342H313.886C312.317 28.5342 310.769 28.1638 309.37 27.4531V27.4531C303.619 24.5323 296.65 27.7567 295.153 34.0308L287.791 64.8903C285.967 72.5379 279.132 77.9338 271.27 77.9338V77.9338H257.861H257.29C249.314 77.9338 241.911 73.7867 237.746 66.9847V66.9847C233.581 60.1826 226.179 56.0356 218.203 56.0356H217.632H215.371C208.351 56.0356 201.739 52.737 197.518 47.1286L194.845 43.5784C192.306 40.2054 188.33 38.2216 184.108 38.2216V38.2216C179.886 38.2216 175.91 40.2054 173.371 43.5783L170.687 47.1437C166.471 52.7445 159.875 56.0467 152.864 56.0657L150.584 56.0719H137.175V56.0719C129.111 56.0719 121.895 61.08 119.075 68.6343L115.046 79.4239C112.225 86.9782 105.01 91.9863 96.946 91.9863V91.9863H92.7968C86.8523 91.9863 81.1357 89.6991 76.8317 85.5988V85.5988C72.5277 81.4984 66.8111 79.2113 60.8666 79.2113H56.7174H43.3079" stroke="url(#paint20_linear_207_6366)"/>
<path d="M432.185 63.6575H418.775H405.365H391.956H378.546H365.137H351.727V63.6575C343.661 63.6575 336.439 68.6591 333.602 76.2107L328.412 90.0274C326.304 95.6393 320.938 99.3562 314.943 99.3562H313.886C312.317 99.3562 310.769 98.9858 309.37 98.2751V98.2751C303.619 95.3542 296.65 98.5786 295.153 104.853L287.791 135.712C285.967 143.36 279.132 148.756 271.27 148.756V148.756H257.861H257.29C249.314 148.756 241.911 144.609 237.746 137.807V137.807C233.581 131.005 226.179 126.857 218.203 126.857H217.632H215.371C208.351 126.857 201.739 123.559 197.518 117.951L194.845 114.4C192.306 111.027 188.33 109.044 184.108 109.044V109.044C179.886 109.044 175.91 111.027 173.371 114.4L170.687 117.966C166.471 123.566 159.875 126.869 152.864 126.888L150.584 126.894H137.175V126.894C129.111 126.894 121.895 131.902 119.075 139.456L115.046 150.246C112.225 157.8 105.01 162.808 96.946 162.808V162.808H92.7968C86.8523 162.808 81.1357 160.521 76.8317 156.421V156.421C72.5277 152.32 66.8111 150.033 60.8666 150.033H56.7174H43.3079" stroke="url(#paint21_linear_207_6366)"/>
<path d="M432.185 0.561646H418.775H405.365H391.956H378.546H365.137H351.727V0.561646C343.654 0.561646 336.42 5.54883 333.548 13.0943L328.459 26.4663C326.321 32.0838 320.936 35.7967 314.925 35.7967H313.873C312.312 35.7967 310.772 35.4323 309.376 34.7325V34.7325C303.603 31.8388 296.64 35.0703 295.123 41.3466L287.83 71.5205C285.982 79.1676 279.137 84.5547 271.27 84.5547V84.5547H257.861H257.169C249.261 84.5547 241.915 80.4673 237.746 73.7477V73.7477C233.577 67.0282 226.231 62.9408 218.324 62.9408H217.632H215.279C208.311 62.9408 201.743 59.6896 197.518 54.1495L194.879 50.6895C192.316 47.3298 188.333 45.3582 184.108 45.3582V45.3582C179.883 45.3582 175.9 47.3298 173.337 50.6895L170.687 54.1643C166.468 59.697 159.914 62.9517 152.956 62.9703L150.584 62.9767H137.175V62.9767C129.104 62.9767 121.876 67.9705 119.021 75.5188L115.1 85.8825C112.245 93.4308 105.016 98.4247 96.946 98.4247V98.4247H92.7398C86.8279 98.4247 81.1386 96.1699 76.8317 92.1201V92.1201C72.5248 88.0703 66.8355 85.8156 60.9236 85.8156H56.7174H43.3079" stroke="url(#paint22_linear_207_6366)"/>
<path d="M432.185 71.3835H418.775H405.365H391.956H378.546H365.137H351.727V71.3835C343.654 71.3835 336.42 76.3707 333.548 83.9162L328.459 97.2882C326.321 102.906 320.936 106.619 314.925 106.619H313.873C312.312 106.619 310.772 106.254 309.376 105.554V105.554C303.603 102.661 296.64 105.892 295.123 112.169L287.83 142.342C285.982 149.99 279.137 155.377 271.27 155.377V155.377H257.861H257.169C249.261 155.377 241.915 151.289 237.746 144.57V144.57C233.577 137.85 226.231 133.763 218.324 133.763H217.632H215.279C208.311 133.763 201.743 130.512 197.518 124.971L194.879 121.511C192.316 118.152 188.333 116.18 184.108 116.18V116.18C179.883 116.18 175.9 118.152 173.337 121.511L170.687 124.986C166.468 130.519 159.914 133.774 152.956 133.792L150.584 133.799H137.175V133.799C129.104 133.799 121.876 138.792 119.021 146.341L115.1 156.704C112.245 164.253 105.016 169.247 96.946 169.247V169.247H92.7398C86.8279 169.247 81.1386 166.992 76.8317 162.942V162.942C72.5248 158.892 66.8355 156.637 60.9236 156.637H56.7174H43.3079" stroke="url(#paint23_linear_207_6366)"/>
</mask>
<g mask="url(#mask0_207_6366)">
<ellipse cx="170.753" cy="95.0828" rx="88.9867" ry="89.0722" fill="url(#paint24_linear_207_6366)"/>
</g>
<g filter="url(#filter0_i_207_6366)">
<rect x="112.479" y="108.726" width="181" height="47.6438" rx="8" fill="white"/>
<path d="M136.911 132.275C136.911 133.842 136.618 135.185 136.031 136.302C135.448 137.415 134.653 138.267 133.644 138.859C132.64 139.451 131.502 139.747 130.228 139.747C128.954 139.747 127.813 139.451 126.805 138.859C125.801 138.262 125.006 137.408 124.418 136.295C123.836 135.178 123.545 133.838 123.545 132.275C123.545 130.708 123.836 129.368 124.418 128.255C125.006 127.138 125.801 126.283 126.805 125.691C127.813 125.1 128.954 124.804 130.228 124.804C131.502 124.804 132.64 125.1 133.644 125.691C134.653 126.283 135.448 127.138 136.031 128.255C136.618 129.368 136.911 130.708 136.911 132.275ZM134.262 132.275C134.262 131.172 134.089 130.242 133.744 129.484C133.403 128.722 132.929 128.146 132.323 127.758C131.717 127.365 131.019 127.169 130.228 127.169C129.437 127.169 128.739 127.365 128.133 127.758C127.527 128.146 127.051 128.722 126.705 129.484C126.364 130.242 126.194 131.172 126.194 132.275C126.194 133.378 126.364 134.311 126.705 135.074C127.051 135.831 127.527 136.406 128.133 136.799C128.739 137.188 129.437 137.382 130.228 137.382C131.019 137.382 131.717 137.188 132.323 136.799C132.929 136.406 133.403 135.831 133.744 135.074C134.089 134.311 134.262 133.378 134.262 132.275ZM153.356 125.003V139.548H151.012L144.158 129.64H144.037V139.548H141.402V125.003H143.76L150.607 134.917H150.735V125.003H153.356ZM167.055 139.548H164.243L169.364 125.003H172.617L177.744 139.548H174.932L171.047 127.985H170.933L167.055 139.548ZM167.148 133.845H174.818V135.961H167.148V133.845ZM181.66 139.548V125.003H187.115C188.232 125.003 189.17 125.197 189.927 125.585C190.69 125.973 191.265 126.518 191.653 127.218C192.046 127.914 192.243 128.726 192.243 129.655C192.243 130.587 192.044 131.397 191.646 132.083C191.253 132.765 190.673 133.293 189.906 133.667C189.139 134.037 188.197 134.221 187.079 134.221H183.194V132.034H186.724C187.378 132.034 187.913 131.944 188.329 131.764C188.746 131.579 189.054 131.312 189.253 130.961C189.456 130.606 189.558 130.171 189.558 129.655C189.558 129.138 189.456 128.698 189.253 128.333C189.049 127.964 188.739 127.685 188.322 127.495C187.906 127.301 187.368 127.204 186.71 127.204H184.295V139.548H181.66ZM189.174 132.957L192.775 139.548H189.835L186.298 132.957H189.174ZM196.668 139.548V125.003H202.236C203.287 125.003 204.161 125.168 204.857 125.5C205.558 125.826 206.081 126.274 206.427 126.842C206.777 127.41 206.952 128.054 206.952 128.774C206.952 129.366 206.839 129.872 206.611 130.294C206.384 130.71 206.079 131.049 205.695 131.309C205.312 131.57 204.883 131.757 204.41 131.87V132.012C204.926 132.041 205.42 132.199 205.894 132.488C206.372 132.772 206.763 133.175 207.066 133.696C207.369 134.217 207.52 134.846 207.52 135.585C207.52 136.338 207.338 137.015 206.973 137.616C206.609 138.213 206.06 138.684 205.326 139.03C204.592 139.375 203.669 139.548 202.556 139.548H196.668ZM199.303 137.346H202.137C203.093 137.346 203.782 137.164 204.204 136.799C204.63 136.43 204.843 135.957 204.843 135.379C204.843 134.948 204.736 134.56 204.523 134.214C204.31 133.864 204.007 133.589 203.614 133.39C203.221 133.187 202.752 133.085 202.208 133.085H199.303V137.346ZM199.303 131.189H201.91C202.364 131.189 202.774 131.106 203.138 130.94C203.503 130.77 203.789 130.53 203.998 130.223C204.211 129.91 204.317 129.541 204.317 129.115C204.317 128.551 204.118 128.087 203.721 127.723C203.328 127.358 202.743 127.176 201.966 127.176H199.303V131.189ZM214.448 125.003V139.548H211.813V125.003H214.448ZM218.662 127.211V125.003H230.267V127.211H225.771V139.548H223.157V127.211H218.662ZM234.504 139.548V125.003H239.959C241.076 125.003 242.013 125.197 242.771 125.585C243.533 125.973 244.109 126.518 244.497 127.218C244.89 127.914 245.086 128.726 245.086 129.655C245.086 130.587 244.888 131.397 244.49 132.083C244.097 132.765 243.517 133.293 242.75 133.667C241.983 134.037 241.04 134.221 239.923 134.221H236.038V132.034H239.568C240.221 132.034 240.756 131.944 241.173 131.764C241.59 131.579 241.897 131.312 242.096 130.961C242.3 130.606 242.402 130.171 242.402 129.655C242.402 129.138 242.3 128.698 242.096 128.333C241.893 127.964 241.583 127.685 241.166 127.495C240.749 127.301 240.212 127.204 239.554 127.204H237.139V139.548H234.504ZM242.018 132.957L245.619 139.548H242.679L239.142 132.957H242.018ZM258.681 125.003H261.316V134.505C261.316 135.547 261.07 136.463 260.577 137.254C260.089 138.045 259.403 138.663 258.517 139.108C257.632 139.548 256.598 139.768 255.414 139.768C254.225 139.768 253.188 139.548 252.303 139.108C251.418 138.663 250.731 138.045 250.243 137.254C249.756 136.463 249.512 135.547 249.512 134.505V125.003H252.147V134.285C252.147 134.891 252.279 135.431 252.544 135.905C252.814 136.378 253.193 136.75 253.681 137.02C254.169 137.285 254.746 137.417 255.414 137.417C256.081 137.417 256.659 137.285 257.147 137.02C257.639 136.75 258.018 136.378 258.283 135.905C258.548 135.431 258.681 134.891 258.681 134.285V125.003ZM266.18 125.003H269.404L273.722 135.542H273.893L278.211 125.003H281.435V139.548H278.907V129.555H278.772L274.752 139.505H272.863L268.843 129.534H268.708V139.548H266.18V125.003Z" fill="url(#paint25_linear_207_6366)"/>
<path d="M136.911 132.275C136.911 133.842 136.618 135.185 136.031 136.302C135.448 137.415 134.653 138.267 133.644 138.859C132.64 139.451 131.502 139.747 130.228 139.747C128.954 139.747 127.813 139.451 126.805 138.859C125.801 138.262 125.006 137.408 124.418 136.295C123.836 135.178 123.545 133.838 123.545 132.275C123.545 130.708 123.836 129.368 124.418 128.255C125.006 127.138 125.801 126.283 126.805 125.691C127.813 125.1 128.954 124.804 130.228 124.804C131.502 124.804 132.64 125.1 133.644 125.691C134.653 126.283 135.448 127.138 136.031 128.255C136.618 129.368 136.911 130.708 136.911 132.275ZM134.262 132.275C134.262 131.172 134.089 130.242 133.744 129.484C133.403 128.722 132.929 128.146 132.323 127.758C131.717 127.365 131.019 127.169 130.228 127.169C129.437 127.169 128.739 127.365 128.133 127.758C127.527 128.146 127.051 128.722 126.705 129.484C126.364 130.242 126.194 131.172 126.194 132.275C126.194 133.378 126.364 134.311 126.705 135.074C127.051 135.831 127.527 136.406 128.133 136.799C128.739 137.188 129.437 137.382 130.228 137.382C131.019 137.382 131.717 137.188 132.323 136.799C132.929 136.406 133.403 135.831 133.744 135.074C134.089 134.311 134.262 133.378 134.262 132.275ZM153.356 125.003V139.548H151.012L144.158 129.64H144.037V139.548H141.402V125.003H143.76L150.607 134.917H150.735V125.003H153.356ZM167.055 139.548H164.243L169.364 125.003H172.617L177.744 139.548H174.932L171.047 127.985H170.933L167.055 139.548ZM167.148 133.845H174.818V135.961H167.148V133.845ZM181.66 139.548V125.003H187.115C188.232 125.003 189.17 125.197 189.927 125.585C190.69 125.973 191.265 126.518 191.653 127.218C192.046 127.914 192.243 128.726 192.243 129.655C192.243 130.587 192.044 131.397 191.646 132.083C191.253 132.765 190.673 133.293 189.906 133.667C189.139 134.037 188.197 134.221 187.079 134.221H183.194V132.034H186.724C187.378 132.034 187.913 131.944 188.329 131.764C188.746 131.579 189.054 131.312 189.253 130.961C189.456 130.606 189.558 130.171 189.558 129.655C189.558 129.138 189.456 128.698 189.253 128.333C189.049 127.964 188.739 127.685 188.322 127.495C187.906 127.301 187.368 127.204 186.71 127.204H184.295V139.548H181.66ZM189.174 132.957L192.775 139.548H189.835L186.298 132.957H189.174ZM196.668 139.548V125.003H202.236C203.287 125.003 204.161 125.168 204.857 125.5C205.558 125.826 206.081 126.274 206.427 126.842C206.777 127.41 206.952 128.054 206.952 128.774C206.952 129.366 206.839 129.872 206.611 130.294C206.384 130.71 206.079 131.049 205.695 131.309C205.312 131.57 204.883 131.757 204.41 131.87V132.012C204.926 132.041 205.42 132.199 205.894 132.488C206.372 132.772 206.763 133.175 207.066 133.696C207.369 134.217 207.52 134.846 207.52 135.585C207.52 136.338 207.338 137.015 206.973 137.616C206.609 138.213 206.06 138.684 205.326 139.03C204.592 139.375 203.669 139.548 202.556 139.548H196.668ZM199.303 137.346H202.137C203.093 137.346 203.782 137.164 204.204 136.799C204.63 136.43 204.843 135.957 204.843 135.379C204.843 134.948 204.736 134.56 204.523 134.214C204.31 133.864 204.007 133.589 203.614 133.39C203.221 133.187 202.752 133.085 202.208 133.085H199.303V137.346ZM199.303 131.189H201.91C202.364 131.189 202.774 131.106 203.138 130.94C203.503 130.77 203.789 130.53 203.998 130.223C204.211 129.91 204.317 129.541 204.317 129.115C204.317 128.551 204.118 128.087 203.721 127.723C203.328 127.358 202.743 127.176 201.966 127.176H199.303V131.189ZM214.448 125.003V139.548H211.813V125.003H214.448ZM218.662 127.211V125.003H230.267V127.211H225.771V139.548H223.157V127.211H218.662ZM234.504 139.548V125.003H239.959C241.076 125.003 242.013 125.197 242.771 125.585C243.533 125.973 244.109 126.518 244.497 127.218C244.89 127.914 245.086 128.726 245.086 129.655C245.086 130.587 244.888 131.397 244.49 132.083C244.097 132.765 243.517 133.293 242.75 133.667C241.983 134.037 241.04 134.221 239.923 134.221H236.038V132.034H239.568C240.221 132.034 240.756 131.944 241.173 131.764C241.59 131.579 241.897 131.312 242.096 130.961C242.3 130.606 242.402 130.171 242.402 129.655C242.402 129.138 242.3 128.698 242.096 128.333C241.893 127.964 241.583 127.685 241.166 127.495C240.749 127.301 240.212 127.204 239.554 127.204H237.139V139.548H234.504ZM242.018 132.957L245.619 139.548H242.679L239.142 132.957H242.018ZM258.681 125.003H261.316V134.505C261.316 135.547 261.07 136.463 260.577 137.254C260.089 138.045 259.403 138.663 258.517 139.108C257.632 139.548 256.598 139.768 255.414 139.768C254.225 139.768 253.188 139.548 252.303 139.108C251.418 138.663 250.731 138.045 250.243 137.254C249.756 136.463 249.512 135.547 249.512 134.505V125.003H252.147V134.285C252.147 134.891 252.279 135.431 252.544 135.905C252.814 136.378 253.193 136.75 253.681 137.02C254.169 137.285 254.746 137.417 255.414 137.417C256.081 137.417 256.659 137.285 257.147 137.02C257.639 136.75 258.018 136.378 258.283 135.905C258.548 135.431 258.681 134.891 258.681 134.285V125.003ZM266.18 125.003H269.404L273.722 135.542H273.893L278.211 125.003H281.435V139.548H278.907V129.555H278.772L274.752 139.505H272.863L268.843 129.534H268.708V139.548H266.18V125.003Z" fill="white" fill-opacity="0.3"/>
</g>
<g filter="url(#filter1_i_207_6366)">
<rect x="64.7808" y="55.9315" width="203" height="47.6438" rx="8" fill="white"/>
<path d="M88.1685 72.208V86.7534H85.8248L78.9711 76.8458H78.8504V86.7534H76.2154V72.208H78.5734L85.42 82.1228H85.5478V72.208H88.1685ZM93.0396 86.7534V72.208H102.5V74.4168H95.6746V78.3657H102.01V80.5745H95.6746V84.5446H102.557V86.7534H93.0396ZM110.249 86.7534L106.144 72.208H108.978L111.599 82.8969H111.734L114.532 72.208H117.11L119.915 82.904H120.043L122.664 72.208H125.498L121.393 86.7534H118.793L115.881 76.5475H115.768L112.849 86.7534H110.249ZM141.62 75.8444V77.833H135.348V75.8444H141.62ZM136.897 73.2307H139.468V83.4722C139.468 83.8178 139.52 84.083 139.624 84.2677C139.733 84.4476 139.875 84.5707 140.05 84.637C140.225 84.7033 140.419 84.7364 140.632 84.7364C140.793 84.7364 140.94 84.7246 141.073 84.7009C141.21 84.6772 141.314 84.6559 141.385 84.637L141.818 86.6469C141.681 86.6943 141.485 86.7463 141.229 86.8032C140.978 86.86 140.67 86.8931 140.306 86.9026C139.662 86.9215 139.082 86.8245 138.566 86.6114C138.049 86.3936 137.64 86.0574 137.337 85.6029C137.039 85.1483 136.892 84.5802 136.897 83.8983V73.2307ZM146.118 86.7534V72.208H151.686C152.737 72.208 153.611 72.3737 154.307 72.7052C155.007 73.0319 155.531 73.4793 155.876 74.0475C156.227 74.6157 156.402 75.2596 156.402 75.9793C156.402 76.5712 156.288 77.0778 156.061 77.4992C155.834 77.9159 155.528 78.2544 155.145 78.5148C154.761 78.7752 154.333 78.9623 153.859 79.0759V79.2179C154.375 79.2463 154.87 79.405 155.344 79.6938C155.822 79.9779 156.212 80.3803 156.515 80.9012C156.819 81.422 156.97 82.0517 156.97 82.7904C156.97 83.5432 156.788 84.2203 156.423 84.8216C156.059 85.4182 155.509 85.8893 154.775 86.235C154.042 86.5806 153.118 86.7534 152.006 86.7534H146.118ZM148.753 84.5517H151.587C152.543 84.5517 153.232 84.3695 153.653 84.0049C154.079 83.6356 154.292 83.1621 154.292 82.5844C154.292 82.1535 154.186 81.7653 153.973 81.4196C153.76 81.0693 153.457 80.7946 153.064 80.5958C152.671 80.3922 152.202 80.2904 151.658 80.2904H148.753V84.5517ZM148.753 78.3941H151.359C151.814 78.3941 152.223 78.3112 152.588 78.1455C152.953 77.975 153.239 77.7359 153.447 77.4282C153.66 77.1157 153.767 76.7463 153.767 76.3202C153.767 75.7568 153.568 75.2927 153.17 74.9282C152.777 74.5636 152.193 74.3813 151.416 74.3813H148.753V78.3941ZM160.623 74.4168V72.208H172.228V74.4168H167.732V86.7534H165.119V74.4168H160.623ZM188.271 77.1157H185.615C185.539 76.6801 185.399 76.2942 185.196 75.958C184.992 75.6171 184.739 75.3283 184.436 75.0915C184.133 74.8548 183.787 74.6772 183.399 74.5588C183.015 74.4357 182.601 74.3742 182.156 74.3742C181.365 74.3742 180.665 74.5731 180.054 74.9708C179.443 75.3638 178.965 75.9414 178.619 76.7037C178.274 77.4613 178.101 78.387 178.101 79.4807C178.101 80.5934 178.274 81.5309 178.619 82.2932C178.97 83.0508 179.448 83.6237 180.054 84.012C180.665 84.3955 181.363 84.5873 182.149 84.5873C182.585 84.5873 182.992 84.5304 183.371 84.4168C183.754 84.2984 184.097 84.1256 184.4 83.8983C184.708 83.6711 184.966 83.3917 185.175 83.0603C185.388 82.7288 185.534 82.35 185.615 81.9239L188.271 81.9381C188.172 82.6294 187.956 83.2781 187.625 83.8841C187.298 84.4902 186.87 85.0252 186.339 85.4892C185.809 85.9485 185.189 86.3084 184.479 86.5688C183.768 86.8245 182.98 86.9523 182.114 86.9523C180.835 86.9523 179.694 86.6564 178.69 86.0645C177.686 85.4727 176.896 84.618 176.318 83.5006C175.74 82.3832 175.452 81.0432 175.452 79.4807C175.452 77.9135 175.743 76.5735 176.325 75.4608C176.908 74.3434 177.701 73.4888 178.704 72.8969C179.708 72.3051 180.845 72.0091 182.114 72.0091C182.923 72.0091 183.676 72.1228 184.372 72.35C185.068 72.5773 185.688 72.9111 186.233 73.3515C186.777 73.7871 187.225 74.3221 187.575 74.9566C187.93 75.5863 188.162 76.306 188.271 77.1157ZM203.58 86.9452C202.723 86.9452 201.956 86.725 201.279 86.2847C200.602 85.8444 200.067 85.2052 199.674 84.3671C199.281 83.529 199.084 82.511 199.084 81.3131C199.084 80.101 199.283 79.0783 199.681 78.2449C200.083 77.4069 200.625 76.7748 201.307 76.3486C201.989 75.9177 202.749 75.7023 203.587 75.7023C204.226 75.7023 204.752 75.8112 205.164 76.029C205.576 76.2421 205.902 76.5001 206.144 76.8032C206.385 77.1015 206.572 77.3832 206.705 77.6483H206.811V72.208H209.389V86.7534H206.861V85.0347H206.705C206.572 85.2998 206.38 85.5816 206.129 85.8799C205.879 86.1734 205.547 86.4244 205.135 86.6327C204.723 86.841 204.205 86.9452 203.58 86.9452ZM204.297 84.8358C204.842 84.8358 205.306 84.6891 205.689 84.3955C206.073 84.0972 206.364 83.6829 206.563 83.1526C206.762 82.6223 206.861 82.0044 206.861 81.2989C206.861 80.5934 206.762 79.9802 206.563 79.4594C206.369 78.9386 206.08 78.5338 205.696 78.2449C205.317 77.9561 204.851 77.8117 204.297 77.8117C203.724 77.8117 203.246 77.9608 202.862 78.2591C202.479 78.5574 202.19 78.9694 201.996 79.4949C201.802 80.0205 201.705 80.6218 201.705 81.2989C201.705 81.9807 201.802 82.5891 201.996 83.1242C202.195 83.6545 202.486 84.0735 202.87 84.3813C203.258 84.6843 203.734 84.8358 204.297 84.8358ZM216.111 86.7534H213.298L218.419 72.208H221.672L226.8 86.7534H223.987L220.102 75.1909H219.989L216.111 86.7534ZM216.203 81.0503H223.873V83.1668H216.203V81.0503ZM230.715 86.7534V72.208H236.17C237.287 72.208 238.225 72.4163 238.982 72.833C239.745 73.2497 240.32 73.8226 240.708 74.5517C241.101 75.2762 241.298 76.1 241.298 77.0233C241.298 77.9561 241.101 78.7847 240.708 79.5091C240.315 80.2336 239.735 80.8041 238.968 81.2208C238.201 81.6327 237.257 81.8387 236.134 81.8387H232.519V79.6725H235.779C236.433 79.6725 236.968 79.5588 237.384 79.3316C237.801 79.1043 238.109 78.7918 238.308 78.3941C238.511 77.9963 238.613 77.5394 238.613 77.0233C238.613 76.5072 238.511 76.0527 238.308 75.6597C238.109 75.2667 237.799 74.9613 237.377 74.7435C236.961 74.521 236.423 74.4097 235.765 74.4097H233.35V86.7534H230.715ZM245.587 86.7534V72.208H251.041C252.158 72.208 253.096 72.4163 253.854 72.833C254.616 73.2497 255.191 73.8226 255.579 74.5517C255.972 75.2762 256.169 76.1 256.169 77.0233C256.169 77.9561 255.972 78.7847 255.579 79.5091C255.186 80.2336 254.606 80.8041 253.839 81.2208C253.072 81.6327 252.128 81.8387 251.006 81.8387H247.39V79.6725H250.65C251.304 79.6725 251.839 79.5588 252.256 79.3316C252.672 79.1043 252.98 78.7918 253.179 78.3941C253.382 77.9963 253.484 77.5394 253.484 77.0233C253.484 76.5072 253.382 76.0527 253.179 75.6597C252.98 75.2667 252.67 74.9613 252.248 74.7435C251.832 74.521 251.294 74.4097 250.636 74.4097H248.221V86.7534H245.587Z" fill="url(#paint26_linear_207_6366)"/>
<path d="M88.1685 72.208V86.7534H85.8248L78.9711 76.8458H78.8504V86.7534H76.2154V72.208H78.5734L85.42 82.1228H85.5478V72.208H88.1685ZM93.0396 86.7534V72.208H102.5V74.4168H95.6746V78.3657H102.01V80.5745H95.6746V84.5446H102.557V86.7534H93.0396ZM110.249 86.7534L106.144 72.208H108.978L111.599 82.8969H111.734L114.532 72.208H117.11L119.915 82.904H120.043L122.664 72.208H125.498L121.393 86.7534H118.793L115.881 76.5475H115.768L112.849 86.7534H110.249ZM141.62 75.8444V77.833H135.348V75.8444H141.62ZM136.897 73.2307H139.468V83.4722C139.468 83.8178 139.52 84.083 139.624 84.2677C139.733 84.4476 139.875 84.5707 140.05 84.637C140.225 84.7033 140.419 84.7364 140.632 84.7364C140.793 84.7364 140.94 84.7246 141.073 84.7009C141.21 84.6772 141.314 84.6559 141.385 84.637L141.818 86.6469C141.681 86.6943 141.485 86.7463 141.229 86.8032C140.978 86.86 140.67 86.8931 140.306 86.9026C139.662 86.9215 139.082 86.8245 138.566 86.6114C138.049 86.3936 137.64 86.0574 137.337 85.6029C137.039 85.1483 136.892 84.5802 136.897 83.8983V73.2307ZM146.118 86.7534V72.208H151.686C152.737 72.208 153.611 72.3737 154.307 72.7052C155.007 73.0319 155.531 73.4793 155.876 74.0475C156.227 74.6157 156.402 75.2596 156.402 75.9793C156.402 76.5712 156.288 77.0778 156.061 77.4992C155.834 77.9159 155.528 78.2544 155.145 78.5148C154.761 78.7752 154.333 78.9623 153.859 79.0759V79.2179C154.375 79.2463 154.87 79.405 155.344 79.6938C155.822 79.9779 156.212 80.3803 156.515 80.9012C156.819 81.422 156.97 82.0517 156.97 82.7904C156.97 83.5432 156.788 84.2203 156.423 84.8216C156.059 85.4182 155.509 85.8893 154.775 86.235C154.042 86.5806 153.118 86.7534 152.006 86.7534H146.118ZM148.753 84.5517H151.587C152.543 84.5517 153.232 84.3695 153.653 84.0049C154.079 83.6356 154.292 83.1621 154.292 82.5844C154.292 82.1535 154.186 81.7653 153.973 81.4196C153.76 81.0693 153.457 80.7946 153.064 80.5958C152.671 80.3922 152.202 80.2904 151.658 80.2904H148.753V84.5517ZM148.753 78.3941H151.359C151.814 78.3941 152.223 78.3112 152.588 78.1455C152.953 77.975 153.239 77.7359 153.447 77.4282C153.66 77.1157 153.767 76.7463 153.767 76.3202C153.767 75.7568 153.568 75.2927 153.17 74.9282C152.777 74.5636 152.193 74.3813 151.416 74.3813H148.753V78.3941ZM160.623 74.4168V72.208H172.228V74.4168H167.732V86.7534H165.119V74.4168H160.623ZM188.271 77.1157H185.615C185.539 76.6801 185.399 76.2942 185.196 75.958C184.992 75.6171 184.739 75.3283 184.436 75.0915C184.133 74.8548 183.787 74.6772 183.399 74.5588C183.015 74.4357 182.601 74.3742 182.156 74.3742C181.365 74.3742 180.665 74.5731 180.054 74.9708C179.443 75.3638 178.965 75.9414 178.619 76.7037C178.274 77.4613 178.101 78.387 178.101 79.4807C178.101 80.5934 178.274 81.5309 178.619 82.2932C178.97 83.0508 179.448 83.6237 180.054 84.012C180.665 84.3955 181.363 84.5873 182.149 84.5873C182.585 84.5873 182.992 84.5304 183.371 84.4168C183.754 84.2984 184.097 84.1256 184.4 83.8983C184.708 83.6711 184.966 83.3917 185.175 83.0603C185.388 82.7288 185.534 82.35 185.615 81.9239L188.271 81.9381C188.172 82.6294 187.956 83.2781 187.625 83.8841C187.298 84.4902 186.87 85.0252 186.339 85.4892C185.809 85.9485 185.189 86.3084 184.479 86.5688C183.768 86.8245 182.98 86.9523 182.114 86.9523C180.835 86.9523 179.694 86.6564 178.69 86.0645C177.686 85.4727 176.896 84.618 176.318 83.5006C175.74 82.3832 175.452 81.0432 175.452 79.4807C175.452 77.9135 175.743 76.5735 176.325 75.4608C176.908 74.3434 177.701 73.4888 178.704 72.8969C179.708 72.3051 180.845 72.0091 182.114 72.0091C182.923 72.0091 183.676 72.1228 184.372 72.35C185.068 72.5773 185.688 72.9111 186.233 73.3515C186.777 73.7871 187.225 74.3221 187.575 74.9566C187.93 75.5863 188.162 76.306 188.271 77.1157ZM203.58 86.9452C202.723 86.9452 201.956 86.725 201.279 86.2847C200.602 85.8444 200.067 85.2052 199.674 84.3671C199.281 83.529 199.084 82.511 199.084 81.3131C199.084 80.101 199.283 79.0783 199.681 78.2449C200.083 77.4069 200.625 76.7748 201.307 76.3486C201.989 75.9177 202.749 75.7023 203.587 75.7023C204.226 75.7023 204.752 75.8112 205.164 76.029C205.576 76.2421 205.902 76.5001 206.144 76.8032C206.385 77.1015 206.572 77.3832 206.705 77.6483H206.811V72.208H209.389V86.7534H206.861V85.0347H206.705C206.572 85.2998 206.38 85.5816 206.129 85.8799C205.879 86.1734 205.547 86.4244 205.135 86.6327C204.723 86.841 204.205 86.9452 203.58 86.9452ZM204.297 84.8358C204.842 84.8358 205.306 84.6891 205.689 84.3955C206.073 84.0972 206.364 83.6829 206.563 83.1526C206.762 82.6223 206.861 82.0044 206.861 81.2989C206.861 80.5934 206.762 79.9802 206.563 79.4594C206.369 78.9386 206.08 78.5338 205.696 78.2449C205.317 77.9561 204.851 77.8117 204.297 77.8117C203.724 77.8117 203.246 77.9608 202.862 78.2591C202.479 78.5574 202.19 78.9694 201.996 79.4949C201.802 80.0205 201.705 80.6218 201.705 81.2989C201.705 81.9807 201.802 82.5891 201.996 83.1242C202.195 83.6545 202.486 84.0735 202.87 84.3813C203.258 84.6843 203.734 84.8358 204.297 84.8358ZM216.111 86.7534H213.298L218.419 72.208H221.672L226.8 86.7534H223.987L220.102 75.1909H219.989L216.111 86.7534ZM216.203 81.0503H223.873V83.1668H216.203V81.0503ZM230.715 86.7534V72.208H236.17C237.287 72.208 238.225 72.4163 238.982 72.833C239.745 73.2497 240.32 73.8226 240.708 74.5517C241.101 75.2762 241.298 76.1 241.298 77.0233C241.298 77.9561 241.101 78.7847 240.708 79.5091C240.315 80.2336 239.735 80.8041 238.968 81.2208C238.201 81.6327 237.257 81.8387 236.134 81.8387H232.519V79.6725H235.779C236.433 79.6725 236.968 79.5588 237.384 79.3316C237.801 79.1043 238.109 78.7918 238.308 78.3941C238.511 77.9963 238.613 77.5394 238.613 77.0233C238.613 76.5072 238.511 76.0527 238.308 75.6597C238.109 75.2667 237.799 74.9613 237.377 74.7435C236.961 74.521 236.423 74.4097 235.765 74.4097H233.35V86.7534H230.715ZM245.587 86.7534V72.208H251.041C252.158 72.208 253.096 72.4163 253.854 72.833C254.616 73.2497 255.191 73.8226 255.579 74.5517C255.972 75.2762 256.169 76.1 256.169 77.0233C256.169 77.9561 255.972 78.7847 255.579 79.5091C255.186 80.2336 254.606 80.8041 253.839 81.2208C253.072 81.6327 252.128 81.8387 251.006 81.8387H247.39V79.6725H250.65C251.304 79.6725 251.839 79.5588 252.256 79.3316C252.672 79.1043 252.98 78.7918 253.179 78.3941C253.382 77.9963 253.484 77.5394 253.484 77.0233C253.484 76.5072 253.382 76.0527 253.179 75.6597C252.98 75.2667 252.67 74.9613 252.248 74.7435C251.832 74.521 251.294 74.4097 250.636 74.4097H248.221V86.7534H245.587Z" fill="white" fill-opacity="0.3"/>
</g>
</g>
<defs>
<filter id="filter0_i_207_6366" x="112.479" y="108.726" width="187" height="60.6438" filterUnits="userSpaceOnUse" color-interpolation-filters="sRGB">
<feFlood flood-opacity="0" result="BackgroundImageFix"/>
<feBlend mode="normal" in="SourceGraphic" in2="BackgroundImageFix" result="shape"/>
<feColorMatrix in="SourceAlpha" type="matrix" values="0 0 0 0 0 0 0 0 0 0 0 0 0 0 0 0 0 0 127 0" result="hardAlpha"/>
<feMorphology radius="4" operator="erode" in="SourceAlpha" result="effect1_innerShadow_207_6366"/>
<feOffset dx="6" dy="13"/>
<feGaussianBlur stdDeviation="10.9"/>
<feComposite in2="hardAlpha" operator="arithmetic" k2="-1" k3="1"/>
<feColorMatrix type="matrix" values="0 0 0 0 0.508333 0 0 0 0 0.508333 0 0 0 0 0.508333 0 0 0 0.12 0"/>
<feBlend mode="normal" in2="shape" result="effect1_innerShadow_207_6366"/>
</filter>
<filter id="filter1_i_207_6366" x="64.7808" y="55.9315" width="209" height="60.6438" filterUnits="userSpaceOnUse" color-interpolation-filters="sRGB">
<feFlood flood-opacity="0" result="BackgroundImageFix"/>
<feBlend mode="normal" in="SourceGraphic" in2="BackgroundImageFix" result="shape"/>
<feColorMatrix in="SourceAlpha" type="matrix" values="0 0 0 0 0 0 0 0 0 0 0 0 0 0 0 0 0 0 127 0" result="hardAlpha"/>
<feMorphology radius="4" operator="erode" in="SourceAlpha" result="effect1_innerShadow_207_6366"/>
<feOffset dx="6" dy="13"/>
<feGaussianBlur stdDeviation="10.9"/>
<feComposite in2="hardAlpha" operator="arithmetic" k2="-1" k3="1"/>
<feColorMatrix type="matrix" values="0 0 0 0 0.508333 0 0 0 0 0.508333 0 0 0 0 0.508333 0 0 0 0.12 0"/>
<feBlend mode="normal" in2="shape" result="effect1_innerShadow_207_6366"/>
</filter>
<linearGradient id="paint0_linear_207_6366" x1="421.979" y1="79.154" x2="331.1" y2="286.534" gradientUnits="userSpaceOnUse">
<stop stop-color="#BD30FF"/>
<stop offset="1" stop-color="#7D00FF"/>
</linearGradient>
<linearGradient id="paint1_linear_207_6366" x1="420.691" y1="10.9074" x2="329.812" y2="218.287" gradientUnits="userSpaceOnUse">
<stop stop-color="#BD30FF"/>
<stop offset="1" stop-color="#7D00FF"/>
</linearGradient>
<linearGradient id="paint2_linear_207_6366" x1="421.979" y1="86.8293" x2="333.076" y2="292.37" gradientUnits="userSpaceOnUse">
<stop stop-color="#BD30FF"/>
<stop offset="1" stop-color="#7D00FF"/>
</linearGradient>
<linearGradient id="paint3_linear_207_6366" x1="420.691" y1="18.5827" x2="331.788" y2="224.124" gradientUnits="userSpaceOnUse">
<stop stop-color="#BD30FF"/>
<stop offset="1" stop-color="#7D00FF"/>
</linearGradient>
<linearGradient id="paint4_linear_207_6366" x1="421.979" y1="93.3184" x2="331.1" y2="300.698" gradientUnits="userSpaceOnUse">
<stop stop-color="#BD30FF"/>
<stop offset="1" stop-color="#7D00FF"/>
</linearGradient>
<linearGradient id="paint5_linear_207_6366" x1="420.691" y1="25.0718" x2="329.812" y2="232.452" gradientUnits="userSpaceOnUse">
<stop stop-color="#BD30FF"/>
<stop offset="1" stop-color="#7D00FF"/>
</linearGradient>
<linearGradient id="paint6_linear_207_6366" x1="420.691" y1="-38.0748" x2="331.788" y2="167.466" gradientUnits="userSpaceOnUse">
<stop stop-color="#BD30FF"/>
<stop offset="1" stop-color="#7D00FF"/>
</linearGradient>
<linearGradient id="paint7_linear_207_6366" x1="421.979" y1="100.994" x2="333.076" y2="306.535" gradientUnits="userSpaceOnUse">
<stop stop-color="#BD30FF"/>
<stop offset="1" stop-color="#7D00FF"/>
</linearGradient>
<linearGradient id="paint8_linear_207_6366" x1="420.691" y1="32.7471" x2="331.788" y2="238.288" gradientUnits="userSpaceOnUse">
<stop stop-color="#BD30FF"/>
<stop offset="1" stop-color="#7D00FF"/>
</linearGradient>
<linearGradient id="paint9_linear_207_6366" x1="420.691" y1="-31.5857" x2="329.812" y2="175.794" gradientUnits="userSpaceOnUse">
<stop stop-color="#BD30FF"/>
<stop offset="1" stop-color="#7D00FF"/>
</linearGradient>
<linearGradient id="paint10_linear_207_6366" x1="421.979" y1="107.483" x2="331.1" y2="314.862" gradientUnits="userSpaceOnUse">
<stop stop-color="#BD30FF"/>
<stop offset="1" stop-color="#7D00FF"/>
</linearGradient>
<linearGradient id="paint11_linear_207_6366" x1="420.691" y1="39.2362" x2="329.812" y2="246.616" gradientUnits="userSpaceOnUse">
<stop stop-color="#BD30FF"/>
<stop offset="1" stop-color="#7D00FF"/>
</linearGradient>
<linearGradient id="paint12_linear_207_6366" x1="420.691" y1="-23.9104" x2="331.788" y2="181.631" gradientUnits="userSpaceOnUse">
<stop stop-color="#BD30FF"/>
<stop offset="1" stop-color="#7D00FF"/>
</linearGradient>
<linearGradient id="paint13_linear_207_6366" x1="421.979" y1="115.158" x2="333.076" y2="320.699" gradientUnits="userSpaceOnUse">
<stop stop-color="#BD30FF"/>
<stop offset="1" stop-color="#7D00FF"/>
</linearGradient>
<linearGradient id="paint14_linear_207_6366" x1="420.691" y1="46.9115" x2="331.788" y2="252.452" gradientUnits="userSpaceOnUse">
<stop stop-color="#BD30FF"/>
<stop offset="1" stop-color="#7D00FF"/>
</linearGradient>
<linearGradient id="paint15_linear_207_6366" x1="420.691" y1="-17.4213" x2="329.812" y2="189.958" gradientUnits="userSpaceOnUse">
<stop stop-color="#BD30FF"/>
<stop offset="1" stop-color="#7D00FF"/>
</linearGradient>
<linearGradient id="paint16_linear_207_6366" x1="421.979" y1="121.647" x2="331.1" y2="329.027" gradientUnits="userSpaceOnUse">
<stop stop-color="#BD30FF"/>
<stop offset="1" stop-color="#7D00FF"/>
</linearGradient>
<linearGradient id="paint17_linear_207_6366" x1="420.691" y1="53.4006" x2="329.812" y2="260.78" gradientUnits="userSpaceOnUse">
<stop stop-color="#BD30FF"/>
<stop offset="1" stop-color="#7D00FF"/>
</linearGradient>
<linearGradient id="paint18_linear_207_6366" x1="420.691" y1="-9.74605" x2="331.788" y2="195.795" gradientUnits="userSpaceOnUse">
<stop stop-color="#BD30FF"/>
<stop offset="1" stop-color="#7D00FF"/>
</linearGradient>
<linearGradient id="paint19_linear_207_6366" x1="420.691" y1="61.0759" x2="331.788" y2="266.617" gradientUnits="userSpaceOnUse">
<stop stop-color="#BD30FF"/>
<stop offset="1" stop-color="#7D00FF"/>
</linearGradient>
<linearGradient id="paint20_linear_207_6366" x1="420.691" y1="-3.25695" x2="329.812" y2="204.123" gradientUnits="userSpaceOnUse">
<stop stop-color="#BD30FF"/>
<stop offset="1" stop-color="#7D00FF"/>
</linearGradient>
<linearGradient id="paint21_linear_207_6366" x1="420.691" y1="67.565" x2="329.812" y2="274.945" gradientUnits="userSpaceOnUse">
<stop stop-color="#BD30FF"/>
<stop offset="1" stop-color="#7D00FF"/>
</linearGradient>
<linearGradient id="paint22_linear_207_6366" x1="420.691" y1="4.41835" x2="331.788" y2="209.959" gradientUnits="userSpaceOnUse">
<stop stop-color="#BD30FF"/>
<stop offset="1" stop-color="#7D00FF"/>
</linearGradient>
<linearGradient id="paint23_linear_207_6366" x1="420.691" y1="75.2402" x2="331.788" y2="280.781" gradientUnits="userSpaceOnUse">
<stop stop-color="#BD30FF"/>
<stop offset="1" stop-color="#7D00FF"/>
</linearGradient>
<linearGradient id="paint24_linear_207_6366" x1="87.0267" y1="13.0311" x2="279.998" y2="125.197" gradientUnits="userSpaceOnUse">
<stop stop-color="#BD30FF"/>
<stop offset="1" stop-color="#7D00FF"/>
</linearGradient>
<linearGradient id="paint25_linear_207_6366" x1="127.238" y1="119.651" x2="145.441" y2="183.063" gradientUnits="userSpaceOnUse">
<stop stop-color="#D987FF"/>
<stop offset="1" stop-color="#7A00F8"/>
</linearGradient>
<linearGradient id="paint26_linear_207_6366" x1="80.1894" y1="66.8569" x2="96.4841" y2="131.379" gradientUnits="userSpaceOnUse">
<stop stop-color="#D987FF"/>
<stop offset="1" stop-color="#7A00F8"/>
</linearGradient>
<clipPath id="clip0_207_6366">
<rect width="339" height="201" fill="white"/>
</clipPath>
</defs>
</svg>
