<svg width="1440" height="711" viewBox="0 0 1440 711" fill="none" xmlns="http://www.w3.org/2000/svg">
<path d="M433.043 -227.143L605.205 254.313L679.891 464.271L850.402 946.02" stroke="#7D00FF" stroke-linecap="round" stroke-linejoin="round"/>
<path d="M308.95 1138.62L582.872 498.782L508.186 288.824L-109.779 -34.0522" stroke="#7D00FF" stroke-linecap="round" stroke-linejoin="round"/>
<path d="M975.861 -420.232L702.23 219.799L776.916 429.758L1391.85 753.419" stroke="#7D00FF" stroke-linecap="round" stroke-linejoin="round"/>
<path d="M-337.346 1038.45L291.809 602.319L217.123 392.359L-545.731 451.996" stroke="#7D00FF" stroke-linecap="round" stroke-linejoin="round"/>
<path d="M-382.094 912.657L0.746772 705.854L-73.9389 495.895L-501.321 577.482" stroke="#7D00FF" stroke-linecap="round" stroke-linejoin="round"/>
<path d="M-372.15 940.612L97.7645 671.342L23.0788 461.384L-511.241 549.595" stroke="#7D00FF" stroke-linecap="round" stroke-linejoin="round"/>
<path d="M-358.227 979.754L194.794 636.829L120.107 426.869L-525.127 510.56" stroke="#7D00FF" stroke-linecap="round" stroke-linejoin="round"/>
<path d="M-302.554 1136.26L388.828 567.808L314.141 357.848L-580.656 354.454" stroke="#7D00FF" stroke-linecap="round" stroke-linejoin="round"/>
<path d="M-232.492 1331.22L485.856 533.293L411.17 323.335L-650.029 159.432" stroke="#7D00FF" stroke-linecap="round" stroke-linejoin="round"/>
<path d="M1779.03 120.306L1456.06 188.175L1381.37 -21.7833L1674.69 -173.018" stroke="#7D00FF" stroke-linecap="round" stroke-linejoin="round"/>
<path d="M1786.49 141.287L1359.04 222.686L1284.36 12.7258L1667.25 -193.945" stroke="#7D00FF" stroke-linecap="round" stroke-linejoin="round"/>
<path d="M1657.32 -221.85L1187.35 47.2329L1262.03 257.196L1796.45 169.265" stroke="#7D00FF" stroke-linecap="round" stroke-linejoin="round"/>
<path d="M1643.42 -260.929L1090.32 81.749L1165 291.711L1810.57 208.416" stroke="#7D00FF" stroke-linecap="round" stroke-linejoin="round"/>
<path d="M1622.72 -319.654L993.306 116.258L1067.98 326.22L1831.29 267.214" stroke="#7D00FF" stroke-linecap="round" stroke-linejoin="round"/>
<path d="M1587.95 -417.397L896.277 150.773L970.963 360.733L1866.14 365.186" stroke="#7D00FF" stroke-linecap="round" stroke-linejoin="round"/>
<path d="M1518.24 -612.827L799.25 185.288L873.936 395.246L1933.3 560.817" stroke="#7D00FF" stroke-linecap="round" stroke-linejoin="round"/>
<path d="M1588.61 -415.017L-579.97 356.383" stroke="#7D00FF" stroke-linecap="round" stroke-linejoin="round"/>
<path d="M1656.11 -225.264L-512.472 546.135" stroke="#7D00FF" stroke-linecap="round" stroke-linejoin="round"/>
<path d="M1633.26 -289.483L-535.316 481.917" stroke="#7D00FF" stroke-linecap="round" stroke-linejoin="round"/>
<path d="M1607.58 -361.683L-560.999 409.716" stroke="#7D00FF" stroke-linecap="round" stroke-linejoin="round"/>
<path d="M1689.5 -131.377L-479.076 640.022" stroke="#7D00FF" stroke-linecap="round" stroke-linejoin="round"/>
<path d="M1562.45 -488.544L-606.125 282.856" stroke="#7D00FF" stroke-linecap="round" stroke-linejoin="round"/>
<path d="M1621.97 -321.221L-546.606 450.178" stroke="#7D00FF" stroke-linecap="round" stroke-linejoin="round"/>
<path d="M1642.36 -263.91L-526.219 507.489" stroke="#7D00FF" stroke-linecap="round" stroke-linejoin="round"/>
<path d="M1679.3 -160.05L-489.274 611.35" stroke="#7D00FF" stroke-linecap="round" stroke-linejoin="round"/>
<path d="M1673.47 -176.449L-495.108 594.951" stroke="#7D00FF" stroke-linecap="round" stroke-linejoin="round"/>
<path d="M1669.98 -186.252L-498.596 585.147" stroke="#7D00FF" stroke-linecap="round" stroke-linejoin="round"/>
<path d="M1676.56 -167.772L-492.021 603.628" stroke="#7D00FF" stroke-linecap="round" stroke-linejoin="round"/>
<path d="M1683.99 -146.883L-484.591 624.516" stroke="#7D00FF" stroke-linecap="round" stroke-linejoin="round"/>
<path d="M1681.77 -153.125L-486.811 618.275" stroke="#7D00FF" stroke-linecap="round" stroke-linejoin="round"/>
<path d="M1686 -141.232L-482.581 630.167" stroke="#7D00FF" stroke-linecap="round" stroke-linejoin="round"/>
<path d="M1687.83 -136.083L-480.749 635.317" stroke="#7D00FF" stroke-linecap="round" stroke-linejoin="round"/>
<path d="M1524.09 -596.394L-644.49 175.006" stroke="#7D00FF" stroke-linecap="round" stroke-linejoin="round"/>
<path d="M1661.43 -210.305L-507.151 561.095" stroke="#7D00FF" stroke-linecap="round" stroke-linejoin="round"/>
<path d="M1649.84 -242.875L-518.737 528.525" stroke="#7D00FF" stroke-linecap="round" stroke-linejoin="round"/>
<path d="M1666 -197.439L-502.575 573.961" stroke="#7D00FF" stroke-linecap="round" stroke-linejoin="round"/>
<path d="M-404.393 849.969L1764.19 78.5694" stroke="#7D00FF" stroke-linecap="round" stroke-linejoin="round"/>
<path d="M-423.063 797.484L1745.52 26.0844" stroke="#7D00FF" stroke-linecap="round" stroke-linejoin="round"/>
<path d="M-441.733 744.999L1726.85 -26.4007" stroke="#7D00FF" stroke-linecap="round" stroke-linejoin="round"/>
<path d="M-460.405 692.507L1708.17 -78.8926" stroke="#7D00FF" stroke-linecap="round" stroke-linejoin="round"/>
<path d="M-479.075 640.022L1689.5 -131.377" stroke="#7D00FF" stroke-linecap="round" stroke-linejoin="round"/>
<path d="M1763.71 78.7378L-404.393 849.969" stroke="#7D00FF" stroke-linecap="round" stroke-linejoin="round"/>
<path d="M1765.86 83.2872L-402.715 854.687" stroke="#7D00FF" stroke-linecap="round" stroke-linejoin="round"/>
<path d="M1767.7 88.4479L-400.88 859.848" stroke="#7D00FF" stroke-linecap="round" stroke-linejoin="round"/>
<path d="M1769.72 94.121L-398.862 865.521" stroke="#7D00FF" stroke-linecap="round" stroke-linejoin="round"/>
<path d="M1771.94 100.374L-396.637 871.774" stroke="#7D00FF" stroke-linecap="round" stroke-linejoin="round"/>
<path d="M1774.41 107.317L-394.168 878.716" stroke="#7D00FF" stroke-linecap="round" stroke-linejoin="round"/>
<path d="M1777.17 115.06L-391.413 886.46" stroke="#7D00FF" stroke-linecap="round" stroke-linejoin="round"/>
<path d="M1780.26 123.761L-388.318 895.16" stroke="#7D00FF" stroke-linecap="round" stroke-linejoin="round"/>
<path d="M1783.76 133.593L-384.821 904.992" stroke="#7D00FF" stroke-linecap="round" stroke-linejoin="round"/>
<path d="M1787.74 144.802L-380.834 916.202" stroke="#7D00FF" stroke-linecap="round" stroke-linejoin="round"/>
<path d="M1792.33 157.702L-376.245 929.102" stroke="#7D00FF" stroke-linecap="round" stroke-linejoin="round"/>
<path d="M1797.67 172.707L-370.908 944.107" stroke="#7D00FF" stroke-linecap="round" stroke-linejoin="round"/>
<path d="M1803.95 190.363L-364.627 961.762" stroke="#7D00FF" stroke-linecap="round" stroke-linejoin="round"/>
<path d="M1811.45 211.456L-357.124 982.856" stroke="#7D00FF" stroke-linecap="round" stroke-linejoin="round"/>
<path d="M1820.57 237.095L-348.464 1008.66" stroke="#7D00FF" stroke-linecap="round" stroke-linejoin="round"/>
<path d="M1831.9 268.92L-336.683 1040.32" stroke="#7D00FF" stroke-linecap="round" stroke-linejoin="round"/>
<path d="M1846.33 309.49L-322.251 1080.89" stroke="#7D00FF" stroke-linecap="round" stroke-linejoin="round"/>
<path d="M1865.35 362.977L-303.225 1134.38" stroke="#7D00FF" stroke-linecap="round" stroke-linejoin="round"/>
<path d="M1891.58 436.709L-276.998 1208.11" stroke="#7D00FF" stroke-linecap="round" stroke-linejoin="round"/>
<path d="M1930.06 544.872L-238.522 1316.27" stroke="#7D00FF" stroke-linecap="round" stroke-linejoin="round"/>
</svg>
