<svg width="248" height="163" viewBox="0 0 248 163" fill="none" xmlns="http://www.w3.org/2000/svg">
<g clip-path="url(#clip0_249_46739)">
<g opacity="0.15">
<line x1="247.232" y1="0.499756" x2="-4.07253e-08" y2="0.499733" stroke="#161A1F"/>
<line x1="230.286" y1="246.689" x2="230.286" y2="0.70459" stroke="#161A1F"/>
<line x1="247.907" y1="246.689" x2="247.907" y2="0.70459" stroke="#161A1F"/>
<line x1="195.044" y1="246.689" x2="195.045" y2="0.70459" stroke="#161A1F"/>
<line x1="212.665" y1="246.689" x2="212.665" y2="0.70459" stroke="#161A1F"/>
<line x1="159.803" y1="246.689" x2="159.803" y2="0.70459" stroke="#161A1F"/>
<line x1="177.424" y1="246.689" x2="177.424" y2="0.70459" stroke="#161A1F"/>
<line x1="124.562" y1="246.689" x2="124.562" y2="0.70459" stroke="#161A1F"/>
<line x1="142.183" y1="246.689" x2="142.183" y2="0.70459" stroke="#161A1F"/>
<line x1="89.3203" y1="246.689" x2="89.3204" y2="0.70459" stroke="#161A1F"/>
<line x1="106.941" y1="246.689" x2="106.941" y2="0.70459" stroke="#161A1F"/>
<line x1="247.232" y1="35.7412" x2="1.4458" y2="35.7412" stroke="#161A1F"/>
<line x1="247.232" y1="70.9824" x2="1.4458" y2="70.9824" stroke="#161A1F"/>
<line x1="247.232" y1="106.224" x2="1.4458" y2="106.224" stroke="#161A1F"/>
<line x1="247.232" y1="141.465" x2="1.4458" y2="141.465" stroke="#161A1F"/>
<line x1="247.232" y1="159.086" x2="1.4458" y2="159.086" stroke="#161A1F"/>
<line x1="247.232" y1="123.845" x2="1.4458" y2="123.845" stroke="#161A1F"/>
<line x1="247.232" y1="88.6033" x2="1.4458" y2="88.6032" stroke="#161A1F"/>
<line x1="247.232" y1="53.3618" x2="1.4458" y2="53.3618" stroke="#161A1F"/>
<line x1="247.232" y1="18.1204" x2="1.4458" y2="18.1203" stroke="#161A1F"/>
<line x1="54.0791" y1="246.689" x2="54.0792" y2="0.70459" stroke="#161A1F"/>
<line x1="71.6997" y1="246.689" x2="71.6998" y2="0.70459" stroke="#161A1F"/>
<line x1="18.8374" y1="246.689" x2="18.8375" y2="0.70459" stroke="#161A1F"/>
<line x1="36.4585" y1="246.689" x2="36.4586" y2="0.70459" stroke="#161A1F"/>
<line x1="0.945801" y1="248.158" x2="0.945812" y2="0.704437" stroke="#161A1F"/>
</g>
</g>
<path fill-rule="evenodd" clip-rule="evenodd" d="M138.791 77.3349L142.619 81.0833C142.854 81.3133 142.854 81.6862 142.619 81.9162L138.791 85.6646C138.556 85.8947 138.175 85.8947 137.94 85.6646C137.706 85.4346 137.706 85.0617 137.94 84.8317L140.742 82.0888H86.4092V80.9108H140.742L137.94 78.1678C137.706 77.9378 137.706 77.5649 137.94 77.3349C138.175 77.1048 138.556 77.1048 138.791 77.3349Z" fill="#718096"/>
<path fill-rule="evenodd" clip-rule="evenodd" d="M78.41 76.8436H96.5292V62.6447C96.5292 62.216 96.479 61.8 96.3892 61.3966H27.6327C25.794 61.3966 24.3037 60.7951 24.3037 60.0549C24.3037 59.3146 25.794 58.7131 27.6327 58.7131H29.1069L28.6831 56.9211H27.0545C23.9033 56.9211 21.3481 59.4839 21.3481 62.6447V104.692C21.3481 107.853 23.9033 110.416 27.0545 110.416H90.8229C93.9741 110.416 96.5292 107.855 96.5292 104.692V95.6333H78.41C75.3611 95.6333 72.8814 93.1461 72.8814 90.0881V82.3907C72.8814 79.3326 75.3611 76.8454 78.41 76.8454V76.8436ZM78.4105 79.3162C76.7191 79.3162 75.3473 80.6921 75.3473 82.3886V90.086C75.3473 91.7826 76.7191 93.1585 78.4105 93.1585H96.5298V79.3162H78.4105Z" fill="#E2E8F0"/>
<path d="M72.1958 75.7166C70.4641 75.7166 69.0596 77.01 69.0596 78.6048V85.8405C69.0596 87.4353 70.4641 88.7288 72.1958 88.7288H90.7466V75.7166H72.1958ZM75.4423 85.6696C73.1591 85.6696 71.306 83.9647 71.306 81.8604C71.306 79.756 73.1591 78.0512 75.4423 78.0512C77.7256 78.0512 79.5786 79.756 79.5786 81.8604C79.5786 83.9647 77.7256 85.6696 75.4423 85.6696Z" fill="url(#paint0_linear_249_46739)"/>
<path fill-rule="evenodd" clip-rule="evenodd" d="M72.1958 76.8496C71.1351 76.8496 70.2842 77.6407 70.2842 78.6048V80.5088C70.9227 78.4332 72.9948 76.9181 75.4423 76.9181C78.3962 76.9181 80.8032 79.125 80.8032 81.8604C80.8032 84.5958 78.3962 86.8026 75.4423 86.8026C72.9948 86.8026 70.9227 85.2875 70.2842 83.2119V85.8405C70.2842 86.8046 71.1351 87.5957 72.1958 87.5957H89.5219V76.8496H72.1958ZM72.1958 75.7166C70.4641 75.7166 69.0596 77.01 69.0596 78.6048V85.8405C69.0596 87.4353 70.4641 88.7288 72.1958 88.7288H90.7466V75.7166H72.1958ZM71.306 81.8604C71.306 83.9647 73.1591 85.6696 75.4423 85.6696C77.7256 85.6696 79.5786 83.9647 79.5786 81.8604C79.5786 79.756 77.7256 78.0512 75.4423 78.0512C73.1591 78.0512 71.306 79.756 71.306 81.8604Z" fill="url(#paint1_linear_249_46739)"/>
<path d="M72.6272 73.1276H90.7466V59.1914C90.7466 58.7707 90.6963 58.3624 90.6065 57.9665H21.8495C20.0108 57.9665 18.5205 57.3761 18.5205 56.6496C18.5205 55.9231 20.0108 55.3327 21.8495 55.3327L90.6065 54.2199V52.5837L21.2713 53.5738C18.1201 53.5738 15.5649 56.0892 15.5649 59.1914V100.461C15.5649 103.563 18.1201 106.078 21.2713 106.078H85.0402C88.1914 106.078 90.7466 103.565 90.7466 100.461V91.5695H72.6272C69.5783 91.5695 67.0986 89.1284 67.0986 86.1269V78.572C67.0986 75.5705 69.5783 73.1294 72.6272 73.1294V73.1276Z" fill="url(#paint2_linear_249_46739)"/>
<path fill-rule="evenodd" clip-rule="evenodd" d="M71.4311 71.9446H89.5504V59.1914C89.5504 59.1774 89.5504 59.1634 89.5502 59.1495H21.8495C20.8168 59.1495 19.8269 58.9858 19.0511 58.6788C18.6665 58.5266 18.2751 58.3158 17.9603 58.0214C17.7042 57.782 17.4471 57.4339 17.3575 56.9866C16.978 57.6366 16.7611 58.3896 16.7611 59.1914V100.461C16.7611 102.904 18.7755 104.895 21.2713 104.895H85.0402C87.5363 104.895 89.5504 102.906 89.5504 100.461V92.7525H72.6272C68.9229 92.7525 65.9024 89.7869 65.9024 86.1269V78.572C65.9024 75.3151 68.2941 72.6082 71.4311 72.0513V71.9446ZM90.7466 91.5695V100.461C90.7466 103.565 88.1914 106.078 85.0402 106.078H21.2713C18.1201 106.078 15.5649 103.563 15.5649 100.461V59.1914C15.5649 56.0892 18.1201 53.5738 21.2713 53.5738L90.6065 52.5837V54.2199L21.8495 55.3327C20.0108 55.3327 18.5205 55.9231 18.5205 56.6496C18.5205 57.3761 20.0108 57.9665 21.8495 57.9665H90.6065C90.6963 58.3624 90.7466 58.7707 90.7466 59.1914V73.1276H72.6272V73.1294C69.5783 73.1294 67.0986 75.5705 67.0986 78.572V86.1269C67.0986 89.1284 69.5783 91.5695 72.6272 91.5695H90.7466Z" fill="url(#paint3_linear_249_46739)"/>
<path d="M80.626 81.4998C80.626 83.8952 78.6841 85.8372 76.2886 85.8372C73.8931 85.8372 71.9512 83.8952 71.9512 81.4998C71.9512 79.1043 73.8931 77.1624 76.2886 77.1624C78.6841 77.1624 80.626 79.1043 80.626 81.4998Z" fill="#FCF9FF"/>
<path d="M60.2078 73.7096C59.896 70.4925 57.089 69.4126 53.5436 69.1041V67.0434H50.7984V68.9866C50.0771 68.9866 49.3396 69.0002 48.6061 69.0139V67.0417H45.8626V69.1017C45.2683 69.113 41.617 69.1098 41.617 69.1098L41.6089 71.5039L43.8998 71.5168V87.2081H41.6097L41.5894 89.5684C42.2545 89.5684 45.2145 89.5813 45.856 89.5854V91.6196H48.5995V89.6337C49.3518 89.6498 50.0812 89.6562 50.7927 89.6554V91.6204H53.5387V89.595C58.1554 89.3349 61.3882 88.1857 61.7896 83.8983C62.1152 80.4452 60.474 78.9055 57.8534 78.2789C59.4458 77.4736 60.4414 76.0635 60.2094 73.7088L60.2078 73.7096ZM56.3611 83.3596C56.3611 86.733 50.5233 86.3472 48.6606 86.3481V80.3679C50.5224 80.3679 56.3579 79.842 56.3587 83.3596H56.3611ZM55.0871 74.9216C55.0871 77.9906 50.2155 77.6307 48.6647 77.6307V72.2061C50.218 72.207 55.0887 71.7205 55.0871 74.9216Z" fill="#FCF9FF"/>
<rect x="152.5" y="73.2625" width="80" height="26" rx="13" fill="#E2E8F0"/>
<rect x="147.84" y="67.4131" width="83.6772" height="26.4555" rx="13.2277" fill="#F6F7FA"/>
<rect x="147.84" y="67.4131" width="83.6772" height="26.4555" rx="13.2277" stroke="url(#paint4_linear_249_46739)"/>
<path d="M220.656 79.0043C220.623 78.6953 220.483 78.4547 220.238 78.2825C219.995 78.1103 219.679 78.0242 219.29 78.0242C219.016 78.0242 218.781 78.0654 218.586 78.148C218.39 78.2306 218.24 78.3426 218.136 78.4841C218.033 78.6257 217.979 78.7873 217.977 78.9689C217.977 79.1199 218.011 79.2508 218.08 79.3617C218.15 79.4725 218.246 79.5669 218.366 79.6447C218.487 79.7202 218.62 79.7839 218.766 79.8358C218.912 79.8877 219.06 79.9314 219.208 79.9667L219.888 80.1366C220.161 80.2003 220.425 80.2864 220.677 80.3949C220.932 80.5034 221.159 80.6402 221.36 80.8054C221.563 80.9705 221.723 81.1698 221.841 81.4033C221.959 81.6369 222.018 81.9105 222.018 82.2243C222.018 82.6489 221.909 83.0228 221.692 83.3459C221.475 83.6668 221.162 83.918 220.751 84.0996C220.343 84.2789 219.849 84.3685 219.269 84.3685C218.705 84.3685 218.215 84.2813 217.8 84.1067C217.387 83.9321 217.064 83.6774 216.831 83.3424C216.599 83.0074 216.474 82.5993 216.456 82.1181H217.747C217.766 82.3705 217.844 82.5805 217.981 82.7479C218.117 82.9154 218.296 83.0405 218.515 83.123C218.737 83.2056 218.984 83.2469 219.258 83.2469C219.543 83.2469 219.793 83.2044 220.008 83.1195C220.225 83.0322 220.395 82.9119 220.518 82.7586C220.64 82.6029 220.703 82.4212 220.705 82.2136C220.703 82.0249 220.647 81.8692 220.539 81.7466C220.43 81.6215 220.278 81.5178 220.082 81.4352C219.889 81.3503 219.663 81.2748 219.403 81.2087L218.579 80.9964C217.982 80.8431 217.51 80.6107 217.163 80.2994C216.819 79.9856 216.647 79.5693 216.647 79.0503C216.647 78.6233 216.762 78.2494 216.993 77.9286C217.227 77.6078 217.544 77.3589 217.945 77.182C218.346 77.0027 218.8 76.9131 219.308 76.9131C219.822 76.9131 220.272 77.0027 220.659 77.182C221.048 77.3589 221.354 77.6054 221.576 77.9215C221.797 78.2353 221.912 78.5962 221.919 79.0043H220.656Z" fill="#4A5568"/>
<path d="M214.184 79.0043C214.151 78.6953 214.012 78.4547 213.767 78.2825C213.524 78.1103 213.208 78.0242 212.819 78.0242C212.545 78.0242 212.31 78.0654 212.115 78.148C211.919 78.2306 211.769 78.3426 211.665 78.4841C211.561 78.6257 211.508 78.7873 211.506 78.9689C211.506 79.1199 211.54 79.2508 211.609 79.3617C211.679 79.4725 211.775 79.5669 211.895 79.6447C212.015 79.7202 212.149 79.7839 212.295 79.8358C212.441 79.8877 212.589 79.9314 212.737 79.9667L213.417 80.1366C213.69 80.2003 213.953 80.2864 214.206 80.3949C214.46 80.5034 214.688 80.6402 214.889 80.8054C215.091 80.9705 215.252 81.1698 215.37 81.4033C215.488 81.6369 215.547 81.9105 215.547 82.2243C215.547 82.6489 215.438 83.0228 215.221 83.3459C215.004 83.6668 214.69 83.918 214.28 84.0996C213.872 84.2789 213.378 84.3685 212.797 84.3685C212.234 84.3685 211.744 84.2813 211.329 84.1067C210.916 83.9321 210.593 83.6774 210.359 83.3424C210.128 83.0074 210.003 82.5993 209.984 82.1181H211.276C211.295 82.3705 211.373 82.5805 211.509 82.7479C211.646 82.9154 211.824 83.0405 212.044 83.123C212.265 83.2056 212.513 83.2469 212.787 83.2469C213.072 83.2469 213.322 83.2044 213.537 83.1195C213.754 83.0322 213.924 82.9119 214.046 82.7586C214.169 82.6029 214.232 82.4212 214.234 82.2136C214.232 82.0249 214.176 81.8692 214.068 81.7466C213.959 81.6215 213.807 81.5178 213.611 81.4352C213.418 81.3503 213.191 81.2748 212.932 81.2087L212.107 80.9964C211.511 80.8431 211.039 80.6107 210.692 80.2994C210.348 79.9856 210.175 79.5693 210.175 79.0503C210.175 78.6233 210.291 78.2494 210.522 77.9286C210.756 77.6078 211.073 77.3589 211.474 77.182C211.875 77.0027 212.329 76.9131 212.836 76.9131C213.351 76.9131 213.801 77.0027 214.188 77.182C214.577 77.3589 214.883 77.6054 215.104 77.9215C215.326 78.2353 215.441 78.5962 215.448 79.0043H214.184Z" fill="#4A5568"/>
<path d="M204.194 84.2589V77.0122H208.907V78.1127H205.507V80.08H208.663V81.1805H205.507V83.1584H208.935V84.2589H204.194Z" fill="#4A5568"/>
<path d="M197.713 84.2589V77.0122H200.43C200.987 77.0122 201.454 77.1089 201.832 77.3024C202.211 77.4958 202.498 77.7671 202.691 78.1162C202.887 78.463 202.985 78.8675 202.985 79.3299C202.985 79.7946 202.886 80.198 202.688 80.54C202.492 80.8797 202.203 81.1427 201.821 81.3291C201.439 81.5131 200.969 81.6051 200.413 81.6051H198.477V80.5152H200.236C200.561 80.5152 200.828 80.4704 201.035 80.3808C201.243 80.2888 201.396 80.1555 201.495 79.9809C201.597 79.804 201.648 79.587 201.648 79.3299C201.648 79.0727 201.597 78.8534 201.495 78.6717C201.394 78.4877 201.24 78.3486 201.032 78.2542C200.824 78.1575 200.557 78.1091 200.229 78.1091H199.026V84.2589H197.713ZM201.457 80.9752L203.251 84.2589H201.786L200.023 80.9752H201.457Z" fill="#4A5568"/>
<path d="M192.948 84.2589H190.493V77.0122H192.998C193.717 77.0122 194.335 77.1573 194.852 77.4474C195.371 77.7352 195.77 78.1492 196.048 78.6894C196.326 79.2296 196.466 79.876 196.466 80.6285C196.466 81.3833 196.325 82.0321 196.044 82.5746C195.766 83.1172 195.364 83.5335 194.838 83.8237C194.314 84.1138 193.684 84.2589 192.948 84.2589ZM191.805 83.1231H192.885C193.389 83.1231 193.811 83.0311 194.148 82.8471C194.485 82.6607 194.739 82.3835 194.909 82.0155C195.078 81.6452 195.163 81.1828 195.163 80.6285C195.163 80.0741 195.078 79.6141 194.909 79.2485C194.739 78.8805 194.488 78.6057 194.155 78.424C193.825 78.24 193.414 78.148 192.924 78.148H191.805V83.1231Z" fill="#4A5568"/>
<path d="M184.213 84.2589H182.812L185.363 77.0122H186.983L189.538 84.2589H188.137L186.201 78.4983H186.145L184.213 84.2589ZM184.259 81.4175H188.08V82.472H184.259V81.4175Z" fill="#4A5568"/>
<path d="M172.304 84.2589L170.258 77.0122H171.67L172.976 82.3375H173.043L174.437 77.0122H175.722L177.119 82.3411H177.183L178.489 77.0122H179.901L177.855 84.2589H176.56L175.109 79.1742H175.053L173.599 84.2589H172.304Z" fill="#4A5568"/>
<path d="M164.726 84.2589V77.0122H169.439V78.1127H166.038V80.08H169.195V81.1805H166.038V83.1584H169.467V84.2589H164.726Z" fill="#4A5568"/>
<path d="M163.295 77.0122V84.2589H162.128L158.713 79.3228H158.653V84.2589H157.34V77.0122H158.515L161.926 81.9518H161.99V77.0122H163.295Z" fill="#4A5568"/>
<defs>
<linearGradient id="paint0_linear_249_46739" x1="69.7005" y1="76.2294" x2="85.914" y2="91.9515" gradientUnits="userSpaceOnUse">
<stop stop-color="#BD30FF"/>
<stop offset="1" stop-color="#7D00FF"/>
</linearGradient>
<linearGradient id="paint1_linear_249_46739" x1="69.7005" y1="76.2294" x2="85.914" y2="91.9515" gradientUnits="userSpaceOnUse">
<stop stop-color="#BD30FF"/>
<stop offset="1" stop-color="#7D00FF"/>
</linearGradient>
<linearGradient id="paint2_linear_249_46739" x1="17.787" y1="54.6919" x2="83.1457" y2="108.135" gradientUnits="userSpaceOnUse">
<stop stop-color="#BD30FF"/>
<stop offset="1" stop-color="#7D00FF"/>
</linearGradient>
<linearGradient id="paint3_linear_249_46739" x1="17.787" y1="54.6919" x2="83.1457" y2="108.135" gradientUnits="userSpaceOnUse">
<stop stop-color="#BD30FF"/>
<stop offset="1" stop-color="#7D00FF"/>
</linearGradient>
<linearGradient id="paint4_linear_249_46739" x1="147.34" y1="66.9131" x2="176.051" y2="123.012" gradientUnits="userSpaceOnUse">
<stop stop-color="#B62CFF"/>
<stop offset="1" stop-color="#7D00FF"/>
</linearGradient>
<clipPath id="clip0_249_46739">
<rect width="248" height="163" fill="white" transform="translate(0 -0.000244141)"/>
</clipPath>
</defs>
</svg>
