<svg width="91" height="92" viewBox="0 0 91 92" fill="none" xmlns="http://www.w3.org/2000/svg">
<path d="M8.02466 14.4644C8.02466 11.1507 10.711 8.46438 14.0247 8.46438H84.9959C88.3096 8.46438 90.9959 11.1507 90.9959 14.4644V85.4356C90.9959 88.7493 88.3096 91.4356 84.9959 91.4356H14.0247C10.711 91.4356 8.02466 88.7493 8.02466 85.4356V14.4644Z" fill="white"/>
<path fill-rule="evenodd" clip-rule="evenodd" d="M0.46582 9.80625C0.46582 4.57324 4.76818 0.331055 10.0754 0.331055H76.7019C82.0092 0.331055 86.3115 4.57324 86.3115 9.80625V75.5009C86.3115 80.7339 82.0092 84.9761 76.7019 84.9761H10.0754C4.76818 84.9761 0.46582 80.7339 0.46582 75.5009V9.80625ZM10.0754 4.12113C6.89108 4.12113 4.30966 6.66644 4.30966 9.80625V75.5009C4.30966 78.6407 6.89108 81.186 10.0754 81.186H76.7019C79.8863 81.186 82.4677 78.6407 82.4677 75.5009V9.80625C82.4677 6.66644 79.8863 4.12113 76.7019 4.12113H10.0754Z" fill="url(#paint0_linear_337_11558)"/>
<path d="M35.5646 59.5573C35.0099 59.5579 34.474 59.3562 34.0572 58.9901L20.096 46.7741C19.8505 46.5591 19.6537 46.2942 19.5189 45.997C19.3841 45.6997 19.3143 45.3771 19.3143 45.0508C19.3143 44.7244 19.3841 44.4018 19.5189 44.1046C19.6537 43.8074 19.8505 43.5424 20.096 43.3275L34.0572 31.1114C34.5144 30.7114 35.1118 30.5093 35.718 30.5497C36.3242 30.5901 36.8895 30.8696 37.2895 31.3268C37.6896 31.784 37.8917 32.3814 37.8513 32.9876C37.8109 33.5938 37.5313 34.1591 37.0741 34.5592L25.0817 45.0508L37.073 55.5424C37.424 55.8492 37.673 56.2558 37.7867 56.7079C37.9005 57.16 37.8736 57.636 37.7096 58.0724C37.5457 58.5088 37.2525 58.8848 36.8692 59.1501C36.4859 59.4154 36.0307 59.5575 35.5646 59.5573ZM56.5063 59.5573C56.0401 59.5577 55.5848 59.4158 55.2013 59.1506C54.8178 58.8853 54.5245 58.5093 54.3604 58.0729C54.1963 57.6365 54.1693 57.1604 54.283 56.7082C54.3967 56.256 54.6457 55.8493 54.9968 55.5424L66.9892 45.0508L54.9979 34.5592C54.5407 34.1591 54.2611 33.5938 54.2207 32.9876C54.1803 32.3814 54.3824 31.784 54.7824 31.3268C55.1825 30.8696 55.7478 30.5901 56.354 30.5497C56.9602 30.5093 57.5576 30.7114 58.0148 31.1114L71.976 43.3275C72.2215 43.5424 72.4183 43.8074 72.5531 44.1046C72.6879 44.4018 72.7576 44.7244 72.7576 45.0508C72.7576 45.3771 72.6879 45.6997 72.5531 45.997C72.4183 46.2942 72.2215 46.5591 71.976 46.7741L58.0148 58.9901C57.5978 59.3566 57.0614 59.5583 56.5063 59.5573ZM40.8 64.7928C40.4433 64.7927 40.0916 64.7093 39.7728 64.5492C39.454 64.3892 39.177 64.1569 38.9639 63.8709C38.7507 63.5849 38.6073 63.253 38.5451 62.9018C38.4829 62.5506 38.5036 62.1897 38.6055 61.8478L49.0764 26.9449C49.1552 26.6487 49.2928 26.3714 49.4808 26.1293C49.6688 25.8872 49.9035 25.6854 50.1709 25.5357C50.4384 25.3859 50.7331 25.2914 51.0378 25.2577C51.3424 25.224 51.6507 25.2518 51.9444 25.3394C52.2382 25.427 52.5113 25.5727 52.7477 25.7678C52.9841 25.9629 53.1789 26.2034 53.3206 26.4752C53.4624 26.7469 53.5481 27.0444 53.5728 27.3499C53.5975 27.6554 53.5606 27.9628 53.4643 28.2537L42.9934 63.1567C42.8526 63.6291 42.5631 64.0435 42.1679 64.3383C41.7727 64.633 41.293 64.7924 40.8 64.7928Z" fill="white"/>
<path d="M32.2359 57.1581C31.6812 57.1587 31.1453 56.957 30.7286 56.591L16.7674 44.3749C16.5218 44.1599 16.3251 43.895 16.1903 43.5978C16.0554 43.3005 15.9857 42.978 15.9857 42.6516C15.9857 42.3252 16.0554 42.0026 16.1903 41.7054C16.3251 41.4082 16.5218 41.1432 16.7674 40.9283L30.7286 28.7122C31.1858 28.3122 31.7832 28.1101 32.3893 28.1505C32.9955 28.1909 33.5608 28.4705 33.9609 28.9277C34.361 29.3849 34.563 29.9823 34.5226 30.5884C34.4822 31.1946 34.2027 31.7599 33.7455 32.16L21.753 42.6516L33.7444 53.1432C34.0953 53.45 34.3443 53.8566 34.4581 54.3087C34.5718 54.7608 34.5449 55.2368 34.381 55.6732C34.217 56.1096 33.9238 56.4856 33.5405 56.7509C33.1572 57.0162 32.7021 57.1583 32.2359 57.1581ZM53.1777 57.1581C52.7114 57.1585 52.2561 57.0166 51.8727 56.7514C51.4892 56.4861 51.1958 56.1102 51.0317 55.6737C50.8676 55.2373 50.8406 54.7612 50.9544 54.309C51.0681 53.8568 51.3171 53.4501 51.6681 53.1432L63.6606 42.6516L51.6692 32.16C51.212 31.7599 50.9325 31.1946 50.8921 30.5884C50.8517 29.9823 51.0537 29.3849 51.4538 28.9277C51.8539 28.4705 52.4192 28.1909 53.0254 28.1505C53.6315 28.1101 54.2289 28.3122 54.6861 28.7122L68.6473 40.9283C68.8929 41.1432 69.0896 41.4082 69.2244 41.7054C69.3593 42.0026 69.429 42.3252 69.429 42.6516C69.429 42.978 69.3593 43.3005 69.2244 43.5978C69.0896 43.895 68.8929 44.1599 68.6473 44.3749L54.6861 56.591C54.2692 56.9575 53.7328 57.1591 53.1777 57.1581ZM37.4714 62.3936C37.1147 62.3935 36.7629 62.3101 36.4441 62.1501C36.1254 61.99 35.8484 61.7577 35.6352 61.4717C35.4221 61.1857 35.2787 60.8538 35.2165 60.5026C35.1543 60.1514 35.1749 59.7905 35.2768 59.4486L45.7477 24.5457C45.8266 24.2495 45.9641 23.9722 46.1521 23.7301C46.3401 23.488 46.5748 23.2862 46.8423 23.1365C47.1097 22.9867 47.4045 22.8922 47.7091 22.8585C48.0138 22.8248 48.3221 22.8526 48.6158 22.9402C48.9095 23.0278 49.1827 23.1735 49.4191 23.3686C49.6554 23.5637 49.8503 23.8042 49.992 24.076C50.1337 24.3478 50.2195 24.6452 50.2442 24.9507C50.2688 25.2562 50.2319 25.5636 50.1357 25.8546L39.6648 60.7575C39.5239 61.2299 39.2344 61.6443 38.8392 61.9391C38.4441 62.2338 37.9644 62.3932 37.4714 62.3936Z" fill="url(#paint1_linear_337_11558)"/>
<defs>
<linearGradient id="paint0_linear_337_11558" x1="3.14146" y1="3.92141" x2="101.566" y2="60.8254" gradientUnits="userSpaceOnUse">
<stop stop-color="#BD30FF"/>
<stop offset="1" stop-color="#7D00FF"/>
</linearGradient>
<linearGradient id="paint1_linear_337_11558" x1="3.14146" y1="3.92141" x2="101.566" y2="60.8254" gradientUnits="userSpaceOnUse">
<stop stop-color="#BD30FF"/>
<stop offset="1" stop-color="#7D00FF"/>
</linearGradient>
</defs>
</svg>
