<svg width="197" height="172" viewBox="0 0 197 172" fill="none" xmlns="http://www.w3.org/2000/svg">
<path fill-rule="evenodd" clip-rule="evenodd" d="M114.991 135.689C114.991 134.281 116.138 133.139 117.552 133.139H132.7V144.624H117.552C116.138 144.624 114.991 143.482 114.991 142.075V135.689Z" fill="#E2E8F0"/>
<path d="M116.954 131.088H132.102V119.308C132.102 118.952 132.06 118.607 131.985 118.272H74.503C72.9659 118.272 71.7199 117.773 71.7199 117.159C71.7199 116.545 72.9659 116.046 74.503 116.046H75.7355L75.3812 114.559H74.0197C71.3852 114.559 69.249 116.685 69.249 119.308V154.193C69.249 156.815 71.3852 158.941 74.0197 158.941H127.331C129.966 158.941 132.102 156.817 132.102 154.193V146.677H116.954C114.405 146.677 112.332 144.613 112.332 142.076V135.69C112.332 133.153 114.405 131.089 116.954 131.089V131.088Z" fill="#E2E8F0"/>
<rect x="15.2002" y="18" width="67.2614" height="22.4905" rx="11.2452" fill="#E2E8F0"/>
<rect x="117.214" y="18" width="62.0429" height="21.9342" rx="10.9671" fill="#E2E8F0"/>
<line x1="195.917" y1="170.625" x2="195.917" y2="0.487549" stroke="black" stroke-opacity="0.04"/>
<line x1="171.542" y1="170.625" x2="171.542" y2="0.487549" stroke="black" stroke-opacity="0.04"/>
<line x1="183.729" y1="170.625" x2="183.729" y2="0.487549" stroke="black" stroke-opacity="0.04"/>
<line x1="147.167" y1="170.625" x2="147.167" y2="0.487549" stroke="black" stroke-opacity="0.04"/>
<line x1="159.354" y1="170.625" x2="159.354" y2="0.487549" stroke="black" stroke-opacity="0.04"/>
<line x1="122.792" y1="170.625" x2="122.792" y2="0.487549" stroke="black" stroke-opacity="0.04"/>
<line x1="134.979" y1="170.625" x2="134.979" y2="0.487549" stroke="black" stroke-opacity="0.04"/>
<line x1="98.4165" y1="170.625" x2="98.4166" y2="0.487549" stroke="black" stroke-opacity="0.04"/>
<line x1="110.604" y1="170.625" x2="110.604" y2="0.487549" stroke="black" stroke-opacity="0.04"/>
<line x1="74.0415" y1="170.625" x2="74.0416" y2="0.487549" stroke="black" stroke-opacity="0.04"/>
<line x1="86.229" y1="170.625" x2="86.2291" y2="0.487549" stroke="black" stroke-opacity="0.04"/>
<line x1="196.417" y1="0.5" x2="1.41655" y2="0.499982" stroke="black" stroke-opacity="0.04"/>
<line x1="196.417" y1="24.875" x2="1.41655" y2="24.875" stroke="black" stroke-opacity="0.04"/>
<line x1="196.417" y1="49.25" x2="1.41655" y2="49.25" stroke="black" stroke-opacity="0.04"/>
<line x1="196.417" y1="73.625" x2="1.41655" y2="73.625" stroke="black" stroke-opacity="0.04"/>
<line x1="196.417" y1="98" x2="1.41655" y2="98" stroke="black" stroke-opacity="0.04"/>
<line x1="196.417" y1="122.375" x2="1.41655" y2="122.375" stroke="black" stroke-opacity="0.04"/>
<line x1="196.417" y1="110.188" x2="1.41655" y2="110.187" stroke="black" stroke-opacity="0.04"/>
<line x1="196.417" y1="85.8125" x2="1.41655" y2="85.8125" stroke="black" stroke-opacity="0.04"/>
<line x1="196.417" y1="61.4375" x2="1.41655" y2="61.4375" stroke="black" stroke-opacity="0.04"/>
<line x1="196.417" y1="37.0625" x2="1.41655" y2="37.0625" stroke="black" stroke-opacity="0.04"/>
<line x1="196.417" y1="12.6875" x2="1.41655" y2="12.6875" stroke="black" stroke-opacity="0.04"/>
<line x1="196.417" y1="134.562" x2="1.41655" y2="134.562" stroke="black" stroke-opacity="0.04"/>
<line x1="196.417" y1="158.938" x2="1.41655" y2="158.937" stroke="black" stroke-opacity="0.04"/>
<line x1="196.417" y1="146.75" x2="1.41655" y2="146.75" stroke="black" stroke-opacity="0.04"/>
<line x1="196.417" y1="171.125" x2="1.41655" y2="171.125" stroke="black" stroke-opacity="0.04"/>
<line x1="49.6665" y1="170.625" x2="49.6666" y2="0.487549" stroke="black" stroke-opacity="0.04"/>
<line x1="61.854" y1="170.625" x2="61.8541" y2="0.487549" stroke="black" stroke-opacity="0.04"/>
<line x1="25.2915" y1="170.625" x2="25.2916" y2="0.487549" stroke="black" stroke-opacity="0.04"/>
<line x1="37.479" y1="170.625" x2="37.4791" y2="0.487549" stroke="black" stroke-opacity="0.04"/>
<line x1="13.104" y1="170.625" x2="13.1041" y2="0.487549" stroke="black" stroke-opacity="0.04"/>
<line x1="0.916504" y1="171.641" x2="0.916511" y2="0.487534" stroke="black" stroke-opacity="0.04"/>
<path d="M91.4165 66.5L91.4165 60.5545C91.4165 57.2408 88.7302 54.5545 85.4165 54.5545L30.9165 54.5545C27.6028 54.5545 24.9165 51.8683 24.9165 48.5545L24.9165 37" stroke="#718096" stroke-linecap="round"/>
<path d="M90.5077 66.7985C90.8982 67.189 91.5314 67.189 91.9219 66.7985L96.5181 62.2023C96.7134 62.0071 96.7134 61.6905 96.5181 61.4952C96.3228 61.3 96.0063 61.3 95.811 61.4952L91.922 65.3842C91.5315 65.7747 90.8983 65.7747 90.5078 65.3842L86.4772 61.3536C86.2819 61.1583 85.9653 61.1583 85.7701 61.3536C85.5748 61.5488 85.5748 61.8654 85.77 62.0607L90.5077 66.7985Z" fill="#718096"/>
<path d="M105.417 66.5L105.417 60.5545C105.417 57.2408 108.103 54.5545 111.417 54.5545L153.917 54.5545C157.23 54.5545 159.917 51.8683 159.917 48.5545L159.917 34.5" stroke="#718096" stroke-linecap="round"/>
<path d="M106.325 66.7985C105.935 67.189 105.302 67.189 104.911 66.7985L100.315 62.2023C100.12 62.0071 100.12 61.6905 100.315 61.4952C100.51 61.3 100.827 61.3 101.022 61.4952L104.911 65.3842C105.302 65.7747 105.935 65.7747 106.325 65.3842L110.356 61.3536C110.551 61.1583 110.868 61.1583 111.063 61.3536C111.258 61.5488 111.258 61.8654 111.063 62.0607L106.325 66.7985Z" fill="#718096"/>
<rect x="10.9165" y="12.5" width="68.2614" height="23.4905" rx="11.7452" fill="#F6F7FA" stroke="url(#paint0_linear_249_18271)"/>
<path d="M23.1262 27.1024C22.6798 27.1007 22.2957 26.9908 21.9739 26.7728C21.6539 26.5548 21.4073 26.2391 21.2343 25.8256C21.0631 25.4121 20.9783 24.9147 20.98 24.3334C20.98 23.7538 21.0656 23.2599 21.2369 22.8516C21.4099 22.4433 21.6565 22.1328 21.9765 21.92C22.2983 21.7054 22.6815 21.5982 23.1262 21.5982C23.5708 21.5982 23.9531 21.7054 24.2732 21.92C24.595 22.1345 24.8424 22.4459 25.0154 22.8542C25.1884 23.2608 25.2741 23.7538 25.2723 24.3334C25.2723 24.9165 25.1858 25.4147 25.0128 25.8282C24.8415 26.2417 24.5959 26.5574 24.2758 26.7754C23.9557 26.9934 23.5725 27.1024 23.1262 27.1024ZM23.1262 26.1708C23.4307 26.1708 23.6737 26.0177 23.8554 25.7114C24.0371 25.4052 24.127 24.9459 24.1253 24.3334C24.1253 23.9303 24.0838 23.5947 24.0007 23.3265C23.9194 23.0584 23.8035 22.8568 23.653 22.7219C23.5042 22.5869 23.3286 22.5194 23.1262 22.5194C22.8234 22.5194 22.5812 22.6708 22.3995 22.9736C22.2179 23.2763 22.1262 23.7296 22.1245 24.3334C22.1245 24.7417 22.1651 25.0825 22.2464 25.3559C22.3295 25.6275 22.4462 25.8317 22.5968 25.9683C22.7473 26.1033 22.9237 26.1708 23.1262 26.1708Z" fill="#323A47"/>
<path d="M27.0078 22.9995L27.7396 24.3931L28.4896 22.9995H29.6237L28.4689 24.9926L29.6548 26.9856H28.526L27.7396 25.6076L26.9663 26.9856H25.8244L27.0078 24.9926L25.866 22.9995H27.0078Z" fill="#323A47"/>
<path d="M31.2171 26.9856H30.013L31.8477 21.6708H33.2958L35.1279 26.9856H33.9238L32.5925 22.8854H32.551L31.2171 26.9856ZM31.1418 24.8966H33.9861V25.7737H31.1418V24.8966Z" fill="#323A47"/>
<path d="M35.7676 26.9856V21.6708H36.8732V23.6691H36.9069C36.9553 23.5618 37.0254 23.4528 37.1171 23.3421C37.2105 23.2296 37.3316 23.1362 37.4804 23.0618C37.6309 22.9857 37.8178 22.9476 38.041 22.9476C38.3316 22.9476 38.5998 23.0238 38.8454 23.176C39.0911 23.3265 39.2875 23.554 39.4345 23.8585C39.5816 24.1613 39.6551 24.541 39.6551 24.9978C39.6551 25.4424 39.5833 25.8178 39.4397 26.1241C39.2979 26.4286 39.1041 26.6595 38.8584 26.817C38.6145 26.9727 38.3411 27.0505 38.0384 27.0505C37.8238 27.0505 37.6413 27.015 37.4908 26.9441C37.342 26.8732 37.22 26.7841 37.1249 26.6768C37.0297 26.5678 36.9571 26.458 36.9069 26.3472H36.8576V26.9856H35.7676ZM36.8498 24.9926C36.8498 25.2296 36.8827 25.4364 36.9484 25.6128C37.0142 25.7893 37.1093 25.9268 37.2339 26.0254C37.3584 26.1223 37.5098 26.1708 37.688 26.1708C37.8679 26.1708 38.0202 26.1215 38.1448 26.0228C38.2693 25.9225 38.3636 25.7841 38.4276 25.6076C38.4934 25.4294 38.5262 25.2244 38.5262 24.9926C38.5262 24.7625 38.4942 24.5601 38.4302 24.3853C38.3662 24.2106 38.2719 24.0739 38.1474 23.9753C38.0228 23.8767 37.8697 23.8274 37.688 23.8274C37.5081 23.8274 37.3558 23.875 37.2313 23.9701C37.1084 24.0653 37.0142 24.2002 36.9484 24.3749C36.8827 24.5497 36.8498 24.7556 36.8498 24.9926Z" fill="#323A47"/>
<path d="M40.302 26.0514V25.1665L42.5208 21.6708H43.2837V22.8957H42.8322L41.4334 25.1094V25.1509H44.5865V26.0514H40.302ZM42.853 26.9856V25.7815L42.8737 25.3896V21.6708H43.9273V26.9856H42.853Z" fill="#323A47"/>
<path d="M45.8918 27.0531C45.7206 27.0531 45.5735 26.9926 45.4507 26.8715C45.3296 26.7486 45.269 26.6016 45.269 26.4303C45.269 26.2607 45.3296 26.1154 45.4507 25.9943C45.5735 25.8732 45.7206 25.8126 45.8918 25.8126C46.0579 25.8126 46.2032 25.8732 46.3278 25.9943C46.4524 26.1154 46.5147 26.2607 46.5147 26.4303C46.5147 26.5445 46.4853 26.6491 46.4264 26.7443C46.3693 26.8377 46.2941 26.913 46.2007 26.9701C46.1072 27.0254 46.0043 27.0531 45.8918 27.0531Z" fill="#323A47"/>
<path d="M48.0685 27.0531C47.8972 27.0531 47.7502 26.9926 47.6273 26.8715C47.5062 26.7486 47.4457 26.6016 47.4457 26.4303C47.4457 26.2607 47.5062 26.1154 47.6273 25.9943C47.7502 25.8732 47.8972 25.8126 48.0685 25.8126C48.2346 25.8126 48.3799 25.8732 48.5045 25.9943C48.629 26.1154 48.6913 26.2607 48.6913 26.4303C48.6913 26.5445 48.6619 26.6491 48.6031 26.7443C48.546 26.8377 48.4707 26.913 48.3773 26.9701C48.2839 27.0254 48.1809 27.0531 48.0685 27.0531Z" fill="#323A47"/>
<path d="M50.2451 27.0531C50.0739 27.0531 49.9268 26.9926 49.804 26.8715C49.6829 26.7486 49.6223 26.6016 49.6223 26.4303C49.6223 26.2607 49.6829 26.1154 49.804 25.9943C49.9268 25.8732 50.0739 25.8126 50.2451 25.8126C50.4112 25.8126 50.5566 25.8732 50.6811 25.9943C50.8057 26.1154 50.868 26.2607 50.868 26.4303C50.868 26.5445 50.8386 26.6491 50.7797 26.7443C50.7226 26.8377 50.6474 26.913 50.554 26.9701C50.4605 27.0254 50.3576 27.0531 50.2451 27.0531Z" fill="#323A47"/>
<path d="M51.7756 26.9856L53.9789 22.6258V22.5895H51.4123V21.6708H55.1415V22.6025L52.9356 26.9856H51.7756Z" fill="#323A47"/>
<path d="M56.2645 26.9856L58.4678 22.6258V22.5895H55.9012V21.6708H59.6304V22.6025L57.4245 26.9856H56.2645Z" fill="#323A47"/>
<path d="M62.2521 21.5982C62.5255 21.5982 62.7884 21.644 63.041 21.7357C63.2953 21.8274 63.522 21.9736 63.7209 22.1743C63.9216 22.375 64.0799 22.6414 64.1958 22.9736C64.3135 23.304 64.3732 23.7097 64.3749 24.1907C64.3749 24.6422 64.3239 25.0454 64.2218 25.4C64.1215 25.753 63.977 26.0531 63.7884 26.3005C63.5998 26.5479 63.3723 26.7365 63.1059 26.8663C62.8395 26.9943 62.5419 27.0583 62.2132 27.0583C61.8585 27.0583 61.5454 26.99 61.2737 26.8533C61.0021 26.7149 60.7833 26.5272 60.6172 26.2901C60.4528 26.0514 60.3533 25.7832 60.3187 25.4857H61.4269C61.4701 25.6794 61.5609 25.8299 61.6993 25.9372C61.8377 26.0427 62.009 26.0955 62.2132 26.0955C62.5592 26.0955 62.8222 25.945 63.0021 25.644C63.182 25.3412 63.2729 24.9268 63.2746 24.4009H63.2382C63.1587 24.5566 63.0514 24.6907 62.9165 24.8031C62.7815 24.9139 62.6267 24.9995 62.4519 25.0601C62.2789 25.1206 62.0947 25.1509 61.8992 25.1509C61.586 25.1509 61.3066 25.0774 61.0609 24.9303C60.8153 24.7832 60.6215 24.5808 60.4796 24.323C60.3378 24.0653 60.2668 23.7712 60.2668 23.4407C60.2651 23.0843 60.3473 22.7668 60.5134 22.4883C60.6795 22.2098 60.9113 21.9918 61.2089 21.8343C61.5082 21.6752 61.8559 21.5964 62.2521 21.5982ZM62.2599 22.4805C62.0852 22.4805 61.9294 22.522 61.7928 22.6051C61.6578 22.6881 61.5506 22.7997 61.471 22.9398C61.3931 23.08 61.3551 23.2366 61.3568 23.4096C61.3568 23.5843 61.3949 23.7417 61.471 23.8819C61.5488 24.0203 61.6544 24.131 61.7876 24.2141C61.9225 24.2954 62.0765 24.336 62.2495 24.336C62.3793 24.336 62.4995 24.3118 62.6102 24.2634C62.721 24.2149 62.817 24.1483 62.8983 24.0635C62.9813 23.977 63.0462 23.8776 63.0929 23.7651C63.1396 23.6526 63.163 23.5333 63.163 23.407C63.1613 23.2392 63.1215 23.0852 63.0436 22.945C62.9658 22.8049 62.8585 22.6924 62.7218 22.6077C62.5851 22.5229 62.4312 22.4805 62.2599 22.4805Z" fill="#323A47"/>
<path d="M65.1534 26.9856V26.176L67.0453 24.4243C67.2062 24.2685 67.3411 24.1284 67.4501 24.0038C67.5608 23.8793 67.6448 23.7573 67.7019 23.6379C67.7589 23.5168 67.7875 23.3862 67.7875 23.2461C67.7875 23.0904 67.752 22.9563 67.6811 22.8438C67.6102 22.7296 67.5133 22.6423 67.3904 22.5817C67.2676 22.5194 67.1283 22.4883 66.9726 22.4883C66.81 22.4883 66.6681 22.5212 66.547 22.5869C66.4259 22.6527 66.3325 22.7469 66.2668 22.8698C66.201 22.9926 66.1681 23.1388 66.1681 23.3084H65.1015C65.1015 22.9606 65.1803 22.6587 65.3377 22.4027C65.4951 22.1466 65.7157 21.9485 65.9995 21.8084C66.2832 21.6682 66.6102 21.5982 66.9804 21.5982C67.361 21.5982 67.6923 21.6656 67.9743 21.8006C68.2581 21.9338 68.4787 22.1189 68.6361 22.3559C68.7935 22.593 68.8722 22.8646 68.8722 23.1708C68.8722 23.3715 68.8325 23.5696 68.7529 23.7651C68.675 23.9606 68.5357 24.1777 68.3351 24.4165C68.1344 24.6535 67.8515 24.9381 67.4865 25.2703L66.7105 26.0306V26.067H68.9423V26.9856H65.1534Z" fill="#323A47"/>
<path d="M82.3237 39C82.3237 44.5228 77.8466 49 72.3237 49C66.8009 49 62.3237 44.5228 62.3237 39C62.3237 33.4772 66.8009 29 72.3237 29C77.8466 29 82.3237 33.4772 82.3237 39Z" fill="url(#paint1_linear_249_18271)" stroke="white" stroke-width="2"/>
<path fill-rule="evenodd" clip-rule="evenodd" d="M71.7132 44.0231C71.8471 44.0945 71.9974 44.1313 72.1478 44.1313C72.2981 44.1313 72.4484 44.0945 72.5823 44.0231L76.8005 41.7813C77.0706 41.6386 77.235 41.3749 77.235 41.0873V36.6035C77.235 36.3182 77.0682 36.0523 76.8005 35.9096L72.5846 33.6698C72.4484 33.5985 72.2981 33.5618 72.1478 33.5618C71.9974 33.5618 71.8471 33.5985 71.7132 33.6698L67.4951 35.9117C67.2273 36.0544 67.0605 36.3182 67.0605 36.6035V41.0873C67.0605 41.3727 67.2273 41.6386 67.4951 41.7813L68.2535 42.1834L71.7132 44.0231ZM72.1478 34.2168C72.1759 34.2168 72.2018 34.2233 72.2276 34.2363L76.4459 36.4782C76.4952 36.5041 76.5257 36.5517 76.5257 36.6035V41.0873C76.5257 41.1151 76.5169 41.1416 76.5014 41.1642C76.4942 41.1744 76.4858 41.1838 76.476 41.1923C76.467 41.2 76.4569 41.2069 76.4459 41.2127L75.8037 41.5544L74.1136 37.2889C74.0831 37.2111 73.9656 37.2111 73.9351 37.2889L73.3785 38.6919C73.362 38.7309 73.362 38.7741 73.3785 38.8131L74.6976 42.1428L74.2587 42.3762L73.179 39.6497C73.1484 39.5719 73.031 39.5719 73.0004 39.6497L72.4438 41.0527C72.4339 41.076 72.43 41.1009 72.432 41.1254C72.4326 41.1327 72.4337 41.1401 72.4353 41.1473C72.4373 41.1563 72.4401 41.1651 72.4438 41.1738L73.1527 42.9647L72.2276 43.4568C72.2041 43.4697 72.1759 43.4762 72.1478 43.4762C72.1196 43.4762 72.0937 43.4697 72.0679 43.4568L71.1519 42.9697L73.7539 36.4025C73.7774 36.3441 73.7304 36.2836 73.6646 36.2836H72.596C72.55 36.2836 72.5063 36.2987 72.4727 36.3246C72.4478 36.3437 72.4285 36.3688 72.4175 36.3982L70.1551 42.1059L69.7477 41.7943L71.8846 36.4003C71.8979 36.3649 71.8851 36.3277 71.8566 36.305C71.84 36.2918 71.8181 36.2836 71.793 36.2836H70.7244C70.6445 36.2836 70.5717 36.329 70.5458 36.3982L68.5007 41.5598L67.8521 41.2149C67.8027 41.1889 67.7722 41.1413 67.7722 41.0895V36.6035C67.7722 36.5517 67.8027 36.5041 67.8521 36.4782L72.0703 34.2363C72.0937 34.2233 72.122 34.2168 72.1478 34.2168Z" fill="white"/>
<rect x="112.441" y="12.5" width="63.0429" height="22.9342" rx="11.4671" fill="#F6F7FA" stroke="url(#paint2_linear_249_18271)"/>
<path d="M122.36 26.64V21.4566H123.438V23.4054H123.471C123.518 23.3008 123.587 23.1945 123.676 23.0865C123.767 22.9769 123.885 22.8857 124.03 22.8132C124.177 22.7389 124.359 22.7018 124.577 22.7018C124.86 22.7018 125.122 22.7761 125.362 22.9246C125.601 23.0713 125.793 23.2932 125.936 23.5902C126.079 23.8855 126.151 24.2558 126.151 24.7013C126.151 25.1349 126.081 25.501 125.941 25.7997C125.803 26.0967 125.614 26.3219 125.374 26.4755C125.136 26.6273 124.87 26.7032 124.574 26.7032C124.365 26.7032 124.187 26.6686 124.04 26.5995C123.895 26.5303 123.776 26.4434 123.684 26.3388C123.591 26.2325 123.52 26.1253 123.471 26.0174H123.423V26.64H122.36ZM123.415 24.6962C123.415 24.9274 123.447 25.129 123.511 25.3011C123.576 25.4732 123.668 25.6073 123.79 25.7035C123.911 25.798 124.059 25.8453 124.233 25.8453C124.408 25.8453 124.557 25.7972 124.678 25.701C124.8 25.6031 124.892 25.4681 124.954 25.296C125.018 25.1222 125.05 24.9223 125.05 24.6962C125.05 24.4718 125.019 24.2744 124.957 24.104C124.894 23.9336 124.802 23.8003 124.681 23.7041C124.559 23.6079 124.41 23.5598 124.233 23.5598C124.057 23.5598 123.909 23.6062 123.787 23.699C123.668 23.7918 123.576 23.9234 123.511 24.0938C123.447 24.2643 123.415 24.465 123.415 24.6962Z" fill="#323A47"/>
<path d="M128.627 26.7159C128.229 26.7159 127.886 26.6315 127.6 26.4628C127.314 26.2924 127.095 26.0562 126.941 25.7541C126.79 25.4521 126.714 25.1045 126.714 24.7114C126.714 24.3132 126.79 23.9639 126.944 23.6636C127.099 23.3616 127.319 23.1262 127.605 22.9575C127.89 22.787 128.229 22.7018 128.622 22.7018C128.961 22.7018 129.258 22.7634 129.513 22.8866C129.768 23.0098 129.969 23.1827 130.118 23.4054C130.266 23.6282 130.348 23.8897 130.363 24.19H129.346C129.317 23.996 129.241 23.8399 129.118 23.7218C128.997 23.602 128.837 23.5421 128.64 23.5421C128.473 23.5421 128.327 23.5877 128.202 23.6788C128.079 23.7682 127.983 23.899 127.913 24.0711C127.844 24.2432 127.81 24.4515 127.81 24.6962C127.81 24.9442 127.843 25.1551 127.911 25.3289C127.98 25.5027 128.077 25.6352 128.202 25.7263C128.327 25.8174 128.473 25.863 128.64 25.863C128.763 25.863 128.873 25.8377 128.971 25.787C129.071 25.7364 129.153 25.663 129.217 25.5668C129.283 25.469 129.326 25.3517 129.346 25.215H130.363C130.346 25.512 130.265 25.7735 130.12 25.9996C129.977 26.224 129.779 26.3995 129.526 26.5261C129.272 26.6526 128.973 26.7159 128.627 26.7159Z" fill="#323A47"/>
<path d="M133.299 21.4566V26.64H132.203V22.4968H132.172L130.985 23.2409V22.269L132.268 21.4566H133.299Z" fill="#323A47"/>
<path d="M137.11 28.0978V26.0174H137.077C137.026 26.1253 136.954 26.2325 136.861 26.3388C136.77 26.4434 136.651 26.5303 136.505 26.5995C136.36 26.6686 136.182 26.7032 135.973 26.7032C135.678 26.7032 135.41 26.6273 135.171 26.4755C134.933 26.3219 134.744 26.0967 134.604 25.7997C134.466 25.501 134.396 25.1349 134.396 24.7013C134.396 24.2558 134.468 23.8855 134.611 23.5902C134.755 23.2932 134.946 23.0713 135.183 22.9246C135.423 22.7761 135.685 22.7018 135.971 22.7018C136.188 22.7018 136.37 22.7389 136.515 22.8132C136.662 22.8857 136.78 22.9769 136.869 23.0865C136.96 23.1945 137.029 23.3008 137.077 23.4054H137.122V22.7524H138.185V28.0978H137.11ZM136.315 25.8453C136.489 25.8453 136.635 25.798 136.755 25.7035C136.877 25.6073 136.969 25.4732 137.034 25.3011C137.099 25.129 137.132 24.9274 137.132 24.6962C137.132 24.465 137.1 24.2643 137.036 24.0938C136.972 23.9234 136.879 23.7918 136.758 23.699C136.636 23.6062 136.489 23.5598 136.315 23.5598C136.138 23.5598 135.988 23.6079 135.867 23.7041C135.745 23.8003 135.653 23.9336 135.591 24.104C135.529 24.2744 135.497 24.4718 135.497 24.6962C135.497 24.9223 135.529 25.1222 135.591 25.296C135.655 25.4681 135.747 25.6031 135.867 25.701C135.988 25.7972 136.138 25.8453 136.315 25.8453Z" fill="#323A47"/>
<path d="M139.952 22.7524L140.665 24.1116L141.397 22.7524H142.503L141.377 24.6962L142.533 26.64H141.432L140.665 25.296L139.911 26.64H138.798L139.952 24.6962L138.838 22.7524H139.952Z" fill="#323A47"/>
<path d="M143.773 26.7058C143.606 26.7058 143.463 26.6467 143.343 26.5286C143.225 26.4088 143.166 26.2654 143.166 26.0983C143.166 25.933 143.225 25.7913 143.343 25.6731C143.463 25.555 143.606 25.496 143.773 25.496C143.935 25.496 144.077 25.555 144.199 25.6731C144.32 25.7913 144.381 25.933 144.381 26.0983C144.381 26.2097 144.352 26.3118 144.295 26.4046C144.239 26.4957 144.166 26.5691 144.075 26.6248C143.984 26.6788 143.883 26.7058 143.773 26.7058Z" fill="#323A47"/>
<path d="M145.896 26.7058C145.729 26.7058 145.586 26.6467 145.466 26.5286C145.348 26.4088 145.289 26.2654 145.289 26.0983C145.289 25.933 145.348 25.7913 145.466 25.6731C145.586 25.555 145.729 25.496 145.896 25.496C146.058 25.496 146.2 25.555 146.321 25.6731C146.443 25.7913 146.504 25.933 146.504 26.0983C146.504 26.2097 146.475 26.3118 146.418 26.4046C146.362 26.4957 146.289 26.5691 146.197 26.6248C146.106 26.6788 146.006 26.7058 145.896 26.7058Z" fill="#323A47"/>
<path d="M148.019 26.7058C147.852 26.7058 147.709 26.6467 147.589 26.5286C147.471 26.4088 147.412 26.2654 147.412 26.0983C147.412 25.933 147.471 25.7913 147.589 25.6731C147.709 25.555 147.852 25.496 148.019 25.496C148.181 25.496 148.323 25.555 148.444 25.6731C148.566 25.7913 148.627 25.933 148.627 26.0983C148.627 26.2097 148.598 26.3118 148.54 26.4046C148.485 26.4957 148.411 26.5691 148.32 26.6248C148.229 26.6788 148.129 26.7058 148.019 26.7058Z" fill="#323A47"/>
<path d="M151.325 26.7539C150.89 26.7522 150.515 26.645 150.201 26.4324C149.889 26.2198 149.649 25.9119 149.48 25.5086C149.313 25.1054 149.23 24.6203 149.232 24.0533C149.232 23.4881 149.316 23.0064 149.483 22.6082C149.651 22.21 149.892 21.9071 150.204 21.6996C150.518 21.4904 150.892 21.3857 151.325 21.3857C151.759 21.3857 152.132 21.4904 152.444 21.6996C152.758 21.9088 152.999 22.2125 153.168 22.6107C153.336 23.0072 153.42 23.4881 153.418 24.0533C153.418 24.622 153.334 25.1079 153.165 25.5112C152.998 25.9144 152.759 26.2224 152.446 26.435C152.134 26.6476 151.76 26.7539 151.325 26.7539ZM151.325 25.8453C151.622 25.8453 151.859 25.6959 152.036 25.3973C152.214 25.0986 152.301 24.6506 152.3 24.0533C152.3 23.6602 152.259 23.3329 152.178 23.0713C152.099 22.8098 151.986 22.6132 151.839 22.4816C151.694 22.35 151.523 22.2842 151.325 22.2842C151.03 22.2842 150.794 22.4319 150.616 22.7271C150.439 23.0224 150.35 23.4645 150.348 24.0533C150.348 24.4515 150.388 24.7839 150.467 25.0505C150.548 25.3154 150.662 25.5145 150.809 25.6478C150.956 25.7794 151.128 25.8453 151.325 25.8453Z" fill="#323A47"/>
<path d="M154.977 26.64L153.919 22.7524H155.01L155.612 25.3644H155.647L156.275 22.7524H157.346L157.983 25.3492H158.016L158.609 22.7524H159.697L158.641 26.64H157.5L156.832 24.1951H156.784L156.116 26.64H154.977Z" fill="#323A47"/>
<path d="M161.35 21.4566V26.64H160.272V21.4566H161.35Z" fill="#323A47"/>
<path d="M163.292 24.3925V26.64H162.214V21.4566H163.262V23.4383H163.307C163.395 23.2089 163.537 23.0292 163.732 22.8992C163.928 22.7676 164.174 22.7018 164.469 22.7018C164.739 22.7018 164.974 22.7609 165.175 22.879C165.378 22.9954 165.534 23.1633 165.646 23.3827C165.759 23.6003 165.815 23.861 165.813 24.1647V26.64H164.735V24.3571C164.736 24.1175 164.676 23.931 164.552 23.7977C164.431 23.6644 164.261 23.5978 164.041 23.5978C163.894 23.5978 163.764 23.629 163.651 23.6914C163.54 23.7539 163.452 23.845 163.388 23.9648C163.326 24.0829 163.294 24.2255 163.292 24.3925Z" fill="#323A47"/>
<path d="M183.744 39.2063C183.744 44.8431 179.266 49.4127 173.744 49.4127C168.221 49.4127 163.744 44.8431 163.744 39.2063C163.744 33.5695 168.221 29 173.744 29C179.266 29 183.744 33.5695 183.744 39.2063Z" fill="url(#paint3_linear_249_18271)" stroke="white" stroke-width="2"/>
<path d="M177.021 37.0418C176.908 35.8638 175.891 35.4683 174.607 35.3554V34.6008H173.613V35.3124C173.351 35.3124 173.084 35.3174 172.818 35.3224V34.6002H171.825V35.3545C171.609 35.3586 170.287 35.3575 170.287 35.3575L170.284 36.2341L171.114 36.2389V41.9846H170.284L170.277 42.8489C170.518 42.8489 171.59 42.8536 171.822 42.8551V43.5999H172.816V42.8728C173.089 42.8786 173.353 42.881 173.61 42.8807V43.6002H174.605V42.8586C176.277 42.7634 177.448 42.3426 177.594 40.7726C177.712 39.5082 177.117 38.9444 176.168 38.715C176.745 38.4201 177.105 37.9037 177.021 37.0415L177.021 37.0418ZM175.627 40.5754C175.627 41.8106 173.513 41.6694 172.838 41.6696V39.4799C173.513 39.4799 175.626 39.2873 175.627 40.5754H175.627ZM175.166 37.4856C175.166 38.6094 173.401 38.4776 172.84 38.4776V36.4913C173.402 36.4916 175.167 36.3135 175.166 37.4856Z" fill="white"/>
<path d="M111.06 131.994C111.06 130.864 111.981 129.944 113.121 129.944H127.769V140.429H113.121C111.981 140.429 111.06 139.509 111.06 138.38V131.994ZM111.894 134.867C111.894 137.003 113.634 138.729 115.772 138.729C117.91 138.729 119.65 137.003 119.65 134.867C119.65 132.731 117.91 131.005 115.772 131.005C113.634 131.005 111.894 132.731 111.894 134.867Z" fill="url(#paint4_linear_249_18271)" stroke="url(#paint5_linear_249_18271)"/>
<path d="M113.121 126.892H112.621V126.918C110.032 127.169 107.999 129.347 107.999 131.994V138.381C107.999 141.196 110.298 143.481 113.121 143.481H127.769V150.497C127.769 152.843 125.859 154.746 123.499 154.746H70.1871C67.8266 154.746 65.9165 152.841 65.9165 150.497V115.612C65.9165 113.268 67.8266 111.363 70.1871 111.363V111.364L70.1944 111.363L127.652 110.534V110.918L70.6663 111.85C69.8519 111.851 69.0919 111.982 68.5168 112.212C68.2301 112.327 67.9646 112.476 67.7626 112.667C67.5596 112.859 67.3874 113.128 67.3874 113.463C67.3874 113.799 67.5596 114.068 67.7626 114.26C67.9646 114.451 68.2301 114.6 68.5168 114.714C69.0929 114.945 69.8545 115.077 70.6705 115.077H127.734C127.757 115.253 127.769 115.431 127.769 115.612V126.892H113.121Z" fill="url(#paint6_linear_249_18271)" stroke="url(#paint7_linear_249_18271)"/>
<circle cx="115.9" cy="134.853" r="3.51516" fill="#FCF9FF"/>
<path d="M102.149 128.48C101.898 125.862 99.6379 124.983 96.7838 124.732V123.055H94.5738V124.636C93.9932 124.636 93.3994 124.647 92.8089 124.658V123.053H90.6002V124.73C90.1218 124.739 87.1824 124.736 87.1824 124.736L87.1759 126.685L89.0201 126.695V139.465H87.1765L87.1602 141.386C87.6956 141.386 90.0786 141.397 90.595 141.4V143.056H92.8036V141.439C93.4092 141.453 93.9964 141.458 94.5692 141.457V143.056H96.7798V141.408C100.496 141.196 103.099 140.261 103.422 136.772C103.684 133.962 102.363 132.709 100.253 132.199C101.535 131.543 102.337 130.396 102.15 128.479L102.149 128.48ZM99.052 136.333C99.052 139.079 94.3523 138.765 92.8528 138.766V133.899C94.3516 133.899 99.0494 133.471 99.0501 136.333H99.052ZM98.0264 129.466C98.0264 131.964 94.1046 131.671 92.8561 131.671V127.256C94.1065 127.257 98.0277 126.861 98.0264 129.466Z" fill="#FCF9FF"/>
<rect x="157.429" y="101" width="14.6231" height="1.82789" rx="0.913945" fill="#718096"/>
<rect x="154.688" y="105.57" width="17.365" height="1.82789" rx="0.913945" fill="#718096"/>
<rect x="156.516" y="110.14" width="15.5371" height="1.82789" rx="0.913945" fill="#718096"/>
<rect x="156.516" y="114.709" width="15.5371" height="1.82789" rx="0.913945" fill="#718096"/>
<path fill-rule="evenodd" clip-rule="evenodd" d="M170.224 119.279C170.477 119.279 170.681 119.484 170.681 119.736V133.445C170.681 134.203 170.067 134.816 169.31 134.816H144.618L146.746 136.944C146.925 137.123 146.925 137.412 146.746 137.591C146.568 137.769 146.278 137.769 146.1 137.591L143.192 134.683C143.013 134.504 143.013 134.215 143.192 134.036L146.1 131.128C146.278 130.95 146.568 130.95 146.746 131.128C146.925 131.307 146.925 131.596 146.746 131.774L144.618 133.902H169.31C169.563 133.902 169.767 133.698 169.767 133.445V119.736C169.767 119.484 169.972 119.279 170.224 119.279Z" fill="#718096"/>
<rect width="14.6231" height="1.82789" rx="0.913945" transform="matrix(-1 0 0 1 52.0396 76.0001)" fill="#718096"/>
<rect width="17.365" height="1.82789" rx="0.913945" transform="matrix(-1 0 0 1 54.7812 80.5699)" fill="#718096"/>
<rect width="15.5371" height="1.82789" rx="0.913945" transform="matrix(-1 0 0 1 52.9536 85.1399)" fill="#718096"/>
<rect width="15.5371" height="1.82789" rx="0.913945" transform="matrix(-1 0 0 1 52.9536 89.7094)" fill="#718096"/>
<path fill-rule="evenodd" clip-rule="evenodd" d="M58.4165 79.3652C58.4165 79.6176 58.6211 79.8222 58.8735 79.8222H73.1679L71.0398 81.9503C70.8614 82.1287 70.8614 82.4181 71.0398 82.5965C71.2183 82.775 71.5076 82.775 71.6861 82.5965L74.5942 79.6884C74.7727 79.5099 74.7727 79.2206 74.5942 79.0421L71.6861 76.134C71.5076 75.9555 71.2183 75.9555 71.0398 76.134C70.8614 76.3124 70.8614 76.6018 71.0398 76.7802L73.1679 78.9083H58.8735C58.6211 78.9083 58.4165 79.1129 58.4165 79.3652Z" fill="#718096"/>
<mask id="path-63-outside-1_249_18271" maskUnits="userSpaceOnUse" x="81.4165" y="69.1152" width="36" height="38" fill="black">
<rect fill="white" x="81.4165" y="69.1152" width="36" height="38"/>
<path fill-rule="evenodd" clip-rule="evenodd" d="M84.2649 70.1152C83.244 70.1152 82.4165 70.9428 82.4165 71.9636C82.4165 72.9844 83.244 73.812 84.2649 73.812C86.0845 73.812 87.288 76.5434 86.9129 78.324C86.6466 79.5882 86.6843 80.9444 87.0967 82.2969L87.4052 83.3085C87.4053 83.3086 87.4053 83.3086 87.4054 83.3086C87.4055 83.3086 87.4055 83.3086 87.4056 83.3087L95.954 93.711C96.8362 94.7845 97.3185 96.1309 97.3185 97.5204V104.051C97.3185 105.03 98.1123 105.824 99.0914 105.824C100.071 105.824 100.864 105.03 100.864 104.051V97.6777C100.864 96.1832 101.422 94.7425 102.429 93.6376L111.836 83.3088C111.836 83.3087 111.836 83.3086 111.836 83.3086C111.836 83.3086 111.836 83.3085 111.836 83.3083L112.194 81.6197C112.455 80.3852 112.418 79.1688 112.136 78.0375C111.721 76.3694 112.837 73.812 114.556 73.812C115.577 73.812 116.405 72.9844 116.405 71.9636C116.405 70.9428 115.577 70.1152 114.556 70.1152H84.2649Z"/>
</mask>
<path fill-rule="evenodd" clip-rule="evenodd" d="M84.2649 70.1152C83.244 70.1152 82.4165 70.9428 82.4165 71.9636C82.4165 72.9844 83.244 73.812 84.2649 73.812C86.0845 73.812 87.288 76.5434 86.9129 78.324C86.6466 79.5882 86.6843 80.9444 87.0967 82.2969L87.4052 83.3085C87.4053 83.3086 87.4053 83.3086 87.4054 83.3086C87.4055 83.3086 87.4055 83.3086 87.4056 83.3087L95.954 93.711C96.8362 94.7845 97.3185 96.1309 97.3185 97.5204V104.051C97.3185 105.03 98.1123 105.824 99.0914 105.824C100.071 105.824 100.864 105.03 100.864 104.051V97.6777C100.864 96.1832 101.422 94.7425 102.429 93.6376L111.836 83.3088C111.836 83.3087 111.836 83.3086 111.836 83.3086C111.836 83.3086 111.836 83.3085 111.836 83.3083L112.194 81.6197C112.455 80.3852 112.418 79.1688 112.136 78.0375C111.721 76.3694 112.837 73.812 114.556 73.812C115.577 73.812 116.405 72.9844 116.405 71.9636C116.405 70.9428 115.577 70.1152 114.556 70.1152H84.2649Z" fill="white"/>
<path d="M87.0967 82.2969L86.1402 82.5885L87.0967 82.2969ZM112.194 81.6197L111.215 81.4126V81.4126L112.194 81.6197ZM111.836 83.3083L110.858 83.1013L111.836 83.3083ZM111.836 83.3088L111.096 82.6354L111.836 83.3088ZM95.954 93.711L95.1814 94.3459L95.954 93.711ZM87.4056 83.3087L88.1781 82.6738L87.4056 83.3087ZM87.4052 83.3085L88.3617 83.0168L87.4052 83.3085ZM83.4165 71.9636C83.4165 71.4951 83.7963 71.1152 84.2649 71.1152V69.1152C82.6918 69.1152 81.4165 70.3905 81.4165 71.9636H83.4165ZM84.2649 72.812C83.7963 72.812 83.4165 72.4322 83.4165 71.9636H81.4165C81.4165 73.5367 82.6918 74.812 84.2649 74.812V72.812ZM88.0533 82.0052C87.6911 80.8176 87.6592 79.6328 87.8915 78.5301L85.9344 78.1179C85.6341 79.5437 85.6775 81.0712 86.1402 82.5885L88.0533 82.0052ZM88.3617 83.0168L88.0533 82.0052L86.1402 82.5885L86.4487 83.6002L88.3617 83.0168ZM96.7266 93.0761L88.1781 82.6738L86.633 83.9436L95.1814 94.3459L96.7266 93.0761ZM98.3185 104.051V97.5204H96.3185V104.051H98.3185ZM99.8644 97.6777V104.051H101.864V97.6777H99.8644ZM111.096 82.6354L101.689 92.9642L103.168 94.3109L112.575 83.9821L111.096 82.6354ZM111.215 81.4126L110.858 83.1013L112.815 83.5153L113.172 81.8267L111.215 81.4126ZM111.166 78.2789C111.411 79.266 111.445 80.3291 111.215 81.4126L113.172 81.8267C113.465 80.4413 113.424 79.0715 113.107 77.7961L111.166 78.2789ZM115.405 71.9636C115.405 72.4322 115.025 72.812 114.556 72.812V74.812C116.13 74.812 117.405 73.5367 117.405 71.9636H115.405ZM114.556 71.1152C115.025 71.1152 115.405 71.4951 115.405 71.9636H117.405C117.405 70.3905 116.13 69.1152 114.556 69.1152V71.1152ZM84.2649 71.1152H114.556V69.1152H84.2649V71.1152ZM111.836 84.3086C112.309 84.3086 112.717 83.9778 112.815 83.5153L110.858 83.1013C110.956 82.6392 111.364 82.3086 111.836 82.3086V84.3086ZM112.575 83.9821C112.386 84.1901 112.117 84.3086 111.836 84.3086V82.3086C111.555 82.3086 111.286 82.4273 111.096 82.6354L112.575 83.9821ZM101.864 97.6777C101.864 96.4323 102.329 95.2317 103.168 94.3109L101.689 92.9642C100.515 94.2533 99.8644 95.9341 99.8644 97.6777H101.864ZM99.0914 106.824C100.623 106.824 101.864 105.583 101.864 104.051H99.8644C99.8644 104.478 99.5184 104.824 99.0914 104.824V106.824ZM95.1814 94.3459C95.9166 95.2405 96.3185 96.3625 96.3185 97.5204H98.3185C98.3185 95.8993 97.7558 94.3285 96.7266 93.0761L95.1814 94.3459ZM87.4054 84.3086C87.1106 84.3086 86.8256 84.178 86.633 83.9436L88.1781 82.6738C87.9855 82.4393 87.7004 82.3086 87.4054 82.3086V84.3086ZM86.4487 83.6002C86.5771 84.0211 86.9654 84.3086 87.4054 84.3086V82.3086C87.8453 82.3086 88.2334 82.5961 88.3617 83.0168L86.4487 83.6002ZM96.3185 104.051C96.3185 105.583 97.56 106.824 99.0914 106.824V104.824C98.6645 104.824 98.3185 104.478 98.3185 104.051H96.3185ZM113.107 77.7961C112.97 77.2446 113.08 76.4386 113.433 75.7615C113.796 75.0644 114.236 74.812 114.556 74.812V72.812C113.158 72.812 112.18 73.8383 111.659 74.8369C111.128 75.8555 110.888 77.1622 111.166 78.2789L113.107 77.7961ZM84.2649 74.812C84.6338 74.812 85.1225 75.1052 85.529 75.8698C85.9229 76.6106 86.0645 77.5001 85.9344 78.1179L87.8915 78.5301C88.1364 77.3673 87.8638 76.0008 87.2949 74.9308C86.7385 73.8844 85.7156 72.812 84.2649 72.812V74.812Z" fill="#718096" mask="url(#path-63-outside-1_249_18271)"/>
<path d="M101.288 89.7643C100.269 89.7643 99.4939 88.8511 99.6588 87.8461L101.928 74.0171C102.059 73.2192 102.748 72.6335 103.557 72.6335C104.575 72.6335 105.351 73.5467 105.186 74.5517L102.917 88.3807C102.786 89.1786 102.096 89.7643 101.288 89.7643ZM93.7303 85.8496C92.6944 85.8496 91.9075 84.9176 92.0811 83.8963C92.2178 83.0921 92.9146 82.5038 93.7303 82.5038H104.121C105.157 82.5038 105.944 83.4358 105.771 84.4571C105.634 85.2613 104.937 85.8496 104.121 85.8496H93.7303ZM95.2653 89.7643C94.2469 89.7643 93.4714 88.8511 93.6363 87.8461L95.9051 74.0171C96.036 73.2192 96.7256 72.6335 97.5342 72.6335C98.5526 72.6335 99.3281 73.5467 99.1632 74.5517L96.8944 88.3807C96.7635 89.1786 96.0739 89.7643 95.2653 89.7643ZM94.7006 79.894C93.6647 79.894 92.8778 78.962 93.0514 77.9407C93.1881 77.1365 93.8849 76.5482 94.7006 76.5482H105.092C106.128 76.5482 106.915 77.4802 106.741 78.5015C106.604 79.3057 105.907 79.894 105.092 79.894H94.7006Z" fill="url(#paint8_linear_249_18271)"/>
<defs>
<linearGradient id="paint0_linear_249_18271" x1="11.4165" y1="13" x2="35.3549" y2="58.3559" gradientUnits="userSpaceOnUse">
<stop stop-color="#B62CFF"/>
<stop offset="1" stop-color="#7D00FF"/>
</linearGradient>
<linearGradient id="paint1_linear_249_18271" x1="62.3237" y1="29" x2="85.6372" y2="43.7699" gradientUnits="userSpaceOnUse">
<stop stop-color="#B62CFF"/>
<stop offset="1" stop-color="#7D00FF"/>
</linearGradient>
<linearGradient id="paint2_linear_249_18271" x1="112.941" y1="13" x2="137.007" y2="56.1266" gradientUnits="userSpaceOnUse">
<stop stop-color="#B62CFF"/>
<stop offset="1" stop-color="#7D00FF"/>
</linearGradient>
<linearGradient id="paint3_linear_249_18271" x1="163.744" y1="29" x2="187.327" y2="43.6391" gradientUnits="userSpaceOnUse">
<stop stop-color="#B62CFF"/>
<stop offset="1" stop-color="#7D00FF"/>
</linearGradient>
<linearGradient id="paint4_linear_249_18271" x1="110.56" y1="129.444" x2="125.362" y2="143.905" gradientUnits="userSpaceOnUse">
<stop stop-color="#B62CFF"/>
<stop offset="1" stop-color="#7D00FF"/>
</linearGradient>
<linearGradient id="paint5_linear_249_18271" x1="110.56" y1="129.444" x2="125.362" y2="143.905" gradientUnits="userSpaceOnUse">
<stop stop-color="#B62CFF"/>
<stop offset="1" stop-color="#7D00FF"/>
</linearGradient>
<linearGradient id="paint6_linear_249_18271" x1="65.4165" y1="110.026" x2="123.246" y2="160.95" gradientUnits="userSpaceOnUse">
<stop stop-color="#B62CFF"/>
<stop offset="1" stop-color="#7D00FF"/>
</linearGradient>
<linearGradient id="paint7_linear_249_18271" x1="65.4165" y1="110.026" x2="123.246" y2="160.95" gradientUnits="userSpaceOnUse">
<stop stop-color="#B62CFF"/>
<stop offset="1" stop-color="#7D00FF"/>
</linearGradient>
<linearGradient id="paint8_linear_249_18271" x1="91.749" y1="72.6335" x2="110.696" y2="83.3712" gradientUnits="userSpaceOnUse">
<stop stop-color="#B62CFF"/>
<stop offset="1" stop-color="#7D00FF"/>
</linearGradient>
</defs>
</svg>
