<svg width="197" height="172" viewBox="0 0 197 172" fill="none" xmlns="http://www.w3.org/2000/svg">
<path fill-rule="evenodd" clip-rule="evenodd" d="M114.991 135.689C114.991 134.281 116.138 133.139 117.552 133.139H132.7V144.624H117.552C116.138 144.624 114.991 143.482 114.991 142.075V135.689Z" fill="#E2E8F0"/>
<path d="M116.953 131.088H132.101V119.308C132.101 118.952 132.059 118.607 131.984 118.272H74.5021C72.9649 118.272 71.7189 117.773 71.7189 117.159C71.7189 116.545 72.9649 116.046 74.5021 116.046H75.7345L75.3802 114.559H74.0187C71.3842 114.559 69.248 116.685 69.248 119.308V154.193C69.248 156.815 71.3842 158.941 74.0187 158.941H127.33C129.965 158.941 132.101 156.817 132.101 154.193V146.677H116.953C114.404 146.677 112.331 144.613 112.331 142.076V135.69C112.331 133.153 114.404 131.089 116.953 131.089V131.088Z" fill="#E2E8F0"/>
<rect x="70.7578" y="18.5846" width="62.0429" height="21.9342" rx="10.9671" fill="#E2E8F0"/>
<line x1="195.916" y1="170.625" x2="195.916" y2="0.487549" stroke="black" stroke-opacity="0.04"/>
<line x1="171.541" y1="170.625" x2="171.541" y2="0.487549" stroke="black" stroke-opacity="0.04"/>
<line x1="183.729" y1="170.625" x2="183.729" y2="0.487549" stroke="black" stroke-opacity="0.04"/>
<line x1="147.166" y1="170.625" x2="147.166" y2="0.487549" stroke="black" stroke-opacity="0.04"/>
<line x1="159.354" y1="170.625" x2="159.354" y2="0.487549" stroke="black" stroke-opacity="0.04"/>
<line x1="122.791" y1="170.625" x2="122.791" y2="0.487549" stroke="black" stroke-opacity="0.04"/>
<line x1="134.979" y1="170.625" x2="134.979" y2="0.487549" stroke="black" stroke-opacity="0.04"/>
<line x1="98.416" y1="170.625" x2="98.4161" y2="0.487549" stroke="black" stroke-opacity="0.04"/>
<line x1="110.604" y1="170.625" x2="110.604" y2="0.487549" stroke="black" stroke-opacity="0.04"/>
<line x1="74.041" y1="170.625" x2="74.0411" y2="0.487549" stroke="black" stroke-opacity="0.04"/>
<line x1="86.2285" y1="170.625" x2="86.2286" y2="0.487549" stroke="black" stroke-opacity="0.04"/>
<line x1="196.416" y1="0.5" x2="1.41606" y2="0.499982" stroke="black" stroke-opacity="0.04"/>
<line x1="196.416" y1="24.875" x2="1.41606" y2="24.875" stroke="black" stroke-opacity="0.04"/>
<line x1="196.416" y1="49.25" x2="1.41606" y2="49.25" stroke="black" stroke-opacity="0.04"/>
<line x1="196.416" y1="73.625" x2="1.41606" y2="73.625" stroke="black" stroke-opacity="0.04"/>
<line x1="196.416" y1="98" x2="1.41606" y2="98" stroke="black" stroke-opacity="0.04"/>
<line x1="196.416" y1="122.375" x2="1.41606" y2="122.375" stroke="black" stroke-opacity="0.04"/>
<line x1="196.416" y1="110.188" x2="1.41606" y2="110.187" stroke="black" stroke-opacity="0.04"/>
<line x1="196.416" y1="85.8125" x2="1.41606" y2="85.8125" stroke="black" stroke-opacity="0.04"/>
<line x1="196.416" y1="61.4375" x2="1.41606" y2="61.4375" stroke="black" stroke-opacity="0.04"/>
<line x1="196.416" y1="37.0625" x2="1.41606" y2="37.0625" stroke="black" stroke-opacity="0.04"/>
<line x1="196.416" y1="12.6875" x2="1.41606" y2="12.6875" stroke="black" stroke-opacity="0.04"/>
<line x1="196.416" y1="134.562" x2="1.41606" y2="134.562" stroke="black" stroke-opacity="0.04"/>
<line x1="196.416" y1="158.938" x2="1.41606" y2="158.937" stroke="black" stroke-opacity="0.04"/>
<line x1="196.416" y1="146.75" x2="1.41606" y2="146.75" stroke="black" stroke-opacity="0.04"/>
<line x1="196.416" y1="171.125" x2="1.41606" y2="171.125" stroke="black" stroke-opacity="0.04"/>
<line x1="49.666" y1="170.625" x2="49.6661" y2="0.487549" stroke="black" stroke-opacity="0.04"/>
<line x1="61.8535" y1="170.625" x2="61.8536" y2="0.487549" stroke="black" stroke-opacity="0.04"/>
<line x1="25.291" y1="170.625" x2="25.2911" y2="0.487549" stroke="black" stroke-opacity="0.04"/>
<line x1="37.4785" y1="170.625" x2="37.4786" y2="0.487549" stroke="black" stroke-opacity="0.04"/>
<line x1="13.1035" y1="170.625" x2="13.1036" y2="0.487549" stroke="black" stroke-opacity="0.04"/>
<line x1="0.916016" y1="171.641" x2="0.916023" y2="0.487534" stroke="black" stroke-opacity="0.04"/>
<path d="M99.1377 66.0022L99.1377 54.0568L99.1377 45.1055L99.1377 33.9924" stroke="#718096" stroke-linecap="round"/>
<path d="M100.047 66.3007C99.656 66.6912 99.0228 66.6912 98.6323 66.3007L94.0361 61.7045C93.8408 61.5093 93.8408 61.1927 94.0361 60.9974C94.2314 60.8022 94.5479 60.8022 94.7432 60.9974L98.6322 64.8864C99.0227 65.2769 99.6559 65.2769 100.046 64.8864L104.077 60.8558C104.272 60.6605 104.589 60.6605 104.784 60.8558C104.979 61.051 104.979 61.3676 104.784 61.5629L100.047 66.3007Z" fill="#718096"/>
<rect x="65.9854" y="13.0846" width="63.0429" height="22.9342" rx="11.4671" fill="#F6F7FA" stroke="url(#paint0_linear_434_60444)"/>
<path d="M75.9043 27.2246V22.0412H76.9825V23.99H77.0154C77.0626 23.8854 77.131 23.7791 77.2204 23.6711C77.3115 23.5615 77.4296 23.4703 77.5747 23.3978C77.7215 23.3235 77.9037 23.2864 78.1214 23.2864C78.4049 23.2864 78.6664 23.3607 78.906 23.5091C79.1456 23.6559 79.3371 23.8778 79.4805 24.1748C79.6239 24.4701 79.6956 24.8404 79.6956 25.2859C79.6956 25.7195 79.6256 26.0856 79.4856 26.3843C79.3472 26.6813 79.1582 26.9065 78.9186 27.06C78.6807 27.2119 78.4141 27.2878 78.1189 27.2878C77.9096 27.2878 77.7316 27.2532 77.5848 27.1841C77.4397 27.1149 77.3208 27.028 77.228 26.9234C77.1352 26.8171 77.0643 26.7099 77.0154 26.6019H76.9673V27.2246H75.9043ZM76.9597 25.2808C76.9597 25.512 76.9918 25.7136 77.0559 25.8857C77.12 26.0578 77.2128 26.1919 77.3343 26.2881C77.4558 26.3826 77.6034 26.4298 77.7772 26.4298C77.9527 26.4298 78.1011 26.3818 78.2226 26.2856C78.3441 26.1877 78.4361 26.0527 78.4985 25.8806C78.5626 25.7068 78.5947 25.5069 78.5947 25.2808C78.5947 25.0564 78.5635 24.859 78.501 24.6886C78.4386 24.5181 78.3467 24.3848 78.2252 24.2887C78.1037 24.1925 77.9544 24.1444 77.7772 24.1444C77.6017 24.1444 77.4532 24.1908 77.3317 24.2836C77.2119 24.3764 77.12 24.508 77.0559 24.6784C76.9918 24.8489 76.9597 25.0496 76.9597 25.2808Z" fill="#323A47"/>
<path d="M82.1715 27.3005C81.7733 27.3005 81.4308 27.2161 81.144 27.0474C80.8588 26.877 80.6395 26.6408 80.4859 26.3387C80.3341 26.0367 80.2581 25.6891 80.2581 25.296C80.2581 24.8978 80.3349 24.5485 80.4885 24.2482C80.6437 23.9462 80.8639 23.7108 81.149 23.542C81.4342 23.3716 81.7733 23.2864 82.1665 23.2864C82.5056 23.2864 82.8026 23.348 83.0574 23.4712C83.3121 23.5944 83.5138 23.7673 83.6622 23.99C83.8107 24.2127 83.8926 24.4743 83.9077 24.7746H82.8903C82.8616 24.5806 82.7857 24.4245 82.6625 24.3064C82.541 24.1866 82.3816 24.1267 82.1842 24.1267C82.0171 24.1267 81.8712 24.1723 81.7463 24.2634C81.6232 24.3528 81.527 24.4836 81.4578 24.6557C81.3886 24.8278 81.354 25.0361 81.354 25.2808C81.354 25.5288 81.3878 25.7397 81.4553 25.9135C81.5245 26.0873 81.6215 26.2198 81.7463 26.3109C81.8712 26.402 82.0171 26.4476 82.1842 26.4476C82.3074 26.4476 82.4179 26.4223 82.5157 26.3716C82.6153 26.321 82.6971 26.2476 82.7612 26.1514C82.827 26.0536 82.8701 25.9363 82.8903 25.7996H83.9077C83.8909 26.0966 83.8099 26.3581 83.6648 26.5842C83.5214 26.8086 83.3231 26.9841 83.07 27.1107C82.8169 27.2372 82.5174 27.3005 82.1715 27.3005Z" fill="#323A47"/>
<path d="M86.843 22.0412V27.2246H85.7471V23.0814H85.7167L84.5297 23.8255V22.8536L85.8129 22.0412H86.843Z" fill="#323A47"/>
<path d="M90.654 28.6824V26.6019H90.6211C90.5704 26.7099 90.4987 26.8171 90.4059 26.9234C90.3148 27.028 90.1959 27.1149 90.0491 27.1841C89.904 27.2532 89.7268 27.2878 89.5176 27.2878C89.2223 27.2878 88.9549 27.2119 88.7153 27.06C88.4774 26.9065 88.2884 26.6813 88.1483 26.3843C88.01 26.0856 87.9408 25.7195 87.9408 25.2859C87.9408 24.8404 88.0125 24.4701 88.1559 24.1748C88.2993 23.8778 88.49 23.6559 88.7279 23.5091C88.9675 23.3607 89.2299 23.2864 89.515 23.2864C89.7327 23.2864 89.9141 23.3235 90.0592 23.3978C90.206 23.4703 90.3241 23.5615 90.4135 23.6711C90.5046 23.7791 90.5738 23.8854 90.6211 23.99H90.6666V23.337H91.7296V28.6824H90.654ZM89.8592 26.4298C90.033 26.4298 90.1798 26.3826 90.2996 26.2881C90.4211 26.1919 90.5139 26.0578 90.578 25.8857C90.6438 25.7136 90.6767 25.512 90.6767 25.2808C90.6767 25.0496 90.6447 24.8489 90.5806 24.6784C90.5164 24.508 90.4236 24.3764 90.3022 24.2836C90.1807 24.1908 90.033 24.1444 89.8592 24.1444C89.6821 24.1444 89.5328 24.1925 89.4113 24.2887C89.2898 24.3848 89.1978 24.5181 89.1354 24.6886C89.073 24.859 89.0418 25.0564 89.0418 25.2808C89.0418 25.5069 89.073 25.7068 89.1354 25.8806C89.1995 26.0527 89.2915 26.1877 89.4113 26.2856C89.5328 26.3818 89.6821 26.4298 89.8592 26.4298Z" fill="#323A47"/>
<path d="M93.4962 23.337L94.2099 24.6962L94.9414 23.337H96.0474L94.9211 25.2808L96.0778 27.2246H94.9768L94.2099 25.8806L93.4557 27.2246H92.3421L93.4962 25.2808L92.3826 23.337H93.4962Z" fill="#323A47"/>
<path d="M97.3179 27.2904C97.1509 27.2904 97.0075 27.2313 96.8877 27.1132C96.7695 26.9934 96.7105 26.85 96.7105 26.6829C96.7105 26.5176 96.7695 26.3759 96.8877 26.2577C97.0075 26.1396 97.1509 26.0806 97.3179 26.0806C97.4799 26.0806 97.6216 26.1396 97.7431 26.2577C97.8646 26.3759 97.9253 26.5176 97.9253 26.6829C97.9253 26.7943 97.8967 26.8964 97.8393 26.9892C97.7836 27.0803 97.7102 27.1537 97.6191 27.2094C97.528 27.2634 97.4276 27.2904 97.3179 27.2904Z" fill="#323A47"/>
<path d="M99.4407 27.2904C99.2737 27.2904 99.1303 27.2313 99.0105 27.1132C98.8924 26.9934 98.8333 26.85 98.8333 26.6829C98.8333 26.5176 98.8924 26.3759 99.0105 26.2577C99.1303 26.1396 99.2737 26.0806 99.4407 26.0806C99.6027 26.0806 99.7444 26.1396 99.8659 26.2577C99.9874 26.3759 100.048 26.5176 100.048 26.6829C100.048 26.7943 100.019 26.8964 99.9621 26.9892C99.9064 27.0803 99.833 27.1537 99.7419 27.2094C99.6508 27.2634 99.5504 27.2904 99.4407 27.2904Z" fill="#323A47"/>
<path d="M101.564 27.2904C101.397 27.2904 101.253 27.2313 101.133 27.1132C101.015 26.9934 100.956 26.85 100.956 26.6829C100.956 26.5176 101.015 26.3759 101.133 26.2577C101.253 26.1396 101.397 26.0806 101.564 26.0806C101.726 26.0806 101.867 26.1396 101.989 26.2577C102.11 26.3759 102.171 26.5176 102.171 26.6829C102.171 26.7943 102.142 26.8964 102.085 26.9892C102.029 27.0803 101.956 27.1537 101.865 27.2094C101.774 27.2634 101.673 27.2904 101.564 27.2904Z" fill="#323A47"/>
<path d="M104.87 27.3385C104.434 27.3368 104.06 27.2296 103.746 27.017C103.434 26.8044 103.193 26.4965 103.025 26.0932C102.857 25.69 102.775 25.2049 102.777 24.6379C102.777 24.0727 102.86 23.591 103.027 23.1928C103.196 22.7946 103.436 22.4917 103.748 22.2842C104.062 22.0749 104.436 21.9703 104.87 21.9703C105.303 21.9703 105.676 22.0749 105.988 22.2842C106.302 22.4934 106.543 22.7971 106.712 23.1953C106.881 23.5918 106.964 24.0727 106.963 24.6379C106.963 25.2066 106.878 25.6925 106.71 26.0958C106.543 26.499 106.303 26.807 105.991 27.0196C105.679 27.2322 105.305 27.3385 104.87 27.3385ZM104.87 26.4298C105.167 26.4298 105.404 26.2805 105.581 25.9819C105.758 25.6832 105.846 25.2352 105.844 24.6379C105.844 24.2448 105.804 23.9175 105.723 23.6559C105.643 23.3944 105.53 23.1978 105.383 23.0662C105.238 22.9346 105.067 22.8688 104.87 22.8688C104.574 22.8688 104.338 23.0165 104.161 23.3117C103.984 23.607 103.894 24.0491 103.893 24.6379C103.893 25.0361 103.932 25.3685 104.012 25.6351C104.093 25.9 104.206 26.0991 104.353 26.2324C104.5 26.364 104.672 26.4298 104.87 26.4298Z" fill="#323A47"/>
<path d="M108.521 27.2246L107.463 23.337H108.554L109.156 25.949H109.192L109.819 23.337H110.89L111.528 25.9338H111.561L112.153 23.337H113.241L112.186 27.2246H111.044L110.376 24.7797H110.328L109.66 27.2246H108.521Z" fill="#323A47"/>
<path d="M114.895 22.0412V27.2246H113.816V22.0412H114.895Z" fill="#323A47"/>
<path d="M116.836 24.9771V27.2246H115.758V22.0412H116.806V24.0229H116.852C116.939 23.7935 117.081 23.6138 117.277 23.4838C117.473 23.3522 117.718 23.2864 118.013 23.2864C118.283 23.2864 118.519 23.3455 118.72 23.4636C118.922 23.58 119.079 23.7479 119.19 23.9672C119.303 24.1849 119.359 24.4456 119.357 24.7493V27.2246H118.279V24.9417C118.281 24.7021 118.22 24.5156 118.097 24.3823C117.975 24.249 117.805 24.1824 117.586 24.1824C117.439 24.1824 117.309 24.2136 117.196 24.276C117.085 24.3384 116.997 24.4296 116.933 24.5494C116.87 24.6675 116.838 24.81 116.836 24.9771Z" fill="#323A47"/>
<path d="M137.287 39.7911C137.287 45.4279 132.81 49.9974 127.287 49.9974C121.764 49.9974 117.287 45.4279 117.287 39.7911C117.287 34.1542 121.764 29.5847 127.287 29.5847C132.81 29.5847 137.287 34.1542 137.287 39.7911Z" fill="url(#paint1_linear_434_60444)" stroke="white" stroke-width="2"/>
<path d="M130.564 37.6265C130.451 36.4485 129.435 36.0531 128.15 35.9401V35.1855H127.156V35.8971C126.895 35.8971 126.628 35.9021 126.362 35.9071V35.1849H125.368V35.9392C125.153 35.9434 123.83 35.9422 123.83 35.9422L123.827 36.8189L124.657 36.8236V42.5693H123.828L123.82 43.4336C124.061 43.4336 125.133 43.4383 125.366 43.4398V44.1846H126.36V43.4575C126.632 43.4634 126.896 43.4657 127.154 43.4654V44.1849H128.149V43.4433C129.821 43.3481 130.992 42.9273 131.137 41.3573C131.255 40.0929 130.661 39.5291 129.711 39.2997C130.288 39.0048 130.649 38.4885 130.565 37.6262L130.564 37.6265ZM129.171 41.1601C129.171 42.3953 127.056 42.2541 126.382 42.2544V40.0646C127.056 40.0646 129.17 39.872 129.17 41.1601H129.171ZM128.709 38.0703C128.709 39.1941 126.945 39.0623 126.383 39.0623V37.076C126.946 37.0763 128.71 36.8982 128.709 38.0703Z" fill="white"/>
<path d="M111.06 131.994C111.06 130.864 111.98 129.944 113.121 129.944H127.769V140.429H113.121C111.98 140.429 111.06 139.509 111.06 138.38V131.994ZM111.894 134.867C111.894 137.003 113.633 138.729 115.772 138.729C117.91 138.729 119.649 137.003 119.649 134.867C119.649 132.731 117.91 131.005 115.772 131.005C113.633 131.005 111.894 132.731 111.894 134.867Z" fill="url(#paint2_linear_434_60444)" stroke="url(#paint3_linear_434_60444)"/>
<path d="M113.121 126.892H112.621V126.918C110.031 127.169 107.999 129.347 107.999 131.994V138.381C107.999 141.196 110.298 143.481 113.121 143.481H127.769V150.497C127.769 152.843 125.859 154.746 123.498 154.746H70.1867C67.8261 154.746 65.916 152.841 65.916 150.497V115.612C65.916 113.268 67.8261 111.363 70.1867 111.363V111.364L70.1939 111.363L127.652 110.534V110.918L70.6659 111.85C69.8514 111.851 69.0914 111.982 68.5163 112.212C68.2296 112.327 67.9641 112.476 67.7621 112.667C67.5591 112.859 67.3869 113.128 67.3869 113.463C67.3869 113.799 67.5591 114.068 67.7621 114.26C67.9641 114.451 68.2296 114.6 68.5163 114.714C69.0924 114.945 69.854 115.077 70.67 115.077H127.734C127.757 115.253 127.769 115.431 127.769 115.612V126.892H113.121Z" fill="url(#paint4_linear_434_60444)" stroke="url(#paint5_linear_434_60444)"/>
<circle cx="115.899" cy="134.853" r="3.51516" fill="#FCF9FF"/>
<path d="M102.149 128.48C101.898 125.862 99.6379 124.983 96.7838 124.732V123.055H94.5738V124.636C93.9932 124.636 93.3994 124.647 92.8089 124.658V123.053H90.6002V124.73C90.1218 124.739 87.1824 124.736 87.1824 124.736L87.1759 126.685L89.0201 126.695V139.465H87.1765L87.1602 141.386C87.6956 141.386 90.0786 141.397 90.595 141.4V143.056H92.8036V141.439C93.4092 141.453 93.9964 141.458 94.5692 141.457V143.056H96.7798V141.408C100.496 141.196 103.099 140.261 103.422 136.772C103.684 133.962 102.363 132.709 100.253 132.199C101.535 131.543 102.337 130.396 102.15 128.479L102.149 128.48ZM99.052 136.333C99.052 139.079 94.3523 138.765 92.8528 138.766V133.899C94.3516 133.899 99.0494 133.471 99.0501 136.333H99.052ZM98.0264 129.466C98.0264 131.964 94.1046 131.671 92.8561 131.671V127.256C94.1065 127.257 98.0277 126.861 98.0264 129.466Z" fill="#FCF9FF"/>
<rect x="157.429" y="101" width="14.6231" height="1.82789" rx="0.913945" fill="#718096"/>
<rect x="154.687" y="105.57" width="17.365" height="1.82789" rx="0.913945" fill="#718096"/>
<rect x="156.515" y="110.14" width="15.5371" height="1.82789" rx="0.913945" fill="#718096"/>
<rect x="156.515" y="114.709" width="15.5371" height="1.82789" rx="0.913945" fill="#718096"/>
<path fill-rule="evenodd" clip-rule="evenodd" d="M170.224 119.279C170.476 119.279 170.681 119.484 170.681 119.736V133.445C170.681 134.203 170.067 134.816 169.31 134.816H144.618L146.746 136.944C146.924 137.123 146.924 137.412 146.746 137.591C146.567 137.769 146.278 137.769 146.1 137.591L143.191 134.683C143.013 134.504 143.013 134.215 143.191 134.036L146.1 131.128C146.278 130.95 146.567 130.95 146.746 131.128C146.924 131.307 146.924 131.596 146.746 131.774L144.618 133.902H169.31C169.562 133.902 169.767 133.698 169.767 133.445V119.736C169.767 119.484 169.971 119.279 170.224 119.279Z" fill="#718096"/>
<mask id="path-51-outside-1_434_60444" maskUnits="userSpaceOnUse" x="81.416" y="69.1152" width="36" height="38" fill="black">
<rect fill="white" x="81.416" y="69.1152" width="36" height="38"/>
<path fill-rule="evenodd" clip-rule="evenodd" d="M84.2644 70.1152C83.2436 70.1152 82.416 70.9428 82.416 71.9636C82.416 72.9844 83.2436 73.812 84.2644 73.812C86.084 73.812 87.2875 76.5434 86.9124 78.324C86.6461 79.5882 86.6838 80.9444 87.0963 82.2969L87.4047 83.3085C87.4048 83.3086 87.4048 83.3086 87.4049 83.3086C87.405 83.3086 87.405 83.3086 87.4051 83.3087L95.9535 93.711C96.8357 94.7845 97.318 96.1309 97.318 97.5204V104.051C97.318 105.03 98.1118 105.824 99.091 105.824C100.07 105.824 100.864 105.03 100.864 104.051V97.6777C100.864 96.1832 101.422 94.7425 102.428 93.6376L111.835 83.3088C111.835 83.3087 111.835 83.3086 111.836 83.3086C111.836 83.3086 111.836 83.3085 111.836 83.3083L112.193 81.6197C112.455 80.3852 112.417 79.1688 112.136 78.0375C111.721 76.3694 112.837 73.812 114.556 73.812C115.577 73.812 116.404 72.9844 116.404 71.9636C116.404 70.9428 115.577 70.1152 114.556 70.1152H84.2644Z"/>
</mask>
<path fill-rule="evenodd" clip-rule="evenodd" d="M84.2644 70.1152C83.2436 70.1152 82.416 70.9428 82.416 71.9636C82.416 72.9844 83.2436 73.812 84.2644 73.812C86.084 73.812 87.2875 76.5434 86.9124 78.324C86.6461 79.5882 86.6838 80.9444 87.0963 82.2969L87.4047 83.3085C87.4048 83.3086 87.4048 83.3086 87.4049 83.3086C87.405 83.3086 87.405 83.3086 87.4051 83.3087L95.9535 93.711C96.8357 94.7845 97.318 96.1309 97.318 97.5204V104.051C97.318 105.03 98.1118 105.824 99.091 105.824C100.07 105.824 100.864 105.03 100.864 104.051V97.6777C100.864 96.1832 101.422 94.7425 102.428 93.6376L111.835 83.3088C111.835 83.3087 111.835 83.3086 111.836 83.3086C111.836 83.3086 111.836 83.3085 111.836 83.3083L112.193 81.6197C112.455 80.3852 112.417 79.1688 112.136 78.0375C111.721 76.3694 112.837 73.812 114.556 73.812C115.577 73.812 116.404 72.9844 116.404 71.9636C116.404 70.9428 115.577 70.1152 114.556 70.1152H84.2644Z" fill="white"/>
<path d="M87.0963 82.2969L86.1397 82.5885L87.0963 82.2969ZM112.193 81.6197L111.215 81.4126V81.4126L112.193 81.6197ZM111.836 83.3083L110.858 83.1013L111.836 83.3083ZM111.835 83.3088L111.096 82.6354L111.835 83.3088ZM95.9535 93.711L95.1809 94.3459L95.9535 93.711ZM87.4051 83.3087L88.1777 82.6738L87.4051 83.3087ZM87.4047 83.3085L88.3613 83.0168L87.4047 83.3085ZM83.416 71.9636C83.416 71.4951 83.7958 71.1152 84.2644 71.1152V69.1152C82.6913 69.1152 81.416 70.3905 81.416 71.9636H83.416ZM84.2644 72.812C83.7958 72.812 83.416 72.4322 83.416 71.9636H81.416C81.416 73.5367 82.6913 74.812 84.2644 74.812V72.812ZM88.0528 82.0052C87.6906 80.8176 87.6587 79.6328 87.891 78.5301L85.9339 78.1179C85.6336 79.5437 85.677 81.0712 86.1397 82.5885L88.0528 82.0052ZM88.3613 83.0168L88.0528 82.0052L86.1397 82.5885L86.4482 83.6002L88.3613 83.0168ZM96.7261 93.0761L88.1777 82.6738L86.6325 83.9436L95.1809 94.3459L96.7261 93.0761ZM98.318 104.051V97.5204H96.318V104.051H98.318ZM99.8639 97.6777V104.051H101.864V97.6777H99.8639ZM111.096 82.6354L101.689 92.9642L103.167 94.3109L112.575 83.9821L111.096 82.6354ZM111.215 81.4126L110.858 83.1013L112.814 83.5153L113.172 81.8267L111.215 81.4126ZM111.165 78.2789C111.411 79.266 111.444 80.3291 111.215 81.4126L113.172 81.8267C113.465 80.4413 113.424 79.0715 113.106 77.7961L111.165 78.2789ZM115.404 71.9636C115.404 72.4322 115.024 72.812 114.556 72.812V74.812C116.129 74.812 117.404 73.5367 117.404 71.9636H115.404ZM114.556 71.1152C115.024 71.1152 115.404 71.4951 115.404 71.9636H117.404C117.404 70.3905 116.129 69.1152 114.556 69.1152V71.1152ZM84.2644 71.1152H114.556V69.1152H84.2644V71.1152ZM111.836 84.3086C112.308 84.3086 112.716 83.9778 112.814 83.5153L110.858 83.1013C110.955 82.6392 111.363 82.3086 111.836 82.3086V84.3086ZM112.575 83.9821C112.385 84.1901 112.117 84.3086 111.836 84.3086V82.3086C111.554 82.3086 111.286 82.4273 111.096 82.6354L112.575 83.9821ZM101.864 97.6777C101.864 96.4323 102.329 95.2317 103.167 94.3109L101.689 92.9642C100.515 94.2533 99.8639 95.9341 99.8639 97.6777H101.864ZM99.091 106.824C100.622 106.824 101.864 105.583 101.864 104.051H99.8639C99.8639 104.478 99.5179 104.824 99.091 104.824V106.824ZM95.1809 94.3459C95.9161 95.2405 96.318 96.3625 96.318 97.5204H98.318C98.318 95.8993 97.7554 94.3285 96.7261 93.0761L95.1809 94.3459ZM87.4049 84.3086C87.1101 84.3086 86.8251 84.178 86.6325 83.9436L88.1777 82.6738C87.985 82.4393 87.6999 82.3086 87.4049 82.3086V84.3086ZM86.4482 83.6002C86.5766 84.0211 86.9649 84.3086 87.4049 84.3086V82.3086C87.8448 82.3086 88.233 82.5961 88.3613 83.0168L86.4482 83.6002ZM96.318 104.051C96.318 105.583 97.5595 106.824 99.091 106.824V104.824C98.6641 104.824 98.318 104.478 98.318 104.051H96.318ZM113.106 77.7961C112.969 77.2446 113.079 76.4386 113.432 75.7615C113.796 75.0644 114.236 74.812 114.556 74.812V72.812C113.157 72.812 112.18 73.8383 111.659 74.8369C111.128 75.8555 110.888 77.1622 111.165 78.2789L113.106 77.7961ZM84.2644 74.812C84.6333 74.812 85.122 75.1052 85.5285 75.8698C85.9224 76.6106 86.064 77.5001 85.9339 78.1179L87.891 78.5301C88.1359 77.3673 87.8633 76.0008 87.2944 74.9308C86.738 73.8844 85.7151 72.812 84.2644 72.812V74.812Z" fill="#718096" mask="url(#path-51-outside-1_434_60444)"/>
<path d="M101.287 89.7643C100.268 89.7643 99.4929 88.8511 99.6578 87.8461L101.927 74.0171C102.058 73.2192 102.747 72.6335 103.556 72.6335C104.574 72.6335 105.35 73.5467 105.185 74.5517L102.916 88.3807C102.785 89.1786 102.095 89.7643 101.287 89.7643ZM93.7294 85.8496C92.6934 85.8496 91.9065 84.9176 92.0801 83.8963C92.2168 83.0921 92.9136 82.5038 93.7294 82.5038H104.12C105.156 82.5038 105.943 83.4358 105.77 84.4571C105.633 85.2613 104.936 85.8496 104.12 85.8496H93.7294ZM95.2644 89.7643C94.2459 89.7643 93.4704 88.8511 93.6353 87.8461L95.9041 74.0171C96.035 73.2192 96.7246 72.6335 97.5332 72.6335C98.5516 72.6335 99.3271 73.5467 99.1623 74.5517L96.8934 88.3807C96.7625 89.1786 96.0729 89.7643 95.2644 89.7643ZM94.6997 79.894C93.6637 79.894 92.8768 78.962 93.0504 77.9407C93.1871 77.1365 93.8839 76.5482 94.6997 76.5482H105.091C106.127 76.5482 106.914 77.4802 106.74 78.5015C106.603 79.3057 105.906 79.894 105.091 79.894H94.6997Z" fill="url(#paint6_linear_434_60444)"/>
<defs>
<linearGradient id="paint0_linear_434_60444" x1="66.4854" y1="13.5846" x2="90.5514" y2="56.7112" gradientUnits="userSpaceOnUse">
<stop stop-color="#B62CFF"/>
<stop offset="1" stop-color="#7D00FF"/>
</linearGradient>
<linearGradient id="paint1_linear_434_60444" x1="117.287" y1="29.5847" x2="140.871" y2="44.2238" gradientUnits="userSpaceOnUse">
<stop stop-color="#B62CFF"/>
<stop offset="1" stop-color="#7D00FF"/>
</linearGradient>
<linearGradient id="paint2_linear_434_60444" x1="110.56" y1="129.444" x2="125.361" y2="143.905" gradientUnits="userSpaceOnUse">
<stop stop-color="#B62CFF"/>
<stop offset="1" stop-color="#7D00FF"/>
</linearGradient>
<linearGradient id="paint3_linear_434_60444" x1="110.56" y1="129.444" x2="125.361" y2="143.905" gradientUnits="userSpaceOnUse">
<stop stop-color="#B62CFF"/>
<stop offset="1" stop-color="#7D00FF"/>
</linearGradient>
<linearGradient id="paint4_linear_434_60444" x1="65.416" y1="110.026" x2="123.246" y2="160.95" gradientUnits="userSpaceOnUse">
<stop stop-color="#B62CFF"/>
<stop offset="1" stop-color="#7D00FF"/>
</linearGradient>
<linearGradient id="paint5_linear_434_60444" x1="65.416" y1="110.026" x2="123.246" y2="160.95" gradientUnits="userSpaceOnUse">
<stop stop-color="#B62CFF"/>
<stop offset="1" stop-color="#7D00FF"/>
</linearGradient>
<linearGradient id="paint6_linear_434_60444" x1="91.748" y1="72.6335" x2="110.695" y2="83.3712" gradientUnits="userSpaceOnUse">
<stop stop-color="#B62CFF"/>
<stop offset="1" stop-color="#7D00FF"/>
</linearGradient>
</defs>
</svg>
