<svg width="228" height="133" viewBox="0 0 228 133" fill="none" xmlns="http://www.w3.org/2000/svg">
<path fill-rule="evenodd" clip-rule="evenodd" d="M1.39067 0.182621L227.106 0.182626L227.106 0.682599L1.39067 0.682593L1.39067 0.182621Z" fill="black" fill-opacity="0.1"/>
<path fill-rule="evenodd" clip-rule="evenodd" d="M132.067 0.18808L132.067 132.181L131.572 132.181L131.572 0.18808L132.067 0.18808Z" fill="black" fill-opacity="0.1"/>
<path fill-rule="evenodd" clip-rule="evenodd" d="M203.346 0.18808L203.346 132.181L202.85 132.181L202.85 0.18808L203.346 0.18808Z" fill="black" fill-opacity="0.1"/>
<path fill-rule="evenodd" clip-rule="evenodd" d="M1.39067 12.1839L227.106 12.1839L227.106 12.6839L1.39067 12.6839L1.39067 12.1839Z" fill="black" fill-opacity="0.1"/>
<path fill-rule="evenodd" clip-rule="evenodd" d="M120.187 0.18808L120.187 132.181L119.692 132.181L119.692 0.18808L120.187 0.18808Z" fill="black" fill-opacity="0.1"/>
<path fill-rule="evenodd" clip-rule="evenodd" d="M191.464 0.18808L191.464 132.181L190.968 132.181L190.968 0.18808L191.464 0.18808Z" fill="black" fill-opacity="0.1"/>
<path fill-rule="evenodd" clip-rule="evenodd" d="M1.39067 24.1724L227.106 24.1724L227.106 24.6724L1.39067 24.6724L1.39067 24.1724Z" fill="black" fill-opacity="0.1"/>
<path fill-rule="evenodd" clip-rule="evenodd" d="M108.309 0.18808L108.309 132.181L107.813 132.181L107.813 0.18808L108.309 0.18808Z" fill="black" fill-opacity="0.1"/>
<path fill-rule="evenodd" clip-rule="evenodd" d="M179.587 0.18808L179.587 132.181L179.091 132.181L179.091 0.18808L179.587 0.18808Z" fill="black" fill-opacity="0.1"/>
<path fill-rule="evenodd" clip-rule="evenodd" d="M1.39067 36.1864L227.106 36.1864L227.106 36.6864L1.39067 36.6864L1.39067 36.1864Z" fill="black" fill-opacity="0.1"/>
<path fill-rule="evenodd" clip-rule="evenodd" d="M96.4268 0.18808L96.4268 132.181L95.9312 132.181L95.9312 0.18808L96.4268 0.18808Z" fill="black" fill-opacity="0.1"/>
<path fill-rule="evenodd" clip-rule="evenodd" d="M167.705 0.18808L167.705 132.181L167.209 132.181L167.209 0.18808L167.705 0.18808Z" fill="black" fill-opacity="0.1"/>
<path fill-rule="evenodd" clip-rule="evenodd" d="M1.39067 48.1813L227.106 48.1813L227.106 48.6813L1.39067 48.6813L1.39067 48.1813Z" fill="black" fill-opacity="0.1"/>
<path fill-rule="evenodd" clip-rule="evenodd" d="M84.5467 0.18808L84.5467 132.181L84.051 132.181L84.051 0.18808L84.5467 0.18808Z" fill="black" fill-opacity="0.1"/>
<path fill-rule="evenodd" clip-rule="evenodd" d="M155.826 0.18808L155.826 132.181L155.331 132.181L155.331 0.18808L155.826 0.18808Z" fill="black" fill-opacity="0.1"/>
<path fill-rule="evenodd" clip-rule="evenodd" d="M227.106 0.18808L227.106 132.181L226.611 132.181L226.611 0.18808L227.106 0.18808Z" fill="black" fill-opacity="0.1"/>
<path fill-rule="evenodd" clip-rule="evenodd" d="M1.39067 60.1762L227.106 60.1762L227.106 60.6762L1.39067 60.6762L1.39067 60.1762Z" fill="black" fill-opacity="0.1"/>
<path fill-rule="evenodd" clip-rule="evenodd" d="M72.6695 0.18808L72.6695 132.181L72.1738 132.181L72.1738 0.18808L72.6695 0.18808Z" fill="black" fill-opacity="0.1"/>
<path fill-rule="evenodd" clip-rule="evenodd" d="M143.946 0.18808L143.946 132.181L143.45 132.181L143.45 0.18808L143.946 0.18808Z" fill="black" fill-opacity="0.1"/>
<path fill-rule="evenodd" clip-rule="evenodd" d="M215.228 0.18808L215.228 132.181L214.732 132.181L214.732 0.18808L215.228 0.18808Z" fill="black" fill-opacity="0.1"/>
<path fill-rule="evenodd" clip-rule="evenodd" d="M1.39067 72.1838L227.106 72.1839L227.106 72.6838L1.39067 72.6838L1.39067 72.1838Z" fill="black" fill-opacity="0.1"/>
<path fill-rule="evenodd" clip-rule="evenodd" d="M60.7894 0.18808L60.7894 132.181L60.2937 132.181L60.2937 0.18808L60.7894 0.18808Z" fill="black" fill-opacity="0.1"/>
<path fill-rule="evenodd" clip-rule="evenodd" d="M1.39067 84.1851L227.106 84.1851L227.106 84.6851L1.39067 84.6851L1.39067 84.1851Z" fill="black" fill-opacity="0.1"/>
<path fill-rule="evenodd" clip-rule="evenodd" d="M48.909 0.18808L48.909 132.181L48.4133 132.181L48.4133 0.18808L48.909 0.18808Z" fill="black" fill-opacity="0.1"/>
<path fill-rule="evenodd" clip-rule="evenodd" d="M1.39067 96.1736L227.106 96.1736L227.106 96.6736L1.39067 96.6736L1.39067 96.1736Z" fill="black" fill-opacity="0.1"/>
<path fill-rule="evenodd" clip-rule="evenodd" d="M37.0289 0.18808L37.0289 132.181L36.5332 132.181L36.5332 0.18808L37.0289 0.18808Z" fill="black" fill-opacity="0.1"/>
<path fill-rule="evenodd" clip-rule="evenodd" d="M1.39067 108.181L227.106 108.181L227.106 108.681L1.39067 108.681L1.39067 108.181Z" fill="black" fill-opacity="0.1"/>
<path fill-rule="evenodd" clip-rule="evenodd" d="M25.1502 0.18808L25.1502 132.181L24.6545 132.181L24.6546 0.18808L25.1502 0.18808Z" fill="black" fill-opacity="0.1"/>
<path fill-rule="evenodd" clip-rule="evenodd" d="M1.39067 120.183L227.106 120.183L227.106 120.683L1.39067 120.683L1.39067 120.183Z" fill="black" fill-opacity="0.1"/>
<path fill-rule="evenodd" clip-rule="evenodd" d="M13.2698 0.18808L13.2698 132.181L12.7742 132.181L12.7742 0.18808L13.2698 0.18808Z" fill="black" fill-opacity="0.1"/>
<path fill-rule="evenodd" clip-rule="evenodd" d="M1.39067 132.177L227.106 132.177L227.106 132.677L1.39067 132.677L1.39067 132.177Z" fill="black" fill-opacity="0.1"/>
<path fill-rule="evenodd" clip-rule="evenodd" d="M1.38971 0.18808L1.3897 132.181L0.894043 132.181L0.894058 0.18808L1.38971 0.18808Z" fill="black" fill-opacity="0.1"/>
<path fill-rule="evenodd" clip-rule="evenodd" d="M174.485 40.2531C176.627 40.1464 176.936 40.2525 179.043 40.2525C198.589 40.2525 214.435 56.2424 214.435 75.9669C214.435 95.6913 198.589 111.681 179.043 111.681C176.936 111.681 176.362 111.681 176.094 111.681C175.739 111.678 172.156 111.424 171.804 111.411C153.175 110.7 138.289 94.9395 138.289 75.9669C138.289 56.6352 152.767 41.3343 174.485 40.2531ZM213.362 75.9669C213.362 95.0936 197.997 110.599 179.043 110.599C177.032 110.599 175.061 110.424 173.144 110.089C173.144 110.089 173.016 110.058 172.964 110.057C156.91 107.162 144.724 93.0003 144.724 75.9669C144.724 58.9334 156.91 44.7721 172.964 41.8764L173.144 41.8444C175.061 41.5094 177.032 41.3348 179.043 41.3348C197.997 41.3348 213.362 56.8401 213.362 75.9669ZM166.64 42.5073C151.094 45.567 139.361 59.3843 139.361 75.9669C139.361 92.5494 151.094 106.367 166.64 109.426C153.211 104.355 143.651 91.2876 143.651 75.9669C143.651 60.6461 153.211 47.5786 166.64 42.5073Z" fill="#FAAD14"/>
<path d="M191.926 67.3929C191.457 62.4995 187.233 60.8569 181.899 60.3878V57.2533H177.769V60.2089C176.683 60.2089 175.574 60.2297 174.47 60.2506V57.2508H170.342V60.3841C169.448 60.4012 163.954 60.3963 163.954 60.3963L163.942 64.0379L167.389 64.0575V87.9246H163.943L163.913 91.5148C164.913 91.5148 169.367 91.5344 170.332 91.5405V94.6346H174.46V91.614C175.592 91.6385 176.69 91.6483 177.76 91.6471V94.6358H181.892V91.5552C188.838 91.1596 193.702 89.4116 194.306 82.8903C194.796 77.6379 192.327 75.2959 188.384 74.343C190.779 73.1181 192.278 70.9733 191.928 67.3917L191.926 67.3929ZM186.138 82.0708C186.138 87.2019 177.355 86.6152 174.552 86.6164V77.5204C177.353 77.5204 186.133 76.7205 186.135 82.0708H186.138ZM184.221 69.2364C184.221 73.9045 176.892 73.3569 174.558 73.3569V65.1061C176.895 65.1073 184.224 64.3674 184.221 69.2364Z" fill="#FAAD14"/>
<path d="M43.3736 73.1522H37.79V78.7357H43.3736V73.1522Z" fill="url(#paint0_linear_207_18020)"/>
<path d="M37.79 67.5693H32.2064V73.1529L37.79 73.1522L37.79 67.5693Z" fill="url(#paint1_linear_207_18020)"/>
<path d="M32.2064 73.1529L26.6228 73.1522V78.7357H32.2064L32.2064 73.1529Z" fill="url(#paint2_linear_207_18020)"/>
<path d="M37.79 78.7357H32.2064L32.2065 84.3191H37.79L37.79 78.7357Z" fill="url(#paint3_linear_207_18020)"/>
<path d="M69.2768 68.7921C68.8897 64.6993 65.4053 63.3255 61.0043 62.9331V60.3115H57.5966V62.7835C56.7013 62.7835 55.7857 62.8009 54.8752 62.8183V60.3094H51.4696V62.93C50.7319 62.9444 46.1995 62.9403 46.1995 62.9403L46.1894 65.986L49.0331 66.0024V85.9643H46.1904L46.1651 88.967C46.9908 88.967 50.6652 88.9834 51.4615 88.9886V91.5764H54.8671V89.05C55.8009 89.0705 56.7063 89.0787 57.5896 89.0777V91.5774H60.9982V89.0008C66.7291 88.6699 70.7421 87.208 71.2403 81.7537C71.6445 77.3608 69.6072 75.402 66.3542 74.6049C68.3309 73.5805 69.5668 71.7866 69.2788 68.791L69.2768 68.7921ZM64.5018 81.0683C64.5018 85.3599 57.2551 84.8691 54.9429 84.8702V77.2624C57.254 77.2624 64.4978 76.5934 64.4988 81.0683H64.5018ZM62.9203 70.3339C62.9203 74.2382 56.8731 73.7802 54.9479 73.7802V66.8794C56.8761 66.8804 62.9223 66.2616 62.9203 70.3339Z" fill="url(#paint4_linear_207_18020)"/>
<path fill-rule="evenodd" clip-rule="evenodd" d="M54.3194 110.599C52.3081 110.599 50.3372 110.424 48.4208 110.089C48.4208 110.089 48.2926 110.058 48.2405 110.057C32.1861 107.162 20.0001 93.0003 20.0001 75.9669C20.0001 58.9335 32.1861 44.7722 48.2405 41.8764L48.4208 41.8444C50.3372 41.5094 52.3081 41.3348 54.3194 41.3348C66.6626 41.3348 77.4839 47.9103 83.5309 57.7794L84.3491 57.0574C78.0952 46.9654 66.9842 40.2526 54.3194 40.2526C52.2121 40.2526 51.9038 40.1465 49.7614 40.2531C28.0437 41.3343 13.5652 56.6353 13.5652 75.9669C13.5652 94.9395 28.4513 110.7 47.0802 111.411C47.0802 111.411 50.5325 111.47 51.3701 111.681H54.3194C66.9741 111.681 78.0775 104.979 84.3341 94.9005L83.7007 93.8744C77.6878 103.899 66.779 110.599 54.3194 110.599ZM14.6377 75.9669C14.6377 59.3843 26.3705 45.567 41.916 42.5073C28.4875 47.5786 18.9276 60.6462 18.9276 75.9669C18.9276 91.2876 28.4875 104.355 41.916 109.426C26.3705 106.367 14.6377 92.5495 14.6377 75.9669Z" fill="url(#paint5_linear_207_18020)"/>
<path fill-rule="evenodd" clip-rule="evenodd" d="M141.762 41.3217C143.84 41.2182 146.184 41.3212 146.184 41.3212V110.618C146.184 110.618 143.583 110.618 143.322 110.618C142.978 110.615 139.503 110.368 139.161 110.355C121.088 109.665 106.646 94.3757 106.646 75.9694C106.646 57.2148 120.692 42.3706 141.762 41.3217ZM146.184 109.568C146.184 109.568 142.32 109.398 140.461 109.073C140.461 109.073 140.337 109.043 140.286 109.042C124.711 106.233 112.889 92.4944 112.889 75.9694C112.889 59.4444 124.711 45.7059 140.286 42.8965L140.461 42.8655C142.32 42.5405 146.184 42.3711 146.184 42.3711V109.568ZM134.151 43.5086C119.069 46.477 107.686 59.8818 107.686 75.9694C107.686 92.057 119.069 105.462 134.151 108.43C121.123 103.51 111.848 90.8328 111.848 75.9694C111.848 61.106 121.123 48.4286 134.151 43.5086Z" fill="#FAAD14"/>
<path fill-rule="evenodd" clip-rule="evenodd" d="M112.995 41.3217C115.074 41.2182 117.417 41.3212 117.417 41.3212V110.618C117.417 110.618 114.816 110.618 114.556 110.618C114.212 110.615 110.736 110.368 110.394 110.355C92.3213 109.665 77.8796 94.3757 77.8796 75.9694C77.8796 57.2148 91.9259 42.3706 112.995 41.3217ZM117.417 109.568C117.417 109.568 113.554 109.398 111.695 109.073C111.695 109.073 111.57 109.043 111.52 109.042C95.9447 106.233 84.1224 92.4944 84.1224 75.9694C84.1224 59.4444 95.9447 45.7059 111.52 42.8965L111.695 42.8655C113.554 42.5405 117.417 42.3711 117.417 42.3711V109.568ZM105.384 43.5086C90.3027 46.477 78.9201 59.8818 78.9201 75.9694C78.9201 92.057 90.3027 105.462 105.384 108.43C92.3565 103.51 83.082 90.8328 83.082 75.9694C83.082 61.106 92.3565 48.4286 105.384 43.5086Z" fill="#7D00FF"/>
<defs>
<linearGradient id="paint0_linear_207_18020" x1="27.943" y1="61.5417" x2="66.2649" y2="93.3935" gradientUnits="userSpaceOnUse">
<stop stop-color="#BD30FF"/>
<stop offset="1" stop-color="#7D00FF"/>
</linearGradient>
<linearGradient id="paint1_linear_207_18020" x1="27.943" y1="61.5417" x2="66.2649" y2="93.3935" gradientUnits="userSpaceOnUse">
<stop stop-color="#BD30FF"/>
<stop offset="1" stop-color="#7D00FF"/>
</linearGradient>
<linearGradient id="paint2_linear_207_18020" x1="27.943" y1="61.5417" x2="66.2649" y2="93.3935" gradientUnits="userSpaceOnUse">
<stop stop-color="#BD30FF"/>
<stop offset="1" stop-color="#7D00FF"/>
</linearGradient>
<linearGradient id="paint3_linear_207_18020" x1="27.943" y1="61.5417" x2="66.2649" y2="93.3935" gradientUnits="userSpaceOnUse">
<stop stop-color="#BD30FF"/>
<stop offset="1" stop-color="#7D00FF"/>
</linearGradient>
<linearGradient id="paint4_linear_207_18020" x1="27.943" y1="61.5417" x2="66.2649" y2="93.3935" gradientUnits="userSpaceOnUse">
<stop stop-color="#BD30FF"/>
<stop offset="1" stop-color="#7D00FF"/>
</linearGradient>
<linearGradient id="paint5_linear_207_18020" x1="13.5652" y1="40.2056" x2="91.4892" y2="102.791" gradientUnits="userSpaceOnUse">
<stop stop-color="#7D00FF"/>
<stop offset="1" stop-color="#9D21FF"/>
</linearGradient>
</defs>
</svg>
