<svg width="41" height="31" viewBox="0 0 41 31" fill="none" xmlns="http://www.w3.org/2000/svg">
<path d="M34.4429 2.74894C31.9107 1.58721 29.1952 0.731284 26.356 0.24107C26.3043 0.231609 26.2527 0.255253 26.2261 0.302539C25.8768 0.923581 25.49 1.73379 25.219 2.37061C22.1654 1.9135 19.1273 1.9135 16.1362 2.37061C15.8653 1.71963 15.4643 0.923581 15.1136 0.302539C15.0869 0.256831 15.0353 0.233187 14.9836 0.24107C12.146 0.729717 9.4305 1.58564 6.89667 2.74894C6.87474 2.7584 6.85594 2.77417 6.84345 2.79465C1.6928 10.4885 0.281819 17.9932 0.973999 25.4049C0.977131 25.4412 0.997489 25.4758 1.02568 25.4979C4.42393 27.9931 7.71573 29.5079 10.9464 30.5121C10.9981 30.5279 11.0529 30.5089 11.0858 30.4663C11.85 29.4229 12.5313 28.3226 13.1153 27.1655C13.1497 27.0978 13.1168 27.0175 13.0464 26.9906C11.9659 26.5808 10.937 26.0811 9.94726 25.5137C9.86898 25.468 9.86271 25.356 9.93474 25.3024C10.143 25.1463 10.3513 24.984 10.5502 24.82C10.5862 24.7901 10.6363 24.7839 10.6786 24.8027C17.1807 27.7709 24.2199 27.7709 30.6453 24.8027C30.6877 24.7822 30.7378 24.7886 30.7753 24.8185C30.9743 24.9825 31.1825 25.1463 31.3923 25.3024C31.4644 25.356 31.4596 25.468 31.3814 25.5137C30.3917 26.0921 29.3628 26.5808 28.2807 26.9891C28.2102 27.0159 28.1788 27.0978 28.2134 27.1655C28.81 28.321 29.4912 29.4212 30.2412 30.4647C30.2726 30.5089 30.329 30.5279 30.3806 30.5121C33.627 29.5079 36.9188 27.9931 40.317 25.4979C40.3468 25.4758 40.3657 25.4427 40.3688 25.4064C41.1971 16.8377 38.9812 9.39457 34.4946 2.79622C34.4836 2.77417 34.4649 2.7584 34.4429 2.74894ZM14.0863 20.892C12.1287 20.892 10.5157 19.095 10.5157 16.8882C10.5157 14.6815 12.0974 12.8845 14.0863 12.8845C16.0907 12.8845 17.6881 14.6972 17.6568 16.8882C17.6568 19.095 16.0751 20.892 14.0863 20.892ZM27.2878 20.892C25.3303 20.892 23.7172 19.095 23.7172 16.8882C23.7172 14.6815 25.2989 12.8845 27.2878 12.8845C29.2923 12.8845 30.8896 14.6972 30.8584 16.8882C30.8584 19.095 29.2923 20.892 27.2878 20.892Z" fill="#7D00FF"/>
</svg>
