<svg width="121" height="10" viewBox="0 0 121 10" fill="none" xmlns="http://www.w3.org/2000/svg">
<path d="M48.1562 6.4762H50.9672L52.7973 9.79146H55.3252L53.238 6.09463C54.3875 5.54626 54.9557 4.46411 54.9557 3.32774C54.9557 1.6993 53.7587 0.206391 51.4209 0.206391H45.9567V9.79355H48.1562V6.47828V6.4762ZM48.1562 4.3536V2.32691H51.4685C52.2787 2.32691 52.7605 2.79188 52.7605 3.35276C52.7605 3.91365 52.2787 4.3536 51.4685 4.3536H48.1562ZM32.6148 0.204306H23.7583V2.32691H27.0792V9.79146H29.2744V2.32691H32.6148V0.204306ZM43.5433 9.79146V0.204306H41.3437V3.94701H36.3764V0.204306H34.1769V9.79146H36.3764V6.05293H41.3437V9.79146H43.5433ZM65.7654 7.66677H59.156V6.05293H65.6098V3.94701H59.156V2.32691H65.6833V0.204306H56.9565V9.79146H65.7568L65.7676 7.66677H65.7654ZM72.1198 9.99997C75.7389 9.99997 76.7458 8.87612 76.7458 6.94534C76.7458 5.17929 75.767 4.5621 73.8224 4.20556L71.1022 3.69889C70.2228 3.53416 69.8965 3.28813 69.8965 2.79396C69.8965 2.32899 70.266 1.91823 72.1263 1.91823C73.6172 1.91823 74.3021 2.20389 74.382 3.47995H76.6529C76.5535 0.890295 75.1491 -3.05176e-05 72.0961 -3.05176e-05C68.732 -3.05176e-05 67.6106 1.23225 67.6106 2.83358C67.6106 4.43492 68.4208 5.24809 70.1796 5.58587L73.1029 6.16135C73.8548 6.31148 74.436 6.40739 74.436 7.06627C74.436 7.72516 74.0018 8.07962 72.109 8.07962C70.5469 8.07962 69.8252 7.72307 69.7669 6.42199H67.3686C67.3967 9.02416 68.8033 9.99163 72.1242 9.99163L72.1177 9.99788L72.1198 9.99997ZM88.0437 9.79146V0.204306H85.8442V3.94701H80.8769V0.204306H78.6774V9.79146H80.8769V6.05293H85.8442V9.79146H88.0437ZM95.0269 9.99997C98.5876 9.99997 100.249 8.89071 100.249 5.01457C100.249 1.13842 98.4321 0.00205455 95.0269 0.00205455C91.6217 0.00205455 89.8176 0.988293 89.8176 5.01457C89.8176 9.04084 91.464 9.99997 95.0269 9.99997ZM95.0269 7.94617C92.9268 7.94617 92.1165 7.53542 92.1165 5.01457C92.1165 2.49371 92.9268 2.05585 95.0269 2.05585C97.1271 2.05585 97.9503 2.4124 97.9503 5.01457C97.9503 7.61673 97.1271 7.94617 95.0269 7.94617ZM109.829 7.67303H104.218V0.208477H102.019V9.79563H109.825L109.829 7.67303ZM116.018 9.79563C119.44 9.79563 121 8.75518 121 5.01665C121 0.990378 119.282 0.208477 116.018 0.208477H111.603V9.79563H116.018ZM115.745 7.73558H113.805V2.2581H115.75C117.778 2.2581 118.701 2.43533 118.701 5.0104C118.701 7.37904 117.794 7.73975 115.75 7.73975L115.745 7.73558Z" fill="white"/>
<path d="M0 3.39864V4.99581H4.9673V3.39864H0ZM6.62451 3.39864V4.99581H8.27956V3.39864H6.62451ZM14.9041 4.99789V3.40073H9.93677V4.99789H14.9041ZM0 0.204315V1.80148H4.9673V0.204315H0ZM8.27956 0.204315H6.62451V1.80148H8.27956V0.204315ZM8.27956 9.79147H9.93461V4.99789H8.27956V9.79147ZM8.27956 1.80148V3.39864H9.93461V1.80148H8.27956ZM4.9673 9.79147H6.62235V4.99789H4.9673V9.79147ZM6.62451 1.80148H4.96946V3.39864H6.62451V1.80148ZM14.9019 0.204315H9.93461V1.80148H14.9019V0.204315Z" fill="white"/>
</svg>
