<svg width="128" height="15" viewBox="0 0 128 15" fill="none" xmlns="http://www.w3.org/2000/svg">
<path d="M32.5247 9.65031H36.1972L38.5882 14.1386H41.8909L39.164 9.13373C40.6658 8.39132 41.4082 6.92627 41.4082 5.38782C41.4082 3.18318 39.8443 1.16203 36.79 1.16203H29.651V14.1415H32.5247V9.65313V9.65031ZM32.5247 6.77666V4.03286H36.8521C37.9107 4.03286 38.5402 4.66235 38.5402 5.4217C38.5402 6.18104 37.9107 6.77666 36.8521 6.77666H32.5247ZM12.22 1.15921H0.64917V4.03286H4.98788V14.1386H7.85589V4.03286H12.22V1.15921ZM26.4979 14.1386V1.15921H23.6243V6.22621H17.1346V1.15921H14.2609V14.1386H17.1346V9.07728H23.6243V14.1386H26.4979ZM55.5308 11.2622H46.8958V9.07728H55.3276V6.22621H46.8958V4.03286H55.4236V1.15921H44.0221V14.1386H55.5196L55.5337 11.2622H55.5308ZM63.8328 14.4209C68.5611 14.4209 69.8765 12.8994 69.8765 10.2854C69.8765 7.8945 68.5978 7.05894 66.0572 6.57624L62.5033 5.89029C61.3544 5.66728 60.9281 5.33419 60.9281 4.66518C60.9281 4.03568 61.4108 3.47958 63.8413 3.47958C65.7891 3.47958 66.6839 3.86631 66.7883 5.59389H69.7551C69.6253 2.08792 67.7904 0.882568 63.8018 0.882568C59.4066 0.882568 57.9416 2.55087 57.9416 4.71881C57.9416 6.88675 59.0001 7.98766 61.2979 8.44496L65.1172 9.22406C66.0996 9.42731 66.8589 9.55716 66.8589 10.4492C66.8589 11.3412 66.2915 11.8211 63.8187 11.8211C61.7778 11.8211 60.835 11.3384 60.7587 9.57692H57.6254C57.6621 13.0998 59.4998 14.4096 63.8385 14.4096L63.83 14.4181L63.8328 14.4209ZM84.6372 14.1386V1.15921H81.7635V6.22621H75.2738V1.15921H72.4002V14.1386H75.2738V9.07728H81.7635V14.1386H84.6372ZM93.7606 14.4209C98.4126 14.4209 100.583 12.9192 100.583 7.6715C100.583 2.42384 98.2094 0.885391 93.7606 0.885391C89.3118 0.885391 86.9547 2.2206 86.9547 7.6715C86.9547 13.1224 89.1057 14.4209 93.7606 14.4209ZM93.7606 11.6404C91.0168 11.6404 89.9582 11.0843 89.9582 7.6715C89.9582 4.25869 91.0168 3.66589 93.7606 3.66589C96.5044 3.66589 97.5799 4.1486 97.5799 7.6715C97.5799 11.1944 96.5044 11.6404 93.7606 11.6404ZM113.1 11.2706H105.769V1.16485H102.895V14.1443H113.094L113.1 11.2706ZM121.184 14.1443C125.656 14.1443 127.694 12.7357 127.694 7.67432C127.694 2.22342 125.45 1.16485 121.184 1.16485H115.417V14.1443H121.184ZM120.829 11.3553H118.294V3.9397H120.834C123.485 3.9397 124.69 4.17965 124.69 7.66585C124.69 10.8726 123.505 11.361 120.834 11.361L120.829 11.3553Z" fill="white"/>
</svg>
