<svg width="191" height="147" viewBox="0 0 191 147" fill="none" xmlns="http://www.w3.org/2000/svg">
<mask id="mask0_434_88812" style="mask-type:alpha" maskUnits="userSpaceOnUse" x="-7" y="-38" width="304" height="203">
<path d="M296.5 54H286.086H275.672H265.259H254.845H244.431H234.017V54C227.753 54 222.144 57.8842 219.942 63.7487L215.911 74.4788C214.274 78.8369 210.106 81.7234 205.451 81.7234H204.63C203.411 81.7234 202.209 81.4358 201.123 80.8838V80.8838C196.657 78.6155 191.244 81.1196 190.082 85.992L184.365 109.957C182.948 115.896 177.64 120.087 171.534 120.087V120.087H161.121H160.678C154.483 120.087 148.735 116.866 145.5 111.584V111.584C142.265 106.301 136.517 103.081 130.322 103.081H129.879H128.123C122.672 103.081 117.537 100.519 114.259 96.1637L112.183 93.4066C110.211 90.7872 107.123 89.2466 103.845 89.2466V89.2466C100.566 89.2466 97.4782 90.7872 95.5064 93.4066L93.4222 96.1754C90.148 100.525 85.0252 103.089 79.581 103.104L77.8104 103.109H67.3965V103.109C61.1343 103.109 55.5306 106.998 53.3402 112.865L50.2116 121.244C48.0211 127.111 42.4174 131 36.1552 131V131H32.9329C28.3164 131 23.8769 129.224 20.5345 126.039V126.039C17.192 122.855 12.7525 121.079 8.13604 121.079H4.91379H-5.5" stroke="url(#paint0_linear_434_88812)"/>
<path d="M295.5 1H285.086H274.672H264.259H253.845H243.431H233.017V1C226.753 1 221.144 4.88418 218.942 10.7487L214.911 21.4788C213.274 25.8369 209.106 28.7234 204.451 28.7234H203.63C202.411 28.7234 201.209 28.4358 200.123 27.8838V27.8838C195.657 25.6155 190.244 28.1196 189.082 32.992L183.365 56.9573C181.948 62.8964 176.64 67.0869 170.534 67.0869V67.0869H160.121H159.678C153.483 67.0869 147.735 63.8663 144.5 58.5838V58.5838C141.265 53.3014 135.517 50.0808 129.322 50.0808H128.879H127.123C121.672 50.0808 116.537 47.5191 113.259 43.1637L111.183 40.4066C109.211 37.7872 106.123 36.2466 102.845 36.2466V36.2466C99.5662 36.2466 96.4782 37.7872 94.5064 40.4066L92.4222 43.1754C89.148 47.525 84.0252 50.0895 78.581 50.1042L76.8104 50.109H66.3965V50.109C60.1343 50.109 54.5306 53.9983 52.3402 59.8649L49.2116 68.2441C47.0211 74.1107 41.4174 78 35.1552 78V78H31.9329C27.3164 78 22.8769 76.2238 19.5345 73.0395V73.0395C16.192 69.8552 11.7525 68.079 7.13604 68.079H3.91379H-6.5" stroke="url(#paint1_linear_434_88812)"/>
<path d="M296.5 60H286.086H275.672H265.259H254.845H244.431H234.017V60C227.747 60 222.129 63.873 219.899 69.7328L215.947 80.1175C214.287 84.48 210.105 87.3634 205.437 87.3634H204.62C203.407 87.3634 202.211 87.0804 201.127 86.5369V86.5369C196.644 84.2897 191.237 86.7992 190.059 91.6734L184.395 115.106C182.959 121.045 177.644 125.229 171.534 125.229V125.229H161.121H160.584C154.442 125.229 148.738 122.054 145.5 116.836V116.836C142.262 111.618 136.558 108.443 130.416 108.443H129.879H128.052C122.641 108.443 117.54 105.919 114.259 101.616L112.209 98.9291C110.219 96.32 107.126 94.7888 103.845 94.7888V94.7888C100.564 94.7888 97.4702 96.32 95.4803 98.9291L93.4223 101.628C90.1454 105.924 85.056 108.452 79.6524 108.466L77.8104 108.471H67.3965V108.471C61.1292 108.471 55.5157 112.349 53.2982 118.211L50.2536 126.26C48.036 132.122 42.4226 136 36.1552 136V136H32.8886C28.2975 136 23.8792 134.249 20.5345 131.104V131.104C17.1898 127.959 12.7715 126.208 8.18032 126.208H4.91379H-5.5" stroke="url(#paint2_linear_434_88812)"/>
<path d="M295.5 7H285.086H274.672H264.259H253.845H243.431H233.017V7C226.747 7 221.129 10.873 218.899 16.7328L214.947 27.1175C213.287 31.48 209.105 34.3634 204.437 34.3634H203.62C202.407 34.3634 201.211 34.0804 200.127 33.5369V33.5369C195.644 31.2897 190.237 33.7992 189.059 38.6734L183.395 62.1063C181.959 68.045 176.644 72.2286 170.534 72.2286V72.2286H160.121H159.584C153.442 72.2286 147.738 69.0544 144.5 63.836V63.836C141.262 58.6176 135.558 55.4434 129.416 55.4434H128.879H127.052C121.641 55.4434 116.54 52.9185 113.259 48.6161L111.209 45.9291C109.219 43.32 106.126 41.7888 102.845 41.7888V41.7888C99.5635 41.7888 96.4702 43.32 94.4803 45.9291L92.4223 48.6276C89.1454 52.9243 84.056 55.4519 78.6524 55.4663L76.8104 55.4712H66.3965V55.4712C60.1292 55.4712 54.5157 59.3494 52.2982 65.2114L49.2536 73.2598C47.036 79.1218 41.4226 83 35.1552 83V83H31.8886C27.2975 83 22.8792 81.249 19.5345 78.1039V78.1039C16.1898 74.9588 11.7715 73.2078 7.18032 73.2078H3.91379H-6.5" stroke="url(#paint3_linear_434_88812)"/>
<path d="M296.5 65H286.086H275.672H265.259H254.845H244.431H234.017V65C227.753 65 222.144 68.8842 219.942 74.7487L215.911 85.4788C214.274 89.8369 210.106 92.7234 205.451 92.7234H204.63C203.411 92.7234 202.209 92.4358 201.123 91.8838V91.8838C196.657 89.6155 191.244 92.1196 190.082 96.992L184.365 120.957C182.948 126.896 177.64 131.087 171.534 131.087V131.087H161.121H160.678C154.483 131.087 148.735 127.866 145.5 122.584V122.584C142.265 117.301 136.517 114.081 130.322 114.081H129.879H128.123C122.672 114.081 117.537 111.519 114.259 107.164L112.183 104.407C110.211 101.787 107.123 100.247 103.845 100.247V100.247C100.566 100.247 97.4782 101.787 95.5064 104.407L93.4222 107.175C90.148 111.525 85.0252 114.089 79.581 114.104L77.8104 114.109H67.3965V114.109C61.1343 114.109 55.5306 117.998 53.3402 123.865L50.2116 132.244C48.0211 138.111 42.4174 142 36.1552 142V142H32.9329C28.3164 142 23.8769 140.224 20.5345 137.039V137.039C17.192 133.855 12.7525 132.079 8.13604 132.079H4.91379H-5.5" stroke="url(#paint4_linear_434_88812)"/>
<path d="M295.5 12H285.086H274.672H264.259H253.845H243.431H233.017V12C226.753 12 221.144 15.8842 218.942 21.7487L214.911 32.4788C213.274 36.8369 209.106 39.7234 204.451 39.7234H203.63C202.411 39.7234 201.209 39.4358 200.123 38.8838V38.8838C195.657 36.6155 190.244 39.1196 189.082 43.992L183.365 67.9573C181.948 73.8964 176.64 78.0869 170.534 78.0869V78.0869H160.121H159.678C153.483 78.0869 147.735 74.8663 144.5 69.5838V69.5838C141.265 64.3014 135.517 61.0808 129.322 61.0808H128.879H127.123C121.672 61.0808 116.537 58.5191 113.259 54.1637L111.183 51.4066C109.211 48.7872 106.123 47.2466 102.845 47.2466V47.2466C99.5662 47.2466 96.4782 48.7872 94.5064 51.4066L92.4222 54.1754C89.148 58.525 84.0252 61.0895 78.581 61.1042L76.8104 61.109H66.3965V61.109C60.1343 61.109 54.5306 64.9983 52.3402 70.8649L49.2116 79.2441C47.0211 85.1107 41.4174 89 35.1552 89V89H31.9329C27.3164 89 22.8769 87.2238 19.5345 84.0395V84.0395C16.192 80.8552 11.7525 79.079 7.13604 79.079H3.91379H-6.5" stroke="url(#paint5_linear_434_88812)"/>
<path d="M295.5 -37H285.086H274.672H264.259H253.845H243.431H233.017V-37C226.747 -37 221.129 -33.127 218.899 -27.2672L214.947 -16.8825C213.287 -12.52 209.105 -9.63664 204.437 -9.63664H203.62C202.407 -9.63664 201.211 -9.91962 200.127 -10.4631V-10.4631C195.644 -12.7103 190.237 -10.2008 189.059 -5.32656L183.395 18.1063C181.959 24.045 176.644 28.2286 170.534 28.2286V28.2286H160.121H159.584C153.442 28.2286 147.738 25.0544 144.5 19.836V19.836C141.262 14.6176 135.558 11.4434 129.416 11.4434H128.879H127.052C121.641 11.4434 116.54 8.91853 113.259 4.61611L111.209 1.92906C109.219 -0.680032 106.126 -2.21117 102.845 -2.21117V-2.21117C99.5635 -2.21117 96.4702 -0.680029 94.4803 1.92907L92.4223 4.62761C89.1454 8.92428 84.056 11.4519 78.6524 11.4663L76.8104 11.4712H66.3965V11.4712C60.1292 11.4712 54.5157 15.3494 52.2982 21.2114L49.2536 29.2598C47.036 35.1218 41.4226 39 35.1552 39V39H31.8886C27.2975 39 22.8792 37.249 19.5345 34.1039V34.1039C16.1898 30.9588 11.7715 29.2078 7.18032 29.2078H3.91379H-6.5" stroke="url(#paint6_linear_434_88812)"/>
<path d="M296.5 71H286.086H275.672H265.259H254.845H244.431H234.017V71C227.747 71 222.129 74.873 219.899 80.7328L215.947 91.1175C214.287 95.48 210.105 98.3634 205.437 98.3634H204.62C203.407 98.3634 202.211 98.0804 201.127 97.5369V97.5369C196.644 95.2897 191.237 97.7992 190.059 102.673L184.395 126.106C182.959 132.045 177.644 136.229 171.534 136.229V136.229H161.121H160.584C154.442 136.229 148.738 133.054 145.5 127.836V127.836C142.262 122.618 136.558 119.443 130.416 119.443H129.879H128.052C122.641 119.443 117.54 116.919 114.259 112.616L112.209 109.929C110.219 107.32 107.126 105.789 103.845 105.789V105.789C100.564 105.789 97.4702 107.32 95.4803 109.929L93.4223 112.628C90.1454 116.924 85.056 119.452 79.6524 119.466L77.8104 119.471H67.3965V119.471C61.1292 119.471 55.5157 123.349 53.2982 129.211L50.2536 137.26C48.036 143.122 42.4226 147 36.1552 147V147H32.8886C28.2975 147 23.8792 145.249 20.5345 142.104V142.104C17.1898 138.959 12.7715 137.208 8.18032 137.208H4.91379H-5.5" stroke="url(#paint7_linear_434_88812)"/>
<path d="M295.5 18H285.086H274.672H264.259H253.845H243.431H233.017V18C226.747 18 221.129 21.873 218.899 27.7328L214.947 38.1175C213.287 42.48 209.105 45.3634 204.437 45.3634H203.62C202.407 45.3634 201.211 45.0804 200.127 44.5369V44.5369C195.644 42.2897 190.237 44.7992 189.059 49.6734L183.395 73.1063C181.959 79.045 176.644 83.2286 170.534 83.2286V83.2286H160.121H159.584C153.442 83.2286 147.738 80.0544 144.5 74.836V74.836C141.262 69.6176 135.558 66.4434 129.416 66.4434H128.879H127.052C121.641 66.4434 116.54 63.9185 113.259 59.6161L111.209 56.9291C109.219 54.32 106.126 52.7888 102.845 52.7888V52.7888C99.5635 52.7888 96.4702 54.32 94.4803 56.9291L92.4223 59.6276C89.1454 63.9243 84.056 66.4519 78.6524 66.4663L76.8104 66.4712H66.3965V66.4712C60.1292 66.4712 54.5157 70.3494 52.2982 76.2114L49.2536 84.2598C47.036 90.1218 41.4226 94 35.1552 94V94H31.8886C27.2975 94 22.8792 92.249 19.5345 89.1039V89.1039C16.1898 85.9588 11.7715 84.2078 7.18032 84.2078H3.91379H-6.5" stroke="url(#paint8_linear_434_88812)"/>
<path d="M295.5 -32H285.086H274.672H264.259H253.845H243.431H233.017V-32C226.753 -32 221.144 -28.1158 218.942 -22.2513L214.911 -11.5212C213.274 -7.16308 209.106 -4.27659 204.451 -4.27659H203.63C202.411 -4.27659 201.209 -4.56425 200.123 -5.11617V-5.11617C195.657 -7.38449 190.244 -4.88045 189.082 -0.00795094L183.365 23.9573C181.948 29.8964 176.64 34.0869 170.534 34.0869V34.0869H160.121H159.678C153.483 34.0869 147.735 30.8663 144.5 25.5838V25.5838C141.265 20.3014 135.517 17.0808 129.322 17.0808H128.879H127.123C121.672 17.0808 116.537 14.5191 113.259 10.1637L111.183 7.4066C109.211 4.7872 106.123 3.24658 102.845 3.24658V3.24658C99.5662 3.24658 96.4782 4.7872 94.5064 7.4066L92.4222 10.1754C89.148 14.525 84.0252 17.0895 78.581 17.1042L76.8104 17.109H66.3965V17.109C60.1343 17.109 54.5306 20.9983 52.3402 26.8649L49.2116 35.2441C47.0211 41.1107 41.4174 45 35.1552 45V45H31.9329C27.3164 45 22.8769 43.2238 19.5345 40.0395V40.0395C16.192 36.8552 11.7525 35.079 7.13604 35.079H3.91379H-6.5" stroke="url(#paint9_linear_434_88812)"/>
<path d="M296.5 76H286.086H275.672H265.259H254.845H244.431H234.017V76C227.753 76 222.144 79.8842 219.942 85.7487L215.911 96.4788C214.274 100.837 210.106 103.723 205.451 103.723H204.63C203.411 103.723 202.209 103.436 201.123 102.884V102.884C196.657 100.616 191.244 103.12 190.082 107.992L184.365 131.957C182.948 137.896 177.64 142.087 171.534 142.087V142.087H161.121H160.678C154.483 142.087 148.735 138.866 145.5 133.584V133.584C142.265 128.301 136.517 125.081 130.322 125.081H129.879H128.123C122.672 125.081 117.537 122.519 114.259 118.164L112.183 115.407C110.211 112.787 107.123 111.247 103.845 111.247V111.247C100.566 111.247 97.4782 112.787 95.5064 115.407L93.4222 118.175C90.148 122.525 85.0252 125.089 79.581 125.104L77.8104 125.109H67.3965V125.109C61.1343 125.109 55.5306 128.998 53.3402 134.865L50.2116 143.244C48.0211 149.111 42.4174 153 36.1552 153V153H32.9329C28.3164 153 23.8769 151.224 20.5345 148.039V148.039C17.192 144.855 12.7525 143.079 8.13604 143.079H4.91379H-5.5" stroke="url(#paint10_linear_434_88812)"/>
<path d="M295.5 23H285.086H274.672H264.259H253.845H243.431H233.017V23C226.753 23 221.144 26.8842 218.942 32.7487L214.911 43.4788C213.274 47.8369 209.106 50.7234 204.451 50.7234H203.63C202.411 50.7234 201.209 50.4358 200.123 49.8838V49.8838C195.657 47.6155 190.244 50.1196 189.082 54.992L183.365 78.9573C181.948 84.8964 176.64 89.0869 170.534 89.0869V89.0869H160.121H159.678C153.483 89.0869 147.735 85.8663 144.5 80.5838V80.5838C141.265 75.3014 135.517 72.0808 129.322 72.0808H128.879H127.123C121.672 72.0808 116.537 69.5191 113.259 65.1637L111.183 62.4066C109.211 59.7872 106.123 58.2466 102.845 58.2466V58.2466C99.5662 58.2466 96.4782 59.7872 94.5064 62.4066L92.4222 65.1754C89.148 69.525 84.0252 72.0895 78.581 72.1042L76.8104 72.109H66.3965V72.109C60.1343 72.109 54.5306 75.9983 52.3402 81.8649L49.2116 90.2441C47.0211 96.1107 41.4174 100 35.1552 100V100H31.9329C27.3164 100 22.8769 98.2238 19.5345 95.0395V95.0395C16.192 91.8552 11.7525 90.079 7.13604 90.079H3.91379H-6.5" stroke="url(#paint11_linear_434_88812)"/>
<path d="M295.5 -26H285.086H274.672H264.259H253.845H243.431H233.017V-26C226.747 -26 221.129 -22.127 218.899 -16.2672L214.947 -5.88251C213.287 -1.52003 209.105 1.36336 204.437 1.36336H203.62C202.407 1.36336 201.211 1.08038 200.127 0.536932V0.536932C195.644 -1.71027 190.237 0.799238 189.059 5.67344L183.395 29.1063C181.959 35.045 176.644 39.2286 170.534 39.2286V39.2286H160.121H159.584C153.442 39.2286 147.738 36.0544 144.5 30.836V30.836C141.262 25.6176 135.558 22.4434 129.416 22.4434H128.879H127.052C121.641 22.4434 116.54 19.9185 113.259 15.6161L111.209 12.9291C109.219 10.32 106.126 8.78883 102.845 8.78883V8.78883C99.5635 8.78883 96.4702 10.32 94.4803 12.9291L92.4223 15.6276C89.1454 19.9243 84.056 22.4519 78.6524 22.4663L76.8104 22.4712H66.3965V22.4712C60.1292 22.4712 54.5157 26.3494 52.2982 32.2114L49.2536 40.2598C47.036 46.1218 41.4226 50 35.1552 50V50H31.8886C27.2975 50 22.8792 48.249 19.5345 45.1039V45.1039C16.1898 41.9588 11.7715 40.2078 7.18032 40.2078H3.91379H-6.5" stroke="url(#paint12_linear_434_88812)"/>
<path d="M296.5 82H286.086H275.672H265.259H254.845H244.431H234.017V82C227.747 82 222.129 85.873 219.899 91.7328L215.947 102.117C214.287 106.48 210.105 109.363 205.437 109.363H204.62C203.407 109.363 202.211 109.08 201.127 108.537V108.537C196.644 106.29 191.237 108.799 190.059 113.673L184.395 137.106C182.959 143.045 177.644 147.229 171.534 147.229V147.229H161.121H160.584C154.442 147.229 148.738 144.054 145.5 138.836V138.836C142.262 133.618 136.558 130.443 130.416 130.443H129.879H128.052C122.641 130.443 117.54 127.919 114.259 123.616L112.209 120.929C110.219 118.32 107.126 116.789 103.845 116.789V116.789C100.564 116.789 97.4702 118.32 95.4803 120.929L93.4223 123.628C90.1454 127.924 85.056 130.452 79.6524 130.466L77.8104 130.471H67.3965V130.471C61.1292 130.471 55.5157 134.349 53.2982 140.211L50.2536 148.26C48.036 154.122 42.4226 158 36.1552 158V158H32.8886C28.2975 158 23.8792 156.249 20.5345 153.104V153.104C17.1898 149.959 12.7715 148.208 8.18032 148.208H4.91379H-5.5" stroke="url(#paint13_linear_434_88812)"/>
<path d="M295.5 29H285.086H274.672H264.259H253.845H243.431H233.017V29C226.747 29 221.129 32.873 218.899 38.7328L214.947 49.1175C213.287 53.48 209.105 56.3634 204.437 56.3634H203.62C202.407 56.3634 201.211 56.0804 200.127 55.5369V55.5369C195.644 53.2897 190.237 55.7992 189.059 60.6734L183.395 84.1063C181.959 90.045 176.644 94.2286 170.534 94.2286V94.2286H160.121H159.584C153.442 94.2286 147.738 91.0544 144.5 85.836V85.836C141.262 80.6176 135.558 77.4434 129.416 77.4434H128.879H127.052C121.641 77.4434 116.54 74.9185 113.259 70.6161L111.209 67.9291C109.219 65.32 106.126 63.7888 102.845 63.7888V63.7888C99.5635 63.7888 96.4702 65.32 94.4803 67.9291L92.4223 70.6276C89.1454 74.9243 84.056 77.4519 78.6524 77.4663L76.8104 77.4712H66.3965V77.4712C60.1292 77.4712 54.5157 81.3494 52.2982 87.2114L49.2536 95.2598C47.036 101.122 41.4226 105 35.1552 105V105H31.8886C27.2975 105 22.8792 103.249 19.5345 100.104V100.104C16.1898 96.9588 11.7715 95.2078 7.18032 95.2078H3.91379H-6.5" stroke="url(#paint14_linear_434_88812)"/>
<path d="M295.5 -21H285.086H274.672H264.259H253.845H243.431H233.017V-21C226.753 -21 221.144 -17.1158 218.942 -11.2513L214.911 -0.521243C213.274 3.83692 209.106 6.72341 204.451 6.72341H203.63C202.411 6.72341 201.209 6.43575 200.123 5.88383V5.88383C195.657 3.61551 190.244 6.11955 189.082 10.992L183.365 34.9573C181.948 40.8964 176.64 45.0869 170.534 45.0869V45.0869H160.121H159.678C153.483 45.0869 147.735 41.8663 144.5 36.5838V36.5838C141.265 31.3014 135.517 28.0808 129.322 28.0808H128.879H127.123C121.672 28.0808 116.537 25.5191 113.259 21.1637L111.183 18.4066C109.211 15.7872 106.123 14.2466 102.845 14.2466V14.2466C99.5662 14.2466 96.4782 15.7872 94.5064 18.4066L92.4222 21.1754C89.148 25.525 84.0252 28.0895 78.581 28.1042L76.8104 28.109H66.3965V28.109C60.1343 28.109 54.5306 31.9983 52.3402 37.8649L49.2116 46.2441C47.0211 52.1107 41.4174 56 35.1552 56V56H31.9329C27.3164 56 22.8769 54.2238 19.5345 51.0395V51.0395C16.192 47.8552 11.7525 46.079 7.13604 46.079H3.91379H-6.5" stroke="url(#paint15_linear_434_88812)"/>
<path d="M296.5 87H286.086H275.672H265.259H254.845H244.431H234.017V87C227.753 87 222.144 90.8842 219.942 96.7487L215.911 107.479C214.274 111.837 210.106 114.723 205.451 114.723H204.63C203.411 114.723 202.209 114.436 201.123 113.884V113.884C196.657 111.616 191.244 114.12 190.082 118.992L184.365 142.957C182.948 148.896 177.64 153.087 171.534 153.087V153.087H161.121H160.678C154.483 153.087 148.735 149.866 145.5 144.584V144.584C142.265 139.301 136.517 136.081 130.322 136.081H129.879H128.123C122.672 136.081 117.537 133.519 114.259 129.164L112.183 126.407C110.211 123.787 107.123 122.247 103.845 122.247V122.247C100.566 122.247 97.4782 123.787 95.5064 126.407L93.4222 129.175C90.148 133.525 85.0252 136.089 79.581 136.104L77.8104 136.109H67.3965V136.109C61.1343 136.109 55.5306 139.998 53.3402 145.865L50.2116 154.244C48.0211 160.111 42.4174 164 36.1552 164V164H32.9329C28.3164 164 23.8769 162.224 20.5345 159.039V159.039C17.192 155.855 12.7525 154.079 8.13604 154.079H4.91379H-5.5" stroke="url(#paint16_linear_434_88812)"/>
<path d="M295.5 34H285.086H274.672H264.259H253.845H243.431H233.017V34C226.753 34 221.144 37.8842 218.942 43.7487L214.911 54.4788C213.274 58.8369 209.106 61.7234 204.451 61.7234H203.63C202.411 61.7234 201.209 61.4358 200.123 60.8838V60.8838C195.657 58.6155 190.244 61.1196 189.082 65.992L183.365 89.9573C181.948 95.8964 176.64 100.087 170.534 100.087V100.087H160.121H159.678C153.483 100.087 147.735 96.8663 144.5 91.5838V91.5838C141.265 86.3014 135.517 83.0808 129.322 83.0808H128.879H127.123C121.672 83.0808 116.537 80.5191 113.259 76.1637L111.183 73.4066C109.211 70.7872 106.123 69.2466 102.845 69.2466V69.2466C99.5662 69.2466 96.4782 70.7872 94.5064 73.4066L92.4222 76.1754C89.148 80.525 84.0252 83.0895 78.581 83.1042L76.8104 83.109H66.3965V83.109C60.1343 83.109 54.5306 86.9983 52.3402 92.8649L49.2116 101.244C47.0211 107.111 41.4174 111 35.1552 111V111H31.9329C27.3164 111 22.8769 109.224 19.5345 106.039V106.039C16.192 102.855 11.7525 101.079 7.13604 101.079H3.91379H-6.5" stroke="url(#paint17_linear_434_88812)"/>
<path d="M295.5 -15H285.086H274.672H264.259H253.845H243.431H233.017V-15C226.747 -15 221.129 -11.127 218.899 -5.26722L214.947 5.11749C213.287 9.47997 209.105 12.3634 204.437 12.3634H203.62C202.407 12.3634 201.211 12.0804 200.127 11.5369V11.5369C195.644 9.28973 190.237 11.7992 189.059 16.6734L183.395 40.1063C181.959 46.045 176.644 50.2286 170.534 50.2286V50.2286H160.121H159.584C153.442 50.2286 147.738 47.0544 144.5 41.836V41.836C141.262 36.6176 135.558 33.4434 129.416 33.4434H128.879H127.052C121.641 33.4434 116.54 30.9185 113.259 26.6161L111.209 23.9291C109.219 21.32 106.126 19.7888 102.845 19.7888V19.7888C99.5635 19.7888 96.4702 21.32 94.4803 23.9291L92.4223 26.6276C89.1454 30.9243 84.056 33.4519 78.6524 33.4663L76.8104 33.4712H66.3965V33.4712C60.1292 33.4712 54.5157 37.3494 52.2982 43.2114L49.2536 51.2598C47.036 57.1218 41.4226 61 35.1552 61V61H31.8886C27.2975 61 22.8792 59.249 19.5345 56.1039V56.1039C16.1898 52.9588 11.7715 51.2078 7.18032 51.2078H3.91379H-6.5" stroke="url(#paint18_linear_434_88812)"/>
<path d="M295.5 40H285.086H274.672H264.259H253.845H243.431H233.017V40C226.747 40 221.129 43.873 218.899 49.7328L214.947 60.1175C213.287 64.48 209.105 67.3634 204.437 67.3634H203.62C202.407 67.3634 201.211 67.0804 200.127 66.5369V66.5369C195.644 64.2897 190.237 66.7992 189.059 71.6734L183.395 95.1063C181.959 101.045 176.644 105.229 170.534 105.229V105.229H160.121H159.584C153.442 105.229 147.738 102.054 144.5 96.836V96.836C141.262 91.6176 135.558 88.4434 129.416 88.4434H128.879H127.052C121.641 88.4434 116.54 85.9185 113.259 81.6161L111.209 78.9291C109.219 76.32 106.126 74.7888 102.845 74.7888V74.7888C99.5635 74.7888 96.4702 76.32 94.4803 78.9291L92.4223 81.6276C89.1454 85.9243 84.056 88.4519 78.6524 88.4663L76.8104 88.4712H66.3965V88.4712C60.1292 88.4712 54.5157 92.3494 52.2982 98.2114L49.2536 106.26C47.036 112.122 41.4226 116 35.1552 116V116H31.8886C27.2975 116 22.8792 114.249 19.5345 111.104V111.104C16.1898 107.959 11.7715 106.208 7.18032 106.208H3.91379H-6.5" stroke="url(#paint19_linear_434_88812)"/>
<path d="M295.5 -10H285.086H274.672H264.259H253.845H243.431H233.017V-10C226.753 -10 221.144 -6.11582 218.942 -0.251292L214.911 10.4788C213.274 14.8369 209.106 17.7234 204.451 17.7234H203.63C202.411 17.7234 201.209 17.4358 200.123 16.8838V16.8838C195.657 14.6155 190.244 17.1196 189.082 21.992L183.365 45.9573C181.948 51.8964 176.64 56.0869 170.534 56.0869V56.0869H160.121H159.678C153.483 56.0869 147.735 52.8663 144.5 47.5838V47.5838C141.265 42.3014 135.517 39.0808 129.322 39.0808H128.879H127.123C121.672 39.0808 116.537 36.5191 113.259 32.1637L111.183 29.4066C109.211 26.7872 106.123 25.2466 102.845 25.2466V25.2466C99.5662 25.2466 96.4782 26.7872 94.5064 29.4066L92.4222 32.1754C89.148 36.525 84.0252 39.0895 78.581 39.1042L76.8104 39.109H66.3965V39.109C60.1343 39.109 54.5306 42.9983 52.3402 48.8649L49.2116 57.2441C47.0211 63.1107 41.4174 67 35.1552 67V67H31.9329C27.3164 67 22.8769 65.2238 19.5345 62.0395V62.0395C16.192 58.8552 11.7525 57.079 7.13604 57.079H3.91379H-6.5" stroke="url(#paint20_linear_434_88812)"/>
<path d="M295.5 45H285.086H274.672H264.259H253.845H243.431H233.017V45C226.753 45 221.144 48.8842 218.942 54.7487L214.911 65.4788C213.274 69.8369 209.106 72.7234 204.451 72.7234H203.63C202.411 72.7234 201.209 72.4358 200.123 71.8838V71.8838C195.657 69.6155 190.244 72.1196 189.082 76.992L183.365 100.957C181.948 106.896 176.64 111.087 170.534 111.087V111.087H160.121H159.678C153.483 111.087 147.735 107.866 144.5 102.584V102.584C141.265 97.3014 135.517 94.0808 129.322 94.0808H128.879H127.123C121.672 94.0808 116.537 91.5191 113.259 87.1637L111.183 84.4066C109.211 81.7872 106.123 80.2466 102.845 80.2466V80.2466C99.5662 80.2466 96.4782 81.7872 94.5064 84.4066L92.4222 87.1754C89.148 91.525 84.0252 94.0895 78.581 94.1042L76.8104 94.109H66.3965V94.109C60.1343 94.109 54.5306 97.9983 52.3402 103.865L49.2116 112.244C47.0211 118.111 41.4174 122 35.1552 122V122H31.9329C27.3164 122 22.8769 120.224 19.5345 117.039V117.039C16.192 113.855 11.7525 112.079 7.13604 112.079H3.91379H-6.5" stroke="url(#paint21_linear_434_88812)"/>
<path d="M295.5 -4H285.086H274.672H264.259H253.845H243.431H233.017V-4C226.747 -4 221.129 -0.12697 218.899 5.73278L214.947 16.1175C213.287 20.48 209.105 23.3634 204.437 23.3634H203.62C202.407 23.3634 201.211 23.0804 200.127 22.5369V22.5369C195.644 20.2897 190.237 22.7992 189.059 27.6734L183.395 51.1063C181.959 57.045 176.644 61.2286 170.534 61.2286V61.2286H160.121H159.584C153.442 61.2286 147.738 58.0544 144.5 52.836V52.836C141.262 47.6176 135.558 44.4434 129.416 44.4434H128.879H127.052C121.641 44.4434 116.54 41.9185 113.259 37.6161L111.209 34.9291C109.219 32.32 106.126 30.7888 102.845 30.7888V30.7888C99.5635 30.7888 96.4702 32.32 94.4803 34.9291L92.4223 37.6276C89.1454 41.9243 84.056 44.4519 78.6524 44.4663L76.8104 44.4712H66.3965V44.4712C60.1292 44.4712 54.5157 48.3494 52.2982 54.2114L49.2536 62.2598C47.036 68.1218 41.4226 72 35.1552 72V72H31.8886C27.2975 72 22.8792 70.249 19.5345 67.1039V67.1039C16.1898 63.9588 11.7715 62.2078 7.18032 62.2078H3.91379H-6.5" stroke="url(#paint22_linear_434_88812)"/>
<path d="M295.5 51H285.086H274.672H264.259H253.845H243.431H233.017V51C226.747 51 221.129 54.873 218.899 60.7328L214.947 71.1175C213.287 75.48 209.105 78.3634 204.437 78.3634H203.62C202.407 78.3634 201.211 78.0804 200.127 77.5369V77.5369C195.644 75.2897 190.237 77.7992 189.059 82.6734L183.395 106.106C181.959 112.045 176.644 116.229 170.534 116.229V116.229H160.121H159.584C153.442 116.229 147.738 113.054 144.5 107.836V107.836C141.262 102.618 135.558 99.4434 129.416 99.4434H128.879H127.052C121.641 99.4434 116.54 96.9185 113.259 92.6161L111.209 89.9291C109.219 87.32 106.126 85.7888 102.845 85.7888V85.7888C99.5635 85.7888 96.4702 87.32 94.4803 89.9291L92.4223 92.6276C89.1454 96.9243 84.056 99.4519 78.6524 99.4663L76.8104 99.4712H66.3965V99.4712C60.1292 99.4712 54.5157 103.349 52.2982 109.211L49.2536 117.26C47.036 123.122 41.4226 127 35.1552 127V127H31.8886C27.2975 127 22.8792 125.249 19.5345 122.104V122.104C16.1898 118.959 11.7715 117.208 7.18032 117.208H3.91379H-6.5" stroke="url(#paint23_linear_434_88812)"/>
</mask>
<g mask="url(#mask0_434_88812)">
<ellipse cx="92.4729" cy="69.4046" rx="69.1067" ry="69.1731" fill="url(#paint24_linear_434_88812)"/>
</g>
<rect x="64.7695" y="80" width="126" height="28" rx="6" fill="white"/>
<path d="M85.1832 91.7717H83.1911C83.1342 91.445 83.0295 91.1555 82.8768 90.9034C82.7241 90.6477 82.5341 90.4311 82.3068 90.2536C82.0795 90.076 81.8203 89.9428 81.5291 89.854C81.2415 89.7617 80.9308 89.7156 80.5969 89.7156C80.0039 89.7156 79.4783 89.8647 79.0202 90.163C78.5621 90.4577 78.2035 90.891 77.9442 91.4627C77.685 92.0309 77.5554 92.7251 77.5554 93.5455C77.5554 94.38 77.685 95.0831 77.9442 95.6548C78.207 96.223 78.5657 96.6527 79.0202 96.9439C79.4783 97.2315 80.0021 97.3754 80.5916 97.3754C80.9183 97.3754 81.2237 97.3327 81.5078 97.2475C81.7955 97.1587 82.0529 97.0291 82.2802 96.8587C82.511 96.6882 82.7045 96.4787 82.8608 96.2301C83.0206 95.9815 83.1307 95.6974 83.1911 95.3778L85.1832 95.3885C85.1087 95.907 84.9471 96.3935 84.6985 96.848C84.4535 97.3026 84.1321 97.7038 83.7344 98.0518C83.3366 98.3963 82.8714 98.6662 82.3388 98.8615C81.8061 99.0533 81.2148 99.1491 80.565 99.1491C79.6062 99.1491 78.7504 98.9272 77.9975 98.4833C77.2447 98.0394 76.6516 97.3984 76.2184 96.5604C75.7852 95.7223 75.5685 94.7173 75.5685 93.5455C75.5685 92.37 75.7869 91.3651 76.2237 90.5305C76.6605 89.6925 77.2553 89.0515 78.0082 88.6076C78.761 88.1637 79.6133 87.9418 80.565 87.9418C81.1722 87.9418 81.7369 88.027 82.2589 88.1974C82.7809 88.3679 83.2461 88.6183 83.6545 88.9485C84.0629 89.2752 84.3984 89.6765 84.6612 90.1523C84.9276 90.6246 85.1016 91.1644 85.1832 91.7717ZM98.2409 93.5455C98.2409 94.7209 98.0207 95.7276 97.5803 96.5657C97.1436 97.4002 96.547 98.0394 95.7906 98.4833C95.0377 98.9272 94.1837 99.1491 93.2284 99.1491C92.2732 99.1491 91.4173 98.9272 90.661 98.4833C89.9081 98.0359 89.3115 97.3949 88.8712 96.5604C88.4344 95.7223 88.216 94.7173 88.216 93.5455C88.216 92.37 88.4344 91.3651 88.8712 90.5305C89.3115 89.6925 89.9081 89.0515 90.661 88.6076C91.4173 88.1637 92.2732 87.9418 93.2284 87.9418C94.1837 87.9418 95.0377 88.1637 95.7906 88.6076C96.547 89.0515 97.1436 89.6925 97.5803 90.5305C98.0207 91.3651 98.2409 92.37 98.2409 93.5455ZM96.254 93.5455C96.254 92.718 96.1244 92.0202 95.8651 91.4521C95.6095 90.8803 95.2544 90.4489 94.7998 90.1577C94.3453 89.8629 93.8215 89.7156 93.2284 89.7156C92.6354 89.7156 92.1116 89.8629 91.657 90.1577C91.2025 90.4489 90.8456 90.8803 90.5864 91.4521C90.3307 92.0202 90.2029 92.718 90.2029 93.5455C90.2029 94.3729 90.3307 95.0724 90.5864 95.6442C90.8456 96.2124 91.2025 96.6438 91.657 96.9386C92.1116 97.2298 92.6354 97.3754 93.2284 97.3754C93.8215 97.3754 94.3453 97.2298 94.7998 96.9386C95.2544 96.6438 95.6095 96.2124 95.8651 95.6442C96.1244 95.0724 96.254 94.3729 96.254 93.5455ZM101.609 88.0909H104.028L107.266 95.9957H107.394L110.633 88.0909H113.051V99H111.155V91.5053H111.053L108.039 98.968H106.622L103.607 91.4893H103.506V99H101.609V88.0909ZM116.703 99V88.0909H120.794C121.632 88.0909 122.335 88.2472 122.903 88.5597C123.475 88.8722 123.906 89.3018 124.198 89.8487C124.492 90.392 124.64 91.0099 124.64 91.7024C124.64 92.402 124.492 93.0234 124.198 93.5668C123.903 94.1101 123.468 94.538 122.893 94.8505C122.317 95.1594 121.609 95.3139 120.767 95.3139H118.056V93.6893H120.501C120.991 93.6893 121.392 93.604 121.705 93.4336C122.017 93.2631 122.248 93.0288 122.397 92.7305C122.55 92.4322 122.626 92.0895 122.626 91.7024C122.626 91.3153 122.55 90.9744 122.397 90.6797C122.248 90.3849 122.015 90.1559 121.699 89.9925C121.387 89.8256 120.984 89.7422 120.49 89.7422H118.679V99H116.703ZM127.856 99V88.0909H129.832V97.3434H134.637V99H127.856ZM137.852 99V88.0909H144.948V89.7475H139.829V92.7092H144.58V94.3658H139.829V97.3434H144.99V99H137.852ZM147.984 89.7475V88.0909H156.688V89.7475H153.316V99H151.356V89.7475H147.984ZM159.866 99V88.0909H166.961V89.7475H161.842V92.7092H166.594V94.3658H161.842V97.3434H167.004V99H159.866ZM174.174 99H170.477V88.0909H174.249C175.332 88.0909 176.262 88.3093 177.04 88.7461C177.821 89.1793 178.421 89.8026 178.84 90.6158C179.259 91.429 179.469 92.402 179.469 93.5348C179.469 94.6712 179.258 95.6477 178.835 96.4645C178.416 97.2812 177.81 97.908 177.019 98.3448C176.23 98.7816 175.282 99 174.174 99ZM172.454 97.2901H174.078C174.838 97.2901 175.472 97.1516 175.98 96.8746C176.488 96.5941 176.869 96.1768 177.125 95.6229C177.381 95.0653 177.509 94.3693 177.509 93.5348C177.509 92.7003 177.381 92.0078 177.125 91.4574C176.869 90.9034 176.491 90.4897 175.991 90.2163C175.493 89.9393 174.875 89.8008 174.137 89.8008H172.454V97.2901Z" fill="url(#paint25_linear_434_88812)"/>
<path d="M0.5 45C0.5 41.6863 3.18629 39 6.5 39H139.5C142.814 39 145.5 41.6863 145.5 45V61C145.5 64.3137 142.814 67 139.5 67H6.5C3.18629 67 0.5 64.3137 0.5 61V45Z" fill="white"/>
<path d="M11.0966 48.7475V47.0909H19.8004V48.7475H16.4286V58H14.4684V48.7475H11.0966ZM22.9783 58V47.0909H27.0692C27.9073 47.0909 28.6104 47.2365 29.1786 47.5277C29.7504 47.8189 30.1818 48.2273 30.473 48.7528C30.7678 49.2749 30.9151 49.8839 30.9151 50.5799C30.9151 51.2795 30.766 51.8867 30.4677 52.4016C30.1729 52.913 29.7379 53.3089 29.1626 53.5895C28.5874 53.8665 27.8807 54.005 27.0426 54.005H24.1289V52.3643H26.7763C27.2663 52.3643 27.6676 52.2969 27.9801 52.1619C28.2926 52.0234 28.5234 51.8228 28.6726 51.56C28.8253 51.2937 28.9016 50.967 28.9016 50.5799C28.9016 50.1928 28.8253 49.8626 28.6726 49.5891C28.5199 49.3121 28.2873 49.1026 27.9748 48.9606C27.6623 48.815 27.2592 48.7422 26.7656 48.7422H24.9545V58H22.9783ZM28.614 53.0568L31.3146 58H29.1094L26.4567 53.0568H28.614ZM35.6351 58H33.5257L37.3663 47.0909H39.8059L43.6518 58H41.5424L38.6287 49.3281H38.5435L35.6351 58ZM35.7044 53.7227H41.4572V55.31H35.7044V53.7227ZM55.5535 47.0909V58H53.7957L48.6555 50.5692H48.5649V58H46.5887V47.0909H48.3572L53.4921 54.527H53.588V47.0909H55.5535ZM65.1355 50.0898C65.0858 49.6246 64.8762 49.2624 64.5069 49.0032C64.1412 48.744 63.6653 48.6143 63.0794 48.6143C62.6674 48.6143 62.3141 48.6765 62.0194 48.8008C61.7246 48.9251 61.4991 49.0937 61.3429 49.3068C61.1866 49.5199 61.1067 49.7631 61.1032 50.0366C61.1032 50.2638 61.1547 50.4609 61.2576 50.6278C61.3642 50.7947 61.508 50.9368 61.6891 51.054C61.8702 51.1676 62.0708 51.2635 62.291 51.3416C62.5112 51.4197 62.7331 51.4854 62.9569 51.5387L63.9796 51.7944C64.3915 51.8903 64.7875 52.0199 65.1674 52.1832C65.551 52.3466 65.8936 52.5526 66.1955 52.8011C66.5009 53.0497 66.7424 53.3498 66.9199 53.7013C67.0975 54.0529 67.1863 54.4648 67.1863 54.9371C67.1863 55.5763 67.0229 56.1392 66.6962 56.6257C66.3695 57.1087 65.8972 57.4869 65.2793 57.7603C64.665 58.0302 63.921 58.1651 63.0474 58.1651C62.1987 58.1651 61.4618 58.0337 60.8368 57.771C60.2154 57.5082 59.7289 57.1246 59.3773 56.6204C59.0293 56.1161 58.8411 55.5018 58.8127 54.7773H60.7569C60.7853 55.1573 60.9025 55.4734 61.1085 55.7255C61.3145 55.9776 61.5826 56.1658 61.9128 56.2901C62.2466 56.4144 62.6195 56.4766 63.0314 56.4766C63.4611 56.4766 63.8375 56.4126 64.1607 56.2848C64.4874 56.1534 64.7431 55.9723 64.9277 55.7415C65.1124 55.5071 65.2065 55.2337 65.21 54.9212C65.2065 54.6371 65.123 54.4027 64.9597 54.218C64.7963 54.0298 64.5673 53.8736 64.2725 53.7493C63.9814 53.6214 63.6404 53.5078 63.2498 53.4084L62.0087 53.0888C61.1103 52.858 60.4 52.5082 59.878 52.0394C59.3596 51.5671 59.1003 50.9403 59.1003 50.1591C59.1003 49.5163 59.2743 48.9535 59.6223 48.4705C59.9739 47.9876 60.4515 47.6129 61.0552 47.3466C61.6589 47.0767 62.3425 46.9418 63.106 46.9418C63.8801 46.9418 64.5584 47.0767 65.1408 47.3466C65.7267 47.6129 66.1866 47.984 66.5204 48.4599C66.8542 48.9322 67.0265 49.4755 67.0371 50.0898H65.1355ZM71.6732 58H69.5638L73.4044 47.0909H75.844L79.6899 58H77.5805L74.6668 49.3281H74.5816L71.6732 58ZM71.7425 53.7227H77.4953V55.31H71.7425V53.7227ZM91.4518 50.7717H89.4596C89.4028 50.445 89.298 50.1555 89.1453 49.9034C88.9926 49.6477 88.8026 49.4311 88.5754 49.2536C88.3481 49.076 88.0889 48.9428 87.7977 48.854C87.51 48.7617 87.1993 48.7156 86.8655 48.7156C86.2725 48.7156 85.7469 48.8647 85.2888 49.163C84.8307 49.4577 84.472 49.891 84.2128 50.4627C83.9536 51.0309 83.824 51.7251 83.824 52.5455C83.824 53.38 83.9536 54.0831 84.2128 54.6548C84.4756 55.223 84.8343 55.6527 85.2888 55.9439C85.7469 56.2315 86.2707 56.3754 86.8602 56.3754C87.1869 56.3754 87.4923 56.3327 87.7764 56.2475C88.064 56.1587 88.3215 56.0291 88.5487 55.8587C88.7796 55.6882 88.9731 55.4787 89.1294 55.2301C89.2892 54.9815 89.3992 54.6974 89.4596 54.3778L91.4518 54.3885C91.3772 54.907 91.2156 55.3935 90.9671 55.848C90.722 56.3026 90.4007 56.7038 90.0029 57.0518C89.6052 57.3963 89.14 57.6662 88.6073 57.8615C88.0747 58.0533 87.4834 58.1491 86.8335 58.1491C85.8747 58.1491 85.0189 57.9272 84.2661 57.4833C83.5132 57.0394 82.9202 56.3984 82.4869 55.5604C82.0537 54.7223 81.8371 53.7173 81.8371 52.5455C81.8371 51.37 82.0555 50.3651 82.4923 49.5305C82.9291 48.6925 83.5239 48.0515 84.2767 47.6076C85.0296 47.1637 85.8818 46.9418 86.8335 46.9418C87.4408 46.9418 88.0054 47.027 88.5274 47.1974C89.0494 47.3679 89.5146 47.6183 89.923 47.9485C90.3314 48.2752 90.667 48.6765 90.9298 49.1523C91.1961 49.6246 91.3701 50.1644 91.4518 50.7717ZM94.2821 48.7475V47.0909H102.986V48.7475H99.6142V58H97.6539V48.7475H94.2821ZM108.14 47.0909V58H106.164V47.0909H108.14ZM121.528 52.5455C121.528 53.7209 121.308 54.7276 120.867 55.5657C120.431 56.4002 119.834 57.0394 119.078 57.4833C118.325 57.9272 117.471 58.1491 116.516 58.1491C115.56 58.1491 114.704 57.9272 113.948 57.4833C113.195 57.0359 112.599 56.3949 112.158 55.5604C111.722 54.7223 111.503 53.7173 111.503 52.5455C111.503 51.37 111.722 50.3651 112.158 49.5305C112.599 48.6925 113.195 48.0515 113.948 47.6076C114.704 47.1637 115.56 46.9418 116.516 46.9418C117.471 46.9418 118.325 47.1637 119.078 47.6076C119.834 48.0515 120.431 48.6925 120.867 49.5305C121.308 50.3651 121.528 51.37 121.528 52.5455ZM119.541 52.5455C119.541 51.718 119.411 51.0202 119.152 50.4521C118.897 49.8803 118.541 49.4489 118.087 49.1577C117.632 48.8629 117.109 48.7156 116.516 48.7156C115.922 48.7156 115.399 48.8629 114.944 49.1577C114.49 49.4489 114.133 49.8803 113.873 50.4521C113.618 51.0202 113.49 51.718 113.49 52.5455C113.49 53.3729 113.618 54.0724 113.873 54.6442C114.133 55.2124 114.49 55.6438 114.944 55.9386C115.399 56.2298 115.922 56.3754 116.516 56.3754C117.109 56.3754 117.632 56.2298 118.087 55.9386C118.541 55.6438 118.897 55.2124 119.152 54.6442C119.411 54.0724 119.541 53.3729 119.541 52.5455ZM115.775 46.0149L116.968 43.5806H118.854L117.219 46.0149H115.775ZM133.861 47.0909V58H132.103L126.963 50.5692H126.873V58H124.896V47.0909H126.665L131.8 54.527H131.896V47.0909H133.861Z" fill="url(#paint26_linear_434_88812)"/>
<defs>
<linearGradient id="paint0_linear_434_88812" x1="287.574" y1="57.0345" x2="216.998" y2="218.085" gradientUnits="userSpaceOnUse">
<stop stop-color="#BD30FF"/>
<stop offset="1" stop-color="#7D00FF"/>
</linearGradient>
<linearGradient id="paint1_linear_434_88812" x1="286.574" y1="4.03451" x2="215.998" y2="165.085" gradientUnits="userSpaceOnUse">
<stop stop-color="#BD30FF"/>
<stop offset="1" stop-color="#7D00FF"/>
</linearGradient>
<linearGradient id="paint2_linear_434_88812" x1="287.574" y1="62.9951" x2="218.532" y2="222.617" gradientUnits="userSpaceOnUse">
<stop stop-color="#BD30FF"/>
<stop offset="1" stop-color="#7D00FF"/>
</linearGradient>
<linearGradient id="paint3_linear_434_88812" x1="286.574" y1="9.9951" x2="217.532" y2="169.617" gradientUnits="userSpaceOnUse">
<stop stop-color="#BD30FF"/>
<stop offset="1" stop-color="#7D00FF"/>
</linearGradient>
<linearGradient id="paint4_linear_434_88812" x1="287.574" y1="68.0345" x2="216.998" y2="229.085" gradientUnits="userSpaceOnUse">
<stop stop-color="#BD30FF"/>
<stop offset="1" stop-color="#7D00FF"/>
</linearGradient>
<linearGradient id="paint5_linear_434_88812" x1="286.574" y1="15.0345" x2="215.998" y2="176.085" gradientUnits="userSpaceOnUse">
<stop stop-color="#BD30FF"/>
<stop offset="1" stop-color="#7D00FF"/>
</linearGradient>
<linearGradient id="paint6_linear_434_88812" x1="286.574" y1="-34.0049" x2="217.532" y2="125.617" gradientUnits="userSpaceOnUse">
<stop stop-color="#BD30FF"/>
<stop offset="1" stop-color="#7D00FF"/>
</linearGradient>
<linearGradient id="paint7_linear_434_88812" x1="287.574" y1="73.9951" x2="218.532" y2="233.617" gradientUnits="userSpaceOnUse">
<stop stop-color="#BD30FF"/>
<stop offset="1" stop-color="#7D00FF"/>
</linearGradient>
<linearGradient id="paint8_linear_434_88812" x1="286.574" y1="20.9951" x2="217.532" y2="180.617" gradientUnits="userSpaceOnUse">
<stop stop-color="#BD30FF"/>
<stop offset="1" stop-color="#7D00FF"/>
</linearGradient>
<linearGradient id="paint9_linear_434_88812" x1="286.574" y1="-28.9655" x2="215.998" y2="132.085" gradientUnits="userSpaceOnUse">
<stop stop-color="#BD30FF"/>
<stop offset="1" stop-color="#7D00FF"/>
</linearGradient>
<linearGradient id="paint10_linear_434_88812" x1="287.574" y1="79.0345" x2="216.998" y2="240.085" gradientUnits="userSpaceOnUse">
<stop stop-color="#BD30FF"/>
<stop offset="1" stop-color="#7D00FF"/>
</linearGradient>
<linearGradient id="paint11_linear_434_88812" x1="286.574" y1="26.0345" x2="215.998" y2="187.085" gradientUnits="userSpaceOnUse">
<stop stop-color="#BD30FF"/>
<stop offset="1" stop-color="#7D00FF"/>
</linearGradient>
<linearGradient id="paint12_linear_434_88812" x1="286.574" y1="-23.0049" x2="217.532" y2="136.617" gradientUnits="userSpaceOnUse">
<stop stop-color="#BD30FF"/>
<stop offset="1" stop-color="#7D00FF"/>
</linearGradient>
<linearGradient id="paint13_linear_434_88812" x1="287.574" y1="84.9951" x2="218.532" y2="244.617" gradientUnits="userSpaceOnUse">
<stop stop-color="#BD30FF"/>
<stop offset="1" stop-color="#7D00FF"/>
</linearGradient>
<linearGradient id="paint14_linear_434_88812" x1="286.574" y1="31.9951" x2="217.532" y2="191.617" gradientUnits="userSpaceOnUse">
<stop stop-color="#BD30FF"/>
<stop offset="1" stop-color="#7D00FF"/>
</linearGradient>
<linearGradient id="paint15_linear_434_88812" x1="286.574" y1="-17.9655" x2="215.998" y2="143.085" gradientUnits="userSpaceOnUse">
<stop stop-color="#BD30FF"/>
<stop offset="1" stop-color="#7D00FF"/>
</linearGradient>
<linearGradient id="paint16_linear_434_88812" x1="287.574" y1="90.0345" x2="216.998" y2="251.085" gradientUnits="userSpaceOnUse">
<stop stop-color="#BD30FF"/>
<stop offset="1" stop-color="#7D00FF"/>
</linearGradient>
<linearGradient id="paint17_linear_434_88812" x1="286.574" y1="37.0345" x2="215.998" y2="198.085" gradientUnits="userSpaceOnUse">
<stop stop-color="#BD30FF"/>
<stop offset="1" stop-color="#7D00FF"/>
</linearGradient>
<linearGradient id="paint18_linear_434_88812" x1="286.574" y1="-12.0049" x2="217.532" y2="147.617" gradientUnits="userSpaceOnUse">
<stop stop-color="#BD30FF"/>
<stop offset="1" stop-color="#7D00FF"/>
</linearGradient>
<linearGradient id="paint19_linear_434_88812" x1="286.574" y1="42.9951" x2="217.532" y2="202.617" gradientUnits="userSpaceOnUse">
<stop stop-color="#BD30FF"/>
<stop offset="1" stop-color="#7D00FF"/>
</linearGradient>
<linearGradient id="paint20_linear_434_88812" x1="286.574" y1="-6.96549" x2="215.998" y2="154.085" gradientUnits="userSpaceOnUse">
<stop stop-color="#BD30FF"/>
<stop offset="1" stop-color="#7D00FF"/>
</linearGradient>
<linearGradient id="paint21_linear_434_88812" x1="286.574" y1="48.0345" x2="215.998" y2="209.085" gradientUnits="userSpaceOnUse">
<stop stop-color="#BD30FF"/>
<stop offset="1" stop-color="#7D00FF"/>
</linearGradient>
<linearGradient id="paint22_linear_434_88812" x1="286.574" y1="-1.0049" x2="217.532" y2="158.617" gradientUnits="userSpaceOnUse">
<stop stop-color="#BD30FF"/>
<stop offset="1" stop-color="#7D00FF"/>
</linearGradient>
<linearGradient id="paint23_linear_434_88812" x1="286.574" y1="53.9951" x2="217.532" y2="213.617" gradientUnits="userSpaceOnUse">
<stop stop-color="#BD30FF"/>
<stop offset="1" stop-color="#7D00FF"/>
</linearGradient>
<linearGradient id="paint24_linear_434_88812" x1="23.3662" y1="0.231445" x2="184.566" y2="102.259" gradientUnits="userSpaceOnUse">
<stop stop-color="#B62CFF"/>
<stop offset="1" stop-color="#7D00FF"/>
</linearGradient>
<linearGradient id="paint25_linear_434_88812" x1="74.7695" y1="85" x2="86.3758" y2="128.301" gradientUnits="userSpaceOnUse">
<stop stop-color="#B62CFF"/>
<stop offset="1" stop-color="#7D00FF"/>
</linearGradient>
<linearGradient id="paint26_linear_434_88812" x1="10.5" y1="44" x2="20.531" y2="88.132" gradientUnits="userSpaceOnUse">
<stop stop-color="#B62CFF"/>
<stop offset="1" stop-color="#7D00FF"/>
</linearGradient>
</defs>
</svg>
