<svg width="15" height="10" viewBox="0 0 15 10" fill="none" xmlns="http://www.w3.org/2000/svg">
<path d="M14.0661 2.6852C14.0661 2.6852 13.9349 1.82476 13.5306 1.44694C13.0187 0.949699 12.4465 0.94726 12.184 0.918009C10.3045 0.79126 7.4826 0.79126 7.4826 0.79126H7.47742C7.47742 0.79126 4.6555 0.79126 2.77601 0.918009C2.51351 0.94726 1.94126 0.949699 1.42939 1.44694C1.02513 1.82476 0.896512 2.6852 0.896512 2.6852C0.896512 2.6852 0.76001 3.69675 0.76001 4.7059V5.6516C0.76001 6.66075 0.893882 7.6723 0.893882 7.6723C0.893882 7.6723 1.02513 8.53275 1.42676 8.9106C1.93863 9.40779 2.61063 9.3908 2.90988 9.44436C3.98614 9.5394 7.48001 9.56868 7.48001 9.56868C7.48001 9.56868 10.3045 9.56379 12.184 9.43947C12.4465 9.41028 13.0187 9.40779 13.5306 8.9106C13.9349 8.53275 14.0661 7.6723 14.0661 7.6723C14.0661 7.6723 14.2 6.66315 14.2 5.6516V4.7059C14.2 3.69675 14.0661 2.6852 14.0661 2.6852ZM6.09137 6.79966V3.29211L9.7218 5.05198L6.09137 6.79966Z" fill="white"/>
</svg>
